<svg viewBox="0 0 600 400" xmlns="http://www.w3.org/2000/svg">
<g transform="translate(72, 364)">
<g>
<g>
<path d="M0,0 L0,0 L1.3994169,-2.436724 L2.7988338,-30.608515 L4.198251,-186.12405 L5.5976677,-279.6254 L6.9970846,-340 L8.396502,-340 L9.795918,-319.7 L11.195335,-290.5499 L12.594752,-264.8058 L13.994169,-148.30501 L15.393586,-138.31352 L16.793003,-116.899345 L18.19242,-116.899345 L19.591837,-98.54692 L20.991253,-94.25321 L22.39067,-78.02046 L23.790087,-69.08883 L25.189505,-68.78084 L26.58892,-76.74322 L27.988338,-74.089096 L29.387754,-72.630684 L30.787172,-78.772316 L32.18659,-80.1492 L33.586006,-80.1492 L34.985424,-75.23952 L36.38484,-63.074013 L37.784256,-60.51047 L39.183674,-52.149517 L40.58309,-52.674908 L41.982506,-55.37433 L43.381924,-58.517612 L44.78134,-58.517612 L46.18076,-59.40534 L47.580173,-60.193424 L48.97959,-60.193424 L50.37901,-86.99739 L51.778427,-90.62983 L53.17784,-91.73496 L54.57726,-96.38195 L55.976677,-94.20792 L57.376095,-95.847496 L58.77551,-96.41818 L60.174927,-94.697075 L61.574345,-92.48681 L62.973763,-88.77284 L64.37318,-88.77284 L65.7726,-102.442055 L67.17201,-99.38935 L68.57143,-104.34433 L69.97085,-104.34433 L71.37026,-103.76459 L72.76968,-104.69761 L74.1691,-109.82469 L75.56851,-110.17797 L76.96793,-110.97511 L78.36735,-109.38083 L79.76676,-107.21586 L81.16618,-104.65231 L82.5656,-104.65231 L83.96501,-111.283104 L85.36443,-111.0657 L86.76385,-111.23781 L88.16327,-109.290245 L89.56268,-109.7794 L90.9621,-109.7794 L92.36152,-110.97511 L93.76093,-110.929825 L95.16035,-107.26115 L96.55977,-104.824425 L97.95918,-104.824425 L99.3586,-110.22327 L100.75802,-111.89908 L102.15743,-112.786804 L103.556854,-114.02782 L104.95627,-115.6674 L106.35568,-115.748924 L107.755104,-116.591354 L109.15452,-118.230934 L110.55393,-118.230934 L111.953354,-124.997604 L113.35277,-124.37257 L114.75219,-123.14062 L116.1516,-122.74205 L117.55102,-123.004745 L118.95044,-129.41812 L120.34985,-132.33495 L121.74927,-130.0341 L123.14869,-130.0341 L124.5481,-127.515854 L125.947525,-122.78734 L127.34694,-124.200455 L128.74635,-123.31273 L130.14577,-122.78734 L131.5452,-123.14062 L132.94461,-120.395905 L134.34402,-111.89908 L135.74344,-104.77914 L137.14285,-104.77914 L138.54227,-96.78052 L139.9417,-97.215324 L141.34111,-99.03607 L142.74052,-99.03607 L144.13994,-102.70475 L145.53935,-109.96057 L146.93878,-115.884796 L148.3382,-119.02808 L149.73761,-124.90702 L151.13702,-125.08819 L152.53644,-125.79475 L153.93587,-125.96686 L155.33528,-130.12468 L156.7347,-134.23723 L158.13411,-134.23723 L159.53352,-132.95998 L160.93294,-126.85458 L162.33237,-113.67454 L163.73178,-111.944374 L165.1312,-105.84803 L166.53061,-104.20845 L167.93002,-105.88426 L169.32945,-111.59109 L170.72887,-98.637505 L172.12828,-110.48596 L173.5277,-110.48596 L174.92711,-111.5458 L176.32654,-118.230934 L177.72595,-114.426384 L179.12537,-126.45602 L180.52478,-133.88394 L181.9242,-136.01268 L183.32361,-126.673416 L184.72304,-122.696754 L186.12245,-106.41872 L187.52187,-101.41845 L188.92128,-103.1939 L190.3207,-122.47029 L191.72012,-129.06485 L193.11954,-124.37257 L194.51895,-124.37257 L195.91837,-111.89908 L197.31778,-108.85544 L198.7172,-108.45686 L200.11662,-105.88426 L201.51604,-105.62157 L202.91545,-103.76459 L204.31487,-104.02728 L205.71428,-102.39676 L207.11371,-102.39676 L208.51312,-102.92215 L209.91254,-102.87686 L211.31195,-102.795334 L212.71136,-101.77173 L214.1108,-102.04348 L215.51021,-101.9076 L216.90962,-95.80221 L218.30904,-91.2911 L219.70845,-87.53184 L221.10786,-92.042946 L222.5073,-86.87057 L223.90671,-86.87057 L225.30612,-137.77908 L226.70554,-143.83919 L228.10495,-161.34918 L229.50438,-156.97394 L230.9038,-139.50018 L232.3032,-139.50018 L233.70262,-124.37257 L235.10204,-112.29765 L236.50146,-110.97511 L237.90088,-132.95998 L239.3003,-139.23749 L240.6997,-124.508446 L242.09912,-116.899345 L243.49854,-107.30644 L244.89796,-105.66686 L246.29738,-102.04348 L247.6968,-106.23754 L249.0962,-103.71929 L250.49562,-103.71929 L251.89505,-105.00559 L253.29446,-110.576546 L254.69388,-110.75771 L256.0933,-109.25401 L257.4927,-111.68168 L258.89212,-109.60729 L260.29153,-109.7794 L261.69095,-109.7794 L263.0904,-124.861725 L264.4898,-112.96798 L265.88922,-110.268555 L267.28864,-112.34294 L268.68805,-118.185646 L270.08746,-119.90675 L271.48688,-116.63665 L272.8863,-116.14749 L274.2857,-113.84665 L275.68512,-113.84665 L277.08453,-114.55321 L278.48398,-116.98993 L279.8834,-117.69649 L281.2828,-118.62951 L282.68222,-115.93009 L284.08163,-115.93009 L285.48105,-115.6221 L286.88046,-117.95918 L288.27988,-117.83237 L289.6793,-118.674805 L291.0787,-121.193054 L292.47812,-124.200455 L293.87756,-123.7113 L295.27698,-123.7113 L296.6764,-120.395905 L298.0758,-120.79448 L299.47522,-127.47056 L300.87463,-130.96712 L302.27405,-130.96712 L303.67346,-114.47168 L305.07288,-111.0657 L306.4723,-118.04977 L307.87173,-115.6221 L309.27115,-107.17056 L310.67056,-111.147224 L312.06998,-109.33553 L313.4694,-113.18538 L314.8688,-105.44946 L316.26822,-108.36628 L317.66763,-112.12554 L319.06705,-112.12554 L320.46646,-114.47168 L321.86588,-110.929825 L323.26532,-107.61443 L324.66473,-114.68908 L326.06415,-115.6674 L327.46356,-114.19993 L328.86298,-117.74178 L330.2624,-111.02041 L331.6618,-111.02041 L333.06122,-119.29078 L334.46063,-115.04236 L335.86005,-119.29078 L337.25946,-118.14035 L338.6589,-115.35035 L340.05832,-118.09506 L341.45773,-121.682205 L342.85715,-129.5993 L344.25656,-129.5993 L345.65598,-129.5993 L347.0554,-129.5993 L348.4548,-100.75718 L349.85422,-102.75004 L351.25363,-107.92242 L352.65308,-109.51671 L354.0525,-114.426384 L355.4519,-121.85432 L356.85132,-125.61358 L358.25073,-125.79475 L359.65015,-125.44147 L361.04956,-123.89247 L362.44897,-123.89247 L363.8484,-114.598495 L365.2478,-105.44946 L366.64722,-126.05744 L368.04666,-123.4939 L369.44608,-120.703896 L370.8455,-122.95945 L372.2449,-108.411575 L373.64432,-96.15549 L375.04373,-84.61501 L376.44315,-88.32898 L377.84256,-97.6139 L379.24197,-102.12501 L380.6414,-105.132416 L382.0408,-105.132416 L383.44025,-110.04209 L384.83966,-123.09533 L386.23907,-124.15517 L387.6385,-140.83177 L389.0379,-146.00415 L390.43732,-142.59818 L391.83673,-142.59818 L393.23615,-130.52325 L394.63556,-121.9449 L396.03497,-116.05691 L397.4344,-101.77173 L398.83383,-93.32925 L400.23325,-93.45607 L401.63266,-98.23893 L403.03207,-102.35147 L404.4315,-109.38083 L405.8309,-118.230934 L407.23032,-121.682205 L408.62973,-121.682205 L410.02914,-117.6059 L411.42856,-110.53125 L412.828,-110.71242 L414.22742,-118.71104 L415.62683,-136.1848 L417.02625,-151.44829 L418.42566,-149.10214 L419.82507,-140.07993 L421.2245,-131.93637 L422.6239,-121.193054 L424.02332,-115.70363 L425.42273,-115.70363 L426.82214,-111.0657 L428.2216,-100.97459 L429.621,-89.78739 L431.02042,-82.17829 L432.41983,-80.67459 L433.81924,-76.51676 L435.21866,-76.51676 L436.61807,-74.089096 L438.0175,-76.03666 L439.4169,-77.84835 L440.8163,-80.85576 L442.21573,-115.93009 L443.61517,-125.92156 L445.0146,-148.65828 L446.414,-148.65828 L447.81342,-108.982254 L449.21283,-110.08739 L450.61224,-135.65941 L452.01166,-135.65941 L453.41107,-115.44093 L454.8105,-113.49336 L456.2099,-109.42612 L457.60934,-96.59935 L459.00876,-89.47941 L460.40817,-80.90105 L461.8076,-78.246925 L463.207,-79.87744 L464.6064,-84.216446 L466.00583,-78.20163 L467.40524,-77.75777 L468.80466,-96.508766 L470.20407,-95.358345 L471.6035,-95.358345 L473.00293,-95.358345 L474.40234,-126.45602 L475.80176,-148.74887 L477.20117,-141.44775 L478.6006,-121.76373 L480,-111.19252" fill="none" stroke="#ff0000" stroke-linejoin="round" stroke-width="2"/>
</g>
</g>
<g transform="translate(380, -340)">
<text font-size="12" text-anchor="start" x="0" y="0">
accel
</text>
<line stroke="#ff0000" stroke-width="2" x1="-10" x2="-3" y1="-4" y2="-4"/>
</g>
<g>
<g>
<line stroke="black" stroke-width="1" x1="0.0002518951283112729" x2="0.0002518951283112729" y1="0" y2="10"/>
<line stroke="black" stroke-width="1" x1="120.35010612256093" x2="120.35010612256093" y1="0" y2="10"/>
<line stroke="black" stroke-width="1" x1="240.69996034999355" x2="240.69996034999355" y1="0" y2="10"/>
<line stroke="black" stroke-width="1" x1="361.04981457742616" x2="361.04981457742616" y1="0" y2="10"/>
</g>
<line stroke="black" stroke-width="1" x1="0" x2="480" y1="0" y2="0"/>
<g>
<text font-size="12" text-anchor="middle" x="0.0002518951283112729" y="20">
76.02326
</text>
<text font-size="12" text-anchor="middle" x="120.35010612256093" y="20">
78.02326
</text>
<text font-size="12" text-anchor="middle" x="240.69996034999355" y="20">
80.02326
</text>
<text font-size="12" text-anchor="middle" x="361.04981457742616" y="20">
82.02326
</text>
</g>
<text font-size="12" text-anchor="middle" x="240" y="30">
Time (s)
</text>
</g>
<g>
<g>
<line stroke="black" stroke-width="1" x1="0" x2="-10" y1="-25.653540789684012" y2="-25.653540789684012"/>
<line stroke="black" stroke-width="1" x1="0" x2="-10" y1="-116.23807747642137" y2="-116.23807747642137"/>
<line stroke="black" stroke-width="1" x1="0" x2="-10" y1="-206.82261416315873" y2="-206.82261416315873"/>
<line stroke="black" stroke-width="1" x1="0" x2="-10" y1="-297.4071508498961" y2="-297.4071508498961"/>
</g>
<line stroke="black" stroke-width="1" x1="0" x2="0" y1="0" y2="-340"/>
<g>
<text dominant-baseline="middle" font-size="12" text-anchor="end" x="-15" y="-25.653540789684012">
-1
</text>
<text dominant-baseline="middle" font-size="12" text-anchor="end" x="-15" y="-116.23807747642137">
0
</text>
<text dominant-baseline="middle" font-size="12" text-anchor="end" x="-15" y="-206.82261416315873">
1
</text>
<text dominant-baseline="middle" font-size="12" text-anchor="end" x="-15" y="-297.4071508498961">
2
</text>
</g>
<text font-size="12" text-anchor="middle" transform="rotate(-90 -24 -170)" x="-24" y="-182">
Accel (g)
</text>
</g>
</g>
</svg>