<svg viewBox="0 0 600 400" xmlns="http://www.w3.org/2000/svg">
<g transform="translate(72, 364)">
<g>
<g>
<path d="M0,-99.10725 L0,-99.10725 L1.3753582,-92.39813 L2.7507164,-84.63979 L4.1260743,-78.35923 L5.501433,-72.51462 L6.876791,-72.01217 L8.252149,-81.5734 L9.627507,-81.5734 L11.002866,-103.90264 L12.378223,-168.19342 L13.753582,-185.26176 L15.12894,-163.39803 L16.504297,-167.15158 L17.879656,-156.14952 L19.255014,-143.95045 L20.630373,-145.576 L22.005732,-152.86147 L23.381088,-174.58481 L24.756447,-174.58481 L26.131805,-150.48224 L27.507164,-132.409 L28.88252,-106.06759 L30.25788,-92.13952 L31.633238,-76.12039 L33.008595,-68.044334 L34.383953,-63.56666 L35.75931,-61.76377 L37.13467,-69.98761 L38.51003,-69.98761 L39.885387,-82.11279 L41.260746,-117.39476 L42.636105,-158.31447 L44.011463,-163.86353 L45.386818,-151.45757 L46.762177,-148.81973 L48.137535,-157.5534 L49.512894,-147.55623 L50.888252,-156.7628 L52.26361,-173.42476 L53.63897,-173.42476 L55.014328,-143.23373 L56.389687,-134.9286 L57.76504,-123.786156 L59.1404,-118.909485 L60.51576,-114.00326 L61.891117,-106.75475 L63.266476,-100.65891 L64.64183,-98.567856 L66.01719,-95.64185 L67.39255,-95.64185 L68.76791,-91.27502 L70.143265,-86.08063 L71.51862,-99.72053 L72.89398,-115.702705 L74.26934,-139.80528 L75.6447,-153.14963 L77.02006,-155.8909 L78.39542,-163.25024 L79.770775,-164.51375 L81.14613,-157.05096 L82.52149,-164.29947 L83.89685,-164.29947 L85.27221,-140.99489 L86.64757,-139.22894 L88.02293,-159.8292 L89.39828,-137.74377 L90.773636,-127.79094 L92.148994,-131.93611 L93.52435,-126.70477 L94.89971,-117.29132 L96.27507,-116.10171 L97.65043,-116.10171 L99.02579,-115.776596 L100.401146,-115.880035 L101.776505,-112.887535 L103.15186,-113.426926 L104.52722,-115.200264 L105.90258,-113.36043 L107.27794,-112.02303 L108.6533,-115.05248 L110.028656,-116.92926 L111.404015,-116.92926 L112.77937,-117.21743 L114.154724,-121.436485 L115.53008,-124.251656 L116.90544,-125.11616 L118.2808,-133.38434 L119.65616,-132.44594 L121.03152,-132.66022 L122.406876,-135.3276 L123.782234,-141.35695 L125.15759,-154.92296 L126.53295,-168.91753 L127.90831,-168.91753 L129.28366,-178.44182 L130.65903,-170.18103 L132.03438,-157.80463 L133.40974,-148.85667 L134.7851,-141.35695 L136.16046,-140.88406 L137.53581,-137.13051 L138.91118,-137.24133 L140.28653,-135.07639 L141.6619,-135.07639 L143.03725,-125.44127 L144.41261,-122.04977 L145.78796,-118.443985 L147.16333,-117.32826 L148.53868,-115.953926 L149.91405,-111.33587 L151.2894,-105.66859 L152.66475,-102.89775 L154.04012,-102.57264 L155.41547,-102.57264 L156.79083,-101.95936 L158.16618,-102.82386 L159.54155,-111.08465 L160.9169,-106.14147 L162.29227,-116.168205 L163.66762,-117.8307 L165.04298,-118.80604 L166.41833,-119.34543 L167.7937,-124.93883 L169.16905,-129.084 L170.54442,-138.29056 L171.91977,-144.778 L173.29514,-164.0113 L174.67049,-164.0113 L176.04585,-169.85591 L177.4212,-176.9271 L178.79655,-174.79909 L180.17192,-151.4945 L181.54727,-135.18723 L182.92264,-122.30099 L184.29799,-128.1456 L185.67336,-139.58362 L187.0487,-139.58362 L188.42407,-132.409 L189.79942,-121.473434 L191.17479,-119.78137 L192.55014,-117.71987 L193.9255,-127.46583 L195.30086,-132.37206 L196.67622,-127.79094 L198.05157,-127.79094 L199.42694,-126.4166 L200.80229,-128.9436 L202.17764,-128.9436 L203.55301,-134.78822 L204.92836,-139.69444 L206.30373,-143.55145 L207.67908,-141.17223 L209.05444,-136.37683 L210.4298,-123.52754 L211.80516,-118.00804 L213.18051,-128.79582 L214.55588,-131.18243 L215.93123,-127.79094 L217.3066,-127.79094 L218.68195,-111.26198 L220.05731,-124.72455 L221.43266,-138.14278 L222.80803,-136.87927 L224.18338,-124.72455 L225.55875,-124.39944 L226.9341,-124.000435 L228.30945,-124.000435 L229.68481,-124.000435 L231.06017,-159.96957 L232.43553,-147.34195 L233.81088,-140.77322 L235.18625,-135.43845 L236.5616,-133.48778 L237.93697,-130.82039 L239.31232,-127.68011 L240.68768,-119.55971 L242.06303,-117.8307 L243.4384,-115.48843 L244.81375,-115.48843 L246.18912,-121.510376 L247.56447,-128.18256 L248.93983,-133.12572 L250.31519,-135.51233 L251.69055,-134.71432 L253.0659,-129.0175 L254.44125,-127.42888 L255.81662,-123.4241 L257.192,-121.62121 L258.56732,-121.007935 L259.9427,-113.21265 L261.31805,-123.0251 L262.69342,-123.0251 L264.06876,-143.01205 L265.44412,-145.42822 L266.8195,-147.81485 L268.19485,-143.48495 L269.5702,-138.17972 L270.94556,-133.31044 L272.32092,-129.26872 L273.6963,-129.12094 L275.07162,-120.17299 L276.447,-120.17299 L277.82236,-122.23449 L279.1977,-120.60893 L280.57306,-120.970985 L281.94843,-123.06204 L283.3238,-121.83549 L284.69913,-123.461044 L286.0745,-129.3426 L287.44986,-129.3426 L288.82523,-145.93806 L290.20056,-146.40356 L291.57593,-140.4555 L292.9513,-127.17766 L294.32666,-116.02782 L295.702,-116.02782 L297.07736,-128.40422 L298.45273,-127.71705 L299.8281,-126.4166 L301.20343,-123.67532 L302.5788,-123.38715 L303.95416,-128.40422 L305.3295,-128.04216 L306.70486,-131.64793 L308.08023,-131.64793 L309.4556,-126.4166 L310.83093,-130.96077 L312.2063,-125.80332 L313.58167,-129.8081 L314.95703,-129.59383 L316.33237,-125.69249 L317.70773,-126.453545 L319.0831,-124.177765 L320.45847,-124.177765 L321.8338,-125.988045 L323.20917,-127.066826 L324.58453,-128.18256 L325.9599,-126.0176 L327.33524,-126.527435 L328.7106,-129.15788 L330.08597,-126.85255 L331.4613,-131.75877 L332.83667,-125.22699 L334.21204,-125.22699 L335.5874,-129.73422 L336.96274,-124.90188 L338.3381,-125.91416 L339.71347,-122.19755 L341.08884,-124.539825 L342.46417,-122.91427 L343.83954,-119.2346 L345.2149,-123.56449 L346.59027,-124.39944 L347.9656,-124.39944 L349.34097,-132.37206 L350.71634,-122.52266 L352.0917,-124.000435 L353.46704,-123.56449 L354.8424,-128.47072 L356.21777,-125.33782 L357.5931,-129.44604 L358.96848,-131.83266 L360.34384,-126.49049 L361.7192,-126.49049 L363.09454,-132.8745 L364.4699,-131.43367 L365.84528,-128.47072 L367.22064,-135.43845 L368.59598,-132.91144 L369.97134,-131.611 L371.3467,-131.611 L372.72208,-130.60611 L374.0974,-132.66022 L375.47278,-134.8621 L376.84814,-132.73412 L378.2235,-131.39671 L379.59885,-132.5494 L380.9742,-133.77594 L382.34958,-133.77594 L383.7249,-122.30099 L385.10028,-122.30099 L386.47565,-122.30099 L387.851,-122.30099 L389.22635,-124.288605 L390.6017,-126.05455 L391.97708,-131.57405 L393.35245,-131.57405 L394.72778,-131.57405 L396.10315,-139.08118 L397.47852,-143.30023 L398.85388,-140.99489 L400.22922,-137.96544 L401.60458,-133.88678 L402.97995,-130.70955 L404.3553,-132.18733 L405.73065,-132.18733 L407.10602,-139.6575 L408.48138,-141.35695 L409.85672,-134.9286 L411.2321,-131.79572 L412.60745,-128.33032 L413.98282,-129.37955 L415.35815,-133.56166 L416.73352,-133.12572 L418.1089,-132.8745 L419.48425,-129.95589 L420.8596,-125.84027 L422.23495,-125.84027 L423.61032,-123.926544 L424.9857,-117.904594 L426.36102,-117.94154 L427.7364,-119.1681 L429.11176,-120.78626 L430.4871,-121.185265 L431.86246,-114.15104 L433.23782,-113.03532 L434.6132,-113.03532 L435.98853,-111.73487 L437.3639,-111.94915 L438.73926,-117.904594 L440.11462,-121.259155 L441.48996,-120.0326 L442.86533,-117.50559 L444.2407,-118.04498 L445.61606,-116.92926 L446.9914,-113.28654 L448.36676,-113.28654 L449.74213,-159.57057 L451.1175,-184.36032 L452.49283,-230.50397 L453.8682,-230.50397 L455.24356,-163.68619 L456.6189,-119.99565 L457.99426,-2.0541127 L459.36963,-50.93904 L460.745,-128.1456 L462.12033,-77.70901 L463.4957,-28.395523 L464.87106,-28.395523 L466.24643,-33.013584 L467.62177,0 L468.99713,-27.095078 L470.3725,-31.42497 L471.74786,-46.28404 L473.1232,-66.307945 L474.49857,-66.307945 L475.87393,-112.59937 L477.2493,-265.93372 L478.62463,-309.94937 L480,-340" fill="none" stroke="#ff0000" stroke-linejoin="round" stroke-width="2"/>
</g>
</g>
<g transform="translate(380, -340)">
<text font-size="12" text-anchor="start" x="0" y="0">
accel
</text>
<line stroke="#ff0000" stroke-width="2" x1="-10" x2="-3" y1="-4" y2="-4"/>
</g>
<g>
<g>
<line stroke="black" stroke-width="1" x1="-0.00000000007045977936728532" x2="-0.00000000007045977936728532" y1="0" y2="10"/>
<line stroke="black" stroke-width="1" x1="96.27507163315573" x2="96.27507163315573" y1="0" y2="10"/>
<line stroke="black" stroke-width="1" x1="192.55014326638192" x2="192.55014326638192" y1="0" y2="10"/>
<line stroke="black" stroke-width="1" x1="288.8252148996081" x2="288.8252148996081" y1="0" y2="10"/>
<line stroke="black" stroke-width="1" x1="385.10028653283433" x2="385.10028653283433" y1="0" y2="10"/>
</g>
<line stroke="black" stroke-width="1" x1="0" x2="480" y1="0" y2="0"/>
<g>
<text font-size="12" text-anchor="middle" x="-0.00000000007045977936728532" y="20">
45
</text>
<text font-size="12" text-anchor="middle" x="96.27507163315573" y="20">
47
</text>
<text font-size="12" text-anchor="middle" x="192.55014326638192" y="20">
49
</text>
<text font-size="12" text-anchor="middle" x="288.8252148996081" y="20">
51
</text>
<text font-size="12" text-anchor="middle" x="385.10028653283433" y="20">
53
</text>
</g>
<text font-size="12" text-anchor="middle" x="240" y="30">
Time (s)
</text>
</g>
<g>
<g>
<line stroke="black" stroke-width="1" x1="0" x2="-10" y1="-57.18265782896883" y2="-57.18265782896883"/>
<line stroke="black" stroke-width="1" x1="0" x2="-10" y1="-131.0716070846463" y2="-131.0716070846463"/>
<line stroke="black" stroke-width="1" x1="0" x2="-10" y1="-204.96055634032385" y2="-204.96055634032385"/>
<line stroke="black" stroke-width="1" x1="0" x2="-10" y1="-278.84950559600134" y2="-278.84950559600134"/>
</g>
<line stroke="black" stroke-width="1" x1="0" x2="0" y1="0" y2="-340"/>
<g>
<text dominant-baseline="middle" font-size="12" text-anchor="end" x="-15" y="-57.18265782896883">
-1
</text>
<text dominant-baseline="middle" font-size="12" text-anchor="end" x="-15" y="-131.0716070846463">
0
</text>
<text dominant-baseline="middle" font-size="12" text-anchor="end" x="-15" y="-204.96055634032385">
1
</text>
<text dominant-baseline="middle" font-size="12" text-anchor="end" x="-15" y="-278.84950559600134">
2
</text>
</g>
<text font-size="12" text-anchor="middle" transform="rotate(-90 -24 -170)" x="-24" y="-182">
Accel (g)
</text>
</g>
</g>
</svg>