<svg viewBox="0 0 600 400" xmlns="http://www.w3.org/2000/svg">
<g transform="translate(72, 364)">
<g>
<g>
<path d="M0,-191.12132 L0,-191.12132 L1.3753582,-190.4295 L2.7507164,-189.87076 L4.1260743,-189.18565 L5.501433,-188.48984 L6.876791,-187.8571 L8.252149,-187.98488 L9.627507,-188.10878 L11.002866,-188.53534 L12.378223,-189.76097 L13.753582,-190.65514 L15.12894,-192.13211 L16.504297,-193.58565 L17.879656,-195.20352 L19.255014,-196.72462 L20.630373,-197.92027 L22.005732,-199.07024 L23.381088,-199.97685 L24.756447,-200.88014 L26.131805,-201.75563 L27.507164,-202.16455 L28.88252,-202.0143 L30.25788,-201.62549 L31.633238,-201.11136 L33.008595,-200.66582 L34.383953,-200.42004 L35.75931,-200.19786 L37.13467,-199.94997 L38.51003,-199.69789 L39.885387,-199.50299 L41.260746,-199.4634 L42.636105,-199.75462 L44.011463,-200.83984 L45.386818,-202.3485 L46.762177,-204.50426 L48.137535,-207.00423 L49.512894,-208.63916 L50.888252,-209.59792 L52.26361,-209.89221 L53.63897,-210.18387 L55.014328,-210.41866 L56.389687,-210.60936 L57.76504,-210.53938 L59.1404,-210.33437 L60.51576,-210.1273 L61.891117,-209.78107 L63.266476,-209.23825 L64.64183,-208.68964 L66.01719,-207.95116 L67.39255,-207.21419 L68.76791,-206.40211 L70.143265,-205.59229 L71.51862,-204.93047 L72.89398,-204.81018 L74.26934,-204.9547 L75.6447,-205.66946 L77.02006,-206.7246 L78.39542,-207.77605 L79.770775,-209.125 L81.14613,-210.63045 L82.52149,-211.77452 L83.89685,-212.91545 L85.27221,-213.6724 L86.64757,-214.18578 L88.02293,-214.6216 L89.39828,-215.1778 L90.773636,-215.80627 L92.148994,-216.50446 L93.52435,-217.1599 L94.89971,-217.55515 L96.27507,-217.55748 L97.65043,-217.54846 L99.02579,-216.94638 L100.401146,-216.36559 L101.776505,-215.94446 L103.15186,-215.46072 L104.52722,-214.78299 L105.90258,-214.0854 L107.27794,-213.24213 L108.6533,-212.37944 L110.028656,-211.54628 L111.404015,-210.70897 L112.77937,-209.99377 L114.154724,-209.14131 L115.53008,-208.342 L116.90544,-207.36842 L118.2808,-206.5211 L119.65616,-205.67459 L121.03152,-204.91884 L122.406876,-204.428 L123.782234,-203.5523 L125.15759,-203.2263 L126.53295,-202.56772 L127.90831,-201.91005 L129.28366,-201.6392 L130.65903,-201.37009 L132.03438,-201.33641 L133.40974,-201.71643 L134.7851,-201.7932 L136.16046,-202.0227 L137.53581,-202.41653 L138.91118,-202.81906 L140.28653,-203.12857 L141.6619,-203.4353 L143.03725,-203.90286 L144.41261,-204.30565 L145.78796,-204.66931 L147.16333,-204.77898 L148.53868,-204.95572 L149.91405,-205.02391 L151.2894,-204.95355 L152.66475,-204.7623 L154.04012,-204.5118 L155.41547,-204.26685 L156.79083,-203.92532 L158.16618,-203.5083 L159.54155,-203.37672 L160.9169,-203.1323 L162.29227,-203.17627 L163.66762,-203.50296 L165.04298,-203.76749 L166.41833,-203.94794 L167.7937,-204.04419 L169.16905,-203.98735 L170.54442,-203.9986 L171.91977,-203.87347 L173.29514,-203.45177 L174.67049,-203.04056 L176.04585,-202.41014 L177.4212,-201.50906 L178.79655,-200.88255 L180.17192,-200.82443 L181.54727,-201.07234 L182.92264,-201.33603 L184.29799,-201.48885 L185.67336,-201.22964 L187.0487,-200.9436 L188.42407,-200.48291 L189.79942,-199.98442 L191.17479,-199.14958 L192.55014,-198.22133 L193.9255,-197.15823 L195.30086,-195.63216 L196.67622,-193.67323 L198.05157,-191.04382 L199.42694,-187.96149 L200.80229,-184.39648 L202.17764,-180.90044 L203.55301,-177.1981 L204.92836,-173.36179 L206.30373,-169.61395 L207.67908,-166.13324 L209.05444,-163.33913 L210.4298,-161.54063 L211.80516,-160.20335 L213.18051,-159.31108 L214.55588,-158.5606 L215.93123,-158.69902 L217.3066,-159.43181 L218.68195,-160.33363 L220.05731,-161.71823 L221.43266,-163.22865 L222.80803,-164.51965 L224.18338,-165.28004 L225.55875,-165.96796 L226.9341,-166.03323 L228.30945,-166.22484 L229.68481,-166.53699 L231.06017,-169.34903 L232.43553,-172.00139 L233.81088,-175.06778 L235.18625,-178.03984 L236.5616,-180.97305 L237.93697,-184.03145 L239.31232,-186.94835 L240.68768,-189.71504 L242.06303,-192.25136 L243.4384,-194.71246 L244.81375,-197.18365 L246.18912,-199.02051 L247.56447,-200.69409 L248.93983,-202.2566 L250.31519,-202.91269 L251.69055,-203.86557 L253.0659,-203.76955 L254.44125,-203.35922 L255.81662,-203.48701 L257.192,-203.00952 L258.56732,-202.36766 L259.9427,-201.23296 L261.31805,-200.66896 L262.69342,-200.10664 L264.06876,-199.8727 L265.44412,-200.17416 L266.8195,-201.14534 L268.19485,-202.18668 L269.5702,-203.20215 L270.94556,-204.15976 L272.32092,-204.8847 L273.6963,-205.93794 L275.07162,-206.49403 L276.447,-206.97267 L277.82236,-206.93456 L279.1977,-206.88467 L280.57306,-206.70978 L281.94843,-206.44766 L283.3238,-206.04982 L284.69913,-205.4486 L286.0745,-204.87663 L287.44986,-204.30606 L288.82523,-203.5303 L290.20056,-202.96094 L291.57593,-202.53976 L292.9513,-202.46527 L294.32666,-202.78287 L295.702,-203.10869 L297.07736,-203.18707 L298.45273,-203.61407 L299.8281,-204.33073 L301.20343,-205.08957 L302.5788,-205.86519 L303.95416,-206.5482 L305.3295,-207.38318 L306.70486,-208.26387 L308.08023,-209.15584 L309.4556,-210.06932 L310.83093,-211.25267 L312.2063,-212.3805 L313.58167,-213.11893 L314.95703,-213.99382 L316.33237,-214.84836 L317.70773,-215.52698 L319.0831,-216.48195 L320.45847,-217.44366 L321.8338,-218.31061 L323.20917,-218.911 L324.58453,-219.81456 L325.9599,-220.7564 L327.33524,-221.18997 L328.7106,-222.35504 L330.08597,-222.725 L331.4613,-223.73611 L332.83667,-224.02657 L334.21204,-224.31369 L335.5874,-225.11705 L336.96274,-225.42342 L338.3381,-225.92123 L339.71347,-226.4505 L341.08884,-226.8154 L342.46417,-227.30695 L343.83954,-227.48038 L345.2149,-227.7534 L346.59027,-227.86044 L347.9656,-227.96208 L349.34097,-227.89244 L350.71634,-227.74165 L352.0917,-227.4061 L353.46704,-227.21826 L354.8424,-227.03409 L356.21777,-226.93335 L357.5931,-226.71925 L358.96848,-226.656 L360.34384,-226.64532 L361.7192,-226.6188 L363.09454,-226.29202 L364.4699,-226.39825 L365.84528,-225.57126 L367.22064,-225.08919 L368.59598,-224.7381 L369.97134,-224.34431 L371.3467,-223.94919 L372.72208,-223.6222 L374.0974,-223.28189 L375.47278,-223.03616 L376.84814,-222.69424 L378.2235,-222.3139 L379.59885,-221.99554 L380.9742,-221.76547 L382.34958,-221.54608 L383.7249,-221.61884 L385.10028,-221.67725 L386.47565,-221.73256 L387.851,-221.78477 L389.22635,-221.7794 L390.6017,-221.63635 L391.97708,-221.3084 L393.35245,-220.92873 L394.72778,-220.49 L396.10315,-219.62297 L397.47852,-218.63702 L398.85388,-217.49615 L400.22922,-216.12196 L401.60458,-214.48521 L402.97995,-212.68706 L404.3553,-210.65353 L405.73065,-208.4816 L407.10602,-206.31808 L408.48138,-203.95163 L409.85672,-201.45634 L411.2321,-198.65773 L412.60745,-195.7422 L413.98282,-192.80797 L415.35815,-189.91953 L416.73352,-187.06319 L418.1089,-184.23438 L419.48425,-181.43942 L420.8596,-178.78725 L422.23495,-176.18506 L423.61032,-173.92294 L424.9857,-171.86813 L426.36102,-169.84521 L427.7364,-167.82361 L429.11176,-166.10971 L430.4871,-164.84642 L431.86246,-163.68967 L433.23782,-162.53549 L434.6132,-161.38483 L435.98853,-160.33621 L437.3639,-159.57872 L438.73926,-158.7308 L440.11462,-158.23395 L441.48996,-157.76843 L442.86533,-157.73567 L444.2407,-157.70297 L445.61606,-157.88123 L446.9914,-158.2819 L448.36676,-158.7927 L449.74213,-164.06816 L451.1175,-172.50505 L452.49283,-194.05214 L453.8682,-213.65163 L455.24356,-226.65561 L456.6189,-232.68996 L457.99426,-233.88419 L459.36963,-229.18033 L460.745,-202.49895 L462.12033,-126.31141 L463.4957,-102.12345 L464.87106,-97.99136 L466.24643,-99.87629 L467.62177,-114.68479 L468.99713,-189.84157 L470.3725,-227.55154 L471.74786,-232.24802 L473.1232,-223.91896 L474.49857,-188.47946 L475.87393,-140.04428 L477.2493,-122.79721 L478.62463,-116.59914 L480,-113.07371" fill="none" stroke="#ff0000" stroke-linejoin="round" stroke-width="2"/>
</g>
</g>
<g transform="translate(380, -340)">
<text font-size="12" text-anchor="start" x="0" y="0">
roll
</text>
<line stroke="#ff0000" stroke-width="2" x1="-10" x2="-3" y1="-4" y2="-4"/>
</g>
<g>
<g>
<path d="M0,-149.23692 L0,-149.23692 L1.3753582,-150.10934 L2.7507164,-150.70201 L4.1260743,-151.07352 L5.501433,-151.04677 L6.876791,-150.98822 L8.252149,-150.96669 L9.627507,-150.96202 L11.002866,-151.29611 L12.378223,-151.20851 L13.753582,-150.85298 L15.12894,-149.89862 L16.504297,-149.37048 L17.879656,-149.40599 L19.255014,-149.10823 L20.630373,-148.63478 L22.005732,-148.38916 L23.381088,-148.45604 L24.756447,-148.53003 L26.131805,-148.44435 L27.507164,-148.32567 L28.88252,-148.08472 L30.25788,-147.84373 L31.633238,-147.68573 L33.008595,-147.54771 L34.383953,-147.43797 L35.75931,-147.26389 L37.13467,-146.89093 L38.51003,-146.50906 L39.885387,-146.38672 L41.260746,-146.28471 L42.636105,-146.80116 L44.011463,-147.01674 L45.386818,-147.02951 L46.762177,-147.38928 L48.137535,-147.64308 L49.512894,-148.2054 L50.888252,-148.66925 L52.26361,-148.79883 L53.63897,-148.93163 L55.014328,-149.34332 L56.389687,-149.84674 L57.76504,-150.44666 L59.1404,-151.16078 L60.51576,-151.90497 L61.891117,-152.57605 L63.266476,-153.03775 L64.64183,-153.3304 L66.01719,-153.43411 L67.39255,-153.54031 L68.76791,-152.93993 L70.143265,-152.4488 L71.51862,-152.18347 L72.89398,-151.65794 L74.26934,-151.54817 L75.6447,-151.31209 L77.02006,-151.07066 L78.39542,-150.52103 L79.770775,-150.04102 L81.14613,-150.25513 L82.52149,-150.08485 L83.89685,-149.90314 L85.27221,-149.78603 L86.64757,-150.27777 L88.02293,-150.45938 L89.39828,-150.28859 L90.773636,-150.34683 L92.148994,-150.66507 L93.52435,-150.92267 L94.89971,-150.97136 L96.27507,-150.85498 L97.65043,-150.72108 L99.02579,-150.35541 L100.401146,-149.84016 L101.776505,-149.51698 L103.15186,-149.20392 L104.52722,-148.79604 L105.90258,-148.46411 L107.27794,-148.22336 L108.6533,-148.11267 L110.028656,-148.02567 L111.404015,-147.9653 L112.77937,-148.00705 L114.154724,-148.04088 L115.53008,-148.32053 L116.90544,-148.74327 L118.2808,-149.14653 L119.65616,-149.67126 L121.03152,-150.07114 L122.406876,-150.3862 L123.782234,-150.71736 L125.15759,-150.89671 L126.53295,-151.01308 L127.90831,-151.16142 L129.28366,-150.95163 L130.65903,-150.92612 L132.03438,-151.17996 L133.40974,-151.74496 L134.7851,-152.44434 L136.16046,-153.26045 L137.53581,-153.97783 L138.91118,-154.31882 L140.28653,-154.5217 L141.6619,-154.72523 L143.03725,-154.6198 L144.41261,-154.37645 L145.78796,-154.10327 L147.16333,-153.85008 L148.53868,-153.53407 L149.91405,-153.27415 L151.2894,-153.08638 L152.66475,-152.82146 L154.04012,-152.56834 L155.41547,-152.31163 L156.79083,-152.04556 L158.16618,-151.76169 L159.54155,-151.56741 L160.9169,-151.22873 L162.29227,-151.20262 L163.66762,-151.27533 L165.04298,-151.47978 L166.41833,-151.70969 L167.7937,-151.93976 L169.16905,-152.04651 L170.54442,-152.18729 L171.91977,-152.10193 L173.29514,-151.631 L174.67049,-151.15627 L176.04585,-150.39862 L177.4212,-149.52364 L178.79655,-148.77783 L180.17192,-148.30495 L181.54727,-147.72238 L182.92264,-146.88507 L184.29799,-146.05133 L185.67336,-145.02498 L187.0487,-143.98636 L188.42407,-143.04767 L189.79942,-142.33092 L191.17479,-141.58307 L192.55014,-140.88582 L193.9255,-140.2078 L195.30086,-139.44153 L196.67622,-138.75375 L198.05157,-138.21515 L199.42694,-137.99127 L200.80229,-138.10762 L202.17764,-138.64697 L203.55301,-139.66469 L204.92836,-141.33987 L206.30373,-143.67616 L207.67908,-146.78534 L209.05444,-150.3775 L210.4298,-154.05705 L211.80516,-157.9752 L213.18051,-162.37355 L214.55588,-167.1004 L215.93123,-171.39369 L217.3066,-175.6109 L218.68195,-179.19586 L220.05731,-182.48439 L221.43266,-185.11168 L222.80803,-187.23114 L224.18338,-189.04822 L225.55875,-190.73192 L226.9341,-192.13197 L228.30945,-193.52089 L229.68481,-194.86887 L231.06017,-196.09943 L232.43553,-197.2731 L233.81088,-198.04204 L235.18625,-198.46776 L236.5616,-198.68008 L237.93697,-198.81401 L239.31232,-198.94557 L240.68768,-199.1311 L242.06303,-199.38615 L243.4384,-199.55392 L244.81375,-199.61821 L246.18912,-199.74667 L247.56447,-199.90535 L248.93983,-200.16295 L250.31519,-200.67767 L251.69055,-200.97394 L253.0659,-201.33559 L254.44125,-201.4839 L255.81662,-201.57974 L257.192,-201.78648 L258.56732,-202.13785 L259.9427,-202.42961 L261.31805,-202.16751 L262.69342,-201.90627 L264.06876,-201.53453 L265.44412,-201.07617 L266.8195,-200.35933 L268.19485,-199.56973 L269.5702,-198.48409 L270.94556,-197.16092 L272.32092,-195.60963 L273.6963,-193.87238 L275.07162,-192.37209 L276.447,-190.8302 L277.82236,-189.40594 L279.1977,-187.97838 L280.57306,-186.7128 L281.94843,-185.63057 L283.3238,-184.81026 L284.69913,-184.24901 L286.0745,-183.67365 L287.44986,-183.09778 L288.82523,-183.07814 L290.20056,-183.08966 L291.57593,-183.26222 L292.9513,-183.53423 L294.32666,-183.86162 L295.702,-184.1824 L297.07736,-184.85262 L298.45273,-185.57347 L299.8281,-186.12645 L301.20343,-186.7028 L302.5788,-187.14777 L303.95416,-187.66498 L305.3295,-188.07597 L306.70486,-188.58763 L308.08023,-189.08803 L309.4556,-189.54015 L310.83093,-190.00378 L312.2063,-190.28207 L313.58167,-190.65941 L314.95703,-191.03441 L316.33237,-191.40775 L317.70773,-191.76137 L319.0831,-192.02264 L320.45847,-192.27145 L321.8338,-192.39801 L323.20917,-192.57971 L324.58453,-192.61119 L325.9599,-192.40561 L327.33524,-192.32407 L328.7106,-192.0183 L330.08597,-191.98611 L331.4613,-191.63225 L332.83667,-191.44122 L334.21204,-191.24936 L335.5874,-190.7455 L336.96274,-190.28825 L338.3381,-189.73564 L339.71347,-189.16606 L341.08884,-188.67686 L342.46417,-187.97618 L343.83954,-187.20656 L345.2149,-186.61987 L346.59027,-186.19858 L347.9656,-185.77605 L349.34097,-185.1776 L350.71634,-184.30257 L352.0917,-183.59604 L353.46704,-182.79424 L354.8424,-182.09819 L356.21777,-181.12662 L357.5931,-180.39839 L358.96848,-179.61487 L360.34384,-178.68552 L361.7192,-177.76006 L363.09454,-177.31711 L364.4699,-176.49019 L365.84528,-175.85236 L367.22064,-175.48721 L368.59598,-175.1536 L369.97134,-175.03206 L371.3467,-174.9141 L372.72208,-174.48482 L374.0974,-174.25793 L375.47278,-173.91345 L376.84814,-173.67567 L378.2235,-173.321 L379.59885,-173.16945 L380.9742,-173.13736 L382.34958,-173.11612 L383.7249,-172.67052 L385.10028,-172.2108 L386.47565,-171.75061 L387.851,-171.29 L389.22635,-173.04929 L390.6017,-174.89586 L391.97708,-176.84135 L393.35245,-178.77815 L394.72778,-180.69705 L396.10315,-182.85431 L397.47852,-185.05069 L398.85388,-187.23088 L400.22922,-189.41534 L401.60458,-191.56772 L402.97995,-193.47348 L404.3553,-195.22021 L405.73065,-196.86427 L407.10602,-198.22606 L408.48138,-199.466 L409.85672,-200.58282 L411.2321,-201.5574 L412.60745,-202.31737 L413.98282,-202.82706 L415.35815,-203.09738 L416.73352,-203.18481 L418.1089,-203.12485 L419.48425,-202.87247 L420.8596,-202.4657 L422.23495,-201.93687 L423.61032,-201.40077 L424.9857,-200.75514 L426.36102,-200.16405 L427.7364,-199.54431 L429.11176,-198.84337 L430.4871,-198.28952 L431.86246,-197.838 L433.23782,-197.48822 L434.6132,-197.1403 L435.98853,-196.92311 L437.3639,-196.915 L438.73926,-197.22336 L440.11462,-197.7005 L441.48996,-198.4232 L442.86533,-199.4054 L444.2407,-200.60878 L445.61606,-202.04427 L446.9914,-203.80614 L448.36676,-205.52348 L449.74213,-209.541 L451.1175,-213.58548 L452.49283,-215.8259 L453.8682,-210.29956 L455.24356,-193.40652 L456.6189,-174.61205 L457.99426,-151.53937 L459.36963,-126.60358 L460.745,-104.65531 L462.12033,-106.975464 L463.4957,-133.50618 L464.87106,-163.25342 L466.24643,-193.82349 L467.62177,-223.89095 L468.99713,-234.93217 L470.3725,-207.66205 L471.74786,-173.39731 L473.1232,-139.59772 L474.49857,-114.533936 L475.87393,-123.91066 L477.2493,-148.83728 L478.62463,-175.71541 L480,-200.95555" fill="none" stroke="#0000ff" stroke-linejoin="round" stroke-width="2"/>
</g>
</g>
<g transform="translate(380, -322)">
<text font-size="12" text-anchor="start" x="0" y="0">
pitch
</text>
<line stroke="#0000ff" stroke-width="2" x1="-10" x2="-3" y1="-4" y2="-4"/>
</g>
<g>
<g>
<path d="M0,-90.64409 L0,-90.64409 L1.3753582,-89.04002 L2.7507164,-87.48893 L4.1260743,-86.10378 L5.501433,-85.31937 L6.876791,-84.48747 L8.252149,-83.54697 L9.627507,-82.60862 L11.002866,-80.71802 L12.378223,-79.748344 L13.753582,-78.87409 L15.12894,-79.820465 L16.504297,-81.395065 L17.879656,-82.586136 L19.255014,-83.30302 L20.630373,-83.752335 L22.005732,-83.89687 L23.381088,-83.535194 L24.756447,-83.174385 L26.131805,-82.23293 L27.507164,-81.30214 L28.88252,-80.357475 L30.25788,-79.62232 L31.633238,-79.21319 L33.008595,-78.982025 L34.383953,-79.0054 L35.75931,-79.2055 L37.13467,-79.58038 L38.51003,-79.96612 L39.885387,-79.903496 L41.260746,-79.82052 L42.636105,-79.45742 L44.011463,-79.871864 L45.386818,-80.12777 L46.762177,-78.90469 L48.137535,-77.5729 L49.512894,-76.79452 L50.888252,-75.980095 L52.26361,-75.36539 L53.63897,-74.75153 L55.014328,-74.62091 L56.389687,-74.46237 L57.76504,-74.30138 L59.1404,-74.07854 L60.51576,-73.87292 L61.891117,-73.68854 L63.266476,-73.53569 L64.64183,-73.514984 L66.01719,-73.70054 L67.39255,-73.88516 L68.76791,-74.82836 L70.143265,-75.91688 L71.51862,-76.99053 L72.89398,-78.360855 L74.26934,-79.22767 L75.6447,-79.891235 L77.02006,-80.355225 L78.39542,-81.25655 L79.770775,-83.19835 L81.14613,-84.66031 L82.52149,-85.25132 L83.89685,-85.83852 L85.27221,-86.307304 L86.64757,-86.43072 L88.02293,-86.40382 L89.39828,-86.08234 L90.773636,-85.92935 L92.148994,-85.80064 L93.52435,-85.650215 L94.89971,-85.799904 L96.27507,-86.32459 L97.65043,-86.85973 L99.02579,-88.056564 L100.401146,-89.3536 L101.776505,-90.61706 L103.15186,-91.9652 L104.52722,-93.54657 L105.90258,-95.24714 L107.27794,-97.00767 L108.6533,-98.843056 L110.028656,-100.703865 L111.404015,-102.56853 L112.77937,-104.5049 L114.154724,-106.62306 L115.53008,-108.66774 L116.90544,-110.58502 L118.2808,-112.45224 L119.65616,-113.957245 L121.03152,-115.22037 L122.406876,-116.37204 L123.782234,-117.48878 L125.15759,-118.743965 L126.53295,-119.79055 L127.90831,-120.81347 L129.28366,-121.73431 L130.65903,-121.85217 L132.03438,-121.30206 L133.40974,-120.54919 L134.7851,-120.098114 L136.16046,-119.76546 L137.53581,-119.40147 L138.91118,-119.0238 L140.28653,-118.72965 L141.6619,-118.43595 L143.03725,-118.13213 L144.41261,-117.777626 L145.78796,-117.53388 L147.16333,-117.18717 L148.53868,-116.73257 L149.91405,-116.04509 L151.2894,-115.23671 L152.66475,-114.454865 L154.04012,-113.563194 L155.41547,-112.67303 L156.79083,-111.61035 L158.16618,-110.34026 L159.54155,-108.637825 L160.9169,-107.05069 L162.29227,-105.05636 L163.66762,-102.93388 L165.04298,-100.60663 L166.41833,-98.25671 L167.7937,-95.928505 L169.16905,-93.77955 L170.54442,-91.78895 L171.91977,-90.15278 L173.29514,-89.19956 L174.67049,-88.24495 L176.04585,-87.88598 L177.4212,-88.88111 L178.79655,-90.80784 L180.17192,-92.19152 L181.54727,-93.16318 L182.92264,-93.9878 L184.29799,-95.03232 L185.67336,-96.90871 L187.0487,-98.8138 L188.42407,-101.18494 L189.79942,-104.058495 L191.17479,-107.354095 L192.55014,-111.00331 L193.9255,-115.033226 L195.30086,-119.851524 L196.67622,-125.33009 L198.05157,-131.82738 L199.42694,-138.78523 L200.80229,-146.49849 L202.17764,-154.1622 L203.55301,-162.35876 L204.92836,-170.80275 L206.30373,-179.41002 L207.67908,-187.66927 L209.05444,-195.25334 L210.4298,-201.91838 L211.80516,-208.60487 L213.18051,-216.29254 L214.55588,-223.9585 L215.93123,-231.72083 L217.3066,-239.54208 L218.68195,-246.40965 L220.05731,-253.2346 L221.43266,-259.65723 L222.80803,-265.5751 L224.18338,-270.71243 L225.55875,-275.4844 L226.9341,-279.56143 L228.30945,-283.6951 L229.68481,-287.89188 L231.06017,-293.18356 L232.43553,-298.087 L233.81088,-303.18396 L235.18625,-307.89197 L236.5616,-312.274 L237.93697,-316.3966 L239.31232,-320.27057 L240.68768,-323.7939 L242.06303,-326.93796 L243.4384,-329.6073 L244.81375,-332.2869 L246.18912,-333.9562 L247.56447,-335.31906 L248.93983,-336.13684 L250.31519,-336.13416 L251.69055,-335.75635 L253.0659,-335.00037 L254.44125,-334.14777 L255.81662,-333.46902 L257.192,-332.63968 L258.56732,-331.69608 L259.9427,-330.64786 L261.31805,-330.6784 L262.69342,-330.712 L264.06876,-331.13287 L265.44412,-331.7456 L266.8195,-332.94104 L268.19485,-334.21054 L269.5702,-335.75018 L270.94556,-337.51306 L272.32092,-339.4303 L273.6963,-0.011177655 L275.07162,-1.9059929 L276.447,-3.779915 L277.82236,-5.0455093 L279.1977,-6.1969094 L280.57306,-7.177792 L281.94843,-8.017665 L283.3238,-8.5783 L284.69913,-8.847982 L286.0745,-8.797263 L287.44986,-8.753001 L288.82523,-9.280987 L290.20056,-10.040343 L291.57593,-10.979006 L292.9513,-12.50018 L294.32666,-13.673342 L295.702,-14.850934 L297.07736,-15.511183 L298.45273,-16.340544 L299.8281,-17.307947 L301.20343,-18.435877 L302.5788,-19.556524 L303.95416,-20.449448 L305.3295,-21.327631 L306.70486,-22.06753 L308.08023,-22.819183 L309.4556,-23.670872 L310.83093,-24.503012 L312.2063,-25.413513 L313.58167,-26.179111 L314.95703,-26.932053 L316.33237,-27.69797 L317.70773,-28.402885 L319.0831,-29.180614 L320.45847,-29.965368 L321.8338,-30.752726 L323.20917,-31.413467 L324.58453,-32.161358 L325.9599,-33.021965 L327.33524,-33.660843 L328.7106,-34.46472 L330.08597,-35.05308 L331.4613,-35.78829 L332.83667,-36.39288 L334.21204,-37.01653 L335.5874,-37.7193 L336.96274,-38.413837 L338.3381,-39.18097 L339.71347,-40.05369 L341.08884,-40.791157 L342.46417,-41.647522 L343.83954,-42.530094 L345.2149,-43.278316 L346.59027,-43.89089 L347.9656,-44.50169 L349.34097,-45.469906 L350.71634,-46.647495 L352.0917,-47.76762 L353.46704,-48.945263 L354.8424,-49.940945 L356.21777,-51.078682 L357.5931,-52.02369 L358.96848,-52.993927 L360.34384,-54.039257 L361.7192,-55.09317 L363.09454,-55.815224 L364.4699,-56.78705 L365.84528,-57.6346 L367.22064,-58.299282 L368.59598,-59.010773 L369.97134,-59.566795 L371.3467,-60.123947 L372.72208,-60.616295 L374.0974,-60.870193 L375.47278,-61.12026 L376.84814,-61.287033 L378.2235,-61.540874 L379.59885,-61.585598 L380.9742,-61.53976 L382.34958,-61.49534 L383.7249,-61.839203 L385.10028,-62.18001 L386.47565,-62.52064 L387.851,-62.86115 L389.22635,-61.79634 L390.6017,-60.622524 L391.97708,-59.22744 L393.35245,-57.810932 L394.72778,-56.380684 L396.10315,-54.232533 L397.47852,-51.9441 L398.85388,-49.548794 L400.22922,-46.963093 L401.60458,-44.181606 L402.97995,-41.35916 L404.3553,-38.423767 L405.73065,-35.364826 L407.10602,-32.423584 L408.48138,-29.348106 L409.85672,-26.075312 L411.2321,-22.67435 L412.60745,-19.147049 L413.98282,-15.778375 L415.35815,-12.580957 L416.73352,-9.438632 L418.1089,-6.4813895 L419.48425,-3.5686402 L420.8596,-0.97879773 L422.23495,-340 L423.61032,-337.9605 L424.9857,-336.30542 L426.36102,-334.9671 L427.7364,-333.72147 L429.11176,-332.80463 L430.4871,-332.55927 L431.86246,-332.43137 L433.23782,-332.54337 L434.6132,-332.66364 L435.98853,-333.07343 L437.3639,-333.67896 L438.73926,-334.6759 L440.11462,-335.88965 L441.48996,-337.44647 L442.86533,-339.42365 L444.2407,0 L445.61606,-2.401994 L446.9914,-5.253469 L448.36676,-8.17395 L449.74213,-16.13399 L451.1175,-27.926764 L452.49283,-57.837196 L453.8682,-85.91011 L455.24356,-105.174095 L456.6189,-117.33492 L457.99426,-127.34058 L459.36963,-140.66283 L460.745,-173.92033 L462.12033,-256.32086 L463.4957,-287.0191 L464.87106,-299.58203 L466.24643,-311.1337 L467.62177,-333.41183 L468.99713,-73.63037 L470.3725,-119.41408 L471.74786,-136.17961 L473.1232,-155.43233 L474.49857,-198.55498 L475.87393,-252.96506 L477.2493,-275.7916 L478.62463,-287.4416 L480,-293.9414" fill="none" stroke="#00ff00" stroke-linejoin="round" stroke-width="2"/>
</g>
</g>
<g transform="translate(380, -304)">
<text font-size="12" text-anchor="start" x="0" y="0">
yaw
</text>
<line stroke="#00ff00" stroke-width="2" x1="-10" x2="-3" y1="-4" y2="-4"/>
</g>
<g>
<g>
<line stroke="black" stroke-width="1" x1="-0.00000000007045977936728532" x2="-0.00000000007045977936728532" y1="0" y2="10"/>
<line stroke="black" stroke-width="1" x1="96.27507163315573" x2="96.27507163315573" y1="0" y2="10"/>
<line stroke="black" stroke-width="1" x1="192.55014326638192" x2="192.55014326638192" y1="0" y2="10"/>
<line stroke="black" stroke-width="1" x1="288.8252148996081" x2="288.8252148996081" y1="0" y2="10"/>
<line stroke="black" stroke-width="1" x1="385.10028653283433" x2="385.10028653283433" y1="0" y2="10"/>
</g>
<line stroke="black" stroke-width="1" x1="0" x2="480" y1="0" y2="0"/>
<g>
<text font-size="12" text-anchor="middle" x="-0.00000000007045977936728532" y="20">
45
</text>
<text font-size="12" text-anchor="middle" x="96.27507163315573" y="20">
47
</text>
<text font-size="12" text-anchor="middle" x="192.55014326638192" y="20">
49
</text>
<text font-size="12" text-anchor="middle" x="288.8252148996081" y="20">
51
</text>
<text font-size="12" text-anchor="middle" x="385.10028653283433" y="20">
53
</text>
</g>
<text font-size="12" text-anchor="middle" x="240" y="30">
Time (s)
</text>
</g>
<g>
<g>
<line stroke="black" stroke-width="1" x1="0" x2="-10" y1="-74.50848212316168" y2="-74.50848212316168"/>
<line stroke="black" stroke-width="1" x1="0" x2="-10" y1="-169.39692786528764" y2="-169.39692786528764"/>
<line stroke="black" stroke-width="1" x1="0" x2="-10" y1="-264.2853736074136" y2="-264.2853736074136"/>
</g>
<line stroke="black" stroke-width="1" x1="0" x2="0" y1="0" y2="-340"/>
<g>
<text dominant-baseline="middle" font-size="12" text-anchor="end" x="-15" y="-74.50848212316168">
-100
</text>
<text dominant-baseline="middle" font-size="12" text-anchor="end" x="-15" y="-169.39692786528764">
0
</text>
<text dominant-baseline="middle" font-size="12" text-anchor="end" x="-15" y="-264.2853736074136">
100
</text>
</g>
<text font-size="12" text-anchor="middle" transform="rotate(-90 -48 -170)" x="-48" y="-182">
Angle (dgr)
</text>
</g>
</g>
</svg>