<svg viewBox="0 0 600 400" xmlns="http://www.w3.org/2000/svg">
<g transform="translate(72, 364)">
<g>
<g>
<path d="M0,-317.8382 L0,-317.8382 L1.3753582,-320.2741 L2.7507164,-318.36813 L4.1260743,-319.4444 L5.501433,-319.34625 L6.876791,-318.66528 L8.252149,-310.48004 L9.627507,-310.52316 L11.002866,-307.09625 L12.378223,-298.72702 L13.753582,-302.6034 L15.12894,-296.99338 L16.504297,-296.74084 L17.879656,-294.60666 L19.255014,-295.72537 L20.630373,-299.20514 L22.005732,-299.68442 L23.381088,-302.2558 L24.756447,-302.2806 L26.131805,-302.61053 L27.507164,-307.58856 L28.88252,-313.60275 L30.25788,-316.1505 L31.633238,-317.40533 L33.008595,-316.66766 L34.383953,-314.5447 L35.75931,-314.35928 L37.13467,-314.8052 L38.51003,-314.82068 L39.885387,-313.98734 L41.260746,-312.35675 L42.636105,-308.35654 L44.011463,-300.34314 L45.386818,-296.09097 L46.762177,-288.98828 L48.137535,-285.41797 L49.512894,-293.94736 L50.888252,-301.06644 L52.26361,-308.5452 L53.63897,-308.55292 L55.014328,-308.59335 L56.389687,-308.85635 L57.76504,-311.38937 L59.1404,-312.56427 L60.51576,-312.4999 L61.891117,-314.11926 L63.266476,-316.66354 L64.64183,-317.098 L66.01719,-319.55942 L67.39255,-319.5517 L68.76791,-321.7998 L70.143265,-321.45264 L71.51862,-319.39905 L72.89398,-313.84888 L74.26934,-310.42053 L75.6447,-304.37784 L77.02006,-300.69623 L78.39542,-300.9277 L79.770775,-297.57346 L81.14613,-295.72037 L82.52149,-299.5617 L83.89685,-299.58847 L85.27221,-303.71637 L86.64757,-306.6097 L88.02293,-307.27634 L89.39828,-305.81155 L90.773636,-305.14304 L92.148994,-304.48584 L93.52435,-304.89932 L94.89971,-307.6183 L96.27507,-311.7816 L97.65043,-311.88107 L99.02579,-318.0477 L100.401146,-317.54712 L101.776505,-315.92276 L103.15186,-316.48834 L104.52722,-318.2213 L105.90258,-318.39725 L107.27794,-319.94897 L108.6533,-320.35416 L110.028656,-320.00137 L111.404015,-320.01157 L112.77937,-319.08905 L114.154724,-320.30478 L115.53008,-320.86328 L116.90544,-323.2403 L118.2808,-321.96613 L119.65616,-322.67975 L121.03152,-321.13226 L122.406876,-318.23294 L123.782234,-321.74753 L125.15759,-315.9009 L126.53295,-318.3149 L127.90831,-318.47568 L129.28366,-312.59967 L130.65903,-313.89685 L132.03438,-313.9859 L133.40974,-312.71628 L134.7851,-316.154 L136.16046,-315.60635 L137.53581,-313.42673 L138.91118,-310.68347 L140.28653,-310.5179 L141.6619,-310.52307 L143.03725,-306.9893 L144.41261,-306.6372 L145.78796,-306.79245 L147.16333,-309.2078 L148.53868,-308.20877 L149.91405,-309.5734 L151.2894,-311.31955 L152.66475,-311.98944 L154.04012,-312.66354 L155.41547,-312.6507 L156.79083,-313.57495 L158.16618,-314.28793 L159.54155,-312.12436 L160.9169,-312.6048 L162.29227,-311.3034 L163.66762,-308.8651 L165.04298,-309.90067 L166.41833,-310.7187 L167.7937,-311.47153 L169.16905,-312.70334 L170.54442,-311.99545 L171.91977,-313.07938 L173.29514,-315.8413 L174.67049,-315.81265 L176.04585,-317.97565 L177.4212,-320.66486 L178.79655,-317.57156 L180.17192,-311.72388 L181.54727,-308.21594 L182.92264,-307.45554 L184.29799,-308.46313 L185.67336,-311.91165 L187.0487,-311.70044 L188.42407,-313.2232 L189.79942,-313.8365 L191.17479,-316.22775 L192.55014,-316.54156 L193.9255,-316.93442 L195.30086,-318.9896 L196.67622,-321.14276 L198.05157,-324.6286 L199.42694,-327.11908 L200.80229,-329.16013 L202.17764,-329.18927 L203.55301,-330.5418 L204.92836,-332.9154 L206.30373,-334.43655 L207.67908,-336.9311 L209.05444,-337.85788 L210.4298,-337.983 L211.80516,-338.1406 L213.18051,-340 L214.55588,-337.13702 L215.93123,-336.58078 L217.3066,-336.32446 L218.68195,-330.6439 L220.05731,-330.69543 L221.43266,-327.59473 L222.80803,-322.29538 L224.18338,-314.74307 L225.55875,-312.40097 L226.9341,-305.98978 L228.30945,-306.09103 L229.68481,-306.2395 L231.06017,-325.82748 L232.43553,-322.1237 L233.81088,-325.52173 L235.18625,-325.37784 L236.5616,-324.94308 L237.93697,-324.2222 L239.31232,-321.6455 L240.68768,-318.71744 L242.06303,-315.70987 L243.4384,-315.1917 L244.81375,-315.19516 L246.18912,-312.7133 L247.56447,-311.7076 L248.93983,-310.16296 L250.31519,-306.46326 L251.69055,-309.19467 L253.0659,-307.66006 L254.44125,-309.769 L255.81662,-310.91187 L257.192,-308.92285 L258.56732,-306.99503 L259.9427,-306.80743 L261.31805,-313.8814 L262.69342,-313.8748 L264.06876,-315.667 L265.44412,-317.48654 L266.8195,-321.3013 L268.19485,-322.03455 L269.5702,-325.15433 L270.94556,-327.5632 L272.32092,-329.80304 L273.6963,-331.6409 L275.07162,-328.7325 L276.447,-329.0286 L277.82236,-328.08035 L279.1977,-328.10092 L280.57306,-326.43762 L281.94843,-324.52362 L283.3238,-321.8538 L284.69913,-319.381 L286.0745,-319.49338 L287.44986,-319.49524 L288.82523,-313.71246 L290.20056,-313.0015 L291.57593,-310.945 L292.9513,-309.03653 L294.32666,-307.32568 L295.702,-307.32318 L297.07736,-304.29413 L298.45273,-302.57083 L299.8281,-303.31912 L301.20343,-302.8179 L302.5788,-304.0466 L303.95416,-303.56857 L305.3295,-303.96487 L306.70486,-302.63205 L308.08023,-302.62665 L309.4556,-302.9452 L310.83093,-301.4463 L312.2063,-303.46988 L313.58167,-304.3274 L314.95703,-303.5873 L316.33237,-303.64334 L317.70773,-304.7254 L319.0831,-304.05304 L320.45847,-304.0474 L321.8338,-305.66675 L323.20917,-306.62433 L324.58453,-306.17484 L325.9599,-308.02344 L327.33524,-309.91003 L328.7106,-307.25128 L330.08597,-309.75967 L331.4613,-308.3744 L332.83667,-311.60217 L334.21204,-311.5868 L335.5874,-310.674 L336.96274,-313.61337 L338.3381,-312.96173 L339.71347,-312.73553 L341.08884,-313.1573 L342.46417,-313.79852 L343.83954,-316.6414 L345.2149,-314.30173 L346.59027,-314.258 L347.9656,-314.26025 L349.34097,-316.92682 L350.71634,-319.54916 L352.0917,-319.79514 L353.46704,-319.08868 L354.8424,-318.2232 L356.21777,-319.18637 L357.5931,-318.5127 L358.96848,-317.35043 L360.34384,-317.60498 L361.7192,-317.5622 L363.09454,-317.58853 L364.4699,-315.41528 L365.84528,-323.56482 L367.22064,-318.63553 L368.59598,-317.13245 L369.97134,-316.48718 L371.3467,-316.49155 L372.72208,-317.29507 L374.0974,-316.4555 L375.47278,-316.0238 L376.84814,-316.51984 L378.2235,-317.45724 L379.59885,-315.87552 L380.9742,-314.40656 L382.34958,-314.24463 L383.7249,-313.12943 L385.10028,-313.31143 L386.47565,-313.31387 L387.851,-313.31635 L389.22635,-304.11267 L390.6017,-304.75827 L391.97708,-305.69556 L393.35245,-305.68655 L394.72778,-305.7781 L396.10315,-307.78394 L397.47852,-307.50232 L398.85388,-307.72583 L400.22922,-308.29044 L401.60458,-309.05392 L402.97995,-310.472 L404.3553,-311.7304 L405.73065,-311.72446 L407.10602,-312.45132 L408.48138,-313.08228 L409.85672,-313.18503 L411.2321,-314.14334 L412.60745,-314.87732 L413.98282,-315.72513 L415.35815,-316.50214 L416.73352,-316.89233 L418.1089,-317.0362 L419.48425,-317.78925 L420.8596,-318.16837 L422.23495,-318.3884 L423.61032,-317.5006 L424.9857,-318.11707 L426.36102,-316.9574 L427.7364,-316.79395 L429.11176,-317.6743 L430.4871,-316.41537 L431.86246,-315.35178 L433.23782,-314.19595 L434.6132,-314.19952 L435.98853,-312.90967 L437.3639,-311.002 L438.73926,-307.4208 L440.11462,-305.98196 L441.48996,-303.3191 L442.86533,-300.63022 L444.2407,-298.10968 L445.61606,-295.3934 L446.9914,-291.46136 L448.36676,-291.7622 L449.74213,-256.07675 L451.1175,-241.27966 L452.49283,-175.00998 L453.8682,-174.74666 L455.24356,-151.79245 L456.6189,-151.05656 L457.99426,-131.94406 L459.36963,-115.03703 L460.745,-112.82832 L462.12033,-92.15793 L463.4957,-61.06088 L464.87106,-60.46316 L466.24643,-48.266285 L467.62177,-34.75013 L468.99713,-23.962208 L470.3725,-8.044636 L471.74786,0 L473.1232,-6.9337378 L474.49857,-6.1314874 L475.87393,-82.94042 L477.2493,-104.33653 L478.62463,-106.32933 L480,-106.7613" fill="none" stroke="#ff0000" stroke-linejoin="round" stroke-width="2"/>
</g>
</g>
<g transform="translate(380, -340)">
<text font-size="12" text-anchor="start" x="0" y="0">
speed
</text>
<line stroke="#ff0000" stroke-width="2" x1="-10" x2="-3" y1="-4" y2="-4"/>
</g>
<g>
<g>
<line stroke="black" stroke-width="1" x1="-0.00000000007045977936728532" x2="-0.00000000007045977936728532" y1="0" y2="10"/>
<line stroke="black" stroke-width="1" x1="96.27507163315573" x2="96.27507163315573" y1="0" y2="10"/>
<line stroke="black" stroke-width="1" x1="192.55014326638192" x2="192.55014326638192" y1="0" y2="10"/>
<line stroke="black" stroke-width="1" x1="288.8252148996081" x2="288.8252148996081" y1="0" y2="10"/>
<line stroke="black" stroke-width="1" x1="385.10028653283433" x2="385.10028653283433" y1="0" y2="10"/>
</g>
<line stroke="black" stroke-width="1" x1="0" x2="480" y1="0" y2="0"/>
<g>
<text font-size="12" text-anchor="middle" x="-0.00000000007045977936728532" y="20">
45
</text>
<text font-size="12" text-anchor="middle" x="96.27507163315573" y="20">
47
</text>
<text font-size="12" text-anchor="middle" x="192.55014326638192" y="20">
49
</text>
<text font-size="12" text-anchor="middle" x="288.8252148996081" y="20">
51
</text>
<text font-size="12" text-anchor="middle" x="385.10028653283433" y="20">
53
</text>
</g>
<text font-size="12" text-anchor="middle" x="240" y="30">
Time (s)
</text>
</g>
<g>
<g>
<line stroke="black" stroke-width="1" x1="0" x2="-10" y1="-27.881495414430603" y2="-27.881495414430603"/>
<line stroke="black" stroke-width="1" x1="0" x2="-10" y1="-98.87539736832049" y2="-98.87539736832049"/>
<line stroke="black" stroke-width="1" x1="0" x2="-10" y1="-169.8692993222104" y2="-169.8692993222104"/>
<line stroke="black" stroke-width="1" x1="0" x2="-10" y1="-240.86320127610028" y2="-240.86320127610028"/>
<line stroke="black" stroke-width="1" x1="0" x2="-10" y1="-311.8571032299902" y2="-311.8571032299902"/>
</g>
<line stroke="black" stroke-width="1" x1="0" x2="0" y1="0" y2="-340"/>
<g>
<text dominant-baseline="middle" font-size="12" text-anchor="end" x="-15" y="-27.881495414430603">
-16
</text>
<text dominant-baseline="middle" font-size="12" text-anchor="end" x="-15" y="-98.87539736832049">
-12
</text>
<text dominant-baseline="middle" font-size="12" text-anchor="end" x="-15" y="-169.8692993222104">
-8
</text>
<text dominant-baseline="middle" font-size="12" text-anchor="end" x="-15" y="-240.86320127610028">
-4
</text>
<text dominant-baseline="middle" font-size="12" text-anchor="end" x="-15" y="-311.8571032299902">
0
</text>
</g>
<text font-size="12" text-anchor="middle" transform="rotate(-90 -36 -170)" x="-36" y="-182">
Speed (dgr/s)
</text>
</g>
</g>
</svg>