<svg viewBox="0 0 600 400" xmlns="http://www.w3.org/2000/svg">
<g transform="translate(72, 364)">
<g>
<g>
<path d="M0,-95.0503 L0,-95.0503 L0.96,-93.229904 L1.92,-97.158585 L2.88,-101.74768 L3.84,-103.35641 L4.8,-111.50164 L5.76,-115.54886 L6.72,-114.64289 L7.68,-114.64289 L8.64,-109.80825 L9.6,-103.855965 L10.56,-99.96962 L11.52,-95.211174 L12.48,-93.18757 L13.44,-90.20719 L14.4,-91.69738 L15.36,-94.26288 L16.32,-97.53113 L17.28,-97.53113 L18.24,-100.08816 L19.2,-98.724976 L20.16,-99.88495 L21.12,-107.86084 L22.08,-100.63004 L23.04,-97.158585 L24,-97.03158 L24.96,-101.205795 L25.92,-101.24813 L26.88,-103.39874 L27.84,-103.39874 L28.8,-102.281105 L29.76,-94.96564 L30.72,-99.512405 L31.68,-97.44646 L32.64,-98.47943 L33.6,-92.239265 L34.56,-94.13587 L35.52,-89.673775 L36.48,-90.24953 L37.44,-94.30521 L38.4,-94.30521 L39.36,-97.07391 L40.32,-93.517784 L41.28,-96.41349 L42.24,-97.361786 L43.2,-99.3854 L44.16,-100.4607 L45.12,-100.79092 L46.08,-102.484314 L47.04,-94.96564 L48,-97.89521 L48.96,-97.89521 L49.92,-91.32484 L50.88,-95.54139 L51.84,-98.68264 L52.8,-98.352425 L53.76,-95.998604 L54.72,-92.11226 L55.68,-102.40811 L56.64,-106.49766 L57.6,-93.14523 L58.56,-94.22054 L59.52,-94.22054 L60.48,-98.39476 L61.44,-95.75306 L62.4,-95.499054 L63.36,-96.862236 L64.32,-102.65365 L65.28,-101.82388 L66.24,-99.71561 L67.2,-98.149216 L68.16,-100.08816 L69.12,-97.27712 L70.08,-97.27712 L71.04,-100.04582 L72,-100.54537 L72.96,-99.47007 L73.92,-104.634926 L74.88,-107.7423 L75.84,-102.695984 L76.8,-97.649666 L77.76,-96.65903 L78.72,-98.26775 L79.68,-98.26775 L80.64,-98.23389 L81.6,-100.67238 L82.56,-97.03158 L83.52,-96.862236 L84.48,-102.56898 L85.44,-98.851974 L86.4,-99.3854 L87.36,-100.87559 L88.32,-103.52575 L89.28,-107.98785 L90.24,-107.115746 L91.2,-107.115746 L92.16,-106.667 L93.12,-104.761925 L94.08,-97.158585 L95.04,-85.61809 L96,-73.88286 L96.96,-56.559418 L97.92,-38.533222 L98.88,-22.69997 L99.84,-28.19504 L100.8,-28.19504 L101.76,-61.478733 L102.72,-94.423744 L103.68,-109.26636 L104.64,-125.09961 L105.6,-116.378624 L106.56,-106.78554 L107.52,-94.26288 L108.48,-83.42514 L109.44,-77.88774 L110.4,-108.27573 L111.36,-108.27573 L112.32,-117.36926 L113.28,-97.07391 L114.24,-93.01823 L115.2,-95.668396 L116.16,-93.93266 L117.12,-92.27313 L118.08,-89.50443 L119.04,-84.00936 L120,-84.83066 L120.96,-83.92469 L121.92,-83.92469 L122.88,-83.72149 L123.84,-81.985756 L124.8,-80.49557 L125.76,-79.62347 L126.72,-82.3583 L127.68,-86.86273 L128.64,-86.57486 L129.6,-85.41488 L130.56,-87.93804 L131.52,-90.99462 L132.48,-89.79231 L133.44,-86.27851 L134.4,-85.70276 L135.36,-89.34356 L136.32,-93.01823 L137.28,-93.01823 L138.24,-93.01823 L139.2,-109.063156 L140.16,-108.605934 L141.12,-108.64827 L142.08,-106.336784 L143.04,-105.87957 L144,-109.681244 L144.96,-112.44994 L145.92,-113.48292 L146.88,-113.48292 L147.84,-108.31806 L148.8,-92.64568 L149.76,-33.283695 L150.72,-33.283695 L151.68,-49.819702 L152.64,-65.85616 L153.6,-85.28788 L154.56,-90.90995 L155.52,-94.17821 L156.48,-94.17821 L157.44,-96.32882 L158.4,-101.908554 L159.36,-108.3604 L160.32,-118.19902 L161.28,-122.21237 L162.24,-122.91513 L163.2,-113.56759 L164.16,-113.56759 L165.12,-300.14594 L166.08,-296.96234 L167.04,-247.47285 L168,-110.09612 L168.96,-134.6927 L169.92,-67.96444 L170.88,-19.846598 L171.84,-19.846598 L172.8,-48.617393 L173.76,-43.82508 L174.72,-9.339078 L175.68,-13.724973 L176.64,-11.48969 L177.6,-4.419763 L178.56,-10.668393 L179.52,0 L180.48,-12.649666 L181.44,-24.808249 L182.4,-24.808249 L183.36,-40.47216 L184.32,-58.371353 L185.28,-73.58651 L186.24,-72.72288 L187.2,-67.718895 L188.16,-46.796993 L189.12,-40.929375 L190.08,-76.025 L191.04,-241.11415 L192,-340 L192.96,-273.6443 L193.92,-240.90248 L194.88,-240.90248 L195.84,-240.44527 L196.8,-217.25421 L197.76,-202.49626 L198.72,-181.78604 L199.68,-152.55803 L200.64,-125.18428 L201.6,-90.53741 L202.56,-90.53741 L203.52,-50.895008 L204.48,-43.452534 L205.44,-43.613407 L206.4,-61.14852 L207.36,-61.681942 L208.32,-61.681942 L209.28,-61.681942 L210.24,-61.681942 L211.2,-85.042336 L212.16,-85.829765 L213.12,-84.58512 L214.08,-86.820404 L215.04,-86.9474 L216,-83.72149 L216.96,-83.72149 L217.92,-89.63144 L218.88,-89.54677 L219.84,-89.54677 L220.8,-79.6658 L221.76,-82.104294 L222.72,-85.20321 L223.68,-86.032974 L224.64,-85.57575 L225.6,-84.170235 L226.56,-85.9483 L227.52,-88.26826 L228.48,-89.41976 L229.44,-89.96165 L230.4,-89.96165 L231.36,-90.53741 L232.32,-90.53741 L233.28,-91.2825 L234.24,-93.975 L235.2,-93.975 L236.16,-93.80566 L237.12,-93.56011 L238.08,-96.15948 L239.04,-97.03158 L240,-98.936646 L240.96,-98.936646 L241.92,-98.936646 L242.88,-104.67726 L243.84,-99.75794 L244.8,-95.75306 L245.76,-94.711624 L246.72,-88.886345 L247.68,-90.83375 L248.64,-90.83375 L249.6,-88.05658 L250.56,-87.48083 L251.52,-90.79141 L252.48,-96.41349 L253.44,-96.24415 L254.4,-97.89521 L255.36,-92.56948 L256.32,-97.31945 L257.28,-97.77667 L258.24,-103.60195 L259.2,-103.60195 L260.16,-106.04044 L261.12,-103.068535 L262.08,-104.347046 L263.04,-105.7949 L264,-112.57695 L264.96,-109.30869 L265.92,-113.48292 L266.88,-107.77618 L267.84,-104.96513 L268.8,-100.96026 L269.76,-103.35641 L270.72,-98.149216 L271.68,-97.81901 L272.64,-97.81901 L273.6,-70.28439 L274.56,-63.959557 L275.52,-60.775974 L276.48,-64.162766 L277.44,-88.717 L278.4,-94.55075 L279.36,-111.1291 L280.32,-115.92141 L281.28,-121.34027 L282.24,-120.88306 L283.2,-120.88306 L284.16,-112.246735 L285.12,-104.1015 L286.08,-96.371155 L287.04,-98.97051 L288,-100.34216 L288.96,-108.40273 L289.92,-108.690605 L290.88,-105.049805 L291.84,-98.52177 L292.8,-98.52177 L293.76,-90.20719 L294.72,-89.79231 L295.68,-90.37653 L296.64,-88.22592 L297.6,-85.66042 L298.56,-84.542786 L299.52,-83.50981 L300.48,-83.72149 L301.44,-85.70276 L302.4,-87.48083 L303.36,-87.48083 L304.32,-89.089554 L305.28,-88.42912 L306.24,-95.16884 L307.2,-109.55424 L308.16,-85.99064 L309.12,-92.239265 L310.08,-89.673775 L311.04,-89.673775 L312,-99.30073 L312.96,-98.352425 L313.92,-101.82388 L314.88,-99.01285 L315.84,-95.95627 L316.8,-94.30521 L317.76,-96.862236 L318.72,-98.52177 L319.68,-98.52177 L320.64,-99.71561 L321.6,-97.19245 L322.56,-99.30073 L323.52,-99.224525 L324.48,-92.06993 L325.44,-96.98924 L326.4,-99.84261 L327.36,-95.499054 L328.32,-94.423744 L329.28,-96.371155 L330.24,-94.13587 L331.2,-94.13587 L332.16,-105.17681 L333.12,-110.756546 L334.08,-107.69997 L335.04,-102.03556 L336,-102.03556 L336.96,-97.03158 L337.92,-97.27712 L338.88,-96.48969 L339.84,-97.97988 L340.8,-107.03954 L341.76,-102.89919 L342.72,-104.059166 L343.68,-103.153206 L344.64,-103.153206 L345.6,-107.44596 L346.56,-109.4357 L347.52,-110.13846 L348.48,-107.44596 L349.44,-109.850586 L350.4,-103.44108 L351.36,-105.38002 L352.32,-104.96513 L353.28,-103.88983 L354.24,-99.75794 L355.2,-98.52177 L356.16,-98.52177 L357.12,-93.89033 L358.08,-89.25889 L359.04,-87.15061 L360,-85.08467 L360.96,-91.61271 L361.92,-93.229904 L362.88,-92.027596 L363.84,-92.027596 L364.8,-81.486206 L365.76,-76.72776 L366.72,-80.58024 L367.68,-92.527145 L368.64,-99.96962 L369.6,-100.13049 L370.56,-100.13049 L371.52,-109.30869 L372.48,-93.14523 L373.44,-89.30122 L374.4,-89.30122 L375.36,-94.17821 L376.32,-98.23389 L377.28,-106.667 L378.24,-106.41299 L379.2,-105.50702 L380.16,-112.119736 L381.12,-106.7432 L382.08,-106.912544 L383.04,-98.39476 L384,-98.39476 L384.96,-98.39476 L385.92,-95.084175 L386.88,-86.244644 L387.84,-93.517784 L388.8,-100.74858 L389.76,-99.80028 L390.72,-103.9745 L391.68,-101.53601 L392.64,-100.714714 L393.6,-99.34306 L394.56,-94.96564 L395.52,-95.211174 L396.48,-95.211174 L397.44,-100.79092 L398.4,-101.82388 L399.36,-137.01265 L400.32,-126.09872 L401.28,-97.03158 L402.24,-84.09403 L403.2,-80.614105 L404.16,-78.344955 L405.12,-77.02411 L406.08,-70.73314 L407.04,-116.090744 L408,-116.090744 L408.96,-115.51499 L409.92,-128.03766 L410.88,-125.80237 L411.84,-112.57695 L412.8,-103.52575 L413.76,-96.98924 L414.72,-94.0512 L415.68,-96.57436 L416.64,-96.57436 L417.6,-96.57436 L418.56,-96.57436 L419.52,-96.57436 L420.48,-96.57436 L421.44,-104.80426 L422.4,-90.57974 L423.36,-90.57974 L424.32,-103.35641 L425.28,-113.813126 L426.24,-97.40412 L427.2,-93.93266 L428.16,-94.09354 L429.12,-99.639404 L430.08,-100.29983 L431.04,-100.29983 L432,-113.73692 L432.96,-113.73692 L433.92,-108.31806 L434.88,-99.3854 L435.84,-87.023605 L436.8,-87.023605 L437.76,-87.023605 L438.72,-73.79819 L439.68,-71.148026 L440.64,-78.260284 L441.6,-71.647575 L442.56,-70.24206 L443.52,-75.61859 L444.48,-89.91931 L445.44,-89.91931 L446.4,-104.43172 L447.36,-113.8978 L448.32,-138.2065 L449.28,-143.87091 L450.24,-134.57416 L451.2,-134.44716 L452.16,-121.213264 L453.12,-110.58721 L454.08,-103.93217 L455.04,-97.89521 L456,-97.89521 L456.96,-101.493675 L457.92,-103.153206 L458.88,-101.37514 L459.84,-100.4607 L460.8,-98.5641 L461.76,-97.158585 L462.72,-96.90457 L463.68,-94.9233 L464.64,-94.9233 L465.6,-88.22592 L466.56,-81.283 L467.52,-72.22333 L468.48,-62.841915 L469.44,-53.375835 L470.4,-43.613407 L471.36,-37.991333 L472.32,-56.347744 L473.28,-84.38191 L474.24,-87.7687 L475.2,-87.7687 L476.16,-136.05588 L477.12,-140.44177 L478.08,-127.207886 L479.04,-106.125114 L480,-95.82927" fill="none" stroke="#ff0000" stroke-linejoin="round" stroke-width="2"/>
</g>
</g>
<g transform="translate(380, -340)">
<text font-size="12" text-anchor="start" x="0" y="0">
accel
</text>
<line stroke="#ff0000" stroke-width="2" x1="-10" x2="-3" y1="-4" y2="-4"/>
</g>
<g>
<g>
<line stroke="black" stroke-width="1" x1="-0.0000000000013642420526596638" x2="-0.0000000000013642420526596638" y1="0" y2="10"/>
<line stroke="black" stroke-width="1" x1="96.00000000001774" x2="96.00000000001774" y1="0" y2="10"/>
<line stroke="black" stroke-width="1" x1="192.00000000003683" x2="192.00000000003683" y1="0" y2="10"/>
<line stroke="black" stroke-width="1" x1="288.00000000005593" x2="288.00000000005593" y1="0" y2="10"/>
<line stroke="black" stroke-width="1" x1="384.00000000007503" x2="384.00000000007503" y1="0" y2="10"/>
</g>
<line stroke="black" stroke-width="1" x1="0" x2="480" y1="0" y2="0"/>
<g>
<text font-size="12" text-anchor="middle" x="-0.0000000000013642420526596638" y="20">
86
</text>
<text font-size="12" text-anchor="middle" x="96.00000000001774" y="20">
88
</text>
<text font-size="12" text-anchor="middle" x="192.00000000003683" y="20">
90
</text>
<text font-size="12" text-anchor="middle" x="288.00000000005593" y="20">
92
</text>
<text font-size="12" text-anchor="middle" x="384.00000000007503" y="20">
94
</text>
</g>
<text font-size="12" text-anchor="middle" x="240" y="30">
Time (s)
</text>
</g>
<g>
<g>
<line stroke="black" stroke-width="1" x1="0" x2="-10" y1="-13.394760434306198" y2="-13.394760434306198"/>
<line stroke="black" stroke-width="1" x1="0" x2="-10" y1="-98.06454826177905" y2="-98.06454826177905"/>
<line stroke="black" stroke-width="1" x1="0" x2="-10" y1="-182.7343360892519" y2="-182.7343360892519"/>
<line stroke="black" stroke-width="1" x1="0" x2="-10" y1="-267.40412391672476" y2="-267.40412391672476"/>
</g>
<line stroke="black" stroke-width="1" x1="0" x2="0" y1="0" y2="-340"/>
<g>
<text dominant-baseline="middle" font-size="12" text-anchor="end" x="-15" y="-13.394760434306198">
-1
</text>
<text dominant-baseline="middle" font-size="12" text-anchor="end" x="-15" y="-98.06454826177905">
0
</text>
<text dominant-baseline="middle" font-size="12" text-anchor="end" x="-15" y="-182.7343360892519">
1
</text>
<text dominant-baseline="middle" font-size="12" text-anchor="end" x="-15" y="-267.40412391672476">
2
</text>
</g>
<text font-size="12" text-anchor="middle" transform="rotate(-90 -24 -170)" x="-24" y="-182">
Accel (g)
</text>
</g>
</g>
</svg>