<svg viewBox="0 0 600 400" xmlns="http://www.w3.org/2000/svg">
<g transform="translate(72, 364)">
<g>
<g>
<path d="M0,-309.5256 L0,-309.5256 L1.1188811,-308.25967 L2.2377622,-311.9088 L3.3566434,-315.52585 L4.4755244,-314.41498 L5.5944057,-312.05353 L6.713287,-318.80484 L7.8321676,-318.20313 L8.951049,-318.1944 L10.06993,-324.30118 L11.188811,-322.92337 L12.307693,-321.13797 L13.426574,-320.2076 L14.545455,-314.19934 L15.664335,-313.9065 L16.783216,-314.2679 L17.902098,-316.4148 L19.020979,-319.10834 L20.13986,-319.08405 L21.258741,-318.29675 L22.377623,-317.97195 L23.496504,-319.36676 L24.615385,-321.51605 L25.734266,-322.80496 L26.853148,-323.96362 L27.972029,-324.57767 L29.09091,-323.37512 L30.20979,-323.6559 L31.32867,-324.7539 L32.44755,-324.78253 L33.566433,-324.7604 L34.685314,-324.42606 L35.804195,-325.5062 L36.923077,-325.24982 L38.041958,-322.78845 L39.16084,-324.7758 L40.27972,-321.43558 L41.3986,-323.16693 L42.517483,-321.9006 L43.636364,-322.02933 L44.755245,-322.02063 L45.874126,-322.7706 L46.993008,-323.79898 L48.11189,-323.5409 L49.23077,-320.80676 L50.34965,-320.89468 L51.468533,-320.48294 L52.587414,-320.0397 L53.706295,-320.64728 L54.825176,-316.58408 L55.944057,-318.42996 L57.06294,-318.42984 L58.18182,-318.27924 L59.3007,-318.0181 L60.41958,-318.72464 L61.53846,-318.36487 L62.65734,-320.7165 L63.776222,-321.4907 L64.8951,-318.60016 L66.013985,-326.6544 L67.132866,-326.73892 L68.25175,-327.52405 L69.37063,-327.49597 L70.48951,-329.19086 L71.60839,-331.61862 L72.72727,-333.97308 L73.84615,-336.1178 L74.965034,-338.8028 L76.083916,-338.26038 L77.2028,-340 L78.32168,-339.3114 L79.44056,-338.98312 L80.55944,-338.5649 L81.67832,-338.52878 L82.7972,-333.92538 L83.916084,-331.6758 L85.034966,-332.04633 L86.15385,-337.21475 L87.27273,-338.96558 L88.39161,-336.1801 L89.51049,-333.27216 L90.62937,-332.65918 L91.74825,-333.87366 L92.867134,-335.06836 L93.986015,-334.14136 L95.1049,-335.37875 L96.22378,-334.0769 L97.34266,-331.45358 L98.46154,-331.69977 L99.58042,-330.5693 L100.6993,-328.40338 L101.818184,-327.4188 L102.937065,-326.25482 L104.05595,-323.71747 L105.17483,-322.82275 L106.29371,-322.89468 L107.41259,-323.1738 L108.53147,-324.16055 L109.65035,-326.26718 L110.76923,-326.7992 L111.888115,-326.4835 L113.006996,-325.2301 L114.12588,-324.42203 L115.24476,-324.2427 L116.36364,-323.97302 L117.48252,-323.7157 L118.6014,-323.54083 L119.72028,-323.55133 L120.83916,-323.5954 L121.95804,-325.03137 L123.07692,-325.8063 L124.1958,-326.85928 L125.31468,-328.25677 L126.43356,-328.8421 L127.552444,-329.38687 L128.67133,-330.25833 L129.7902,-329.34616 L130.90909,-329.39078 L132.02797,-325.1196 L133.14685,-321.7875 L134.26573,-319.50107 L135.38461,-317.23105 L136.5035,-316.04953 L137.62238,-311.5399 L138.74126,-308.38098 L139.86014,-303.6724 L140.97902,-300.7844 L142.0979,-298.3338 L143.21678,-296.47885 L144.33566,-292.60886 L145.45454,-289.60986 L146.57343,-289.72522 L147.6923,-283.88724 L148.81119,-281.9626 L149.93007,-279.52588 L151.04895,-278.93033 L152.16783,-278.5171 L153.28671,-283.17044 L154.4056,-292.1234 L155.52448,-294.31543 L156.64336,-294.31134 L157.76224,-286.18497 L158.88112,-282.6 L160,-278.207 L161.11888,-274.10513 L162.23776,-270.79712 L163.35664,-262.79123 L164.47552,-253.71321 L165.5944,-241.5744 L166.71329,-233.91795 L167.83217,-199.18944 L168.95105,-174.75287 L170.06993,-174.48344 L171.18881,-106.47456 L172.3077,-73.974686 L173.42657,-65.89934 L174.54546,-71.46255 L175.66434,-74.486046 L176.78322,-73.67351 L177.9021,-77.07021 L179.02098,-67.14892 L180.13986,-50.2217 L181.25874,-43.292362 L182.37762,-37.705063 L183.4965,-29.299742 L184.61539,-27.489702 L185.73427,-19.81881 L186.85315,-10.749141 L187.97203,-6.2814655 L189.09091,-0.6060434 L190.2098,0 L191.32867,-1.2583936 L192.44756,-6.987789 L193.56644,-10.864782 L194.68532,-12.858142 L195.8042,-23.298508 L196.92308,-59.494633 L198.04196,-68.340805 L199.16084,-68.34658 L200.27972,-67.04921 L201.3986,-79.71657 L202.51749,-95.6813 L203.63637,-200.12355 L204.75525,-218.13887 L205.87413,-247.31465 L206.99301,-247.42696 L208.1119,-298.4314 L209.23077,-312.84872 L210.34966,-317.0733 L211.46854,-306.71033 L212.58742,-296.07462 L213.7063,-299.83582 L214.82518,-304.84808 L215.94406,-297.8335 L217.06294,-290.32376 L218.18182,-287.25238 L219.3007,-287.2447 L220.41959,-282.8807 L221.53847,-284.98904 L222.65735,-286.0131 L223.77623,-285.2104 L224.89511,-283.90564 L226.01399,-281.4276 L227.13287,-281.33044 L228.25175,-281.31274 L229.37064,-282.02817 L230.48952,-286.99243 L231.6084,-286.81168 L232.72728,-269.5351 L233.84616,-268.6668 L234.96504,-271.24075 L236.08392,-271.23907 L237.2028,-270.99625 L238.32169,-270.39603 L239.44057,-271.02405 L240.55943,-271.3725 L241.67831,-270.24677 L242.7972,-271.24905 L243.91608,-271.22693 L245.03496,-271.7729 L246.15384,-272.4369 L247.27272,-272.85815 L248.3916,-272.8004 L249.51048,-273.4329 L250.62936,-273.71707 L251.74825,-274.78146 L252.86713,-275.23007 L253.98601,-276.08194 L255.10489,-276.21606 L256.2238,-276.53986 L257.34265,-277.56006 L258.46155,-277.5316 L259.5804,-276.27536 L260.6993,-277.3275 L261.81818,-277.49417 L262.93707,-277.58182 L264.05594,-277.59552 L265.17484,-277.57718 L266.2937,-277.90048 L267.4126,-278.02914 L268.53146,-277.6326 L269.65036,-277.09094 L270.76923,-277.08517 L271.88812,-276.03806 L273.007,-273.79874 L274.1259,-273.075 L275.24475,-273.87564 L276.36365,-274.95068 L277.4825,-276.59183 L278.6014,-277.5276 L279.72028,-278.38162 L280.83917,-278.4992 L281.95804,-262.06302 L283.07693,-259.84036 L284.1958,-256.3621 L285.3147,-252.1901 L286.43356,-246.61096 L287.55246,-241.04007 L288.67133,-240.17293 L289.79022,-235.22954 L290.9091,-235.20198 L292.02798,-230.14635 L293.14685,-211.51537 L294.26575,-208.23433 L295.3846,-201.44368 L296.5035,-198.86823 L297.62238,-201.29175 L298.74127,-208.63509 L299.86014,-215.58449 L300.97903,-214.7886 L302.0979,-214.8075 L303.2168,-206.57156 L304.33566,-205.71825 L305.45456,-198.71576 L306.57343,-198.72989 L307.69232,-197.9699 L308.8112,-205.91328 L309.93008,-208.2849 L311.04895,-208.40335 L312.16785,-206.97398 L313.2867,-210.61171 L314.4056,-214.11427 L315.52448,-218.59395 L316.64337,-219.26593 L317.76224,-219.42525 L318.88113,-219.53827 L320,-225.48372 L321.11887,-234.82094 L322.23776,-241.97523 L323.35663,-246.1827 L324.47552,-254.94035 L325.5944,-261.97958 L326.7133,-271.9894 L327.83215,-280.805 L328.95105,-287.88416 L330.06992,-286.8364 L331.1888,-286.84012 L332.30768,-289.79745 L333.42657,-291.96704 L334.54544,-296.4948 L335.66434,-300.9645 L336.7832,-300.82516 L337.9021,-299.50543 L339.02097,-298.2523 L340.13986,-299.64102 L341.25873,-301.451 L342.37762,-301.96085 L343.4965,-299.74466 L344.6154,-297.37402 L345.73425,-299.8916 L346.85315,-302.2109 L347.97202,-301.9529 L349.0909,-304.3344 L350.20978,-301.84113 L351.32867,-300.609 L352.44754,-301.38373 L353.56644,-301.87427 L354.6853,-303.21817 L355.8042,-304.6483 L356.92307,-306.1897 L358.04196,-306.1902 L359.16083,-306.7957 L360.27972,-307.57584 L361.3986,-310.49136 L362.5175,-313.00375 L363.63635,-316.6015 L364.75525,-319.30493 L365.8741,-323.92273 L366.993,-326.02908 L368.11188,-327.06213 L369.23077,-326.44043 L370.34964,-319.44763 L371.46854,-319.50668 L372.5874,-320.7269 L373.7063,-323.10135 L374.82516,-325.24258 L375.94406,-326.46545 L377.06293,-327.94193 L378.18182,-327.93134 L379.3007,-325.86 L380.4196,-319.1658 L381.53845,-315.2998 L382.65735,-306.17773 L383.7762,-303.22086 L384.8951,-300.79028 L386.01398,-301.0243 L387.13287,-304.5764 L388.25174,-308.9795 L389.37064,-314.4347 L390.4895,-316.95325 L391.6084,-318.72165 L392.72726,-318.71597 L393.84616,-325.24255 L394.96503,-327.40152 L396.08392,-328.9616 L397.2028,-328.77557 L398.3217,-328.52026 L399.44055,-327.86646 L400.55945,-326.9396 L401.6783,-326.93753 L402.7972,-323.14404 L403.91608,-324.61673 L405.03497,-320.19037 L406.15384,-316.35175 L407.27274,-308.48895 L408.3916,-306.52332 L409.5105,-307.46878 L410.62936,-308.27042 L411.74826,-307.6755 L412.86713,-307.67636 L413.98602,-304.80673 L415.1049,-305.0797 L416.2238,-305.59323 L417.34265,-305.05338 L418.46155,-305.5889 L419.5804,-305.59213 L420.6993,-307.06543 L421.81818,-306.8871 L422.93707,-306.77457 L424.05594,-307.93625 L425.17484,-309.75443 L426.2937,-307.2275 L427.4126,-305.73013 L428.53146,-306.07523 L429.65036,-305.48465 L430.76923,-303.21902 L431.88812,-299.66684 L433.007,-297.0862 L434.1259,-297.12308 L435.24475,-294.78168 L436.36365,-295.85028 L437.4825,-297.49506 L438.6014,-298.34232 L439.72028,-299.2948 L440.83917,-300.1787 L441.95804,-303.3876 L443.07693,-305.28204 L444.1958,-307.6831 L445.3147,-308.63776 L446.43356,-308.93237 L447.55246,-308.92188 L448.67133,-314.77557 L449.79022,-314.14227 L450.9091,-313.05176 L452.02798,-314.18732 L453.14685,-312.21387 L454.26575,-312.85812 L455.3846,-313.48343 L456.5035,-313.23428 L457.62238,-313.23486 L458.74127,-313.39587 L459.86014,-311.50595 L460.97903,-308.98392 L462.0979,-306.87088 L463.2168,-296.3211 L464.33566,-290.72986 L465.45456,-289.05676 L466.57343,-261.1549 L467.69232,-261.0325 L468.8112,-260.9907 L469.93008,-260.9514 L471.04895,-234.89348 L472.16785,-234.37743 L473.2867,-232.66779 L474.4056,-233.3421 L475.52448,-230.3241 L476.64337,-224.32227 L477.76224,-216.29422 L478.88113,-213.69035 L480,-211.31766" fill="none" stroke="#ff0000" stroke-linejoin="round" stroke-width="2"/>
</g>
</g>
<g transform="translate(380, -340)">
<text font-size="12" text-anchor="start" x="0" y="0">
speed
</text>
<line stroke="#ff0000" stroke-width="2" x1="-10" x2="-3" y1="-4" y2="-4"/>
</g>
<g>
<g>
<line stroke="black" stroke-width="1" x1="0.00020139862526525864" x2="0.00020139862526525864" y1="0" y2="10"/>
<line stroke="black" stroke-width="1" x1="96.22397762242336" x2="96.22397762242336" y1="0" y2="10"/>
<line stroke="black" stroke-width="1" x1="192.44775384622147" x2="192.44775384622147" y1="0" y2="10"/>
<line stroke="black" stroke-width="1" x1="288.67153007001957" x2="288.67153007001957" y1="0" y2="10"/>
<line stroke="black" stroke-width="1" x1="384.89530629381767" x2="384.89530629381767" y1="0" y2="10"/>
</g>
<line stroke="black" stroke-width="1" x1="0" x2="480" y1="0" y2="0"/>
<g>
<text font-size="12" text-anchor="middle" x="0.00020139862526525864" y="20">
72.02326
</text>
<text font-size="12" text-anchor="middle" x="96.22397762242336" y="20">
74.02326
</text>
<text font-size="12" text-anchor="middle" x="192.44775384622147" y="20">
76.02326
</text>
<text font-size="12" text-anchor="middle" x="288.67153007001957" y="20">
78.02326
</text>
<text font-size="12" text-anchor="middle" x="384.89530629381767" y="20">
80.02326
</text>
</g>
<text font-size="12" text-anchor="middle" x="240" y="30">
Time (s)
</text>
</g>
<g>
<g>
<line stroke="black" stroke-width="1" x1="0" x2="-10" y1="-4.218913944286576" y2="-4.218913944286576"/>
<line stroke="black" stroke-width="1" x1="0" x2="-10" y1="-82.4533763373706" y2="-82.4533763373706"/>
<line stroke="black" stroke-width="1" x1="0" x2="-10" y1="-160.68783873045462" y2="-160.68783873045462"/>
<line stroke="black" stroke-width="1" x1="0" x2="-10" y1="-238.92230112353866" y2="-238.92230112353866"/>
<line stroke="black" stroke-width="1" x1="0" x2="-10" y1="-317.1567635166227" y2="-317.1567635166227"/>
</g>
<line stroke="black" stroke-width="1" x1="0" x2="0" y1="0" y2="-340"/>
<g>
<text dominant-baseline="middle" font-size="12" text-anchor="end" x="-15" y="-4.218913944286576">
-16
</text>
<text dominant-baseline="middle" font-size="12" text-anchor="end" x="-15" y="-82.4533763373706">
-12
</text>
<text dominant-baseline="middle" font-size="12" text-anchor="end" x="-15" y="-160.68783873045462">
-8
</text>
<text dominant-baseline="middle" font-size="12" text-anchor="end" x="-15" y="-238.92230112353866">
-4
</text>
<text dominant-baseline="middle" font-size="12" text-anchor="end" x="-15" y="-317.1567635166227">
0
</text>
</g>
<text font-size="12" text-anchor="middle" transform="rotate(-90 -36 -170)" x="-36" y="-182">
Speed (dgr/s)
</text>
</g>
</g>
</svg>