<svg viewBox="0 0 600 400" xmlns="http://www.w3.org/2000/svg">
<g transform="translate(72, 364)">
<g>
<g>
<path d="M0,-117.465805 L0,-117.465805 L1.1188811,-110.00699 L2.2377622,-109.345116 L3.3566434,-118.24648 L4.4755244,-124.62763 L5.5944057,-148.28542 L6.713287,-137.72087 L7.8321676,-152.84216 L8.951049,-152.84216 L10.06993,-141.87032 L11.188811,-128.69223 L12.307693,-113.5285 L13.426574,-121.479485 L14.545455,-141.36967 L15.664335,-153.42767 L16.783216,-143.1092 L17.902098,-135.8201 L19.020979,-131.1785 L20.13986,-131.1785 L21.258741,-133.53749 L22.377623,-130.34691 L23.496504,-127.32604 L24.615385,-121.98013 L25.734266,-121.31826 L26.853148,-121.36069 L27.972029,-124.00819 L29.09091,-127.5297 L30.20979,-126.49446 L31.32867,-126.07867 L32.44755,-127.81821 L33.566433,-127.81821 L34.685314,-125.7053 L35.804195,-126.324745 L36.923077,-134.61516 L38.041958,-129.51532 L39.16084,-133.49506 L40.27972,-132.21373 L41.3986,-134.08057 L42.517483,-135.07338 L43.636364,-128.10672 L44.755245,-128.10672 L45.874126,-118.24648 L46.993008,-122.4723 L48.11189,-128.60736 L49.23077,-132.96046 L50.34965,-137.67845 L51.468533,-138.00938 L52.587414,-129.64261 L53.706295,-134.15694 L54.825176,-131.92523 L55.944057,-131.55186 L57.06294,-131.55186 L58.18182,-132.5871 L59.3007,-130.21962 L60.41958,-131.42458 L61.53846,-129.81232 L62.65734,-134.36908 L63.776222,-138.42517 L64.8951,-128.93831 L66.013985,-126.69811 L67.132866,-136.02376 L68.25175,-133.82599 L69.37063,-133.82599 L70.48951,-133.37627 L71.60839,-132.37497 L72.72727,-128.93831 L73.84615,-128.48009 L74.965034,-127.36848 L76.083916,-123.1766 L77.2028,-111.661674 L78.32168,-101.67416 L79.44056,-82.615555 L80.55944,-70.68484 L81.67832,-70.68484 L82.7972,-67.697914 L83.916084,-73.502045 L85.034966,-102.96396 L86.15385,-123.01537 L87.27273,-146.21494 L88.39161,-161.46352 L89.51049,-163.94978 L90.62937,-153.67375 L91.74825,-133.0029 L92.867134,-121.06369 L93.986015,-121.06369 L95.1049,-112.56963 L96.22378,-113.401215 L97.34266,-153.91983 L98.46154,-145.0609 L99.58042,-129.60017 L100.6993,-134.94609 L101.818184,-137.22871 L102.937065,-118.17011 L104.05595,-124.177895 L105.17483,-124.67006 L106.29371,-124.67006 L107.41259,-116.34571 L108.53147,-115.64141 L109.65035,-113.401215 L110.76923,-115.098335 L111.888115,-118.61984 L113.006996,-119.536285 L114.12588,-118.61984 L115.24476,-118.577415 L116.36364,-119.69752 L117.48252,-121.479485 L118.6014,-125.7053 L119.72028,-125.79015 L120.83916,-125.79015 L121.95804,-127.945496 L123.07692,-132.50224 L124.1958,-134.08057 L125.31468,-134.45393 L126.43356,-137.38994 L127.552444,-138.13667 L128.67133,-144.51782 L129.7902,-147.37746 L130.90909,-147.37746 L132.02797,-148.20905 L133.14685,-153.47011 L134.26573,-155.16722 L135.38461,-152.63852 L136.5035,-146.80045 L137.62238,-147.50475 L138.74126,-139.54527 L139.86014,-117.83917 L140.97902,-103.583405 L142.0979,-85.97584 L143.21678,-82.12339 L144.33566,-74.91065 L145.45454,-71.47399 L146.57343,-71.47399 L147.6923,-65.71229 L148.81119,-74.868225 L149.93007,-105.076866 L151.04895,-107.68194 L152.16783,-104.99201 L153.28671,-129.18439 L154.4056,-120.31696 L155.52448,-115.098335 L156.64336,-115.098335 L157.76224,-116.5918 L158.88112,-127.44485 L160,-137.55965 L161.11888,-140.0035 L162.23776,-141.87032 L163.35664,-150.02496 L164.47552,-150.5256 L165.5944,-167.68344 L166.71329,-168.92233 L167.83217,-213.08975 L168.95105,-295.08585 L170.06993,-295.08585 L171.18881,-181.39613 L172.3077,-179.61415 L173.42657,-103.95677 L174.54546,-48.350803 L175.66434,-54.81681 L176.78322,-54.81681 L177.9021,-56.929718 L179.02098,-27.425377 L180.13986,-36.997105 L181.25874,-33.7641 L182.37762,-16.402617 L183.4965,-6.050215 L184.61539,-8.163123 L185.73427,-1.196466 L186.85315,-2.4862733 L187.97203,-6.4235797 L189.09091,-12.965958 L190.2098,-12.965958 L191.32867,0 L192.44756,-21.502445 L193.56644,-23.785065 L194.68532,-50.1752 L195.8042,-195.85555 L196.92308,-283.44363 L198.04196,-340 L199.16084,-340 L200.27972,-320.98383 L201.3986,-293.67725 L202.51749,-269.56125 L203.63637,-160.42827 L204.75525,-151.06868 L205.87413,-131.00879 L206.99301,-131.00879 L208.1119,-113.81701 L209.23077,-109.794846 L210.34966,-94.5887 L211.46854,-86.221924 L212.58742,-85.93341 L213.7063,-93.392235 L214.82518,-90.90596 L215.94406,-89.53978 L217.06294,-95.293 L218.18182,-96.58281 L219.3007,-96.58281 L220.41959,-91.98363 L221.53847,-80.5875 L222.65735,-78.18608 L223.77623,-70.3539 L224.89511,-70.84606 L226.01399,-73.37476 L227.13287,-76.31926 L228.25175,-76.31926 L229.37064,-77.15084 L230.48952,-77.88909 L231.6084,-77.88909 L232.72728,-102.9979 L233.84616,-106.40062 L234.96504,-107.43586 L236.08392,-111.788956 L237.2028,-109.75242 L238.32169,-111.28831 L239.44057,-111.8229 L240.55943,-110.21064 L241.67831,-108.14016 L242.7972,-104.66108 L243.91608,-104.66108 L245.03496,-117.465805 L246.15384,-114.60617 L247.27272,-119.24778 L248.3916,-119.24778 L249.51048,-118.704704 L250.62936,-119.57871 L251.74825,-124.38155 L252.86713,-124.71249 L253.98601,-125.45922 L255.10489,-123.96576 L256.2238,-121.937706 L257.34265,-119.536285 L258.46155,-119.536285 L259.5804,-125.74773 L260.6993,-125.544075 L261.81818,-125.7053 L262.93707,-123.880905 L264.05594,-124.33913 L265.17484,-124.33913 L266.2937,-125.45922 L267.4126,-125.416794 L268.53146,-121.98013 L269.65036,-119.69752 L270.76923,-119.69752 L271.88812,-124.75491 L273.007,-126.324745 L274.1259,-127.156334 L275.24475,-128.31886 L276.36365,-129.85475 L277.4825,-129.93112 L278.6014,-130.72028 L279.72028,-132.25616 L280.83917,-132.25616 L281.95804,-138.5949 L283.07693,-138.00938 L284.1958,-136.85535 L285.3147,-136.48198 L286.43356,-136.72806 L287.55246,-142.73586 L288.67133,-145.4682 L289.79022,-143.31287 L290.9091,-143.31287 L292.02798,-140.95387 L293.14685,-136.52441 L294.26575,-137.84816 L295.3846,-137.01657 L296.5035,-136.52441 L297.62238,-136.85535 L298.74127,-134.28421 L299.86014,-126.324745 L300.97903,-119.65508 L302.0979,-119.65508 L303.2168,-112.16232 L304.33566,-112.56963 L305.45456,-114.27523 L306.57343,-114.27523 L307.69232,-117.71189 L308.8112,-124.508835 L309.93008,-130.0584 L311.04895,-133.0029 L312.16785,-138.51004 L313.2867,-138.67975 L314.4056,-139.34161 L315.52448,-139.50284 L316.64337,-143.39772 L317.76224,-147.25017 L318.88113,-147.25017 L320,-146.05371 L321.11887,-140.33443 L322.23776,-127.98792 L323.35663,-126.36717 L324.47552,-120.65639 L325.5944,-119.1205 L326.7133,-120.69032 L327.83215,-126.03624 L328.95105,-113.90186 L330.06992,-125.001 L331.1888,-125.001 L332.30768,-125.99381 L333.42657,-132.25616 L334.54544,-128.69223 L335.66434,-139.96106 L336.7832,-146.91924 L337.9021,-148.91335 L339.02097,-140.16472 L340.13986,-136.43956 L341.25873,-121.19098 L342.37762,-116.506935 L343.4965,-118.17011 L344.6154,-136.22742 L345.73425,-142.4049 L346.85315,-138.00938 L347.97202,-138.00938 L349.0909,-126.324745 L350.20978,-123.473595 L351.32867,-123.10023 L352.44754,-120.69032 L353.56644,-120.444244 L354.6853,-118.704704 L355.8042,-118.95078 L356.92307,-117.42338 L358.04196,-117.42338 L359.16083,-117.91554 L360.27972,-117.873116 L361.3986,-117.796745 L362.5175,-116.837875 L363.63635,-117.092445 L364.75525,-116.96516 L365.8741,-111.24588 L366.993,-107.020065 L368.11188,-103.49855 L369.23077,-107.724365 L370.34964,-102.879105 L371.46854,-102.879105 L372.5874,-150.56804 L373.7063,-156.24489 L374.82516,-172.6475 L375.94406,-168.54897 L377.06293,-152.1803 L378.18182,-152.1803 L379.3007,-138.00938 L380.4196,-126.69811 L381.53845,-125.45922 L382.65735,-146.05371 L383.7762,-151.93422 L384.8951,-138.13667 L386.01398,-131.00879 L387.13287,-122.02256 L388.25174,-120.48667 L389.37064,-117.092445 L390.4895,-121.02126 L391.6084,-118.66228 L392.72726,-118.66228 L393.84616,-119.867226 L394.96503,-125.08585 L396.08392,-125.25556 L397.2028,-123.84696 L398.3217,-126.12109 L399.44055,-124.177895 L400.55945,-124.33913 L401.6783,-124.33913 L402.7972,-138.4676 L403.91608,-127.32604 L405.03497,-124.79735 L406.15384,-126.74054 L407.27274,-132.21373 L408.3916,-133.82599 L409.5105,-130.76271 L410.62936,-130.30449 L411.74826,-128.14914 L412.86713,-128.14914 L413.98602,-128.81102 L415.1049,-131.09364 L416.2238,-131.75551 L417.34265,-132.62953 L418.46155,-130.10083 L419.5804,-130.10083 L420.6993,-129.81232 L421.81818,-132.0016 L422.93707,-131.8828 L424.05594,-132.67195 L425.17484,-135.03094 L426.2937,-137.84816 L427.4126,-137.38994 L428.53146,-137.38994 L429.65036,-134.28421 L430.76923,-134.65758 L431.88812,-140.91145 L433.007,-144.18689 L434.1259,-144.18689 L435.24475,-128.73465 L436.36365,-125.544075 L437.4825,-132.08646 L438.6014,-129.81232 L439.72028,-121.89528 L440.83917,-125.620445 L441.95804,-123.92333 L443.07693,-127.5297 L444.1958,-120.28302 L445.3147,-123.01537 L446.43356,-126.53689 L447.55246,-126.53689 L448.67133,-128.73465 L449.79022,-125.416794 L450.9091,-122.31107 L452.02798,-128.93831 L453.14685,-129.85475 L454.26575,-128.48009 L455.3846,-131.79794 L456.5035,-125.50165 L457.62238,-125.50165 L458.74127,-133.24898 L459.86014,-129.26924 L460.97903,-133.24898 L462.0979,-132.17131 L463.2168,-129.55775 L464.33566,-132.12888 L465.45456,-135.48917 L466.57343,-142.90556 L467.69232,-142.90556 L468.8112,-142.90556 L469.93008,-142.90556 L471.04895,-115.88749 L472.16785,-117.75432 L473.2867,-122.59958 L474.4056,-124.09304 L475.52448,-128.69223 L476.64337,-135.65039 L477.76224,-139.1719 L478.88113,-139.34161 L480,-139.01068" fill="none" stroke="#ff0000" stroke-linejoin="round" stroke-width="2"/>
</g>
</g>
<g transform="translate(380, -340)">
<text font-size="12" text-anchor="start" x="0" y="0">
accel
</text>
<line stroke="#ff0000" stroke-width="2" x1="-10" x2="-3" y1="-4" y2="-4"/>
</g>
<g>
<g>
<line stroke="black" stroke-width="1" x1="0.00020139862526525864" x2="0.00020139862526525864" y1="0" y2="10"/>
<line stroke="black" stroke-width="1" x1="96.22397762242336" x2="96.22397762242336" y1="0" y2="10"/>
<line stroke="black" stroke-width="1" x1="192.44775384622147" x2="192.44775384622147" y1="0" y2="10"/>
<line stroke="black" stroke-width="1" x1="288.67153007001957" x2="288.67153007001957" y1="0" y2="10"/>
<line stroke="black" stroke-width="1" x1="384.89530629381767" x2="384.89530629381767" y1="0" y2="10"/>
</g>
<line stroke="black" stroke-width="1" x1="0" x2="480" y1="0" y2="0"/>
<g>
<text font-size="12" text-anchor="middle" x="0.00020139862526525864" y="20">
72.02326
</text>
<text font-size="12" text-anchor="middle" x="96.22397762242336" y="20">
74.02326
</text>
<text font-size="12" text-anchor="middle" x="192.44775384622147" y="20">
76.02326
</text>
<text font-size="12" text-anchor="middle" x="288.67153007001957" y="20">
78.02326
</text>
<text font-size="12" text-anchor="middle" x="384.89530629381767" y="20">
80.02326
</text>
</g>
<text font-size="12" text-anchor="middle" x="240" y="30">
Time (s)
</text>
</g>
<g>
<g>
<line stroke="black" stroke-width="1" x1="0" x2="-10" y1="-45.533592892083455" y2="-45.533592892083455"/>
<line stroke="black" stroke-width="1" x1="0" x2="-10" y1="-130.38933812518718" y2="-130.38933812518718"/>
<line stroke="black" stroke-width="1" x1="0" x2="-10" y1="-215.24508335829088" y2="-215.24508335829088"/>
<line stroke="black" stroke-width="1" x1="0" x2="-10" y1="-300.1008285913946" y2="-300.1008285913946"/>
</g>
<line stroke="black" stroke-width="1" x1="0" x2="0" y1="0" y2="-340"/>
<g>
<text dominant-baseline="middle" font-size="12" text-anchor="end" x="-15" y="-45.533592892083455">
-1
</text>
<text dominant-baseline="middle" font-size="12" text-anchor="end" x="-15" y="-130.38933812518718">
0
</text>
<text dominant-baseline="middle" font-size="12" text-anchor="end" x="-15" y="-215.24508335829088">
1
</text>
<text dominant-baseline="middle" font-size="12" text-anchor="end" x="-15" y="-300.1008285913946">
2
</text>
</g>
<text font-size="12" text-anchor="middle" transform="rotate(-90 -24 -170)" x="-24" y="-182">
Accel (g)
</text>
</g>
</g>
</svg>