<svg viewBox="0 0 600 400" xmlns="http://www.w3.org/2000/svg">
<g transform="translate(72, 364)">
<g>
<g>
<path d="M0,-56.559418 L0,-56.559418 L1.2030075,-38.533222 L2.406015,-22.69997 L3.6090226,-28.19504 L4.81203,-28.19504 L6.0150375,-61.478733 L7.218045,-94.423744 L8.421053,-109.26636 L9.62406,-125.09961 L10.827067,-116.378624 L12.030075,-106.78554 L13.233083,-94.26288 L14.43609,-83.42514 L15.639098,-77.88774 L16.842106,-108.27573 L18.045113,-108.27573 L19.24812,-117.36926 L20.451128,-97.07391 L21.654135,-93.01823 L22.857143,-95.668396 L24.06015,-93.93266 L25.263159,-92.27313 L26.466166,-89.50443 L27.669172,-84.00936 L28.87218,-84.83066 L30.075188,-83.92469 L31.278196,-83.92469 L32.4812,-83.72149 L33.68421,-81.985756 L34.88722,-80.49557 L36.090225,-79.62347 L37.293232,-82.3583 L38.49624,-86.86273 L39.69925,-86.57486 L40.902256,-85.41488 L42.105263,-87.93804 L43.30827,-90.99462 L44.51128,-89.79231 L45.714287,-86.27851 L46.917294,-85.70276 L48.1203,-89.34356 L49.323307,-93.01823 L50.526318,-93.01823 L51.729324,-93.01823 L52.93233,-109.063156 L54.135338,-108.605934 L55.338345,-108.64827 L56.541355,-106.336784 L57.74436,-105.87957 L58.94737,-109.681244 L60.150375,-112.44994 L61.353382,-113.48292 L62.556393,-113.48292 L63.7594,-108.31806 L64.9624,-92.64568 L66.16541,-33.283695 L67.36842,-33.283695 L68.57143,-49.819702 L69.77444,-65.85616 L70.97744,-85.28788 L72.18045,-90.90995 L73.38346,-94.17821 L74.586464,-94.17821 L75.789474,-96.32882 L76.99248,-101.908554 L78.19549,-108.3604 L79.3985,-118.19902 L80.6015,-122.21237 L81.80451,-122.91513 L83.00752,-113.56759 L84.210526,-113.56759 L85.413536,-300.14594 L86.61654,-296.96234 L87.81955,-247.47285 L89.02256,-110.09612 L90.22556,-134.6927 L91.42857,-67.96444 L92.63158,-19.846598 L93.83459,-19.846598 L95.0376,-48.617393 L96.2406,-43.82508 L97.44361,-9.339078 L98.646614,-13.724973 L99.849625,-11.48969 L101.052635,-4.419763 L102.25564,-10.668393 L103.45865,0 L104.66165,-12.649666 L105.86466,-24.808249 L107.06767,-24.808249 L108.270676,-40.47216 L109.47369,-58.371353 L110.67669,-73.58651 L111.8797,-72.72288 L113.08271,-67.718895 L114.28571,-46.796993 L115.48872,-40.929375 L116.69173,-76.025 L117.89474,-241.11415 L119.09775,-340 L120.30075,-273.6443 L121.50376,-240.90248 L122.706764,-240.90248 L123.909775,-240.44527 L125.112785,-217.25421 L126.31579,-202.49626 L127.5188,-181.78604 L128.7218,-152.55803 L129.9248,-125.18428 L131.12782,-90.53741 L132.33083,-90.53741 L133.53383,-50.895008 L134.73685,-43.452534 L135.93985,-43.613407 L137.14285,-61.14852 L138.34587,-61.681942 L139.54887,-61.681942 L140.75188,-61.681942 L141.95488,-61.681942 L143.1579,-85.042336 L144.3609,-85.829765 L145.5639,-84.58512 L146.76692,-86.820404 L147.96992,-86.9474 L149.17293,-83.72149 L150.37595,-83.72149 L151.57895,-89.63144 L152.78195,-89.54677 L153.98495,-89.54677 L155.18797,-79.6658 L156.39098,-82.104294 L157.59398,-85.20321 L158.797,-86.032974 L160,-85.57575 L161.203,-84.170235 L162.40602,-85.9483 L163.60902,-88.26826 L164.81203,-89.41976 L166.01505,-89.96165 L167.21805,-89.96165 L168.42105,-90.53741 L169.62405,-90.53741 L170.82707,-91.2825 L172.03008,-93.975 L173.23308,-93.975 L174.4361,-93.80566 L175.6391,-93.56011 L176.8421,-96.15948 L178.04512,-97.03158 L179.24812,-98.936646 L180.45113,-98.936646 L181.65413,-98.936646 L182.85715,-104.67726 L184.06015,-99.75794 L185.26315,-95.75306 L186.46617,-94.711624 L187.66917,-88.886345 L188.87218,-90.83375 L190.0752,-90.83375 L191.2782,-88.05658 L192.4812,-87.48083 L193.6842,-90.79141 L194.88722,-96.41349 L196.09023,-96.24415 L197.29323,-97.89521 L198.49625,-92.56948 L199.69925,-97.31945 L200.90225,-97.77667 L202.10527,-103.60195 L203.30827,-103.60195 L204.51128,-106.04044 L205.71428,-103.068535 L206.9173,-104.347046 L208.1203,-105.7949 L209.3233,-112.57695 L210.52632,-109.30869 L211.72932,-113.48292 L212.93233,-107.77618 L214.13535,-104.96513 L215.33835,-100.96026 L216.54135,-103.35641 L217.74435,-98.149216 L218.94737,-97.81901 L220.15038,-97.81901 L221.35338,-70.28439 L222.5564,-63.959557 L223.7594,-60.775974 L224.9624,-64.162766 L226.16542,-88.717 L227.36842,-94.55075 L228.57143,-111.1291 L229.77443,-115.92141 L230.97745,-121.34027 L232.18045,-120.88306 L233.38345,-120.88306 L234.58647,-112.246735 L235.78947,-104.1015 L236.99248,-96.371155 L238.1955,-98.97051 L239.3985,-100.34216 L240.6015,-108.40273 L241.8045,-108.690605 L243.00752,-105.049805 L244.21053,-98.52177 L245.41353,-98.52177 L246.61655,-90.20719 L247.81955,-89.79231 L249.02255,-90.37653 L250.22557,-88.22592 L251.42857,-85.66042 L252.63158,-84.542786 L253.83458,-83.50981 L255.0376,-83.72149 L256.2406,-85.70276 L257.4436,-87.48083 L258.6466,-87.48083 L259.8496,-89.089554 L261.05264,-88.42912 L262.25565,-95.16884 L263.45865,-109.55424 L264.66165,-85.99064 L265.86465,-92.239265 L267.06766,-89.673775 L268.2707,-89.673775 L269.4737,-99.30073 L270.6767,-98.352425 L271.8797,-101.82388 L273.0827,-99.01285 L274.2857,-95.95627 L275.4887,-94.30521 L276.69174,-96.862236 L277.89474,-98.52177 L279.09775,-98.52177 L280.30075,-99.71561 L281.50375,-97.19245 L282.70676,-99.30073 L283.90976,-99.224525 L285.1128,-92.06993 L286.3158,-96.98924 L287.5188,-99.84261 L288.7218,-95.499054 L289.9248,-94.423744 L291.1278,-96.371155 L292.33084,-94.13587 L293.53384,-94.13587 L294.73685,-105.17681 L295.93985,-110.756546 L297.14285,-107.69997 L298.34586,-102.03556 L299.54886,-102.03556 L300.7519,-97.03158 L301.9549,-97.27712 L303.1579,-96.48969 L304.3609,-97.97988 L305.5639,-107.03954 L306.7669,-102.89919 L307.9699,-104.059166 L309.17294,-103.153206 L310.37595,-103.153206 L311.57895,-107.44596 L312.78195,-109.4357 L313.98495,-110.13846 L315.18796,-107.44596 L316.391,-109.850586 L317.594,-103.44108 L318.797,-105.38002 L320,-104.96513 L321.203,-103.88983 L322.406,-99.75794 L323.609,-98.52177 L324.81204,-98.52177 L326.01505,-93.89033 L327.21805,-89.25889 L328.42105,-87.15061 L329.62405,-85.08467 L330.82706,-91.61271 L332.0301,-93.229904 L333.2331,-92.027596 L334.4361,-92.027596 L335.6391,-81.486206 L336.8421,-76.72776 L338.0451,-80.58024 L339.2481,-92.527145 L340.45114,-99.96962 L341.65414,-100.13049 L342.85715,-100.13049 L344.06015,-109.30869 L345.26315,-93.14523 L346.46616,-89.30122 L347.66916,-89.30122 L348.8722,-94.17821 L350.0752,-98.23389 L351.2782,-106.667 L352.4812,-106.41299 L353.6842,-105.50702 L354.8872,-112.119736 L356.09024,-106.7432 L357.29324,-106.912544 L358.49625,-98.39476 L359.69925,-98.39476 L360.90225,-98.39476 L362.10526,-95.084175 L363.30826,-86.244644 L364.5113,-93.517784 L365.7143,-100.74858 L366.9173,-99.80028 L368.1203,-103.9745 L369.3233,-101.53601 L370.5263,-100.714714 L371.7293,-99.34306 L372.93234,-94.96564 L374.13535,-95.211174 L375.33835,-95.211174 L376.54135,-100.79092 L377.74435,-101.82388 L378.94736,-137.01265 L380.1504,-126.09872 L381.3534,-97.03158 L382.5564,-84.09403 L383.7594,-80.614105 L384.9624,-78.344955 L386.1654,-77.02411 L387.3684,-70.73314 L388.57144,-116.090744 L389.77444,-116.090744 L390.97745,-115.51499 L392.18045,-128.03766 L393.38345,-125.80237 L394.58646,-112.57695 L395.78946,-103.52575 L396.9925,-96.98924 L398.1955,-94.0512 L399.3985,-96.57436 L400.6015,-96.57436 L401.8045,-96.57436 L403.0075,-96.57436 L404.21054,-96.57436 L405.41354,-96.57436 L406.61655,-104.80426 L407.81955,-90.57974 L409.02255,-90.57974 L410.22556,-103.35641 L411.42856,-113.813126 L412.6316,-97.40412 L413.8346,-93.93266 L415.0376,-94.09354 L416.2406,-99.639404 L417.4436,-100.29983 L418.6466,-100.29983 L419.8496,-113.73692 L421.05264,-113.73692 L422.25565,-108.31806 L423.45865,-99.3854 L424.66165,-87.023605 L425.86465,-87.023605 L427.06766,-87.023605 L428.2707,-73.79819 L429.4737,-71.148026 L430.6767,-78.260284 L431.8797,-71.647575 L433.0827,-70.24206 L434.2857,-75.61859 L435.4887,-89.91931 L436.69174,-89.91931 L437.89474,-104.43172 L439.09775,-113.8978 L440.30075,-138.2065 L441.50375,-143.87091 L442.70676,-134.57416 L443.90976,-134.44716 L445.1128,-121.213264 L446.3158,-110.58721 L447.5188,-103.93217 L448.7218,-97.89521 L449.9248,-97.89521 L451.1278,-101.493675 L452.33084,-103.153206 L453.53384,-101.37514 L454.73685,-100.4607 L455.93985,-98.5641 L457.14285,-97.158585 L458.34586,-96.90457 L459.54886,-94.9233 L460.7519,-94.9233 L461.9549,-88.22592 L463.1579,-81.283 L464.3609,-72.22333 L465.5639,-62.841915 L466.7669,-53.375835 L467.9699,-43.613407 L469.17294,-37.991333 L470.37595,-56.347744 L471.57895,-84.38191 L472.78195,-87.7687 L473.98495,-87.7687 L475.18796,-136.05588 L476.391,-140.44177 L477.594,-127.207886 L478.797,-106.125114 L480,-95.82927" fill="none" stroke="#ff0000" stroke-linejoin="round" stroke-width="2"/>
</g>
</g>
<g transform="translate(380, -340)">
<text font-size="12" text-anchor="start" x="0" y="0">
accel
</text>
<line stroke="#ff0000" stroke-width="2" x1="-10" x2="-3" y1="-4" y2="-4"/>
</g>
<g>
<g>
<line stroke="black" stroke-width="1" x1="0.000000000022224494592200038" x2="0.000000000022224494592200038" y1="0" y2="10"/>
<line stroke="black" stroke-width="1" x1="120.3007518797454" x2="120.3007518797454" y1="0" y2="10"/>
<line stroke="black" stroke-width="1" x1="240.60150375946859" x2="240.60150375946859" y1="0" y2="10"/>
<line stroke="black" stroke-width="1" x1="360.90225563919176" x2="360.90225563919176" y1="0" y2="10"/>
</g>
<line stroke="black" stroke-width="1" x1="0" x2="480" y1="0" y2="0"/>
<g>
<text font-size="12" text-anchor="middle" x="0.000000000022224494592200038" y="20">
88.02
</text>
<text font-size="12" text-anchor="middle" x="120.3007518797454" y="20">
90.02
</text>
<text font-size="12" text-anchor="middle" x="240.60150375946859" y="20">
92.02
</text>
<text font-size="12" text-anchor="middle" x="360.90225563919176" y="20">
94.02
</text>
</g>
<text font-size="12" text-anchor="middle" x="240" y="30">
Time (s)
</text>
</g>
<g>
<g>
<line stroke="black" stroke-width="1" x1="0" x2="-10" y1="-13.394760434306198" y2="-13.394760434306198"/>
<line stroke="black" stroke-width="1" x1="0" x2="-10" y1="-98.06454826177905" y2="-98.06454826177905"/>
<line stroke="black" stroke-width="1" x1="0" x2="-10" y1="-182.7343360892519" y2="-182.7343360892519"/>
<line stroke="black" stroke-width="1" x1="0" x2="-10" y1="-267.40412391672476" y2="-267.40412391672476"/>
</g>
<line stroke="black" stroke-width="1" x1="0" x2="0" y1="0" y2="-340"/>
<g>
<text dominant-baseline="middle" font-size="12" text-anchor="end" x="-15" y="-13.394760434306198">
-1
</text>
<text dominant-baseline="middle" font-size="12" text-anchor="end" x="-15" y="-98.06454826177905">
0
</text>
<text dominant-baseline="middle" font-size="12" text-anchor="end" x="-15" y="-182.7343360892519">
1
</text>
<text dominant-baseline="middle" font-size="12" text-anchor="end" x="-15" y="-267.40412391672476">
2
</text>
</g>
<text font-size="12" text-anchor="middle" transform="rotate(-90 -24 -170)" x="-24" y="-182">
Accel (g)
</text>
</g>
</g>
</svg>