<svg viewBox="0 0 600 400" xmlns="http://www.w3.org/2000/svg">
<g transform="translate(72, 364)">
<g>
<g>
<path d="M0,-206.66728 L0,-206.66728 L2.7586207,-206.66728 L5.5172415,-206.66728 L8.275862,-207.88463 L11.034483,-208.9662 L13.793103,-212.3467 L16.551723,-212.3467 L19.310345,-212.3467 L22.068966,-216.94453 L24.827587,-219.52855 L27.586206,-218.11662 L30.344828,-216.2612 L33.103447,-213.76315 L35.86207,-211.81723 L38.62069,-212.7223 L41.37931,-212.7223 L44.13793,-217.29752 L46.896553,-218.33836 L49.655174,-214.40125 L52.41379,-212.48247 L55.172413,-210.36003 L57.931034,-211.00266 L60.689655,-213.56404 L63.448277,-213.29704 L66.206894,-213.14317 L68.965515,-211.35564 L71.72414,-208.83496 L74.48276,-208.83496 L77.24138,-207.66289 L80,-203.97466 L82.75862,-203.99728 L85.51724,-204.7485 L88.27586,-205.73958 L91.034485,-205.98395 L93.793106,-201.67574 L96.55173,-200.9924 L99.31035,-200.9924 L102.06896,-200.19592 L104.82758,-200.32716 L107.586205,-203.97466 L110.344826,-206.0292 L113.10345,-205.27798 L115.86207,-203.73029 L118.62069,-204.06064 L121.37931,-203.3773 L124.13793,-201.14627 L126.89655,-201.14627 L129.65517,-229.49355 L132.41379,-244.67636 L135.17241,-272.93768 L137.93103,-272.93768 L140.68965,-232.01422 L143.44827,-205.25536 L146.2069,-133.02046 L148.96552,-162.9607 L151.72414,-210.2469 L154.48276,-179.35632 L157.24138,-149.15361 L160,-149.15361 L162.75862,-151.98201 L165.51724,-131.76239 L168.27586,-148.35713 L171.03448,-151.00903 L173.7931,-160.10968 L176.55173,-172.37358 L179.31035,-172.37358 L182.06897,-200.7254 L184.82759,-294.63712 L187.58621,-321.5951 L190.34483,-340 L193.10345,-294.4606 L195.86208,-277.18253 L198.6207,-253.27016 L201.3793,-270.00067 L204.13792,-264.1855 L206.89655,-264.1855 L209.65517,-247.39615 L212.41379,-250.66351 L215.17241,-266.08618 L217.93103,-275.9878 L220.68965,-282.6809 L223.44827,-285.33282 L226.2069,-281.71246 L228.96552,-259.08533 L231.72414,-220.1938 L234.48276,-146.98593 L237.24138,-146.98593 L240,-171.24675 L242.75862,-242.26884 L245.51724,-242.26884 L248.27586,-205.43184 L251.03448,-201.20963 L253.7931,-201.20963 L256.55173,0 L259.31033,-130.0382 L262.06897,-166.56294 L264.82758,-147.56065 L267.5862,-134.96638 L270.34482,-132.22398 L273.10345,-124.66652 L275.86206,-118.05939 L278.6207,-118.05939 L281.3793,-137.64091 L284.13794,-143.69142 L286.89655,-148.28926 L289.65518,-147.45206 L292.4138,-152.11324 L295.17242,-179.17984 L297.93103,-179.17984 L300.68967,-185.5471 L303.44827,-173.96654 L306.2069,-174.36478 L308.9655,-186.75993 L311.72415,-186.53818 L314.48276,-183.99942 L317.2414,-186.58344 L320,-180.85876 L322.7586,-180.85876 L325.51724,-173.45969 L328.27585,-174.05252 L331.0345,-172.8397 L333.7931,-175.09337 L336.55173,-173.87602 L339.31033,-170.23306 L342.06897,-164.79802 L344.82758,-164.08752 L347.5862,-166.91592 L350.34482,-169.43658 L353.10345,-169.43658 L355.86206,-173.2832 L358.6207,-174.91689 L361.3793,-176.4872 L364.13794,-176.50531 L366.89655,-179.07123 L369.65518,-182.91331 L372.4138,-190.62917 L375.17242,-195.84247 L377.93103,-201.07838 L380.68967,-202.2731 L383.44827,-205.73958 L386.2069,-207.06552 L388.9655,-207.06552 L391.72415,-208.54987 L394.48276,-208.0385 L397.2414,-205.67622 L400,-203.59904 L402.7586,-200.8159 L405.51724,-201.30013 L408.27585,-202.2731 L411.0345,-201.96085 L413.7931,-201.96085 L416.55173,-202.67134 L419.31033,-204.658 L422.06897,-203.97466 L424.82758,-204.4815 L427.5862,-206.47269 L430.34482,-204.01991 L433.10345,-202.29573 L435.86206,-202.42696 L438.6207,-201.47662 L441.3793,-201.47662 L444.13794,-203.28679 L446.89655,-204.23714 L449.65518,-205.49973 L452.4138,-207.61763 L455.17242,-208.45935 L457.93103,-207.4004 L460.68967,-206.60393 L463.44827,-207.00217 L466.2069,-207.0429 L468.9655,-207.00217 L471.72415,-207.26465 L474.48276,-207.26465 L477.2414,-205.72147 L480,-206.25095" fill="none" stroke="#ff0000" stroke-linejoin="round" stroke-width="2"/>
</g>
</g>
<g transform="translate(380, -340)">
<text font-size="12" text-anchor="start" x="0" y="0">
accel
</text>
<line stroke="#ff0000" stroke-width="2" x1="-10" x2="-3" y1="-4" y2="-4"/>
</g>
<g>
<g>
<line stroke="black" stroke-width="1" x1="-0.0000000002346261116426861" x2="-0.0000000002346261116426861" y1="0" y2="10"/>
<line stroke="black" stroke-width="1" x1="96.55172413768474" x2="96.55172413768474" y1="0" y2="10"/>
<line stroke="black" stroke-width="1" x1="193.1034482756041" x2="193.1034482756041" y1="0" y2="10"/>
<line stroke="black" stroke-width="1" x1="289.6551724135235" x2="289.6551724135235" y1="0" y2="10"/>
<line stroke="black" stroke-width="1" x1="386.20689655144287" x2="386.20689655144287" y1="0" y2="10"/>
</g>
<line stroke="black" stroke-width="1" x1="0" x2="480" y1="0" y2="0"/>
<g>
<text font-size="12" text-anchor="middle" x="-0.0000000002346261116426861" y="20">
53
</text>
<text font-size="12" text-anchor="middle" x="96.55172413768474" y="20">
54
</text>
<text font-size="12" text-anchor="middle" x="193.1034482756041" y="20">
55
</text>
<text font-size="12" text-anchor="middle" x="289.6551724135235" y="20">
56
</text>
<text font-size="12" text-anchor="middle" x="386.20689655144287" y="20">
57
</text>
</g>
<text font-size="12" text-anchor="middle" x="240" y="30">
Time (s)
</text>
</g>
<g>
<g>
<line stroke="black" stroke-width="1" x1="0" x2="-10" y1="-31.021815229399326" y2="-31.021815229399326"/>
<line stroke="black" stroke-width="1" x1="0" x2="-10" y1="-121.53039357921499" y2="-121.53039357921499"/>
<line stroke="black" stroke-width="1" x1="0" x2="-10" y1="-212.03897192903065" y2="-212.03897192903065"/>
<line stroke="black" stroke-width="1" x1="0" x2="-10" y1="-302.5475502788463" y2="-302.5475502788463"/>
</g>
<line stroke="black" stroke-width="1" x1="0" x2="0" y1="0" y2="-340"/>
<g>
<text dominant-baseline="middle" font-size="12" text-anchor="end" x="-15" y="-31.021815229399326">
-4
</text>
<text dominant-baseline="middle" font-size="12" text-anchor="end" x="-15" y="-121.53039357921499">
-2
</text>
<text dominant-baseline="middle" font-size="12" text-anchor="end" x="-15" y="-212.03897192903065">
0
</text>
<text dominant-baseline="middle" font-size="12" text-anchor="end" x="-15" y="-302.5475502788463">
2
</text>
</g>
<text font-size="12" text-anchor="middle" transform="rotate(-90 -24 -170)" x="-24" y="-182">
Accel (g)
</text>
</g>
</g>
</svg>