<svg viewBox="0 0 600 400" xmlns="http://www.w3.org/2000/svg">
<g transform="translate(72, 364)">
<g>
<g>
<path d="M0,0 L0,0 L1.3994169,-3.9568632 L2.7988338,-5.9912887 L4.198251,-16.646734 L5.5976677,-53.588535 L6.9970846,-62.61695 L8.396502,-62.622845 L9.795918,-61.298748 L11.195335,-74.227066 L12.594752,-90.52068 L13.994169,-197.11456 L15.393586,-215.501 L16.793003,-245.27785 L18.19242,-245.39246 L19.591837,-297.44763 L20.991253,-312.16196 L22.39067,-316.47357 L23.790087,-305.89713 L25.189505,-295.0423 L26.58892,-298.881 L27.988338,-303.99652 L29.387754,-296.83743 L30.787172,-289.17297 L32.18659,-286.03833 L33.586006,-286.0305 L34.985424,-281.57657 L36.38484,-283.72836 L37.784256,-284.7735 L39.183674,-283.95428 L40.58309,-282.62265 L41.982506,-280.09354 L43.381924,-279.9944 L44.78134,-279.97632 L46.18076,-280.7065 L47.580173,-285.773 L48.97959,-285.58856 L50.37901,-267.95602 L51.778427,-267.06985 L53.17784,-269.69684 L54.57726,-269.69513 L55.976677,-269.4473 L57.376095,-268.83472 L58.77551,-269.47565 L60.174927,-269.8313 L61.574345,-268.68237 L62.973763,-269.70532 L64.37318,-269.6827 L65.7726,-270.23993 L67.17201,-270.9176 L68.57143,-271.34756 L69.97085,-271.28864 L71.37026,-271.93414 L72.76968,-272.22418 L74.1691,-273.3105 L75.56851,-273.76834 L76.96793,-274.63776 L78.36735,-274.77466 L79.76676,-275.1051 L81.16618,-276.14633 L82.5656,-276.11725 L83.96501,-274.83514 L85.36443,-275.909 L86.76385,-276.0791 L88.16327,-276.16855 L89.56268,-276.18253 L90.9621,-276.1638 L92.36152,-276.49377 L93.76093,-276.62506 L95.16035,-276.22037 L96.55977,-275.66754 L97.95918,-275.66168 L99.3586,-274.593 L100.75802,-272.30753 L102.15743,-271.56888 L103.556854,-272.38602 L104.95627,-273.4832 L106.35568,-275.15817 L107.755104,-276.1132 L109.15452,-276.9848 L110.55393,-277.10483 L111.953354,-260.33002 L113.35277,-258.06158 L114.75219,-254.51167 L116.1516,-250.25372 L117.55102,-244.55966 L118.95044,-238.874 L120.34985,-237.989 L121.74927,-232.94376 L123.14869,-232.91563 L124.5481,-227.75584 L125.947525,-208.74106 L127.34694,-205.39243 L128.74635,-198.46187 L130.14577,-195.83336 L131.5452,-198.30681 L132.94461,-205.80144 L134.34402,-212.894 L135.74344,-212.08173 L137.14285,-212.101 L138.54227,-203.6954 L139.9417,-202.82451 L141.34111,-195.67776 L142.74052,-195.69218 L144.13994,-194.91652 L145.53935,-203.02356 L146.93878,-205.44403 L148.3382,-205.56493 L149.73761,-204.10611 L151.13702,-207.81877 L152.53644,-211.3935 L153.93587,-215.96545 L155.33528,-216.65129 L156.7347,-216.81389 L158.13411,-216.92923 L159.53352,-222.99716 L160.93294,-232.52673 L162.33237,-239.82843 L163.73178,-244.12256 L165.1312,-253.06064 L166.53061,-260.2449 L167.93002,-270.4609 L169.32945,-279.45813 L170.72887,-286.6831 L172.12828,-285.61377 L173.5277,-285.61758 L174.92711,-288.63583 L176.32654,-290.85013 L177.72595,-295.47116 L179.12537,-300.03293 L180.52478,-299.89072 L181.9242,-298.54382 L183.32361,-297.26486 L184.72304,-298.6822 L186.12245,-300.52945 L187.52187,-301.04977 L188.92128,-298.78793 L190.3207,-296.3685 L191.72012,-298.93793 L193.11954,-301.30502 L194.51895,-301.0417 L195.91837,-303.47226 L197.31778,-300.9276 L198.7172,-299.6701 L200.11662,-300.4608 L201.51604,-300.96143 L202.91545,-302.333 L204.31487,-303.7926 L205.71428,-305.36575 L207.11371,-305.36624 L208.51312,-305.98422 L209.91254,-306.78046 L211.31195,-309.75604 L212.71136,-312.32022 L214.1108,-315.99207 L215.51021,-318.7512 L216.90962,-323.4641 L218.30904,-325.61386 L219.70845,-326.66818 L221.10786,-326.0337 L222.5073,-318.89682 L223.90671,-318.9571 L225.30612,-320.20245 L226.70554,-322.62582 L228.10495,-324.8112 L229.50438,-326.0592 L230.9038,-327.5661 L232.3032,-327.55533 L233.70262,-325.44128 L235.10204,-318.6092 L236.50146,-314.66354 L237.90088,-305.35358 L239.3003,-302.33575 L240.6997,-299.85513 L242.09912,-300.09393 L243.49854,-303.7192 L244.89796,-308.21304 L246.29738,-313.7806 L247.6968,-316.35104 L249.0962,-318.15588 L250.49562,-318.1501 L251.89505,-324.81113 L253.29446,-327.0146 L254.69388,-328.6068 L256.0933,-328.41696 L257.4927,-328.15637 L258.89212,-327.4891 L260.29153,-326.54315 L261.69095,-326.54102 L263.0904,-322.6694 L264.4898,-324.17242 L265.88922,-319.65488 L267.28864,-315.73715 L268.68805,-307.71237 L270.08746,-305.70624 L271.48688,-306.6712 L272.8863,-307.48935 L274.2857,-306.8822 L275.68512,-306.88306 L277.08453,-303.9543 L278.48398,-304.2329 L279.8834,-304.75702 L281.2828,-304.20602 L282.68222,-304.7526 L284.08163,-304.7559 L285.48105,-306.25955 L286.88046,-306.0775 L288.27988,-305.96268 L289.6793,-307.14832 L291.0787,-309.00394 L292.47812,-306.42496 L293.87756,-304.89676 L295.27698,-305.24893 L296.6764,-304.64618 L298.0758,-302.3339 L299.47522,-298.70856 L300.87463,-296.07474 L302.27405,-296.11237 L303.67346,-293.72272 L305.07288,-294.81335 L306.4723,-296.492 L307.87173,-297.35672 L309.27115,-298.32883 L310.67056,-299.23096 L312.06998,-302.50595 L313.4694,-304.43942 L314.8688,-306.88995 L316.26822,-307.86426 L317.66763,-308.16495 L319.06705,-308.15424 L320.46646,-314.1285 L321.86588,-313.48218 L323.26532,-312.36917 L324.66473,-313.52817 L326.06415,-311.51407 L327.46356,-312.17157 L328.86298,-312.80975 L330.2624,-312.55548 L331.6618,-312.55606 L333.06122,-312.7204 L334.46063,-310.79153 L335.86005,-308.21756 L337.25946,-306.06097 L338.6589,-295.29388 L340.05832,-289.58746 L341.45773,-287.87988 L342.85715,-259.40323 L344.25656,-259.2783 L345.65598,-259.23563 L347.0554,-259.1955 L348.4548,-232.60078 L349.85422,-232.0741 L351.25363,-230.32924 L352.65308,-231.01744 L354.0525,-227.93726 L355.4519,-221.8118 L356.85132,-213.61835 L358.25073,-210.96085 L359.65015,-208.53926 L361.04956,-206.00894 L362.44897,-206.0132 L363.8484,-200.62442 L365.2478,-196.65567 L366.64722,-188.47774 L368.04666,-191.32545 L369.44608,-196.40492 L370.8455,-197.17552 L372.2449,-200.14064 L373.64432,-203.94109 L375.04373,-207.17947 L376.44315,-209.74266 L377.84256,-211.19548 L379.24197,-212.68823 L380.6414,-221.96404 L382.0408,-221.9263 L383.44025,-233.96579 L384.83966,-247.16045 L386.23907,-260.26743 L387.6385,-282.93564 L389.0379,-293.083 L390.43732,-295.09186 L391.83673,-295.0701 L393.23615,-305.16434 L394.63556,-314.04297 L396.03497,-319.4557 L397.4344,-327.34085 L398.83383,-330.66437 L400.23325,-333.72678 L401.63266,-335.29132 L403.03207,-335.9354 L404.4315,-338.03687 L405.8309,-339.6949 L407.23032,-340 L408.62973,-339.41974 L410.02914,-324.88538 L411.42856,-318.4173 L412.828,-318.1363 L414.22742,-314.46277 L415.62683,-313.48822 L417.02625,-317.60114 L418.42566,-322.3411 L419.82507,-327.72272 L421.2245,-328.34753 L422.6239,-325.92795 L424.02332,-319.9421 L425.42273,-319.94394 L426.82214,-319.57803 L428.2216,-321.61044 L429.621,-326.7777 L431.02042,-330.74792 L432.41983,-329.86145 L433.81924,-324.9658 L435.21866,-324.92297 L436.61807,-325.19296 L438.0175,-328.4508 L439.4169,-331.81482 L440.8163,-336.8099 L442.21573,-317.38016 L443.61517,-322.49066 L445.0146,-333.8028 L446.414,-333.7953 L447.81342,-333.5788 L449.21283,-333.14328 L450.61224,-332.27383 L452.01166,-332.2014 L453.41107,-319.76236 L454.8105,-322.36255 L456.2099,-323.31436 L457.60934,-324.08286 L459.00876,-326.0757 L460.40817,-328.5171 L461.8076,-330.51172 L463.207,-333.08093 L464.6064,-333.95706 L466.00583,-332.20084 L467.40524,-331.18835 L468.80466,-331.29544 L470.20407,-329.62238 L471.6035,-329.62418 L473.00293,-326.95468 L474.40234,-333.68176 L475.80176,-317.51556 L477.20117,-291.97232 L478.6006,-294.50266 L480,-297.11966" fill="none" stroke="#ff0000" stroke-linejoin="round" stroke-width="2"/>
</g>
</g>
<g transform="translate(380, -340)">
<text font-size="12" text-anchor="start" x="0" y="0">
speed
</text>
<line stroke="#ff0000" stroke-width="2" x1="-10" x2="-3" y1="-4" y2="-4"/>
</g>
<g>
<g>
<line stroke="black" stroke-width="1" x1="0.0002518951283112729" x2="0.0002518951283112729" y1="0" y2="10"/>
<line stroke="black" stroke-width="1" x1="120.35010612256093" x2="120.35010612256093" y1="0" y2="10"/>
<line stroke="black" stroke-width="1" x1="240.69996034999355" x2="240.69996034999355" y1="0" y2="10"/>
<line stroke="black" stroke-width="1" x1="361.04981457742616" x2="361.04981457742616" y1="0" y2="10"/>
</g>
<line stroke="black" stroke-width="1" x1="0" x2="480" y1="0" y2="0"/>
<g>
<text font-size="12" text-anchor="middle" x="0.0002518951283112729" y="20">
76.02326
</text>
<text font-size="12" text-anchor="middle" x="120.35010612256093" y="20">
78.02326
</text>
<text font-size="12" text-anchor="middle" x="240.69996034999355" y="20">
80.02326
</text>
<text font-size="12" text-anchor="middle" x="361.04981457742616" y="20">
82.02326
</text>
</g>
<text font-size="12" text-anchor="middle" x="240" y="30">
Time (s)
</text>
</g>
<g>
<g>
<line stroke="black" stroke-width="1" x1="0" x2="-10" y1="-17.135626034174123" y2="-17.135626034174123"/>
<line stroke="black" stroke-width="1" x1="0" x2="-10" y1="-116.94333943475618" y2="-116.94333943475618"/>
<line stroke="black" stroke-width="1" x1="0" x2="-10" y1="-216.75105283533824" y2="-216.75105283533824"/>
<line stroke="black" stroke-width="1" x1="0" x2="-10" y1="-316.5587662359203" y2="-316.5587662359203"/>
</g>
<line stroke="black" stroke-width="1" x1="0" x2="0" y1="0" y2="-340"/>
<g>
<text dominant-baseline="middle" font-size="12" text-anchor="end" x="-15" y="-17.135626034174123">
-15
</text>
<text dominant-baseline="middle" font-size="12" text-anchor="end" x="-15" y="-116.94333943475618">
-10
</text>
<text dominant-baseline="middle" font-size="12" text-anchor="end" x="-15" y="-216.75105283533824">
-5
</text>
<text dominant-baseline="middle" font-size="12" text-anchor="end" x="-15" y="-316.5587662359203">
0
</text>
</g>
<text font-size="12" text-anchor="middle" transform="rotate(-90 -36 -170)" x="-36" y="-182">
Speed (dgr/s)
</text>
</g>
</g>
</svg>