<svg viewBox="0 0 600 400" xmlns="http://www.w3.org/2000/svg">
<g transform="translate(72, 364)">
<g>
<g>
<path d="M0,-313.92557 L0,-313.92557 L2.7586207,-313.9275 L5.5172415,-313.92944 L8.275862,-306.65942 L11.034483,-307.16937 L13.793103,-307.90976 L16.551723,-307.90265 L19.310345,-307.97495 L22.068966,-309.5594 L24.827587,-309.3369 L27.586206,-309.5135 L30.344828,-309.95947 L33.103447,-310.56253 L35.86207,-311.68268 L38.62069,-312.67673 L41.37931,-312.672 L44.13793,-313.24615 L46.896553,-313.74457 L49.655174,-313.82574 L52.41379,-314.5827 L55.172413,-315.16248 L57.931034,-315.83218 L60.689655,-316.44595 L63.448277,-316.75415 L66.206894,-316.8678 L68.965515,-317.46262 L71.72414,-317.7621 L74.48276,-317.9359 L77.24138,-317.23465 L80,-317.72156 L82.75862,-316.80554 L85.51724,-316.67642 L88.27586,-317.37183 L91.034485,-316.3774 L93.793106,-315.53726 L96.55173,-314.62427 L99.31035,-314.6271 L102.06896,-313.60822 L104.82758,-312.10135 L107.586205,-309.27252 L110.344826,-308.136 L113.10345,-306.03256 L115.86207,-303.90863 L118.62069,-301.9176 L121.37931,-299.772 L124.13793,-296.66605 L126.89655,-296.90372 L129.65517,-268.71555 L132.41379,-257.02722 L135.17241,-204.68037 L137.93103,-204.47238 L140.68965,-186.34071 L143.44827,-185.75943 L146.2069,-170.66234 L148.96552,-157.30737 L151.72414,-155.5627 L154.48276,-139.23502 L157.24138,-114.67126 L160,-114.19912 L162.75862,-104.56473 L165.51724,-93.88823 L168.27586,-85.36678 L171.03448,-72.79339 L173.7931,-66.43888 L176.55173,-71.915886 L179.31035,-71.28218 L182.06897,-131.95406 L184.82759,-148.85498 L187.58621,-150.42911 L190.34483,-150.77031 L193.10345,-157.47824 L195.86208,-165.66846 L198.6207,-175.9659 L201.3793,-178.23148 L204.13792,-182.0717 L206.89655,-182.10042 L209.65517,-201.70886 L212.41379,-194.48813 L215.17241,-190.70738 L217.93103,-179.27156 L220.68965,-169.13689 L223.44827,-147.78787 L226.2069,-131.48926 L228.96552,-118.359314 L231.72414,-119.80063 L234.48276,-96.44581 L237.24138,-95.99729 L240,-75.433395 L242.75862,-74.352196 L245.51724,-74.028824 L248.27586,0 L251.03448,-13.80745 L253.7931,-13.718495 L256.55173,-286.37848 L259.31033,-299.7272 L262.06897,-315.2342 L264.82758,-322.3856 L267.5862,-323.60526 L270.34482,-322.9722 L273.10345,-323.71756 L275.86206,-330.27988 L278.6207,-330.2958 L281.3793,-337.0458 L284.13794,-335.61572 L286.89655,-327.1859 L289.65518,-327.41138 L292.4138,-340 L295.17242,-305.63635 L297.93103,-305.6364 L300.68967,-312.32202 L303.44827,-317.85803 L306.2069,-315.52585 L308.9655,-313.4549 L311.72415,-313.61032 L314.48276,-313.92154 L317.2414,-313.59824 L320,-310.93567 L322.7586,-310.93784 L325.51724,-313.8563 L328.27585,-314.28308 L331.0345,-312.54703 L333.7931,-312.31696 L336.55173,-312.53638 L339.31033,-312.95996 L342.06897,-315.56702 L344.82758,-317.50833 L347.5862,-320.9702 L350.34482,-322.72415 L353.10345,-322.38354 L355.86206,-323.9878 L358.6207,-325.04553 L361.3793,-323.999 L364.13794,-322.64413 L366.89655,-326.83197 L369.65518,-329.58804 L372.4138,-329.80182 L375.17242,-330.78036 L377.93103,-330.33276 L380.68967,-330.42886 L383.44827,-329.4878 L386.2069,-328.721 L388.9655,-328.73724 L391.72415,-327.3166 L394.48276,-326.3916 L397.2414,-325.29202 L400,-324.72354 L402.7586,-324.5769 L405.51724,-324.42917 L408.27585,-325.2696 L411.0345,-325.4771 L413.7931,-325.49142 L416.55173,-325.17197 L419.31033,-324.85687 L422.06897,-323.49307 L424.82758,-322.1995 L427.5862,-319.64987 L430.34482,-318.32974 L433.10345,-318.85764 L435.86206,-319.85757 L438.6207,-319.80435 L441.3793,-319.80905 L444.13794,-320.725 L446.89655,-319.66824 L449.65518,-319.41028 L452.4138,-318.96915 L455.17242,-318.49072 L457.93103,-317.89243 L460.68967,-317.62936 L463.44827,-315.79404 L466.2069,-313.88266 L468.9655,-311.44043 L471.72415,-310.59918 L474.48276,-310.75623 L477.2414,-310.12817 L480,-309.7201" fill="none" stroke="#ff0000" stroke-linejoin="round" stroke-width="2"/>
</g>
</g>
<g transform="translate(380, -340)">
<text font-size="12" text-anchor="start" x="0" y="0">
speed
</text>
<line stroke="#ff0000" stroke-width="2" x1="-10" x2="-3" y1="-4" y2="-4"/>
</g>
<g>
<g>
<line stroke="black" stroke-width="1" x1="-0.0000000002346261116426861" x2="-0.0000000002346261116426861" y1="0" y2="10"/>
<line stroke="black" stroke-width="1" x1="96.55172413768474" x2="96.55172413768474" y1="0" y2="10"/>
<line stroke="black" stroke-width="1" x1="193.1034482756041" x2="193.1034482756041" y1="0" y2="10"/>
<line stroke="black" stroke-width="1" x1="289.6551724135235" x2="289.6551724135235" y1="0" y2="10"/>
<line stroke="black" stroke-width="1" x1="386.20689655144287" x2="386.20689655144287" y1="0" y2="10"/>
</g>
<line stroke="black" stroke-width="1" x1="0" x2="480" y1="0" y2="0"/>
<g>
<text font-size="12" text-anchor="middle" x="-0.0000000002346261116426861" y="20">
53
</text>
<text font-size="12" text-anchor="middle" x="96.55172413768474" y="20">
54
</text>
<text font-size="12" text-anchor="middle" x="193.1034482756041" y="20">
55
</text>
<text font-size="12" text-anchor="middle" x="289.6551724135235" y="20">
56
</text>
<text font-size="12" text-anchor="middle" x="386.20689655144287" y="20">
57
</text>
</g>
<text font-size="12" text-anchor="middle" x="240" y="30">
Time (s)
</text>
</g>
<g>
<g>
<line stroke="black" stroke-width="1" x1="0" x2="-10" y1="-32.38411801554449" y2="-32.38411801554449"/>
<line stroke="black" stroke-width="1" x1="0" x2="-10" y1="-102.48228711020177" y2="-102.48228711020177"/>
<line stroke="black" stroke-width="1" x1="0" x2="-10" y1="-172.58045620485902" y2="-172.58045620485902"/>
<line stroke="black" stroke-width="1" x1="0" x2="-10" y1="-242.67862529951628" y2="-242.67862529951628"/>
<line stroke="black" stroke-width="1" x1="0" x2="-10" y1="-312.7767943941736" y2="-312.7767943941736"/>
</g>
<line stroke="black" stroke-width="1" x1="0" x2="0" y1="0" y2="-340"/>
<g>
<text dominant-baseline="middle" font-size="12" text-anchor="end" x="-15" y="-32.38411801554449">
-20
</text>
<text dominant-baseline="middle" font-size="12" text-anchor="end" x="-15" y="-102.48228711020177">
-15
</text>
<text dominant-baseline="middle" font-size="12" text-anchor="end" x="-15" y="-172.58045620485902">
-10
</text>
<text dominant-baseline="middle" font-size="12" text-anchor="end" x="-15" y="-242.67862529951628">
-5
</text>
<text dominant-baseline="middle" font-size="12" text-anchor="end" x="-15" y="-312.7767943941736">
0
</text>
</g>
<text font-size="12" text-anchor="middle" transform="rotate(-90 -36 -170)" x="-36" y="-182">
Speed (dgr/s)
</text>
</g>
</g>
</svg>