<svg viewBox="0 0 600 400" xmlns="http://www.w3.org/2000/svg">
<g transform="translate(72, 364)">
<g>
<g>
<path d="M0,-221.67725 L0,-221.67725 L2.7586207,-221.73256 L5.5172415,-221.78477 L8.275862,-221.7794 L11.034483,-221.63635 L13.793103,-221.3084 L16.551723,-220.92873 L19.310345,-220.49 L22.068966,-219.62297 L24.827587,-218.63702 L27.586206,-217.49615 L30.344828,-216.12196 L33.103447,-214.48521 L35.86207,-212.68706 L38.62069,-210.65353 L41.37931,-208.4816 L44.13793,-206.31808 L46.896553,-203.95163 L49.655174,-201.45634 L52.41379,-198.65773 L55.172413,-195.7422 L57.931034,-192.80797 L60.689655,-189.91953 L63.448277,-187.06319 L66.206894,-184.23438 L68.965515,-181.43942 L71.72414,-178.78725 L74.48276,-176.18506 L77.24138,-173.92294 L80,-171.86813 L82.75862,-169.84521 L85.51724,-167.82361 L88.27586,-166.10971 L91.034485,-164.84642 L93.793106,-163.68967 L96.55173,-162.53549 L99.31035,-161.38483 L102.06896,-160.33621 L104.82758,-159.57872 L107.586205,-158.7308 L110.344826,-158.23395 L113.10345,-157.76843 L115.86207,-157.73567 L118.62069,-157.70297 L121.37931,-157.88123 L124.13793,-158.2819 L126.89655,-158.7927 L129.65517,-164.06816 L132.41379,-172.50505 L135.17241,-194.05214 L137.93103,-213.65163 L140.68965,-226.65561 L143.44827,-232.68996 L146.2069,-233.88419 L148.96552,-229.18033 L151.72414,-202.49895 L154.48276,-126.31141 L157.24138,-102.12345 L160,-97.99136 L162.75862,-99.87629 L165.51724,-114.68479 L168.27586,-189.84157 L171.03448,-227.55154 L173.7931,-232.24802 L176.55173,-223.91896 L179.31035,-188.47946 L182.06897,-140.04428 L184.82759,-122.79721 L187.58621,-116.59914 L190.34483,-113.07371 L193.10345,-111.77272 L195.86208,-105.43534 L198.6207,-287.46777 L201.3793,-283.69266 L204.13792,-281.81238 L206.89655,-279.60336 L209.65517,-280.36374 L212.41379,-281.27286 L215.17241,-282.3305 L217.93103,-284.1085 L220.68965,-287.6304 L223.44827,-299.8534 L226.2069,-22.864124 L228.96552,-76.8775 L231.72414,-86.99972 L234.48276,-90.88947 L237.24138,-93.17058 L240,-96.133484 L242.75862,-102.06437 L245.51724,-232.17924 L248.27586,-255.62105 L251.03448,-255.64386 L253.7931,-251.9037 L256.55173,-244.76398 L259.31033,-242.75851 L262.06897,-242.14482 L264.82758,-241.00343 L267.5862,-239.54317 L270.34482,-238.42921 L273.10345,-237.37607 L275.86206,-237.11981 L278.6207,-236.99188 L281.3793,-238.42625 L284.13794,-240.53546 L286.89655,-243.11818 L289.65518,-245.68541 L292.4138,-248.56677 L295.17242,-248.37202 L297.93103,-248.15086 L300.68967,-247.3954 L303.44827,-246.13594 L306.2069,-245.25801 L308.9655,-245.24333 L311.72415,-245.27296 L314.48276,-245.03914 L317.2414,-244.47115 L320,-243.58723 L322.7586,-242.71 L325.51724,-242.04828 L328.27585,-241.47568 L331.0345,-240.8533 L333.7931,-240.1711 L336.55173,-239.4624 L339.31033,-238.82314 L342.06897,-238.57803 L344.82758,-238.67833 L347.5862,-239.31761 L350.34482,-240.25761 L353.10345,-241.1939 L355.86206,-242.56418 L358.6207,-244.10295 L361.3793,-245.74557 L364.13794,-247.6394 L366.89655,-249.97704 L369.65518,-252.66614 L372.4138,-255.42201 L375.17242,-258.26883 L377.93103,-261.00922 L380.68967,-263.63745 L383.44827,-266.03665 L386.2069,-268.27963 L388.9655,-270.5013 L391.72415,-272.4936 L394.48276,-274.32297 L397.2414,-275.9518 L400,-277.47375 L402.7586,-278.96555 L405.51724,-280.4321 L408.27585,-281.99026 L411.0345,-283.55725 L413.7931,-285.10916 L416.55173,-286.60648 L419.31033,-288.0511 L422.06897,-289.31952 L424.82758,-290.41684 L427.5862,-291.20334 L430.34482,-291.82635 L433.10345,-292.49173 L435.86206,-293.26593 L438.6207,-294.06158 L441.3793,-294.85226 L444.13794,-295.7672 L446.89655,-296.61072 L449.65518,-297.46115 L452.4138,-298.28232 L455.17242,-299.04153 L457.93103,-299.7078 L460.68967,-300.3598 L463.44827,-300.88507 L466.2069,-301.30566 L468.9655,-301.62497 L471.72415,-301.92242 L474.48276,-302.27805 L477.2414,-302.6033 L480,-302.90366" fill="none" stroke="#ff0000" stroke-linejoin="round" stroke-width="2"/>
</g>
</g>
<g transform="translate(380, -340)">
<text font-size="12" text-anchor="start" x="0" y="0">
roll
</text>
<line stroke="#ff0000" stroke-width="2" x1="-10" x2="-3" y1="-4" y2="-4"/>
</g>
<g>
<g>
<path d="M0,-172.2108 L0,-172.2108 L2.7586207,-171.75061 L5.5172415,-171.29 L8.275862,-173.04929 L11.034483,-174.89586 L13.793103,-176.84135 L16.551723,-178.77815 L19.310345,-180.69705 L22.068966,-182.85431 L24.827587,-185.05069 L27.586206,-187.23088 L30.344828,-189.41534 L33.103447,-191.56772 L35.86207,-193.47348 L38.62069,-195.22021 L41.37931,-196.86427 L44.13793,-198.22606 L46.896553,-199.466 L49.655174,-200.58282 L52.41379,-201.5574 L55.172413,-202.31737 L57.931034,-202.82706 L60.689655,-203.09738 L63.448277,-203.18481 L66.206894,-203.12485 L68.965515,-202.87247 L71.72414,-202.4657 L74.48276,-201.93687 L77.24138,-201.40077 L80,-200.75514 L82.75862,-200.16405 L85.51724,-199.54431 L88.27586,-198.84337 L91.034485,-198.28952 L93.793106,-197.838 L96.55173,-197.48822 L99.31035,-197.1403 L102.06896,-196.92311 L104.82758,-196.915 L107.586205,-197.22336 L110.344826,-197.7005 L113.10345,-198.4232 L115.86207,-199.4054 L118.62069,-200.60878 L121.37931,-202.04427 L124.13793,-203.80614 L126.89655,-205.52348 L129.65517,-209.541 L132.41379,-213.58548 L135.17241,-215.8259 L137.93103,-210.29956 L140.68965,-193.40652 L143.44827,-174.61205 L146.2069,-151.53937 L148.96552,-126.60358 L151.72414,-104.65531 L154.48276,-106.975464 L157.24138,-133.50618 L160,-163.25342 L162.75862,-193.82349 L165.51724,-223.89095 L168.27586,-234.93217 L171.03448,-207.66205 L173.7931,-173.39731 L176.55173,-139.59772 L179.31035,-114.533936 L182.06897,-123.91066 L184.82759,-148.83728 L187.58621,-175.71541 L190.34483,-200.95555 L193.10345,-224.86485 L195.86208,-245.06207 L198.6207,-246.09006 L201.3793,-229.12279 L204.13792,-212.88535 L206.89655,-196.70729 L209.65517,-183.88403 L212.41379,-170.22551 L215.17241,-156.05426 L217.93103,-140.58255 L220.68965,-124.09457 L223.44827,-106.26015 L226.2069,-94.81317 L228.96552,-110.0901 L231.72414,-131.00319 L234.48276,-155.15547 L237.24138,-179.4963 L240,-206.26878 L242.75862,-233.0388 L245.51724,-248.1236 L248.27586,-212.8142 L251.03448,-178.5523 L253.7931,-144.4789 L256.55173,-141.75313 L259.31033,-140.47055 L262.06897,-140.81467 L264.82758,-142.06483 L267.5862,-143.5651 L270.34482,-144.98631 L273.10345,-146.55756 L275.86206,-148.72043 L278.6207,-150.8944 L281.3793,-153.2202 L284.13794,-154.98708 L286.89655,-155.28629 L289.65518,-155.45242 L292.4138,-157.01472 L295.17242,-156.09778 L297.93103,-155.18613 L300.68967,-155.89503 L303.44827,-158.09148 L306.2069,-159.52342 L308.9655,-159.65468 L311.72415,-159.76315 L314.48276,-160.24347 L317.2414,-161.09056 L320,-161.87436 L322.7586,-162.665 L325.51724,-163.72363 L328.27585,-164.75995 L331.0345,-165.55682 L333.7931,-166.40779 L336.55173,-167.35385 L339.31033,-168.29921 L342.06897,-169.19627 L344.82758,-169.97952 L347.5862,-170.65694 L350.34482,-171.23375 L353.10345,-171.74573 L355.86206,-171.88634 L358.6207,-171.94963 L361.3793,-171.55544 L364.13794,-170.29625 L366.89655,-169.07141 L369.65518,-167.692 L372.4138,-166.07632 L375.17242,-164.3671 L377.93103,-162.6318 L380.68967,-161.07643 L383.44827,-159.72176 L386.2069,-158.44153 L388.9655,-157.10793 L391.72415,-155.8965 L394.48276,-154.81058 L397.2414,-153.97046 L400,-153.24911 L402.7586,-152.49069 L405.51724,-151.63472 L408.27585,-150.63795 L411.0345,-149.5843 L413.7931,-148.50519 L416.55173,-147.41759 L419.31033,-146.44673 L422.06897,-145.58827 L424.82758,-144.75215 L427.5862,-144.11559 L430.34482,-143.5812 L433.10345,-142.94508 L435.86206,-142.24644 L438.6207,-141.7183 L441.3793,-141.17915 L444.13794,-140.67015 L446.89655,-140.42601 L449.65518,-140.32576 L452.4138,-140.31401 L455.17242,-140.29472 L457.93103,-140.22763 L460.68967,-140.20546 L463.44827,-140.46501 L466.2069,-141.043 L468.9655,-142.04941 L471.72415,-143.15906 L474.48276,-144.25626 L477.2414,-145.37813 L480,-146.48407" fill="none" stroke="#0000ff" stroke-linejoin="round" stroke-width="2"/>
</g>
</g>
<g transform="translate(380, -322)">
<text font-size="12" text-anchor="start" x="0" y="0">
pitch
</text>
<line stroke="#0000ff" stroke-width="2" x1="-10" x2="-3" y1="-4" y2="-4"/>
</g>
<g>
<g>
<path d="M0,-62.18001 L0,-62.18001 L2.7586207,-62.52064 L5.5172415,-62.86115 L8.275862,-61.79634 L11.034483,-60.622524 L13.793103,-59.22744 L16.551723,-57.810932 L19.310345,-56.380684 L22.068966,-54.232533 L24.827587,-51.9441 L27.586206,-49.548794 L30.344828,-46.963093 L33.103447,-44.181606 L35.86207,-41.35916 L38.62069,-38.423767 L41.37931,-35.364826 L44.13793,-32.423584 L46.896553,-29.348106 L49.655174,-26.075312 L52.41379,-22.67435 L55.172413,-19.147049 L57.931034,-15.778375 L60.689655,-12.580957 L63.448277,-9.438632 L66.206894,-6.4813895 L68.965515,-3.5686402 L71.72414,-0.97879773 L74.48276,-340 L77.24138,-337.9605 L80,-336.30542 L82.75862,-334.9671 L85.51724,-333.72147 L88.27586,-332.80463 L91.034485,-332.55927 L93.793106,-332.43137 L96.55173,-332.54337 L99.31035,-332.66364 L102.06896,-333.07343 L104.82758,-333.67896 L107.586205,-334.6759 L110.344826,-335.88965 L113.10345,-337.44647 L115.86207,-339.42365 L118.62069,0 L121.37931,-2.401994 L124.13793,-5.253469 L126.89655,-8.17395 L129.65517,-16.13399 L132.41379,-27.926764 L135.17241,-57.837196 L137.93103,-85.91011 L140.68965,-105.174095 L143.44827,-117.33492 L146.2069,-127.34058 L148.96552,-140.66283 L151.72414,-173.92033 L154.48276,-256.32086 L157.24138,-287.0191 L160,-299.58203 L162.75862,-311.1337 L165.51724,-333.41183 L168.27586,-73.63037 L171.03448,-119.41408 L173.7931,-136.17961 L176.55173,-155.43233 L179.31035,-198.55498 L182.06897,-252.96506 L184.82759,-275.7916 L187.58621,-287.4416 L190.34483,-293.9414 L193.10345,-299.69016 L195.86208,-299.977 L198.6207,-145.98126 L201.3793,-146.67288 L204.13792,-148.78015 L206.89655,-151.10028 L209.65517,-151.03125 L212.41379,-149.73985 L215.17241,-148.06361 L217.93103,-146.06255 L220.68965,-142.5167 L223.44827,-130.61943 L226.2069,-66.40819 L228.96552,-11.896457 L231.72414,-0.8843813 L234.48276,-338.89343 L237.24138,-337.0296 L240,-337.17703 L242.75862,-0.33140588 L245.51724,-129.36136 L248.27586,-156.4153 L251.03448,-162.24004 L253.7931,-168.53557 L256.55173,-173.81697 L259.31033,-175.59535 L262.06897,-177.38106 L264.82758,-179.83267 L267.5862,-181.70079 L270.34482,-184.3256 L273.10345,-187.59618 L275.86206,-190.52347 L278.6207,-193.39044 L281.3793,-195.77242 L284.13794,-198.43924 L286.89655,-202.26297 L289.65518,-206.466 L292.4138,-210.40318 L295.17242,-211.8855 L297.93103,-213.37779 L300.68967,-214.52371 L303.44827,-215.13385 L306.2069,-215.64258 L308.9655,-216.21498 L311.72415,-216.99867 L314.48276,-217.83188 L317.2414,-218.42815 L320,-218.80194 L322.7586,-219.16156 L325.51724,-219.55101 L328.27585,-219.96536 L331.0345,-220.43167 L333.7931,-220.87099 L336.55173,-221.31976 L339.31033,-221.70738 L342.06897,-222.03607 L344.82758,-222.46286 L347.5862,-223.07048 L350.34482,-223.7909 L353.10345,-224.56517 L355.86206,-225.52864 L358.6207,-226.6093 L361.3793,-227.87323 L364.13794,-229.28616 L366.89655,-230.61864 L369.65518,-231.93793 L372.4138,-233.31192 L375.17242,-234.66788 L377.93103,-236.0708 L380.68967,-237.51541 L383.44827,-238.97977 L386.2069,-240.37529 L388.9655,-241.72455 L391.72415,-242.97356 L394.48276,-244.17061 L397.2414,-245.38623 L400,-246.69704 L402.7586,-248.11388 L405.51724,-249.60881 L408.27585,-251.03687 L411.0345,-252.38046 L413.7931,-253.69589 L416.55173,-254.99821 L419.31033,-256.3441 L422.06897,-257.7371 L424.82758,-259.15698 L427.5862,-260.62744 L430.34482,-261.96313 L433.10345,-263.01035 L435.86206,-263.96677 L438.6207,-264.85492 L441.3793,-265.73944 L444.13794,-266.5637 L446.89655,-267.3867 L449.65518,-268.2901 L452.4138,-269.36655 L455.17242,-270.57825 L457.93103,-271.9401 L460.68967,-273.275 L463.44827,-274.7219 L466.2069,-276.3084 L468.9655,-278.0928 L471.72415,-279.90408 L474.48276,-281.69547 L477.2414,-283.46298 L480,-285.25388" fill="none" stroke="#00ff00" stroke-linejoin="round" stroke-width="2"/>
</g>
</g>
<g transform="translate(380, -304)">
<text font-size="12" text-anchor="start" x="0" y="0">
yaw
</text>
<line stroke="#00ff00" stroke-width="2" x1="-10" x2="-3" y1="-4" y2="-4"/>
</g>
<g>
<g>
<line stroke="black" stroke-width="1" x1="-0.0000000002346261116426861" x2="-0.0000000002346261116426861" y1="0" y2="10"/>
<line stroke="black" stroke-width="1" x1="96.55172413768474" x2="96.55172413768474" y1="0" y2="10"/>
<line stroke="black" stroke-width="1" x1="193.1034482756041" x2="193.1034482756041" y1="0" y2="10"/>
<line stroke="black" stroke-width="1" x1="289.6551724135235" x2="289.6551724135235" y1="0" y2="10"/>
<line stroke="black" stroke-width="1" x1="386.20689655144287" x2="386.20689655144287" y1="0" y2="10"/>
</g>
<line stroke="black" stroke-width="1" x1="0" x2="480" y1="0" y2="0"/>
<g>
<text font-size="12" text-anchor="middle" x="-0.0000000002346261116426861" y="20">
53
</text>
<text font-size="12" text-anchor="middle" x="96.55172413768474" y="20">
54
</text>
<text font-size="12" text-anchor="middle" x="193.1034482756041" y="20">
55
</text>
<text font-size="12" text-anchor="middle" x="289.6551724135235" y="20">
56
</text>
<text font-size="12" text-anchor="middle" x="386.20689655144287" y="20">
57
</text>
</g>
<text font-size="12" text-anchor="middle" x="240" y="30">
Time (s)
</text>
</g>
<g>
<g>
<line stroke="black" stroke-width="1" x1="0" x2="-10" y1="-74.50848212316168" y2="-74.50848212316168"/>
<line stroke="black" stroke-width="1" x1="0" x2="-10" y1="-169.39692786528764" y2="-169.39692786528764"/>
<line stroke="black" stroke-width="1" x1="0" x2="-10" y1="-264.2853736074136" y2="-264.2853736074136"/>
</g>
<line stroke="black" stroke-width="1" x1="0" x2="0" y1="0" y2="-340"/>
<g>
<text dominant-baseline="middle" font-size="12" text-anchor="end" x="-15" y="-74.50848212316168">
-100
</text>
<text dominant-baseline="middle" font-size="12" text-anchor="end" x="-15" y="-169.39692786528764">
0
</text>
<text dominant-baseline="middle" font-size="12" text-anchor="end" x="-15" y="-264.2853736074136">
100
</text>
</g>
<text font-size="12" text-anchor="middle" transform="rotate(-90 -48 -170)" x="-48" y="-182">
Angle (dgr)
</text>
</g>
</g>
</svg>