<svg viewBox="0 0 600 400" xmlns="http://www.w3.org/2000/svg">
<g transform="translate(72, 364)">
<g>
<g>
<path d="M0,-199.15828 L0,-199.15828 L1.1188811,-197.47879 L2.2377622,-196.05544 L3.3566434,-195.18098 L4.4755244,-194.61244 L5.5944057,-194.05681 L6.713287,-193.90599 L7.8321676,-193.96901 L8.951049,-194.03214 L10.06993,-194.89435 L11.188811,-195.64304 L12.307693,-196.12381 L13.426574,-196.44933 L14.545455,-196.45956 L15.664335,-196.49126 L16.783216,-196.56386 L17.902098,-196.81044 L19.020979,-197.31094 L20.13986,-197.81274 L21.258741,-198.36186 L22.377623,-198.8473 L23.496504,-199.35573 L24.615385,-199.99576 L25.734266,-200.73804 L26.853148,-201.55798 L27.972029,-202.3912 L29.09091,-203.06451 L30.20979,-203.65657 L31.32867,-204.24414 L32.44755,-204.8383 L33.566433,-205.41774 L34.685314,-205.9611 L35.804195,-206.52829 L36.923077,-207.00493 L38.041958,-207.30788 L39.16084,-207.7486 L40.27972,-207.83469 L41.3986,-208.02957 L42.517483,-208.12914 L43.636364,-208.20802 L44.755245,-208.27866 L45.874126,-208.3466 L46.993008,-208.49812 L48.11189,-208.67188 L49.23077,-208.77194 L50.34965,-208.86986 L51.468533,-208.93803 L52.587414,-209.02696 L53.706295,-209.06628 L54.825176,-208.84613 L55.944057,-208.62842 L57.06294,-208.41083 L58.18182,-208.20552 L59.3007,-207.98145 L60.41958,-207.7264 L61.53846,-207.44815 L62.65734,-207.10089 L63.776222,-206.74387 L64.8951,-206.3234 L66.013985,-205.97868 L67.132866,-205.5353 L68.25175,-204.9473 L69.37063,-204.35884 L70.48951,-203.59525 L71.60839,-202.65184 L72.72727,-201.44705 L73.84615,-200.06674 L74.965034,-198.37721 L76.083916,-196.50851 L77.2028,-194.43738 L78.32168,-192.32085 L79.44056,-190.03094 L80.55944,-187.81432 L81.67832,-185.60344 L82.7972,-183.65498 L83.916084,-181.89034 L85.034966,-180.38214 L86.15385,-178.7872 L87.27273,-177.377 L88.39161,-176.37767 L89.51049,-175.83469 L90.62937,-175.67227 L91.74825,-175.7537 L92.867134,-175.91832 L93.986015,-176.21085 L95.1049,-176.58746 L96.22378,-176.96828 L97.34266,-177.41649 L98.46154,-177.92908 L99.58042,-178.89296 L100.6993,-179.9438 L101.818184,-181.1259 L102.937065,-182.1662 L104.05595,-183.21704 L105.17483,-184.24525 L106.29371,-185.27057 L107.41259,-186.26566 L108.53147,-187.33868 L109.65035,-188.54192 L110.76923,-189.78566 L111.888115,-191.09084 L113.006996,-192.39299 L114.12588,-193.811 L115.24476,-195.31058 L116.36364,-196.89232 L117.48252,-198.50418 L118.6014,-200.01494 L119.72028,-201.47952 L120.83916,-202.92126 L121.95804,-204.44289 L123.07692,-205.98265 L124.1958,-207.55348 L125.31468,-209.2177 L126.43356,-210.99815 L127.552444,-212.90663 L128.67133,-214.8762 L129.7902,-216.69722 L130.90909,-218.41286 L132.02797,-219.87456 L133.14685,-221.05812 L134.26573,-221.9108 L135.38461,-222.42558 L136.5035,-222.60266 L137.62238,-222.18806 L138.74126,-221.1788 L139.86014,-219.41356 L140.97902,-216.98451 L142.0979,-213.82184 L143.21678,-209.75652 L144.33566,-204.24992 L145.45454,-197.24641 L146.57343,-189.6494 L147.6923,-181.77046 L148.81119,-174.66272 L149.93007,-168.14305 L151.04895,-162.65816 L152.16783,-159.64041 L153.28671,-157.05264 L154.4056,-153.99208 L155.52448,-151.35886 L156.64336,-148.9898 L157.76224,-148.17989 L158.88112,-147.63992 L160,-147.16902 L161.11888,-146.7239 L162.23776,-146.37868 L163.35664,-146.2032 L164.47552,-146.60133 L165.5944,-147.97049 L166.71329,-150.51944 L167.83217,-156.98134 L168.95105,-167.72873 L170.06993,-181.21658 L171.18881,-200.8214 L172.3077,-215.1639 L173.42657,-221.63963 L174.54546,-221.5174 L175.66434,-217.2237 L176.78322,-208.36002 L177.9021,-193.42531 L179.02098,-169.67896 L180.13986,-142.8338 L181.25874,-124.96725 L182.37762,-116.35941 L183.4965,-114.31262 L184.61539,-118.205444 L185.73427,-130.67133 L186.85315,-157.57793 L187.97203,-188.63814 L189.09091,-205.92145 L190.2098,-211.68347 L191.32867,-209.4847 L192.44756,-197.68658 L193.56644,-173.3844 L194.68532,-144.94069 L195.8042,-127.64353 L196.92308,-119.46155 L198.04196,-114.587234 L199.16084,-111.83876 L200.27972,-110.24813 L201.3986,-108.715225 L202.51749,-102.96252 L203.63637,-63.35992 L204.75525,-340 L205.87413,-322.0193 L206.99301,-313.43826 L208.1119,-315.22208 L209.23077,-318.88474 L210.34966,-322.16733 L211.46854,-323.25616 L212.58742,-322.54343 L213.7063,-322.40622 L214.82518,-322.78946 L215.94406,-322.3403 L217.06294,-321.12323 L218.18182,-319.7592 L219.3007,-318.6037 L220.41959,-317.2499 L221.53847,-316.22916 L222.65735,-315.4009 L223.77623,-314.63806 L224.89511,-313.94495 L226.01399,-313.25504 L227.13287,-312.6249 L228.25175,-312.0475 L229.37064,-311.61203 L230.48952,-311.58737 L231.6084,-311.53027 L232.72728,-310.83084 L233.84616,-310.2155 L234.96504,-309.68436 L236.08392,-309.2504 L237.2028,-308.76907 L238.32169,-308.39307 L239.44057,-307.97195 L240.55943,-307.59915 L241.67831,-307.4442 L242.7972,-307.31058 L243.91608,-307.2587 L245.03496,-307.1982 L246.15384,-307.26135 L247.27272,-307.37686 L248.3916,-307.59335 L249.51048,-307.97253 L250.62936,-308.46613 L251.74825,-309.04355 L252.86713,-309.73993 L253.98601,-310.53088 L255.10489,-311.51505 L256.2238,-312.78363 L257.34265,-314.3023 L258.46155,-316.15732 L259.5804,-318.3444 L260.6993,-320.93216 L261.81818,-324.086 L262.93707,-327.89743 L264.05594,-332.46722 L265.17484,-337.8712 L266.2937,0 L267.4126,-7.156802 L268.53146,-14.936967 L269.65036,-23.12698 L270.76923,-31.106512 L271.88812,-38.670696 L273.007,-45.53828 L274.1259,-51.30671 L275.24475,-55.912952 L276.36365,-59.513866 L277.4825,-62.32698 L278.6014,-64.61307 L279.72028,-66.4311 L280.83917,-67.902405 L281.95804,-69.591194 L283.07693,-70.823975 L284.1958,-71.79244 L285.3147,-72.667915 L286.43356,-73.26592 L287.55246,-73.62766 L288.67133,-73.78108 L289.79022,-73.61283 L290.9091,-73.22951 L292.02798,-72.64783 L293.14685,-71.73036 L294.26575,-70.391594 L295.3846,-68.435165 L296.5035,-65.653244 L297.62238,-61.70002 L298.74127,-56.0746 L299.86014,-48.114094 L300.97903,-36.13945 L302.0979,-17.798084 L303.2168,-336.0839 L304.33566,-313.52597 L305.45456,-298.6564 L306.57343,-290.10965 L307.69232,-285.06058 L308.8112,-282.25058 L309.93008,-280.43405 L311.04895,-279.19962 L312.16785,-278.33057 L313.2867,-277.761 L314.4056,-277.49713 L315.52448,-277.42734 L316.64337,-277.43445 L317.76224,-277.4877 L318.88113,-277.88257 L320,-278.20874 L321.11887,-278.73395 L322.23776,-279.43762 L323.35663,-280.39066 L324.47552,-281.21838 L325.5944,-282.18655 L326.7133,-283.00967 L327.83215,-283.38235 L328.95105,-283.9264 L330.06992,-285.15564 L331.1888,-287.0674 L332.30768,-290.23367 L333.42657,-295.1348 L334.54544,-302.42484 L335.66434,-310.88818 L336.7832,-323.20798 L337.9021,-338.75998 L339.02097,-11.298281 L340.13986,-24.298164 L341.25873,-33.543777 L342.37762,-40.47942 L343.4965,-46.42727 L344.6154,-51.502514 L345.73425,-54.76449 L346.85315,-57.067852 L347.97202,-59.086117 L349.0909,-60.59986 L350.20978,-62.408226 L351.32867,-64.27713 L352.44754,-65.9653 L353.56644,-67.444466 L354.6853,-68.654854 L355.8042,-69.63438 L356.92307,-70.40627 L358.04196,-71.12869 L359.16083,-71.75371 L360.27972,-72.29825 L361.3986,-72.69503 L362.5175,-73.017136 L363.63635,-73.26584 L364.75525,-73.44271 L365.8741,-73.43191 L366.993,-73.374855 L368.11188,-73.416985 L369.23077,-73.617294 L370.34964,-74.32999 L371.46854,-75.07319 L372.5874,-76.52971 L373.7063,-78.00826 L374.82516,-79.64197 L375.94406,-81.31086 L377.06293,-82.95527 L378.18182,-84.78266 L379.3007,-86.915405 L380.4196,-89.77859 L381.53845,-92.70898 L382.65735,-95.03591 L383.7762,-97.20531 L384.8951,-98.8147 L386.01398,-100.0694 L387.13287,-101.69818 L388.25174,-103.60276 L389.37064,-105.40401 L390.4895,-107.20791 L391.6084,-108.56479 L392.72726,-109.9538 L393.84616,-110.94487 L394.96503,-112.045395 L396.08392,-113.3687 L397.2028,-114.80564 L398.3217,-116.425354 L399.44055,-117.94976 L400.55945,-119.15382 L401.6783,-120.487686 L402.7972,-120.95657 L403.91608,-121.9753 L405.03497,-120.80469 L406.15384,-117.91497 L407.27274,-114.65823 L408.3916,-112.124214 L409.5105,-110.50555 L410.62936,-109.250084 L411.74826,-108.01516 L412.86713,-106.96886 L413.98602,-106.06802 L415.1049,-105.46403 L416.2238,-104.947754 L417.34265,-104.21821 L418.46155,-103.60454 L419.5804,-103.07048 L420.6993,-102.22602 L421.81818,-101.31897 L422.93707,-100.56793 L424.05594,-99.96058 L425.17484,-98.961555 L426.2937,-97.870605 L427.4126,-96.85081 L428.53146,-95.914024 L429.65036,-95.04158 L430.76923,-94.41215 L431.88812,-93.90191 L433.007,-93.25773 L434.1259,-92.659386 L435.24475,-92.01849 L436.36365,-91.43937 L437.4825,-90.96328 L438.6014,-90.54113 L439.72028,-90.23858 L440.83917,-89.99829 L441.95804,-89.87892 L443.07693,-89.80357 L444.1958,-89.803154 L445.3147,-89.72423 L446.43356,-89.69942 L447.55246,-89.669334 L448.67133,-89.702896 L449.79022,-89.89316 L450.9091,-90.28315 L452.02798,-90.746445 L453.14685,-91.25049 L454.26575,-91.70935 L455.3846,-92.04338 L456.5035,-92.33819 L457.62238,-92.63288 L458.74127,-93.091644 L459.86014,-93.52004 L460.97903,-93.82536 L462.0979,-94.0171 L463.2168,-93.86357 L464.33566,-93.67542 L465.45456,-93.50972 L466.57343,-93.11997 L467.69232,-92.75167 L468.8112,-92.40153 L469.93008,-92.0618 L471.04895,-92.40868 L472.16785,-92.79803 L473.2867,-93.36104 L474.4056,-94.16974 L475.52448,-95.343285 L476.64337,-97.57338 L477.76224,-102.49834 L478.88113,-114.3121 L480,-151.01611" fill="none" stroke="#ff0000" stroke-linejoin="round" stroke-width="2"/>
</g>
</g>
<g transform="translate(380, -340)">
<text font-size="12" text-anchor="start" x="0" y="0">
roll
</text>
<line stroke="#ff0000" stroke-width="2" x1="-10" x2="-3" y1="-4" y2="-4"/>
</g>
<g>
<g>
<path d="M0,-142.7483 L0,-142.7483 L1.1188811,-142.31134 L2.2377622,-142.10638 L3.3566434,-142.08777 L4.4755244,-141.96466 L5.5944057,-141.6871 L6.713287,-141.81134 L7.8321676,-141.87311 L8.951049,-141.93408 L10.06993,-142.30843 L11.188811,-142.61252 L12.307693,-142.82948 L13.426574,-143.00078 L14.545455,-142.80632 L15.664335,-142.5905 L16.783216,-142.39406 L17.902098,-142.3209 L19.020979,-142.4004 L20.13986,-142.48082 L21.258741,-142.5082 L22.377623,-142.5222 L23.496504,-142.6286 L24.615385,-142.87132 L25.734266,-143.20064 L26.853148,-143.61458 L27.972029,-144.08371 L29.09091,-144.4901 L30.20979,-144.92546 L31.32867,-145.44325 L32.44755,-145.97502 L33.566433,-146.5165 L34.685314,-147.04475 L35.804195,-147.65837 L36.923077,-148.25563 L38.041958,-148.67397 L39.16084,-149.25435 L40.27972,-149.55496 L41.3986,-149.99603 L42.517483,-150.33604 L43.636364,-150.68277 L44.755245,-151.02957 L45.874126,-151.42924 L46.993008,-151.92685 L48.11189,-152.41919 L49.23077,-152.70404 L50.34965,-152.9972 L51.468533,-153.25365 L52.587414,-153.48895 L53.706295,-153.74963 L54.825176,-153.62112 L55.944057,-153.62277 L57.06294,-153.62332 L58.18182,-153.61734 L59.3007,-153.58438 L60.41958,-153.58827 L61.53846,-153.55684 L62.65734,-153.66328 L63.776222,-153.81978 L64.8951,-153.74338 L66.013985,-154.27225 L67.132866,-154.76309 L68.25175,-155.24428 L69.37063,-155.72072 L70.48951,-156.23616 L71.60839,-156.83876 L72.72727,-157.48132 L73.84615,-158.18561 L74.965034,-158.9204 L76.083916,-159.51161 L77.2028,-160.11417 L78.32168,-160.63347 L79.44056,-161.04105 L80.55944,-161.4727 L81.67832,-161.9242 L82.7972,-162.19798 L83.916084,-162.4368 L85.034966,-162.8558 L86.15385,-163.63554 L87.27273,-164.62677 L88.39161,-165.58464 L89.51049,-166.50848 L90.62937,-167.51598 L91.74825,-168.67339 L92.867134,-169.92638 L93.986015,-171.14183 L95.1049,-172.45287 L96.22378,-173.67006 L97.34266,-174.71303 L98.46154,-175.7651 L99.58042,-176.78859 L100.6993,-177.64488 L101.818184,-178.40953 L102.937065,-179.0508 L104.05595,-179.48859 L105.17483,-179.82898 L106.29371,-180.13684 L107.41259,-180.42891 L108.53147,-180.73882 L109.65035,-181.12794 L110.76923,-181.50502 L111.888115,-181.80602 L113.006996,-181.9796 L114.12588,-182.01158 L115.24476,-181.94272 L116.36364,-181.75275 L117.48252,-181.45068 L118.6014,-181.10413 L119.72028,-180.7016 L120.83916,-180.23163 L121.95804,-179.72847 L123.07692,-179.17531 L124.1958,-178.57893 L125.31468,-177.90005 L126.43356,-177.007 L127.552444,-175.82686 L128.67133,-174.42062 L129.7902,-172.85725 L130.90909,-171.18192 L132.02797,-168.99672 L133.14685,-166.36893 L134.26573,-163.55313 L135.38461,-160.4441 L136.5035,-157.28766 L137.62238,-153.68741 L138.74126,-150.0113 L139.86014,-146.44112 L140.97902,-143.12064 L142.0979,-140.0098 L143.21678,-137.0331 L144.33566,-134.21085 L145.45454,-131.94519 L146.57343,-130.7685 L147.6923,-131.1495 L148.81119,-132.84032 L149.93007,-135.62027 L151.04895,-139.14467 L152.16783,-142.64627 L153.28671,-145.9601 L154.4056,-149.08736 L155.52448,-152.15161 L156.64336,-155.3737 L157.76224,-158.40787 L158.88112,-161.63536 L160,-165.27432 L161.11888,-169.37177 L162.23776,-173.8359 L163.35664,-179.10014 L164.47552,-184.98062 L165.5944,-191.48628 L166.71329,-198.04697 L167.83217,-204.7626 L168.95105,-210.6683 L170.06993,-214.36838 L171.18881,-211.00645 L172.3077,-199.63483 L173.42657,-184.15436 L174.54546,-167.4987 L175.66434,-151.3952 L176.78322,-136.71748 L177.9021,-125.195244 L179.02098,-119.32618 L180.13986,-123.27793 L181.25874,-135.67804 L182.37762,-152.70714 L183.4965,-171.92574 L184.61539,-191.01782 L185.73427,-208.05151 L186.85315,-217.51625 L187.97203,-212.28798 L189.09091,-195.88194 L190.2098,-175.27516 L191.32867,-154.07054 L192.44756,-135.71373 L193.56644,-125.655685 L194.68532,-130.21286 L195.8042,-145.1624 L196.92308,-161.60501 L198.04196,-178.358 L199.16084,-195.61061 L200.27972,-212.86719 L201.3986,-228.90866 L202.51749,-243.44244 L203.63637,-249.21597 L204.75525,-248.00293 L205.87413,-243.97897 L206.99301,-239.58345 L208.1119,-237.49031 L209.23077,-235.83505 L210.34966,-234.36925 L211.46854,-232.58218 L212.58742,-230.56522 L213.7063,-228.69868 L214.82518,-227.09239 L215.94406,-225.29292 L217.06294,-223.29141 L218.18182,-221.18932 L219.3007,-219.06003 L220.41959,-216.73549 L221.53847,-214.46928 L222.65735,-212.22604 L223.77623,-209.91393 L224.89511,-207.48434 L226.01399,-204.8793 L227.13287,-202.26266 L228.25175,-199.63983 L229.37064,-197.00185 L230.48952,-194.49123 L231.6084,-191.97119 L232.72728,-188.49675 L233.84616,-184.9523 L234.96504,-181.61086 L236.08392,-178.24554 L237.2028,-174.93515 L238.32169,-171.54922 L239.44057,-168.27754 L240.55943,-165.03519 L241.67831,-161.62294 L242.7972,-158.31651 L243.91608,-155.0065 L245.03496,-151.77954 L246.15384,-148.58852 L247.27272,-145.4484 L248.3916,-142.31131 L249.51048,-139.21461 L250.62936,-136.15768 L251.74825,-133.20433 L252.86713,-130.30988 L253.98601,-127.50859 L255.10489,-124.74745 L256.2238,-122.04448 L257.34265,-119.45891 L258.46155,-116.93366 L259.5804,-114.400375 L260.6993,-112.02494 L261.81818,-109.78078 L262.93707,-107.69533 L264.05594,-105.80421 L265.17484,-104.151924 L266.2937,-102.82125 L267.4126,-101.90298 L268.53146,-101.384514 L269.65036,-101.37885 L270.76923,-101.85393 L271.88812,-103.00278 L273.007,-104.71944 L274.1259,-106.8562 L275.24475,-109.223305 L276.36365,-111.76196 L277.4825,-114.32794 L278.6014,-116.89558 L279.72028,-119.49524 L280.83917,-122.15295 L281.95804,-125.99283 L283.07693,-130.12042 L284.1958,-134.53375 L285.3147,-139.19238 L286.43356,-144.31741 L287.55246,-149.87741 L288.67133,-155.50052 L289.79022,-161.54059 L290.9091,-167.57454 L292.02798,-173.93811 L293.14685,-181.59642 L294.26575,-189.44864 L295.3846,-197.71043 L296.5035,-206.02518 L297.62238,-213.97122 L298.74127,-221.10582 L299.86014,-227.28609 L300.97903,-232.66814 L302.0979,-236.38913 L303.2168,-237.03065 L304.33566,-233.75461 L305.45456,-227.37451 L306.57343,-219.73352 L307.69232,-211.33835 L308.8112,-203.08235 L309.93008,-194.88576 L311.04895,-186.66087 L312.16785,-178.35175 L313.2867,-170.3593 L314.4056,-162.62679 L315.52448,-155.27365 L316.64337,-148.06544 L317.76224,-140.97589 L318.88113,-133.89459 L320,-127.392715 L321.11887,-121.60288 L322.23776,-116.37323 L323.35663,-111.494286 L324.47552,-107.299934 L325.5944,-103.62288 L326.7133,-100.648186 L327.83215,-98.27469 L328.95105,-96.368065 L330.06992,-94.40305 L331.1888,-92.45508 L332.30768,-90.73484 L333.42657,-89.21394 L334.54544,-88.09531 L335.66434,-87.35836 L336.7832,-86.886955 L337.9021,-86.7138 L339.02097,-86.98434 L340.13986,-87.5548 L341.25873,-88.26947 L342.37762,-89.134674 L343.4965,-90.289505 L344.6154,-91.66821 L345.73425,-92.96498 L346.85315,-94.09968 L347.97202,-95.24708 L349.0909,-96.20678 L350.20978,-97.27542 L351.32867,-98.38081 L352.44754,-99.40308 L353.56644,-100.40044 L354.6853,-101.32413 L355.8042,-102.16654 L356.92307,-102.91991 L358.04196,-103.67634 L359.16083,-104.39936 L360.27972,-105.06842 L361.3986,-105.518776 L362.5175,-105.76564 L363.63635,-105.7178 L364.75525,-105.46103 L365.8741,-104.8741 L366.993,-104.12598 L368.11188,-103.260666 L369.23077,-102.404686 L370.34964,-101.99883 L371.46854,-101.591805 L372.5874,-100.9101 L373.7063,-100.06497 L374.82516,-99.05066 L375.94406,-97.9714 L377.06293,-96.81692 L378.18182,-95.66798 L379.3007,-94.67428 L380.4196,-94.13792 L381.53845,-93.92375 L382.65735,-94.466225 L383.7762,-95.2335 L384.8951,-96.22599 L386.01398,-97.22979 L387.13287,-97.92769 L388.25174,-98.28178 L389.37064,-98.27483 L390.4895,-98.10704 L391.6084,-97.87311 L392.72726,-97.6458 L393.84616,-97.01643 L394.96503,-96.24123 L396.08392,-95.35729 L397.2028,-94.49337 L398.3217,-93.65193 L399.44055,-92.87275 L400.55945,-92.17776 L401.6783,-91.485855 L402.7972,-91.07563 L403.91608,-90.55428 L405.03497,-90.38615 L406.15384,-90.54224 L407.27274,-91.291794 L408.3916,-92.19937 L409.5105,-93.02073 L410.62936,-93.7844 L411.74826,-94.61898 L412.86713,-95.46076 L413.98602,-96.52597 L415.1049,-97.54719 L416.2238,-98.53123 L417.34265,-99.61755 L418.46155,-100.66099 L419.5804,-101.70652 L420.6993,-102.73557 L421.81818,-103.82722 L422.93707,-104.91308 L424.05594,-105.88263 L425.17484,-106.86453 L426.2937,-108.14245 L427.4126,-109.57394 L428.53146,-110.988625 L429.65036,-112.47215 L430.76923,-114.0779 L431.88812,-115.978134 L433.007,-118.22802 L434.1259,-120.47886 L435.24475,-123.0032 L436.36365,-125.40207 L437.4825,-127.58236 L438.6014,-129.65096 L439.72028,-131.54921 L440.83917,-133.32936 L441.95804,-134.71957 L443.07693,-135.89816 L444.1958,-136.78693 L445.3147,-137.65314 L446.43356,-138.4424 L447.55246,-139.23457 L448.67133,-139.42578 L449.79022,-139.53867 L450.9091,-139.57933 L452.02798,-139.45393 L453.14685,-139.47597 L454.26575,-139.47841 L455.3846,-139.52994 L456.5035,-139.63704 L457.62238,-139.74352 L458.74127,-139.69322 L459.86014,-139.84184 L460.97903,-140.32944 L462.0979,-141.11377 L463.2168,-143.20132 L464.33566,-145.86736 L465.45456,-148.69266 L466.57343,-154.42331 L467.69232,-160.17314 L468.8112,-165.92749 L469.93008,-171.68558 L471.04895,-179.2921 L472.16785,-187.09953 L473.2867,-195.14662 L474.4056,-203.1986 L475.52448,-211.69041 L476.64337,-220.66988 L477.76224,-230.03485 L478.88113,-239.00227 L480,-245.5035" fill="none" stroke="#0000ff" stroke-linejoin="round" stroke-width="2"/>
</g>
</g>
<g transform="translate(380, -322)">
<text font-size="12" text-anchor="start" x="0" y="0">
pitch
</text>
<line stroke="#0000ff" stroke-width="2" x1="-10" x2="-3" y1="-4" y2="-4"/>
</g>
<g>
<g>
<path d="M0,-173.07964 L0,-173.07964 L1.1188811,-173.96281 L2.2377622,-174.46426 L3.3566434,-174.38857 L4.4755244,-174.29268 L5.5944057,-174.79285 L6.713287,-174.82208 L7.8321676,-175.06563 L8.951049,-175.30798 L10.06993,-174.5875 L11.188811,-173.9243 L12.307693,-173.62158 L13.426574,-173.45589 L14.545455,-173.79689 L15.664335,-174.16629 L16.783216,-174.34239 L17.902098,-174.30629 L19.020979,-173.98071 L20.13986,-173.6455 L21.258741,-173.33992 L22.377623,-173.0348 L23.496504,-172.58087 L24.615385,-171.8929 L25.734266,-171.00461 L26.853148,-169.86641 L27.972029,-168.66367 L29.09091,-167.54 L30.20979,-166.4746 L31.32867,-165.36873 L32.44755,-164.22743 L33.566433,-163.09851 L34.685314,-161.99359 L35.804195,-160.87492 L36.923077,-159.7534 L38.041958,-158.83688 L39.16084,-157.74313 L40.27972,-156.9076 L41.3986,-155.89339 L42.517483,-154.94781 L43.636364,-154.04376 L44.755245,-153.12839 L45.874126,-152.25478 L46.993008,-151.31677 L48.11189,-150.34949 L49.23077,-149.5505 L50.34965,-148.75485 L51.468533,-148.04886 L52.587414,-147.45102 L53.706295,-146.79807 L54.825176,-146.58044 L55.944057,-146.27933 L57.06294,-145.97928 L58.18182,-145.77754 L59.3007,-145.67944 L60.41958,-145.62901 L61.53846,-145.68295 L62.65734,-145.57942 L63.776222,-145.37897 L64.8951,-145.5467 L66.013985,-145.18288 L67.132866,-144.86917 L68.25175,-144.56044 L69.37063,-144.25116 L70.48951,-143.94875 L71.60839,-143.5604 L72.72727,-143.14922 L73.84615,-142.66843 L74.965034,-142.16731 L76.083916,-141.80489 L77.2028,-141.48451 L78.32168,-141.37178 L79.44056,-141.76668 L80.55944,-142.34991 L81.67832,-142.91586 L82.7972,-144.01253 L83.916084,-145.54735 L85.034966,-147.13417 L86.15385,-148.33098 L87.27273,-148.99258 L88.39161,-149.65652 L89.51049,-150.78856 L90.62937,-152.13742 L91.74825,-153.33423 L92.867134,-154.17505 L93.986015,-155.0433 L95.1049,-155.54524 L96.22378,-156.2736 L97.34266,-157.83978 L98.46154,-159.38693 L99.58042,-161.04117 L100.6993,-162.8946 L101.818184,-164.71776 L102.937065,-166.5852 L104.05595,-168.75565 L105.17483,-170.83191 L106.29371,-172.901 L107.41259,-175.01425 L108.53147,-177.1433 L109.65035,-179.11664 L110.76923,-181.06813 L111.888115,-183.01414 L113.006996,-185.07951 L114.12588,-187.34206 L115.24476,-189.67705 L116.36364,-192.2109 L117.48252,-194.8802 L118.6014,-197.55682 L119.72028,-200.26085 L120.83916,-202.94804 L121.95804,-205.71376 L123.07692,-208.52567 L124.1958,-211.34956 L125.31468,-214.2183 L126.43356,-217.25162 L127.552444,-220.50624 L128.67133,-223.96643 L129.7902,-227.49667 L130.90909,-230.96758 L132.02797,-234.75473 L133.14685,-238.89357 L134.26573,-243.15869 L135.38461,-247.66995 L136.5035,-252.30411 L137.62238,-257.36395 L138.74126,-262.73267 L139.86014,-268.5192 L140.97902,-274.69177 L142.0979,-281.44284 L143.21678,-288.996 L144.33566,-297.7388 L145.45454,-307.8566 L146.57343,-318.5087 L147.6923,-329.3091 L148.81119,-339.23755 L149.93007,-3.8153129 L151.04895,-11.220885 L152.16783,-15.3090515 L153.28671,-18.415714 L154.4056,-21.715282 L155.52448,-25.46093 L156.64336,-28.994785 L157.76224,-30.853569 L158.88112,-32.454323 L160,-34.24941 L161.11888,-36.309895 L162.23776,-38.546246 L163.35664,-41.442123 L164.47552,-44.959595 L165.5944,-48.977192 L166.71329,-53.357536 L167.83217,-62.094475 L168.95105,-74.58177 L170.06993,-89.74688 L171.18881,-114.423744 L172.3077,-134.8506 L173.42657,-148.32402 L174.54546,-159.59793 L175.66434,-171.43208 L176.78322,-186.29558 L177.9021,-207.05443 L179.02098,-237.28502 L180.13986,-270.64328 L181.25874,-295.91382 L182.37762,-314.24274 L183.4965,-330.2467 L184.61539,-2.9904683 L185.73427,-26.179062 L186.85315,-62.75509 L187.97203,-103.20598 L189.09091,-131.84946 L190.2098,-151.60146 L191.32867,-169.8799 L192.44756,-192.97838 L193.56644,-226.57825 L194.68532,-263.48187 L195.8042,-288.0786 L196.92308,-300.68967 L198.04196,-308.43362 L199.16084,-315.40082 L200.27972,-320.7997 L201.3986,-325.15582 L202.51749,-324.79193 L203.63637,-289.41922 L204.75525,-225.82385 L205.87413,-211.29842 L206.99301,-206.2027 L208.1119,-210.41154 L209.23077,-216.00174 L210.34966,-220.47426 L211.46854,-222.04883 L212.58742,-220.93842 L213.7063,-220.03662 L214.82518,-219.57889 L215.94406,-218.23656 L217.06294,-216.1086 L218.18182,-213.98224 L219.3007,-212.05602 L220.41959,-210.54964 L221.53847,-209.53043 L222.65735,-208.74304 L223.77623,-207.98035 L224.89511,-207.23376 L226.01399,-206.5278 L227.13287,-205.95058 L228.25175,-205.42795 L229.37064,-205.25949 L230.48952,-205.76768 L231.6084,-206.25783 L232.72728,-204.98311 L233.84616,-203.61829 L234.96504,-202.58174 L236.08392,-201.41843 L237.2028,-200.32872 L238.32169,-199.06628 L239.44057,-197.99196 L240.55943,-196.83734 L241.67831,-195.33458 L242.7972,-193.9824 L243.91608,-192.6216 L245.03496,-191.06099 L246.15384,-189.47253 L247.27272,-187.83345 L248.3916,-186.15277 L249.51048,-184.24092 L250.62936,-182.24486 L251.74825,-180.15479 L252.86713,-177.92564 L253.98601,-175.55081 L255.10489,-172.9708 L256.2238,-170.11377 L257.34265,-167.04594 L258.46155,-163.66891 L259.5804,-159.8959 L260.6993,-155.771 L261.81818,-151.08165 L262.93707,-145.77187 L264.05594,-139.79195 L265.17484,-133.00853 L266.2937,-125.417725 L267.4126,-116.90083 L268.53146,-107.799904 L269.65036,-98.29248 L270.76923,-88.997765 L271.88812,-80.06305 L273.007,-71.743355 L274.1259,-64.49968 L275.24475,-58.449764 L276.36365,-53.391872 L277.4825,-49.107082 L278.6014,-45.401474 L279.72028,-42.195683 L280.83917,-39.31782 L281.95804,-36.24288 L283.07693,-33.495293 L284.1958,-30.961597 L285.3147,-28.589254 L286.43356,-26.38769 L287.55246,-24.314472 L288.67133,-22.333088 L289.79022,-20.395771 L290.9091,-18.456528 L292.02798,-16.396421 L293.14685,-14.207795 L294.26575,-11.743165 L295.3846,-8.756256 L296.5035,-5.0030665 L297.62238,-0.14647633 L298.74127,-337.93854 L299.86014,-329.4548 L300.97903,-316.84756 L302.0979,-297.8869 L303.2168,-270.9408 L304.33566,-247.1217 L305.45456,-230.88123 L306.57343,-220.92047 L307.69232,-214.46535 L308.8112,-210.26945 L309.93008,-207.071 L311.04895,-204.32852 L312.16785,-201.82344 L313.2867,-199.57832 L314.4056,-197.52429 L315.52448,-195.64107 L316.64337,-193.7492 L317.76224,-191.77478 L318.88113,-189.56998 L320,-187.28429 L321.11887,-185.0224 L322.23776,-182.50241 L323.35663,-179.65863 L324.47552,-176.80621 L325.5944,-173.90239 L326.7133,-171.27708 L327.83215,-169.24065 L328.95105,-167.3231 L330.06992,-164.9238 L331.1888,-161.84808 L332.30768,-157.85635 L333.42657,-152.37842 L334.54544,-144.90932 L335.66434,-136.51639 L336.7832,-124.5392 L337.9021,-109.47639 L339.02097,-93.50034 L340.13986,-81.34462 L341.25873,-73.12217 L342.37762,-67.2727 L343.4965,-62.18604 L344.6154,-57.72342 L345.73425,-54.80732 L346.85315,-52.788837 L347.97202,-51.070847 L349.0909,-49.874554 L350.20978,-48.36553 L351.32867,-46.763405 L352.44754,-45.278484 L353.56644,-43.977642 L354.6853,-42.92195 L355.8042,-42.098843 L356.92307,-41.43375 L358.04196,-40.819283 L359.16083,-40.089718 L360.27972,-39.33941 L361.3986,-38.59352 L362.5175,-37.857986 L363.63635,-37.128216 L364.75525,-36.40536 L365.8741,-35.783894 L366.993,-35.298985 L368.11188,-34.91666 L369.23077,-34.55088 L370.34964,-33.775993 L371.46854,-32.97376 L372.5874,-31.847748 L373.7063,-30.727222 L374.82516,-29.828629 L375.94406,-29.059958 L377.06293,-28.552074 L378.18182,-27.856436 L379.3007,-26.846388 L380.4196,-25.104017 L381.53845,-23.2582 L382.65735,-21.863815 L383.7762,-20.465828 L384.8951,-19.503172 L386.01398,-18.866287 L387.13287,-17.833384 L388.25174,-16.529974 L389.37064,-15.249276 L390.4895,-13.956384 L391.6084,-13.100091 L392.72726,-12.21092 L393.84616,-11.662006 L394.96503,-11.006991 L396.08392,-10.144601 L397.2028,-9.237066 L398.3217,-8.21252 L399.44055,-7.2867084 L400.55945,-6.6797843 L401.6783,-5.941203 L402.7972,-5.9648914 L403.91608,-5.4029956 L405.03497,-7.0936723 L406.15384,-10.519194 L407.27274,-14.459366 L408.3916,-17.562805 L409.5105,-19.725147 L410.62936,-21.479595 L411.74826,-23.197302 L412.86713,-24.72849 L413.98602,-25.829893 L415.1049,-26.667414 L416.2238,-27.402449 L417.34265,-28.329704 L418.46155,-29.175014 L419.5804,-29.942928 L420.6993,-30.922009 L421.81818,-31.89692 L422.93707,-32.753315 L424.05594,-33.563877 L425.17484,-34.738285 L426.2937,-35.84635 L427.4126,-36.80087 L428.53146,-37.68221 L429.65036,-38.41506 L430.76923,-39.016933 L431.88812,-39.40836 L433.007,-39.686493 L434.1259,-39.915688 L435.24475,-39.908627 L436.36365,-39.78632 L437.4825,-39.642296 L438.6014,-39.59066 L439.72028,-39.74357 L440.83917,-40.02603 L441.95804,-40.170364 L443.07693,-40.178898 L444.1958,-40.11447 L445.3147,-39.98843 L446.43356,-39.796093 L447.55246,-39.607857 L448.67133,-39.35426 L449.79022,-39.182724 L450.9091,-39.038128 L452.02798,-38.858364 L453.14685,-38.725235 L454.26575,-38.62841 L455.3846,-38.65334 L456.5035,-38.792915 L457.62238,-38.93331 L458.74127,-39.09287 L459.86014,-39.251743 L460.97903,-39.480064 L462.0979,-39.768673 L463.2168,-40.152058 L464.33566,-40.53758 L465.45456,-40.841045 L466.57343,-41.027184 L467.69232,-41.16243 L468.8112,-41.25976 L469.93008,-41.321625 L471.04895,-42.440414 L472.16785,-43.750473 L473.2867,-45.279854 L474.4056,-47.05804 L475.52448,-49.31888 L476.64337,-52.56657 L477.76224,-58.40644 L478.88113,-71.09397 L480,-108.76901" fill="none" stroke="#00ff00" stroke-linejoin="round" stroke-width="2"/>
</g>
</g>
<g transform="translate(380, -304)">
<text font-size="12" text-anchor="start" x="0" y="0">
yaw
</text>
<line stroke="#00ff00" stroke-width="2" x1="-10" x2="-3" y1="-4" y2="-4"/>
</g>
<g>
<g>
<line stroke="black" stroke-width="1" x1="0.00020139862526525864" x2="0.00020139862526525864" y1="0" y2="10"/>
<line stroke="black" stroke-width="1" x1="96.22397762242336" x2="96.22397762242336" y1="0" y2="10"/>
<line stroke="black" stroke-width="1" x1="192.44775384622147" x2="192.44775384622147" y1="0" y2="10"/>
<line stroke="black" stroke-width="1" x1="288.67153007001957" x2="288.67153007001957" y1="0" y2="10"/>
<line stroke="black" stroke-width="1" x1="384.89530629381767" x2="384.89530629381767" y1="0" y2="10"/>
</g>
<line stroke="black" stroke-width="1" x1="0" x2="480" y1="0" y2="0"/>
<g>
<text font-size="12" text-anchor="middle" x="0.00020139862526525864" y="20">
72.02326
</text>
<text font-size="12" text-anchor="middle" x="96.22397762242336" y="20">
74.02326
</text>
<text font-size="12" text-anchor="middle" x="192.44775384622147" y="20">
76.02326
</text>
<text font-size="12" text-anchor="middle" x="288.67153007001957" y="20">
78.02326
</text>
<text font-size="12" text-anchor="middle" x="384.89530629381767" y="20">
80.02326
</text>
</g>
<text font-size="12" text-anchor="middle" x="240" y="30">
Time (s)
</text>
</g>
<g>
<g>
<line stroke="black" stroke-width="1" x1="0" x2="-10" y1="-72.6346204989199" y2="-72.6346204989199"/>
<line stroke="black" stroke-width="1" x1="0" x2="-10" y1="-168.22785093056532" y2="-168.22785093056532"/>
<line stroke="black" stroke-width="1" x1="0" x2="-10" y1="-263.82108136221075" y2="-263.82108136221075"/>
</g>
<line stroke="black" stroke-width="1" x1="0" x2="0" y1="0" y2="-340"/>
<g>
<text dominant-baseline="middle" font-size="12" text-anchor="end" x="-15" y="-72.6346204989199">
-100
</text>
<text dominant-baseline="middle" font-size="12" text-anchor="end" x="-15" y="-168.22785093056532">
0
</text>
<text dominant-baseline="middle" font-size="12" text-anchor="end" x="-15" y="-263.82108136221075">
100
</text>
</g>
<text font-size="12" text-anchor="middle" transform="rotate(-90 -48 -170)" x="-48" y="-182">
Angle (dgr)
</text>
</g>
</g>
</svg>