<svg viewBox="0 0 600 400" xmlns="http://www.w3.org/2000/svg">
<g transform="translate(72, 364)">
<g>
<g>
<path d="M0,-29.135536 L0,-29.135536 L1.4328358,-29.593323 L2.8656716,-37.25694 L4.2985077,-39.92053 L5.7313433,-41.709404 L7.1641793,-38.1489 L8.597015,-34.068542 L10.029851,-38.35545 L11.462687,-37.246136 L12.895522,-43.102722 L14.328359,-39.29306 L15.761194,-26.541765 L17.19403,-40.143494 L18.626865,-39.769817 L20.059702,-41.5313 L21.492537,-36.71477 L22.925373,-36.898865 L24.35821,-34.159954 L25.791044,-37.38382 L27.22388,-34.859726 L28.656717,-34.871387 L30.089552,-36.476994 L31.522388,-39.176785 L32.955223,-43.156578 L34.38806,-36.745342 L35.820896,-27.381813 L37.25373,-30.231598 L38.686565,-35.580845 L40.119404,-43.03333 L41.55224,-35.753418 L42.985073,-39.681175 L44.41791,-43.67782 L45.850746,-29.405548 L47.28358,-40.96865 L48.71642,-37.097965 L50.149254,-38.395065 L51.58209,-36.569195 L53.014927,-38.143948 L54.44776,-37.203896 L55.880596,-33.051086 L57.313435,-34.89464 L58.74627,-31.471987 L60.179104,-31.068336 L61.61194,-40.26683 L63.044777,-41.949818 L64.477615,-42.082424 L65.910446,-40.5025 L67.343285,-37.30477 L68.77612,-37.204468 L70.208954,-35.31231 L71.64179,-32.60281 L73.07462,-32.097866 L74.50746,-36.96959 L75.9403,-47.731308 L77.37313,-50.727364 L78.80597,-37.10798 L80.23881,-30.557192 L81.67164,-27.179653 L83.10448,-27.493586 L84.537315,-28.721788 L85.970146,-31.633596 L87.402985,-34.603664 L88.83582,-37.42865 L90.268654,-38.99258 L91.70149,-39.421944 L93.13433,-35.33281 L94.56716,-34.989914 L96,-36.5261 L97.43284,-37.40654 L98.86567,-37.360985 L100.29851,-37.915142 L101.731346,-37.42893 L103.16418,-37.292786 L104.597015,-37.409824 L106.029854,-35.642353 L107.462685,-35.507442 L108.89552,-36.266293 L110.32836,-35.666553 L111.76119,-32.66664 L113.19403,-32.11506 L114.62687,-35.634064 L116.0597,-37.124626 L117.49254,-36.32608 L118.92538,-35.765114 L120.35821,-36.651257 L121.791046,-37.738014 L123.22388,-37.355312 L124.656715,-36.069725 L126.089554,-37.04158 L127.522385,-38.922867 L128.95523,-39.31224 L130.38806,-39.229706 L131.82089,-34.93905 L133.25374,-37.276608 L134.68657,-39.036118 L136.1194,-38.93602 L137.55225,-37.760708 L138.98508,-42.26002 L140.41791,-46.55494 L141.85075,-45.01801 L143.28358,-37.91947 L144.71642,-39.047398 L146.14925,-31.965454 L147.58209,-28.3856 L149.01492,-21.821997 L150.44775,-18.81326 L151.8806,-19.968357 L153.31343,-22.785255 L154.74626,-24.523775 L156.17911,-24.968315 L157.61194,-27.043446 L159.04477,-30.514803 L160.47762,-30.606747 L161.91045,-32.727364 L163.34328,-31.696323 L164.77612,-28.480837 L166.20895,-29.685411 L167.64178,-32.885105 L169.07463,-33.643982 L170.50746,-32.319466 L171.94029,-29.431948 L173.37314,-28.43478 L174.80597,-31.253225 L176.2388,-31.155363 L177.67165,-32.362473 L179.10448,-30.232857 L180.53731,-27.492615 L181.97015,-24.70281 L183.40298,-23.8577 L184.83582,-21.08236 L186.26866,-20.767128 L187.70149,-26.267204 L189.13432,-32.79196 L190.56717,-35.056976 L192,-35.10404 L193.43283,-32.388435 L194.86568,-30.756018 L196.29851,-31.1541 L197.73134,-30.287863 L199.16418,-31.211536 L200.59702,-36.180096 L202.02985,-41.854702 L203.46269,-51.234577 L204.89552,-45.83421 L206.32835,-42.946915 L207.7612,-42.819954 L209.19403,-35.98446 L210.62686,-43.61751 L212.05971,-50.09676 L213.49254,-38.74754 L214.92537,-22.4374 L216.35822,-2.8541224 L217.79105,0 L219.22388,-7.6049914 L220.65672,-8.303158 L222.08955,-7.2789736 L223.52238,-19.818129 L224.95523,-19.726963 L226.38806,-26.652365 L227.82089,-23.892307 L229.25374,-13.359746 L230.68657,-22.160156 L232.1194,-45.802917 L233.55225,-114.65507 L234.98508,-162.41582 L236.41791,-231.8388 L237.85075,-230.15492 L239.28358,-230.33624 L240.71642,-84.575165 L242.14925,-85.30652 L243.58209,-101.605286 L245.01492,-177.00241 L246.44775,-176.60435 L247.8806,-171.56529 L249.31343,-247.50104 L250.74626,-241.61891 L252.17911,-243.81625 L253.61194,-265.6071 L255.04477,-265.79565 L256.4776,-281.2171 L257.91046,-279.5507 L259.3433,-274.47592 L260.77612,-272.46143 L262.20895,-272.98322 L263.64178,-259.66434 L265.07462,-279.3849 L266.50748,-308.6999 L267.9403,-284.80872 L269.37314,-258.33405 L270.80597,-258.27423 L272.2388,-132.53238 L273.67163,-181.88275 L275.1045,-212.14381 L276.53732,-154.39201 L277.97015,-193.59456 L279.40298,-265.11594 L280.83582,-64.59434 L282.26865,-56.070885 L283.7015,-249.64189 L285.13434,-340 L286.56717,-339.6831 L288,-119.95689 L289.43283,-250.50096 L290.86566,-192.01212 L292.2985,-127.89092 L293.73135,-224.60356 L295.16418,-170.94283 L296.59702,-140.9132 L298.02985,-180.18027 L299.46268,-147.79573 L300.8955,-147.58852 L302.32837,-169.01564 L303.7612,-191.85551 L305.19403,-229.15773 L306.62686,-209.99916 L308.0597,-102.1195 L309.49252,-82.05958 L310.92538,-125.41278 L312.35822,-106.84079 L313.79105,-138.08907 L315.22388,-122.22658 L316.6567,-89.3544 L318.08954,-89.34288 L319.5224,-78.16882 L320.95523,-73.069176 L322.38806,-74.62847 L323.8209,-83.673836 L325.25372,-107.513565 L326.68655,-90.298134 L328.11942,-64.104866 L329.55225,-80.75646 L330.98508,-112.651726 L332.4179,-111.50866 L333.85074,-111.93737 L335.28357,-114.30828 L336.71643,-117.206436 L338.14926,-118.405464 L339.5821,-125.45702 L341.01492,-126.21623 L342.44775,-119.709404 L343.88058,-101.99637 L345.31345,-86.02132 L346.74628,-70.740204 L348.1791,-68.28927 L349.61194,-68.22778 L351.04477,-71.124825 L352.4776,-69.62288 L353.91046,-59.42554 L355.3433,-51.76994 L356.77612,-43.82625 L358.20895,-43.10863 L359.64178,-39.981773 L361.07462,-37.545525 L362.50748,-36.444847 L363.9403,-36.869476 L365.37314,-36.825478 L366.80597,-37.73663 L368.2388,-38.594364 L369.67163,-38.169193 L371.1045,-38.447605 L372.53732,-38.83188 L373.97015,-40.899536 L375.40298,-43.085697 L376.83582,-42.67509 L378.26865,-38.965626 L379.7015,-32.49323 L381.13434,-30.857763 L382.56717,-30.880999 L384,-35.22565 L385.43283,-37.91647 L386.86566,-38.020725 L388.2985,-36.319363 L389.73135,-35.301735 L391.16418,-36.917393 L392.59702,-39.17841 L394.02985,-40.72582 L395.46268,-40.230373 L396.8955,-40.216637 L398.32837,-37.495975 L399.7612,-35.347496 L401.19403,-32.58759 L402.62686,-31.209818 L404.0597,-31.754932 L405.49252,-32.58678 L406.92538,-33.678093 L408.35822,-34.14227 L409.79105,-35.299397 L411.22388,-37.179676 L412.6567,-38.076397 L414.08954,-38.072075 L415.5224,-39.81179 L416.95523,-41.12933 L418.38806,-42.458176 L419.8209,-43.225887 L421.25372,-40.855824 L422.68655,-38.039455 L424.11942,-36.27029 L425.55225,-35.340534 L426.98508,-33.75709 L428.4179,-32.552273 L429.85074,-32.61198 L431.28357,-31.409294 L432.71643,-31.031427 L434.14926,-31.12135 L435.5821,-31.367098 L437.01492,-30.602802 L438.44775,-29.946728 L439.88058,-30.841278 L441.31345,-31.76471 L442.74628,-33.295628 L444.1791,-33.30743 L445.61194,-33.82407 L447.04477,-35.01244 L448.4776,-35.3234 L449.91046,-34.31729 L451.3433,-34.687347 L452.77612,-36.124264 L454.20895,-36.130077 L455.64178,-34.79599 L457.07462,-35.448193 L458.50748,-35.844624 L459.9403,-35.837044 L461.37314,-34.889317 L462.80597,-34.531322 L464.2388,-34.878933 L465.67163,-35.314205 L467.1045,-34.534157 L468.53732,-34.234093 L469.97015,-33.96812 L471.40298,-33.386646 L472.83582,-32.454685 L474.26865,-32.009296 L475.7015,-32.177906 L477.13434,-32.19828 L478.56717,-31.89422 L480,-30.391636" fill="none" stroke="#ff0000" stroke-linejoin="round" stroke-width="2"/>
</g>
</g>
<g transform="translate(380, -340)">
<text font-size="12" text-anchor="start" x="0" y="0">
speed
</text>
<line stroke="#ff0000" stroke-width="2" x1="-10" x2="-3" y1="-4" y2="-4"/>
</g>
<g>
<g>
<line stroke="black" stroke-width="1" x1="-0.0000000003067304818098147" x2="-0.0000000003067304818098147" y1="0" y2="10"/>
<line stroke="black" stroke-width="1" x1="80.23880596982885" x2="80.23880596982885" y1="0" y2="10"/>
<line stroke="black" stroke-width="1" x1="160.47761193996442" x2="160.47761193996442" y1="0" y2="10"/>
<line stroke="black" stroke-width="1" x1="240.71641791009998" x2="240.71641791009998" y1="0" y2="10"/>
<line stroke="black" stroke-width="1" x1="320.95522388023556" x2="320.95522388023556" y1="0" y2="10"/>
<line stroke="black" stroke-width="1" x1="401.1940298503711" x2="401.1940298503711" y1="0" y2="10"/>
</g>
<line stroke="black" stroke-width="1" x1="0" x2="480" y1="0" y2="0"/>
<g>
<text font-size="12" text-anchor="middle" x="-0.0000000003067304818098147" y="20">
58
</text>
<text font-size="12" text-anchor="middle" x="80.23880596982885" y="20">
59
</text>
<text font-size="12" text-anchor="middle" x="160.47761193996442" y="20">
60
</text>
<text font-size="12" text-anchor="middle" x="240.71641791009998" y="20">
61
</text>
<text font-size="12" text-anchor="middle" x="320.95522388023556" y="20">
62
</text>
<text font-size="12" text-anchor="middle" x="401.1940298503711" y="20">
63
</text>
</g>
<text font-size="12" text-anchor="middle" x="240" y="30">
Time (s)
</text>
</g>
<g>
<g>
<line stroke="black" stroke-width="1" x1="0" x2="-10" y1="-36.707491239816505" y2="-36.707491239816505"/>
<line stroke="black" stroke-width="1" x1="0" x2="-10" y1="-120.09456514876771" y2="-120.09456514876771"/>
<line stroke="black" stroke-width="1" x1="0" x2="-10" y1="-203.48163905771895" y2="-203.48163905771895"/>
<line stroke="black" stroke-width="1" x1="0" x2="-10" y1="-286.86871296667016" y2="-286.86871296667016"/>
</g>
<line stroke="black" stroke-width="1" x1="0" x2="0" y1="0" y2="-340"/>
<g>
<text dominant-baseline="middle" font-size="12" text-anchor="end" x="-15" y="-36.707491239816505">
0
</text>
<text dominant-baseline="middle" font-size="12" text-anchor="end" x="-15" y="-120.09456514876771">
1
</text>
<text dominant-baseline="middle" font-size="12" text-anchor="end" x="-15" y="-203.48163905771895">
2
</text>
<text dominant-baseline="middle" font-size="12" text-anchor="end" x="-15" y="-286.86871296667016">
3
</text>
</g>
<text font-size="12" text-anchor="middle" transform="rotate(-90 -12 -170)" x="-12" y="-182">
Speed (dgr/s)
</text>
</g>
</g>
</svg>