<svg viewBox="0 0 600 400" xmlns="http://www.w3.org/2000/svg">
<g transform="translate(72, 364)">
<g>
<g>
<path d="M0,-163.66841 L0,-163.66841 L1.4328358,-163.76979 L2.8656716,-163.86104 L4.2985077,-163.56702 L5.7313433,-163.56702 L7.1641793,-164.01312 L8.597015,-164.06381 L10.029851,-164.1145 L11.462687,-164.01312 L12.895522,-163.91173 L14.328359,-164.01312 L15.761194,-163.96243 L17.19403,-163.66841 L18.626865,-163.56702 L20.059702,-163.7191 L21.492537,-163.7191 L22.925373,-163.86104 L24.35821,-163.76979 L25.791044,-163.96243 L27.22388,-163.96243 L28.656717,-163.91173 L30.089552,-163.91173 L31.522388,-164.45923 L32.955223,-163.96243 L34.38806,-164.25645 L35.820896,-163.96243 L37.25373,-163.96243 L38.686565,-164.06381 L40.119404,-164.06381 L41.55224,-163.86104 L42.985073,-163.91173 L44.41791,-163.76979 L45.850746,-163.6177 L47.28358,-163.76979 L48.71642,-163.96243 L50.149254,-164.2159 L51.58209,-164.2159 L53.014927,-164.70255 L54.44776,-165.09796 L55.880596,-165.0574 L57.313435,-165.93947 L58.74627,-165.84822 L60.179104,-164.80394 L61.61194,-164.45923 L63.044777,-164.6113 L64.477615,-166.04085 L65.910446,-166.53764 L67.343285,-165.25003 L68.77612,-165.25003 L70.208954,-164.65186 L71.64179,-162.62413 L73.07462,-161.58998 L74.50746,-160.74847 L75.9403,-160.9918 L77.37313,-161.58998 L78.80597,-161.64067 L80.23881,-161.73192 L81.67164,-164.30714 L83.10448,-164.30714 L84.537315,-165.0574 L85.970146,-166.09155 L87.402985,-166.19293 L88.83582,-165.25003 L90.268654,-164.75325 L91.70149,-164.35783 L93.13433,-164.25645 L94.56716,-163.91173 L96,-164.01312 L97.43284,-165.00671 L98.86567,-165.00671 L100.29851,-165.19934 L101.731346,-164.35783 L103.16418,-164.35783 L104.597015,-164.56061 L106.029854,-163.7191 L107.462685,-163.17162 L108.89552,-163.86104 L110.32836,-164.06381 L111.76119,-162.8776 L113.19403,-162.03609 L114.62687,-162.03609 L116.0597,-163.51633 L117.49254,-163.37439 L118.92538,-162.3808 L120.35821,-163.01953 L121.791046,-165.00671 L123.22388,-164.85463 L124.656715,-163.273 L126.089554,-162.17802 L127.522385,-162.57343 L128.95523,-163.01953 L130.38806,-163.01953 L131.82089,-159.01476 L133.25374,-159.6535 L134.68657,-161.24527 L136.1194,-162.48218 L137.55225,-160.35306 L138.98508,-163.273 L140.41791,-165.35143 L141.85075,-164.85463 L143.28358,-161.19458 L144.71642,-161.19458 L146.14925,-159.15671 L147.58209,-159.6028 L149.01492,-160.20099 L150.44775,-159.11615 L151.8806,-159.95766 L153.31343,-162.03609 L154.74626,-164.01312 L156.17911,-163.96243 L157.61194,-162.57343 L159.04477,-162.92828 L160.47762,-162.92828 L161.91045,-164.01312 L163.34328,-165.30074 L164.77612,-163.96243 L166.20895,-164.30714 L167.64178,-164.65186 L169.07463,-164.30714 L170.50746,-163.51633 L171.94029,-164.75325 L173.37314,-163.17162 L174.80597,-162.8776 L176.2388,-162.8776 L177.67165,-163.37439 L179.10448,-164.45923 L180.53731,-162.3808 L181.97015,-158.46727 L183.40298,-157.91978 L184.83582,-157.97047 L186.26866,-158.51796 L187.70149,-156.93634 L189.13432,-159.11615 L190.56717,-158.86269 L192,-158.86269 L193.43283,-157.57507 L194.86568,-157.77785 L196.29851,-157.17966 L197.73134,-153.96571 L199.16418,-156.38885 L200.59702,-159.75488 L202.02985,-158.86269 L203.46269,-147.42627 L204.89552,-149.0586 L206.32835,-169.01147 L207.7612,-169.01147 L209.19403,-169.26495 L210.62686,-158.17325 L212.05971,-157.52438 L213.49254,-173.76651 L214.92537,-188.41689 L216.35822,-210.20486 L217.79105,-221.33711 L219.22388,-237.97466 L220.65672,-263.07797 L222.08955,-273.21664 L223.52238,-298.71536 L224.95523,-298.71536 L226.38806,-310.4458 L227.82089,-328.32025 L229.25374,-328.86774 L230.68657,-311.338 L232.1194,-287.82645 L233.55225,-226.29492 L234.98508,-174.80066 L236.41791,-100.74788 L237.85075,-96.73296 L239.28358,-96.73296 L240.71642,-53.167137 L242.14925,-0.84150887 L243.58209,0 L245.01492,-71.4877 L246.44775,-106.68913 L247.8806,-82.92411 L249.31343,-82.82272 L250.74626,-77.67228 L252.17911,-72.32921 L253.61194,-61.18682 L255.04477,-61.18682 L256.4776,-47.32727 L257.91046,-37.127777 L259.3433,-54.404057 L260.77612,-60.446697 L262.20895,-42.92709 L263.64178,-32.474133 L265.07462,-50.399284 L266.50748,-92.52542 L267.9403,-117.87207 L269.37314,-141.78917 L270.80597,-141.78917 L272.2388,-201.587 L273.67163,-275.70062 L275.1045,-340 L276.53732,-278.27582 L277.97015,-260.14792 L279.40298,-320.69598 L280.83582,-280.0501 L282.26865,-329.4051 L283.7015,-284.70374 L285.13434,-288.01907 L286.56717,-288.01907 L288,-270.6921 L289.43283,-214.06769 L290.86566,-172.13419 L292.2985,-179.21097 L293.73135,-156.04413 L295.16418,-145.05382 L296.59702,-164.45923 L298.02985,-158.07187 L299.46268,-147.18294 L300.8955,-147.18294 L302.32837,-141.29237 L303.7612,-139.60936 L305.19403,-129.80528 L306.62686,-97.57448 L308.0597,-98.91278 L309.49252,-134.30684 L310.92538,-182.67839 L312.35822,-190.9921 L313.79105,-169.26495 L315.22388,-141.98181 L316.6567,-129.01447 L318.08954,-129.01447 L319.5224,-124.462204 L320.95523,-129.01447 L322.38806,-144.90175 L323.8209,-155.44595 L325.25372,-149.26137 L326.68655,-147.82169 L328.11942,-165.79753 L329.55225,-179.21097 L330.98508,-155.94275 L332.4179,-147.28433 L333.85074,-147.28433 L335.28357,-144.3644 L336.71643,-151.54257 L338.14926,-167.92665 L339.5821,-165.49336 L341.01492,-162.48218 L342.44775,-168.46399 L343.88058,-172.27612 L345.31345,-167.77457 L346.74628,-155.05054 L348.1791,-154.75652 L349.61194,-154.75652 L351.04477,-157.82854 L352.4776,-159.7042 L353.91046,-167.58192 L355.3433,-168.06859 L356.77612,-164.25645 L358.20895,-162.53288 L359.64178,-161.9347 L361.07462,-163.56702 L362.50748,-163.17162 L363.9403,-162.7762 L365.37314,-162.7762 L366.80597,-163.76979 L368.2388,-165.40211 L369.67163,-164.70255 L371.1045,-166.09155 L372.53732,-165.49336 L373.97015,-161.78261 L375.40298,-161.83331 L376.83582,-164.40852 L378.26865,-164.40852 L379.7015,-164.85463 L381.13434,-165.49336 L382.56717,-165.49336 L384,-166.04085 L385.43283,-166.29433 L386.86566,-164.6113 L388.2985,-165.74683 L389.73135,-164.65186 L391.16418,-161.4379 L392.59702,-160.40376 L394.02985,-161.83331 L395.46268,-162.92828 L396.8955,-162.92828 L398.32837,-163.32368 L399.7612,-164.50992 L401.19403,-165.74683 L402.62686,-165.89891 L404.0597,-165.93947 L405.49252,-166.43626 L406.92538,-166.09155 L408.35822,-165.25003 L409.79105,-164.6113 L411.22388,-163.37439 L412.6567,-162.12733 L414.08954,-162.12733 L415.5224,-163.07022 L416.95523,-164.1145 L418.38806,-164.45923 L419.8209,-164.45923 L421.25372,-163.7191 L422.68655,-163.01953 L424.11942,-163.56702 L425.55225,-164.06381 L426.98508,-164.45923 L428.4179,-164.06381 L429.85074,-164.06381 L431.28357,-164.1652 L432.71643,-163.51633 L434.14926,-163.273 L435.5821,-164.01312 L437.01492,-164.01312 L438.44775,-163.6177 L439.88058,-164.2159 L441.31345,-165.25003 L442.74628,-164.1145 L444.1791,-164.1145 L445.61194,-164.25645 L447.04477,-163.86104 L448.4776,-163.01953 L449.91046,-162.8269 L451.3433,-163.7191 L452.77612,-164.65186 L454.20895,-163.86104 L455.64178,-162.67482 L457.07462,-164.45923 L458.50748,-164.80394 L459.9403,-164.80394 L461.37314,-164.75325 L462.80597,-163.81035 L464.2388,-162.08678 L465.67163,-162.7762 L467.1045,-163.7191 L468.53732,-164.1652 L469.97015,-163.76979 L471.40298,-163.66841 L472.83582,-164.30714 L474.26865,-163.86104 L475.7015,-164.50992 L477.13434,-164.50992 L478.56717,-164.06381 L480,-163.32368" fill="none" stroke="#ff0000" stroke-linejoin="round" stroke-width="2"/>
</g>
</g>
<g transform="translate(380, -340)">
<text font-size="12" text-anchor="start" x="0" y="0">
accel
</text>
<line stroke="#ff0000" stroke-width="2" x1="-10" x2="-3" y1="-4" y2="-4"/>
</g>
<g>
<g>
<line stroke="black" stroke-width="1" x1="-0.0000000003067304818098147" x2="-0.0000000003067304818098147" y1="0" y2="10"/>
<line stroke="black" stroke-width="1" x1="80.23880596982885" x2="80.23880596982885" y1="0" y2="10"/>
<line stroke="black" stroke-width="1" x1="160.47761193996442" x2="160.47761193996442" y1="0" y2="10"/>
<line stroke="black" stroke-width="1" x1="240.71641791009998" x2="240.71641791009998" y1="0" y2="10"/>
<line stroke="black" stroke-width="1" x1="320.95522388023556" x2="320.95522388023556" y1="0" y2="10"/>
<line stroke="black" stroke-width="1" x1="401.1940298503711" x2="401.1940298503711" y1="0" y2="10"/>
</g>
<line stroke="black" stroke-width="1" x1="0" x2="480" y1="0" y2="0"/>
<g>
<text font-size="12" text-anchor="middle" x="-0.0000000003067304818098147" y="20">
58
</text>
<text font-size="12" text-anchor="middle" x="80.23880596982885" y="20">
59
</text>
<text font-size="12" text-anchor="middle" x="160.47761193996442" y="20">
60
</text>
<text font-size="12" text-anchor="middle" x="240.71641791009998" y="20">
61
</text>
<text font-size="12" text-anchor="middle" x="320.95522388023556" y="20">
62
</text>
<text font-size="12" text-anchor="middle" x="401.1940298503711" y="20">
63
</text>
</g>
<text font-size="12" text-anchor="middle" x="240" y="30">
Time (s)
</text>
</g>
<g>
<g>
<line stroke="black" stroke-width="1" x1="0" x2="-10" y1="-62.62650961681824" y2="-62.62650961681824"/>
<line stroke="black" stroke-width="1" x1="0" x2="-10" y1="-164.0131206202475" y2="-164.0131206202475"/>
<line stroke="black" stroke-width="1" x1="0" x2="-10" y1="-265.39973162367676" y2="-265.39973162367676"/>
</g>
<line stroke="black" stroke-width="1" x1="0" x2="0" y1="0" y2="-340"/>
<g>
<text dominant-baseline="middle" font-size="12" text-anchor="end" x="-15" y="-62.62650961681824">
-1
</text>
<text dominant-baseline="middle" font-size="12" text-anchor="end" x="-15" y="-164.0131206202475">
0
</text>
<text dominant-baseline="middle" font-size="12" text-anchor="end" x="-15" y="-265.39973162367676">
1
</text>
</g>
<text font-size="12" text-anchor="middle" transform="rotate(-90 -24 -170)" x="-24" y="-182">
Accel (g)
</text>
</g>
</g>
</svg>