<svg viewBox="0 0 600 400" xmlns="http://www.w3.org/2000/svg">
<g transform="translate(72, 364)">
<g>
<g>
<path d="M0,-49.218555 L0,-49.218555 L0.12994045,-49.42437 L0.2598809,-49.32276 L0.38982132,-49.40377 L0.5197618,-49.40783 L0.6497022,-49.407055 L0.77964264,-49.532036 L0.9095831,-49.400974 L1.0395236,-49.23782 L1.169464,-49.16692 L1.2994044,-49.212353 L1.4293449,-49.44055 L1.5592853,-49.367374 L1.6892258,-49.35805 L1.8191662,-49.373013 L1.9491067,-49.370716 L2.0790472,-49.511414 L2.2089875,-49.392975 L2.338928,-49.42444 L2.4688685,-49.472473 L2.5988088,-49.563454 L2.7287493,-49.6172 L2.8586898,-49.54718 L2.9886303,-49.66726 L3.1185706,-49.639957 L3.248511,-49.53022 L3.3784516,-49.529408 L3.508392,-49.471436 L3.6383324,-49.592674 L3.7682729,-49.51767 L3.8982134,-49.53693 L4.028154,-49.73867 L4.1580944,-49.839645 L4.2880344,-49.91561 L4.417975,-49.840195 L4.5479155,-49.85388 L4.677856,-49.809475 L4.8077965,-49.814205 L4.937737,-50.005543 L5.0676775,-49.589165 L5.1976175,-49.72403 L5.327558,-49.975994 L5.4574986,-49.871872 L5.587439,-49.76728 L5.7173796,-49.839012 L5.84732,-49.888626 L5.9772606,-49.67588 L6.107201,-49.887295 L6.237141,-49.915264 L6.3670816,-49.796745 L6.497022,-49.967987 L6.6269627,-49.739525 L6.756903,-49.872894 L6.8868437,-49.743248 L7.016784,-49.73593 L7.146724,-49.47559 L7.2766647,-49.259777 L7.4066052,-49.63888 L7.5365458,-49.65378 L7.6664863,-49.63843 L7.796427,-49.644714 L7.9263673,-49.933933 L8.056308,-49.63917 L8.186248,-49.815495 L8.316189,-49.56634 L8.446129,-49.6666 L8.576069,-49.705444 L8.70601,-49.490402 L8.83595,-50.152416 L8.965891,-50.081055 L9.095831,-50.092094 L9.225772,-50.272102 L9.355712,-50.086666 L9.485652,-49.816376 L9.615593,-49.8418 L9.745533,-49.71061 L9.875474,-49.76819 L10.005414,-49.93165 L10.135355,-49.424274 L10.265295,-49.783478 L10.395235,-49.615166 L10.525176,-49.632076 L10.655116,-49.484318 L10.785057,-49.59098 L10.914997,-49.67947 L11.044938,-50.21474 L11.174878,-49.750816 L11.304818,-50.133263 L11.434759,-49.723988 L11.564699,-50.266155 L11.69464,-50.234543 L11.82458,-50.56423 L11.954521,-50.3861 L12.084461,-49.809994 L12.214402,-50.409046 L12.344342,-50.45347 L12.474282,-50.168926 L12.604223,-50.158672 L12.734163,-50.633354 L12.864104,-51.85423 L12.994044,-49.281418 L13.123985,-48.232174 L13.253925,-48.540974 L13.383865,-55.986694 L13.513806,-43.759384 L13.643746,-55.99502 L13.773687,-41.30477 L13.903627,-44.60982 L14.033568,-47.581394 L14.163508,-48.168537 L14.293448,-55.621338 L14.423389,-46.171432 L14.553329,-48.754917 L14.68327,-55.47982 L14.8132105,-53.753353 L14.943151,-51.467224 L15.0730915,-49.623337 L15.203032,-40.79987 L15.332973,-41.337296 L15.462913,-41.20336 L15.592854,-40.23827 L15.722794,-40.49381 L15.852735,-40.055927 L15.982675,-40.730877 L16.112616,-41.0828 L16.242556,-41.668186 L16.372496,-43.586777 L16.502436,-43.063053 L16.632378,-48.57219 L16.762318,-51.787918 L16.892258,-50.166073 L17.022198,-51.031116 L17.152138,-50.69116 L17.28208,-47.599167 L17.41202,-46.55934 L17.54196,-46.34018 L17.6719,-45.496265 L17.801842,-45.477444 L17.931782,-47.47579 L18.061722,-48.875385 L18.191662,-51.231434 L18.321602,-52.613758 L18.451544,-52.55574 L18.581484,-52.23626 L18.711424,-50.374607 L18.841364,-50.297894 L18.971304,-49.842148 L19.101246,-50.129677 L19.231186,-50.06468 L19.361126,-50.59909 L19.491066,-51.32099 L19.621008,-50.024338 L19.750948,-48.76322 L19.880888,-46.014923 L20.010828,-43.380177 L20.140768,-43.07857 L20.27071,-43.608704 L20.40065,-42.033596 L20.53059,-45.78988 L20.66053,-47.9815 L20.79047,-41.206528 L20.920412,-36.516388 L21.050352,-35.160698 L21.180292,-35.105476 L21.310232,-34.03126 L21.440174,-34.962845 L21.570114,-37.092957 L21.700054,-37.439075 L21.829994,-37.19292 L21.959934,-41.842125 L22.089876,-45.726456 L22.219816,-46.963123 L22.349756,-45.63953 L22.479696,-45.586765 L22.609636,-48.99678 L22.739578,-52.397137 L22.869518,-55.60255 L22.999458,-55.562027 L23.129398,-58.02762 L23.25934,-58.784676 L23.38928,-60.471188 L23.51922,-62.086494 L23.64916,-63.761753 L23.7791,-64.808075 L23.909042,-64.780045 L24.038982,-64.3084 L24.168922,-64.56929 L24.298862,-64.40635 L24.428804,-66.306656 L24.558744,-68.8519 L24.688684,-71.895035 L24.818624,-71.14942 L24.948565,-63.25947 L25.078506,-59.208584 L25.208447,-64.976944 L25.338387,-70.95441 L25.468327,-71.31846 L25.598267,-66.6893 L25.728209,-63.145863 L25.858149,-63.23004 L25.988089,-62.29872 L26.118029,-63.51049 L26.24797,-58.416115 L26.37791,-53.535553 L26.50785,-52.38215 L26.63779,-52.721046 L26.76773,-53.80148 L26.897673,-55.49523 L27.027613,-49.374245 L27.157553,-43.680855 L27.287493,-43.708675 L27.417433,-47.68857 L27.547375,-52.510296 L27.677315,-52.16568 L27.807255,-49.21746 L27.937195,-49.204067 L28.067137,-47.46866 L28.197077,-47.0032 L28.327017,-44.626633 L28.456957,-43.825863 L28.586897,-45.23209 L28.716839,-45.43718 L28.846779,-43.516685 L28.976719,-39.359203 L29.106659,-37.01358 L29.236599,-31.998903 L29.36654,-30.413197 L29.49648,-24.888058 L29.626421,-20.423412 L29.756361,-22.528482 L29.886303,-22.200176 L30.016243,-27.083433 L30.146183,-27.089008 L30.276123,-29.668404 L30.406063,-22.572884 L30.536005,-19.619953 L30.665945,-17.02977 L30.795885,-35.059467 L30.925825,-35.780308 L31.055767,-28.005955 L31.185707,-22.78344 L31.315647,-21.899164 L31.445587,-25.931932 L31.575527,-28.162252 L31.70547,-28.157385 L31.83541,-32.135857 L31.96535,-36.28197 L32.09529,-39.193226 L32.22523,-39.61399 L32.35517,-39.357014 L32.48511,-39.25718 L32.61505,-40.56068 L32.74499,-43.10166 L32.87493,-44.737415 L33.00487,-44.72587 L33.13481,-49.870617 L33.264755,-49.60715 L33.394695,-49.76822 L33.524635,-52.310543 L33.654575,-53.80632 L33.784515,-51.441017 L33.914455,-49.386475 L34.044395,-49.4108 L34.174335,-52.25715 L34.304276,-54.61555 L34.43422,-54.90116 L34.56416,-54.702995 L34.6941,-54.076397 L34.82404,-51.666054 L34.95398,-49.45551 L35.08392,-48.376854 L35.21386,-50.618122 L35.3438,-54.35022 L35.47374,-54.68821 L35.603683,-55.229042 L35.733624,-52.16764 L35.863564,-52.160606 L35.993504,-46.188965 L36.123444,-46.758095 L36.253384,-48.393467 L36.383324,-48.87786 L36.513264,-46.64344 L36.643204,-45.57927 L36.773144,-45.831165 L36.903088,-43.039288 L37.033028,-43.851936 L37.162968,-44.477036 L37.292908,-44.361835 L37.422848,-44.159313 L37.552788,-46.63489 L37.682728,-49.9993 L37.812668,-51.63349 L37.942608,-48.7934 L38.07255,-48.8293 L38.20249,-48.993347 L38.33243,-49.586926 L38.46237,-49.477604 L38.59231,-49.479088 L38.72225,-48.6226 L38.852192,-49.75119 L38.982132,-48.73809 L39.112072,-50.042572 L39.242016,-50.662254 L39.371956,-49.508297 L39.501896,-48.873726 L39.631836,-50.889484 L39.761776,-51.82574 L39.891716,-49.97813 L40.021656,-50.386833 L40.151596,-50.366222 L40.281536,-52.300316 L40.41148,-54.051704 L40.54142,-55.164318 L40.67136,-56.38587 L40.8013,-57.555096 L40.93124,-57.612846 L41.06118,-58.689552 L41.19112,-60.876476 L41.32106,-62.26492 L41.451,-62.266064 L41.58094,-62.487835 L41.710884,-65.48205 L41.840824,-68.09429 L41.970764,-62.883736 L42.100704,-62.429955 L42.230644,-60.50463 L42.360584,-58.71095 L42.490524,-58.629494 L42.620464,-53.549496 L42.750404,-56.870674 L42.88035,-56.77303 L43.01029,-59.263042 L43.14023,-53.709473 L43.27017,-49.887543 L43.40011,-50.457653 L43.53005,-51.192158 L43.65999,-57.4602 L43.78993,-55.95952 L43.91987,-61.012024 L44.049812,-63.050964 L44.179752,-65.42224 L44.309692,-65.41488 L44.439632,-69.99926 L44.569572,-56.85593 L44.699512,-52.779762 L44.829453,-49.994434 L44.959393,-43.02979 L45.089333,-39.59624 L45.219273,-38.593113 L45.349216,-40.145126 L45.479156,-40.01006 L45.609097,-34.493126 L45.739037,-34.52868 L45.868977,-33.840557 L45.998917,-37.384594 L46.128857,-35.827785 L46.258797,-32.746128 L46.388737,-29.052036 L46.51868,-34.23759 L46.64862,-40.79162 L46.77856,-46.92598 L46.9085,-46.359463 L47.03844,-46.39444 L47.16838,-43.354107 L47.29832,-41.55443 L47.42826,-39.546295 L47.5582,-31.09399 L47.688145,-22.723032 L47.818085,-30.817421 L47.948025,-31.63015 L48.077965,-29.560402 L48.207905,-30.749746 L48.337845,-34.031387 L48.467785,-40.25945 L48.597725,-40.56221 L48.727665,-43.6855 L48.85761,-45.177616 L48.98755,-47.513916 L49.11749,-47.206287 L49.24743,-49.501205 L49.37737,-51.854973 L49.50731,-52.186882 L49.63725,-50.42799 L49.76719,-52.10191 L49.89713,-53.491096 L50.02707,-53.58724 L50.157013,-57.34705 L50.286953,-59.320656 L50.416893,-57.957287 L50.546833,-58.3252 L50.676773,-61.1174 L50.806713,-64.20275 L50.936653,-67.95249 L51.066593,-70.65778 L51.196533,-72.924774 L51.326477,-74.66771 L51.456417,-76.04497 L51.586357,-77.32122 L51.716297,-77.08686 L51.846237,-76.10204 L51.976177,-73.80568 L52.106117,-71.9436 L52.236057,-70.37031 L52.365997,-69.01376 L52.49594,-69.45158 L52.62588,-70.95797 L52.75582,-72.59342 L52.88576,-67.79677 L53.0157,-64.034164 L53.14564,-63.74601 L53.27558,-63.937473 L53.40552,-63.53674 L53.53546,-64.71309 L53.6654,-63.725426 L53.795345,-61.894238 L53.925285,-58.05188 L54.055225,-56.605766 L54.185165,-54.950146 L54.315105,-53.393997 L54.445045,-54.637978 L54.574986,-51.978672 L54.704926,-50.360973 L54.834866,-46.80543 L54.96481,-43.74219 L55.09475,-40.308544 L55.22469,-36.406483 L55.35463,-32.096703 L55.48457,-30.206888 L55.61451,-25.984343 L55.74445,-26.069412 L55.87439,-18.74901 L56.00433,-24.72529 L56.134274,-41.330368 L56.264214,-48.908764 L56.394154,-51.34402 L56.524094,-47.795387 L56.654034,-42.84203 L56.783974,-41.710556 L56.913914,-43.32808 L57.043854,-43.826668 L57.173794,-43.917854 L57.303738,-44.784435 L57.433678,-44.52059 L57.563618,-44.486034 L57.693558,-45.443783 L57.823498,-47.239574 L57.953438,-48.75326 L58.083378,-49.8573 L58.213318,-49.595535 L58.343258,-49.97747 L58.473198,-50.607773 L58.60314,-50.368393 L58.73308,-50.35533 L58.86302,-49.580044 L58.99296,-49.623165 L59.122902,-50.575695 L59.252842,-50.341854 L59.382782,-49.979256 L59.512722,-49.757496 L59.642662,-50.57395 L59.772606,-51.322514 L59.902546,-52.556202 L60.032486,-53.02571 L60.162426,-53.004234 L60.292366,-53.824543 L60.422306,-54.178387 L60.552246,-54.05476 L60.682186,-54.481567 L60.812126,-55.325928 L60.94207,-55.672817 L61.07201,-56.697308 L61.20195,-57.140274 L61.33189,-56.870613 L61.46183,-57.185772 L61.59177,-57.13401 L61.72171,-58.23281 L61.85165,-58.88864 L61.98159,-58.769688 L62.111534,-58.50678 L62.241474,-60.413525 L62.371414,-63.580105 L62.501354,-66.51665 L62.631294,-67.92556 L62.761234,-67.52538 L62.891174,-64.494316 L63.021114,-64.551094 L63.151054,-62.005795 L63.280994,-57.937122 L63.41094,-56.609814 L63.54088,-55.43123 L63.67082,-53.789577 L63.80076,-53.203686 L63.9307,-55.38117 L64.06064,-56.33031 L64.19058,-55.08538 L64.32052,-51.29345 L64.45046,-51.335663 L64.5804,-44.048492 L64.71034,-43.992508 L64.84028,-43.84876 L64.97022,-43.318348 L65.10016,-41.92342 L65.2301,-43.08414 L65.36005,-43.933857 L65.48998,-41.346066 L65.61993,-37.896122 L65.74986,-37.80629 L65.87981,-36.584316 L66.00974,-34.470173 L66.13969,-33.964375 L66.26962,-35.101616 L66.39957,-40.67411 L66.52951,-44.53145 L66.65945,-45.292522 L66.78939,-44.862705 L66.91933,-43.73479 L67.04927,-45.29624 L67.17921,-44.476566 L67.30915,-44.50017 L67.43909,-45.187687 L67.56903,-47.875523 L67.698975,-47.997932 L67.82891,-46.648914 L67.958855,-45.262863 L68.08879,-39.184933 L68.218735,-36.421528 L68.34867,-39.62939 L68.478615,-42.11938 L68.60855,-41.978737 L68.738495,-42.58713 L68.86844,-42.421326 L68.998375,-41.164406 L69.12832,-41.74118 L69.258255,-42.07274 L69.3882,-44.94807 L69.518135,-45.53099 L69.64808,-46.94245 L69.778015,-45.325638 L69.90796,-44.422752 L70.0379,-44.43445 L70.16784,-43.449436 L70.29778,-45.869854 L70.42772,-46.00008 L70.55766,-46.96234 L70.6876,-48.06085 L70.81754,-46.592976 L70.94748,-49.644386 L71.07742,-51.22071 L71.20737,-50.20324 L71.3373,-50.498146 L71.46725,-50.16071 L71.59718,-49.375164 L71.72713,-51.26608 L71.85706,-50.056004 L71.98701,-50.87667 L72.11694,-55.992897 L72.24689,-58.950768 L72.37683,-54.2699 L72.50677,-52.54369 L72.63671,-48.515377 L72.76665,-47.499626 L72.89659,-47.521946 L73.02653,-50.722973 L73.15647,-48.727627 L73.28641,-57.14211 L73.41635,-63.17266 L73.54629,-62.714935 L73.67623,-62.738735 L73.806175,-55.61104 L73.93611,-58.215694 L74.066055,-61.795685 L74.19599,-63.492123 L74.325935,-63.500214 L74.45587,-72.17144 L74.585815,-68.49571 L74.71575,-63.69503 L74.845695,-58.56092 L74.97564,-55.813984 L75.105576,-47.94181 L75.23552,-45.57471 L75.365456,-49.474365 L75.4954,-51.313007 L75.625336,-52.44142 L75.75528,-53.070255 L75.885216,-53.07433 L76.01516,-56.37412 L76.1451,-58.818695 L76.27504,-58.940575 L76.40498,-62.52339 L76.53492,-56.654205 L76.66486,-53.17972 L76.7948,-47.08868 L76.92474,-44.900238 L77.05468,-50.603703 L77.18462,-56.02754 L77.31457,-54.993126 L77.4445,-44.74491 L77.57445,-45.317932 L77.704384,-42.041286 L77.83433,-38.11543 L77.964264,-42.739384 L78.09421,-43.48919 L78.224144,-43.53692 L78.35409,-45.58886 L78.48403,-45.596527 L78.61397,-49.804165 L78.74391,-49.43605 L78.87385,-50.304916 L79.00379,-53.98933 L79.13373,-54.755062 L79.26367,-50.014675 L79.39361,-50.12271 L79.52355,-50.128513 L79.653496,-49.901253 L79.78343,-48.882668 L79.913376,-48.94883 L80.04331,-49.231712 L80.173256,-49.301422 L80.30319,-46.64979 L80.433136,-49.42036 L80.56307,-48.720608 L80.693016,-48.93328 L80.82296,-47.465656 L80.952896,-47.25505 L81.08284,-48.083805 L81.212776,-47.300396 L81.34272,-47.298378 L81.47266,-48.07861 L81.6026,-48.48612 L81.73254,-46.424477 L81.86248,-48.602005 L81.99242,-48.401394 L82.12236,-47.72677 L82.252304,-47.55303 L82.38224,-47.92243 L82.512184,-46.992176 L82.64212,-46.02957 L82.772064,-46.03186 L82.902,-47.873737 L83.031944,-47.959072 L83.16188,-47.083206 L83.291824,-45.85683 L83.42177,-45.988544 L83.551704,-47.32108 L83.68165,-46.131725 L83.811584,-46.96362 L83.94153,-45.583675 L84.071465,-45.57724 L84.20141,-43.317997 L84.331345,-42.822037 L84.46129,-46.0247 L84.59123,-51.06153 L84.72117,-54.93035 L84.85111,-50.52554 L84.98105,-50.474632 L85.11099,-58.465347 L85.24093,-56.997086 L85.37087,-51.37637 L85.50081,-51.95077 L85.63075,-52.192013 L85.7607,-54.45877 L85.89063,-55.98866 L86.02058,-52.873333 L86.15051,-53.637115 L86.28046,-55.930256 L86.41039,-54.60828 L86.54034,-56.712463 L86.67027,-55.4311 L86.80022,-57.97731 L86.93016,-57.851532 L87.0601,-56.73526 L87.19004,-56.713673 L87.31998,-54.197075 L87.44992,-52.327457 L87.57986,-51.665707 L87.7098,-52.642277 L87.83974,-52.984962 L87.96968,-52.60953 L88.099625,-53.800785 L88.22956,-55.95494 L88.359505,-55.934708 L88.48944,-58.02207 L88.619385,-60.08732 L88.74932,-63.85442 L88.879265,-69.294464 L89.0092,-63.353127 L89.139145,-60.66815 L89.26909,-57.40668 L89.399025,-58.94165 L89.52897,-61.27569 L89.658905,-61.931084 L89.78885,-61.884777 L89.918785,-58.603268 L90.04873,-58.56684 L90.178665,-64.17864 L90.30861,-66.55767 L90.438545,-63.937454 L90.56849,-56.71372 L90.69843,-53.075886 L90.82837,-51.149208 L90.95831,-53.114964 L91.08825,-53.94562 L91.21819,-51.314938 L91.34813,-51.597157 L91.47807,-47.255516 L91.60801,-39.8258 L91.73795,-43.24813 L91.8679,-47.263535 L91.99783,-49.50915 L92.12778,-49.978416 L92.25771,-48.79648 L92.38766,-44.822475 L92.51759,-46.79018 L92.64754,-46.735165 L92.77747,-46.45908 L92.90742,-45.098995 L93.03736,-42.48485 L93.1673,-40.62282 L93.29724,-39.338875 L93.42718,-38.52615 L93.55712,-36.778515 L93.68706,-35.42749 L93.817,-33.755203 L93.94694,-29.596039 L94.07688,-29.946962 L94.206825,-24.790133 L94.33676,-22.426325 L94.466705,-23.484781 L94.59664,-25.997482 L94.726585,-33.233894 L94.85652,-35.631413 L94.986465,-38.33563 L95.1164,-39.767803 L95.246346,-44.302204 L95.37629,-45.541058 L95.506226,-45.48085 L95.63617,-43.813335 L95.766106,-41.242325 L95.89605,-37.337486 L96.025986,-35.650517 L96.15593,-37.246822 L96.285866,-39.11682 L96.41581,-38.66414 L96.54575,-36.137203 L96.67569,-33.721832 L96.80563,-35.16211 L96.93557,-35.43882 L97.06551,-37.319237 L97.19545,-39.487434 L97.32539,-39.859104 L97.45533,-40.499 L97.58527,-43.555016 L97.71522,-49.461384 L97.84515,-53.871304 L97.9751,-56.389072 L98.105034,-55.902657 L98.23498,-55.101597 L98.364914,-55.13592 L98.49486,-54.64221 L98.624794,-54.309372 L98.75474,-55.05868 L98.884674,-57.283886 L99.01462,-58.49513 L99.14456,-58.89986 L99.2745,-58.632973 L99.40444,-60.091927 L99.53438,-61.31066 L99.66432,-63.916084 L99.79426,-66.27181 L99.9242,-65.01765 L100.05414,-66.48718 L100.18408,-66.13629 L100.314026,-63.107983 L100.44396,-59.828716 L100.573906,-55.74941 L100.70384,-54.880646 L100.833786,-56.36281 L100.96372,-57.062325 L101.093666,-57.69326 L101.2236,-57.663338 L101.353546,-48.765305 L101.48349,-49.315434 L101.61343,-49.88327 L101.74337,-52.573814 L101.87331,-54.434357 L102.00325,-54.898655 L102.13319,-54.88024 L102.26313,-51.680275 L102.39307,-46.96035 L102.52301,-41.5634 L102.652954,-41.661167 L102.78289,-41.349735 L102.912834,-44.032898 L103.04277,-47.61673 L103.172714,-49.960148 L103.30265,-50.08671 L103.432594,-48.972557 L103.56253,-48.214684 L103.692474,-46.509808 L103.82242,-46.7709 L103.952354,-48.42508 L104.0823,-49.437973 L104.212234,-49.43294 L104.34218,-49.980175 L104.472115,-49.93168 L104.60206,-49.669296 L104.731995,-48.123398 L104.86194,-47.697025 L104.99188,-47.26006 L105.12182,-45.70757 L105.25176,-45.466892 L105.3817,-45.46839 L105.51164,-46.05558 L105.64158,-46.09579 L105.77152,-45.694412 L105.90146,-46.613937 L106.0314,-46.73626 L106.16135,-46.539497 L106.29128,-45.832092 L106.42123,-45.8741 L106.55116,-47.019608 L106.68111,-47.183666 L106.81104,-46.498512 L106.94099,-46.3911 L107.07092,-45.593616 L107.20087,-45.64677 L107.3308,-44.203568 L107.46075,-44.438118 L107.59069,-44.744736 L107.72063,-43.889492 L107.85057,-42.196575 L107.98051,-41.386627 L108.11045,-40.766724 L108.24039,-41.01485 L108.37033,-41.142334 L108.50027,-41.534893 L108.63021,-39.962902 L108.760155,-39.38635 L108.89009,-40.536037 L109.020035,-41.273598 L109.14997,-40.880516 L109.279915,-39.920284 L109.40985,-39.17979 L109.539795,-39.205612 L109.66973,-40.163563 L109.799675,-39.242336 L109.92962,-37.53353 L110.059555,-37.51277 L110.1895,-35.182796 L110.319435,-34.097977 L110.44938,-32.05391 L110.579315,-30.453785 L110.70926,-29.883251 L110.839195,-29.224894 L110.96914,-29.084818 L111.09908,-29.589258 L111.22902,-28.477446 L111.35896,-29.566027 L111.4889,-30.612782 L111.61884,-31.099482 L111.74878,-29.332602 L111.87872,-28.16624 L112.00866,-28.854866 L112.1386,-28.488043 L112.26855,-29.043194 L112.39848,-30.945112 L112.52843,-30.925625 L112.65836,-34.39091 L112.78831,-33.88849 L112.91824,-33.55987 L113.04819,-32.59498 L113.17812,-33.606148 L113.30807,-35.031948 L113.43801,-38.69104 L113.56795,-39.225857 L113.69789,-41.551613 L113.82783,-42.68423 L113.95777,-43.607895 L114.08771,-40.79547 L114.21765,-38.25605 L114.34759,-37.24369 L114.47753,-38.57645 L114.607475,-39.9949 L114.73741,-43.708916 L114.867355,-43.809444 L114.99729,-42.78077 L115.127235,-41.85158 L115.25717,-41.79043 L115.387115,-43.564682 L115.51705,-43.98442 L115.646996,-41.197998 L115.77693,-40.642345 L115.906876,-42.586597 L116.03682,-44.3973 L116.166756,-42.99322 L116.2967,-43.148792 L116.426636,-40.990017 L116.55658,-40.105595 L116.686516,-40.06716 L116.81646,-39.59296 L116.946396,-39.87641 L117.07634,-41.52122 L117.20628,-41.74624 L117.33622,-42.285362 L117.46616,-42.555832 L117.5961,-42.42829 L117.72604,-44.28147 L117.85598,-45.017548 L117.98592,-44.612804 L118.11586,-44.60269 L118.245804,-44.831932 L118.37575,-45.640205 L118.505684,-46.247505 L118.63563,-47.08451 L118.765564,-48.34666 L118.89551,-50.305805 L119.025444,-51.980698 L119.15539,-51.65393 L119.285324,-52.010445 L119.41527,-52.2386 L119.54521,-53.86893 L119.67515,-54.362354 L119.80509,-54.114685 L119.93503,-55.317673 L120.06497,-57.887863 L120.19491,-58.70695 L120.32485,-57.981724 L120.45479,-57.23284 L120.58473,-57.625027 L120.714676,-57.011395 L120.84461,-58.31086 L120.974556,-58.36964 L121.10449,-59.026363 L121.234436,-60.465397 L121.36437,-60.920692 L121.494316,-60.435104 L121.62425,-60.34061 L121.754196,-61.14313 L121.88414,-61.70663 L122.01408,-62.014805 L122.14402,-62.13808 L122.27396,-64.556694 L122.4039,-65.34406 L122.53384,-64.82481 L122.66378,-64.616196 L122.79372,-64.28553 L122.92366,-65.67037 L123.053604,-65.32937 L123.18354,-65.127045 L123.313484,-66.011116 L123.44342,-65.70546 L123.573364,-65.42157 L123.7033,-66.014114 L123.833244,-66.04826 L123.96318,-65.96225 L124.093124,-65.66667 L124.22307,-65.84176 L124.353004,-66.721855 L124.48295,-67.87951 L124.612885,-68.42479 L124.74283,-68.19321 L124.872765,-67.87425 L125.00271,-68.68353 L125.132645,-69.445076 L125.26259,-69.134125 L125.392525,-68.37851 L125.52247,-67.74365 L125.65241,-68.381546 L125.78235,-69.70006 L125.91229,-69.96412 L126.04223,-69.556305 L126.17217,-68.90285 L126.30211,-67.5771 L126.43205,-67.99056 L126.56199,-68.054924 L126.69193,-68.04747 L126.82188,-68.79479 L126.95181,-68.52748 L127.08176,-67.62928 L127.21169,-67.18524 L127.34164,-66.533295 L127.47157,-66.69497 L127.60152,-66.28816 L127.73145,-66.04909 L127.8614,-64.905975 L127.99134,-64.678925 L128.12128,-63.618202 L128.25122,-63.632023 L128.38116,-63.33865 L128.5111,-64.23406 L128.64104,-63.133266 L128.77098,-62.391975 L128.90092,-63.706383 L129.03085,-63.945587 L129.1608,-64.28088 L129.29074,-63.47246 L129.42068,-63.815273 L129.55063,-63.612137 L129.68056,-63.018246 L129.8105,-60.93806 L129.94044,-55.404778 L130.07039,-53.67445 L130.20032,-52.641212 L130.33026,-57.350792 L130.4602,-59.88795 L130.59015,-59.270607 L130.7201,-55.995174 L130.85002,-56.294666 L130.97997,-56.18354 L131.10991,-56.857796 L131.23985,-58.95966 L131.36978,-59.077095 L131.49973,-56.518143 L131.62967,-54.64322 L131.75961,-58.810383 L131.88956,-52.59163 L132.01949,-51.894592 L132.14943,-48.05056 L132.27937,-48.015648 L132.40932,-49.930614 L132.53925,-47.789482 L132.66919,-47.292023 L132.79913,-50.885296 L132.92908,-50.864296 L133.05902,-50.57912 L133.18895,-49.08856 L133.3189,-47.672707 L133.44884,-50.0426 L133.57878,-49.598125 L133.70871,-47.284924 L133.83865,-46.194805 L133.9686,-46.87674 L134.09854,-48.36772 L134.22849,-48.154522 L134.35841,-49.168613 L134.48836,-48.650078 L134.6183,-46.01761 L134.74825,-46.46666 L134.87817,-46.483803 L135.00812,-48.22821 L135.13806,-48.097206 L135.268,-48.487656 L135.39795,-47.166492 L135.52788,-47.996986 L135.65782,-49.895477 L135.78777,-49.011105 L135.91771,-50.39126 L136.04764,-50.785492 L136.17758,-49.427544 L136.30753,-49.57373 L136.43747,-50.68686 L136.56741,-50.536606 L136.69734,-49.719986 L136.82729,-49.953217 L136.95723,-50.206432 L137.08717,-51.66681 L137.2171,-52.26602 L137.34705,-51.1985 L137.47699,-53.41579 L137.60693,-54.128017 L137.73688,-54.06901 L137.8668,-54.025482 L137.99675,-56.355877 L138.1267,-55.439507 L138.25664,-55.036774 L138.38657,-54.441334 L138.51651,-53.46792 L138.64645,-55.01328 L138.7764,-55.267937 L138.90634,-58.71948 L139.03627,-59.110485 L139.16621,-59.8558 L139.29616,-60.41236 L139.4261,-58.85396 L139.55603,-54.242493 L139.68597,-53.544212 L139.81592,-54.873547 L139.94586,-55.118656 L140.0758,-53.260185 L140.20573,-53.20963 L140.33568,-51.419018 L140.46562,-50.138386 L140.59557,-50.126667 L140.7255,-52.286884 L140.85544,-55.4169 L140.98538,-51.740692 L141.11533,-53.137085 L141.24527,-54.07666 L141.3752,-52.821186 L141.50514,-52.068855 L141.63509,-53.160583 L141.76503,-54.126698 L141.89496,-54.912693 L142.0249,-55.258347 L142.15485,-58.284786 L142.28479,-59.82254 L142.41473,-59.23339 L142.54466,-59.350014 L142.6746,-56.7465 L142.80455,-57.521263 L142.9345,-59.25517 L143.06442,-62.702156 L143.19437,-60.945217 L143.32431,-59.391445 L143.45425,-59.34682 L143.5842,-58.02777 L143.71413,-58.94585 L143.84407,-58.921257 L143.97401,-57.773605 L144.10396,-57.163044 L144.23389,-55.440365 L144.36383,-56.696762 L144.49377,-54.149086 L144.62372,-54.58656 L144.75366,-53.73514 L144.88359,-53.667686 L145.01353,-53.65309 L145.14348,-52.02611 L145.27342,-51.51094 L145.40335,-51.89011 L145.5333,-51.2914 L145.66324,-51.556084 L145.79318,-51.2928 L145.92311,-50.75551 L146.05305,-50.605865 L146.183,-50.600838 L146.31294,-49.412003 L146.44289,-48.60084 L146.57281,-47.180794 L146.70276,-47.17886 L146.8327,-48.200047 L146.96265,-48.61263 L147.09258,-48.856167 L147.22252,-48.396812 L147.35246,-46.567272 L147.4824,-45.93965 L147.61235,-45.85402 L147.74228,-46.18161 L147.87222,-46.030106 L148.00217,-45.26026 L148.13211,-44.42341 L148.26204,-43.397766 L148.39198,-43.310474 L148.52193,-43.897137 L148.65187,-44.306202 L148.78181,-43.353935 L148.91174,-43.395283 L149.04169,-43.41033 L149.17163,-43.183956 L149.30157,-43.210697 L149.4315,-43.498043 L149.56145,-42.598965 L149.69139,-42.823696 L149.82133,-41.892963 L149.95128,-41.1506 L150.0812,-40.138916 L150.21115,-40.39891 L150.3411,-39.683704 L150.47104,-39.82674 L150.60097,-39.850704 L150.73091,-40.356266 L150.86086,-39.56305 L150.9908,-38.611008 L151.12074,-37.678467 L151.25067,-37.011806 L151.38062,-37.24267 L151.51056,-37.226208 L151.6405,-38.546974 L151.77043,-38.38207 L151.90038,-38.48504 L152.03032,-36.569576 L152.16026,-38.051956 L152.2902,-38.828724 L152.42014,-39.685795 L152.55008,-43.52777 L152.68002,-44.848553 L152.80997,-45.23114 L152.9399,-45.93845 L153.06984,-47.536446 L153.19978,-48.807903 L153.32973,-48.91237 L153.45967,-47.609844 L153.5896,-46.50002 L153.71954,-45.928787 L153.84949,-47.18225 L153.97943,-46.75861 L154.10936,-45.750168 L154.2393,-45.789413 L154.36925,-45.15244 L154.49919,-42.730053 L154.62914,-39.46733 L154.75906,-39.692684 L154.889,-38.147182 L155.01895,-50.11972 L155.1489,-51.946117 L155.27882,-45.65758 L155.40877,-40.51674 L155.53871,-34.892464 L155.66866,-31.425407 L155.7986,-28.511923 L155.92853,-28.271307 L156.05847,-31.997179 L156.18842,-32.738445 L156.31836,-37.926716 L156.44829,-41.576363 L156.57823,-47.758385 L156.70818,-49.740833 L156.83812,-49.28974 L156.96806,-47.15566 L157.09799,-45.745605 L157.22794,-47.432434 L157.35788,-50.04319 L157.48782,-50.017582 L157.61775,-49.563026 L157.7477,-49.54782 L157.87764,-50.09166 L158.00758,-50.48139 L158.13753,-51.075653 L158.26746,-51.938335 L158.3974,-52.43422 L158.52734,-52.29724 L158.65729,-52.622646 L158.78722,-53.4979 L158.91716,-54.05417 L159.0471,-53.983883 L159.17705,-53.96562 L159.30699,-53.669888 L159.43692,-53.236572 L159.56686,-52.816555 L159.69681,-53.199352 L159.82675,-53.951084 L159.95668,-53.724285 L160.08662,-54.151405 L160.21657,-54.21172 L160.34651,-54.195736 L160.47646,-53.865303 L160.60638,-53.036015 L160.73633,-52.54965 L160.86627,-52.245598 L160.99622,-52.336926 L161.12614,-52.452854 L161.25609,-52.12404 L161.38603,-51.899536 L161.51598,-52.75907 L161.64592,-53.772358 L161.77585,-53.85877 L161.90579,-54.000572 L162.03574,-53.092293 L162.16568,-52.89511 L162.29561,-53.233994 L162.42555,-54.182655 L162.5555,-55.488968 L162.68544,-55.220596 L162.81538,-55.64748 L162.94531,-55.633553 L163.07526,-56.308884 L163.2052,-56.433773 L163.33514,-56.34908 L163.46507,-56.66763 L163.59502,-56.548008 L163.72496,-57.574505 L163.8549,-57.121838 L163.98483,-55.953785 L164.11478,-53.824356 L164.24472,-53.421505 L164.37466,-55.51621 L164.50461,-57.126846 L164.63454,-57.1012 L164.76448,-57.039272 L164.89442,-56.024372 L165.02437,-54.145565 L165.1543,-54.168053 L165.28424,-54.17719 L165.41418,-54.70032 L165.54413,-56.815006 L165.67407,-57.7103 L165.804,-57.507824 L165.93394,-55.871048 L166.06389,-54.015854 L166.19383,-54.045906 L166.32376,-54.058575 L166.4537,-53.565002 L166.58365,-52.62872 L166.7136,-53.49947 L166.84354,-53.99059 L166.97346,-53.938843 L167.10341,-53.08703 L167.23335,-53.42133 L167.3633,-53.70223 L167.49323,-52.627045 L167.62317,-51.40477 L167.75311,-51.64064 L167.88306,-50.537846 L168.013,-50.9816 L168.14293,-49.678684 L168.27287,-48.83559 L168.40282,-49.47615 L168.53276,-50.48769 L168.66269,-51.796486 L168.79263,-51.777733 L168.92258,-51.77298 L169.05252,-51.4107 L169.18246,-51.56122 L169.3124,-51.691948 L169.44234,-51.608135 L169.57228,-51.21383 L169.70222,-49.449924 L169.83215,-47.881496 L169.9621,-46.657608 L170.09204,-46.544144 L170.22198,-46.52904 L170.35193,-46.517353 L170.48186,-46.118504 L170.6118,-45.05492 L170.74174,-45.576283 L170.87169,-45.458965 L171.00162,-44.8493 L171.13156,-44.54224 L171.2615,-44.548588 L171.39145,-43.74832 L171.5214,-42.979202 L171.65132,-43.001713 L171.78127,-41.917873 L171.91121,-41.629696 L172.04115,-41.597763 L172.17108,-41.626007 L172.30103,-41.419342 L172.43097,-41.226357 L172.56091,-40.89884 L172.69086,-40.474102 L172.82079,-40.68207 L172.95073,-40.834763 L173.08067,-40.580517 L173.21062,-40.600975 L173.34055,-39.54501 L173.47049,-39.76237 L173.60043,-40.01648 L173.73038,-40.43493 L173.86032,-40.71219 L173.99025,-40.958755 L174.1202,-41.010704 L174.25014,-41.015274 L174.38008,-40.44597 L174.51001,-40.46436 L174.63995,-39.26606 L174.7699,-39.75324 L174.89984,-40.16823 L175.02979,-40.32157 L175.15971,-40.445515 L175.28966,-40.74148 L175.4196,-41.161896 L175.54955,-41.463253 L175.67947,-40.861782 L175.80942,-40.527267 L175.93936,-40.669445 L176.0693,-39.887848 L176.19925,-39.814953 L176.32918,-39.81882 L176.45912,-40.347652 L176.58907,-41.152744 L176.71901,-41.336353 L176.84894,-41.653114 L176.97888,-42.12096 L177.10883,-42.426357 L177.23877,-42.800434 L177.36871,-42.93097 L177.49864,-42.79793 L177.62859,-42.657097 L177.75853,-42.422276 L177.88847,-41.33994 L178.0184,-42.154743 L178.14835,-45.033546 L178.27829,-45.85262 L178.40823,-46.380836 L178.53818,-46.76091 L178.6681,-46.853024 L178.79805,-46.11495 L178.928,-47.538403 L179.05794,-48.01587 L179.18787,-49.306393 L179.31781,-48.565903 L179.44775,-46.296326 L179.5777,-45.95782 L179.70764,-46.163357 L179.83757,-46.238403 L179.96751,-46.51361 L180.09746,-46.455425 L180.2274,-47.41633 L180.35733,-47.722805 L180.48727,-47.806667 L180.61722,-47.516804 L180.74716,-49.038208 L180.87709,-52.119755 L181.00703,-51.392113 L181.13698,-51.723057 L181.26692,-52.10545 L181.39687,-51.641075 L181.5268,-51.293594 L181.65674,-53.78573 L181.78668,-55.883987 L181.91663,-55.13762 L182.04655,-54.157967 L182.1765,-53.485584 L182.30644,-53.548504 L182.43639,-52.852783 L182.56633,-53.65709 L182.69626,-54.440876 L182.8262,-54.707 L182.95615,-56.14806 L183.08609,-56.13549 L183.21602,-56.998985 L183.34596,-55.585278 L183.4759,-54.75528 L183.60585,-55.813866 L183.7358,-55.796112 L183.86572,-54.98663 L183.99567,-55.158237 L184.12561,-55.268562 L184.25555,-54.852547 L184.38548,-54.170013 L184.51543,-53.932148 L184.64537,-53.523834 L184.77531,-55.12031 L184.90526,-54.269802 L185.03519,-54.338097 L185.16513,-54.764187 L185.29507,-54.579636 L185.42502,-53.895447 L185.55495,-54.03193 L185.68489,-53.972584 L185.81483,-54.913578 L185.94478,-54.92873 L186.07472,-55.529022 L186.20465,-54.768818 L186.3346,-53.410633 L186.46454,-52.945133 L186.59448,-53.111626 L186.72441,-52.28139 L186.85435,-50.705414 L186.9843,-50.642757 L187.11424,-50.42134 L187.24419,-51.409657 L187.37411,-51.256268 L187.50406,-51.25254 L187.634,-50.216404 L187.76395,-49.549637 L187.89388,-49.612717 L188.02382,-48.652485 L188.15376,-47.98949 L188.2837,-48.366035 L188.41365,-47.18665 L188.54358,-47.067574 L188.67352,-45.127163 L188.80347,-45.28798 L188.93341,-45.310833 L189.06334,-43.579338 L189.19328,-43.321827 L189.32323,-43.77525 L189.45317,-46.112144 L189.58311,-45.31496 L189.71304,-43.94812 L189.84299,-40.838524 L189.97293,-40.54652 L190.10287,-40.83295 L190.2328,-40.60441 L190.36275,-40.587627 L190.49269,-39.44821 L190.62263,-39.424606 L190.75258,-40.710747 L190.8825,-41.85708 L191.01245,-41.406353 L191.1424,-42.221844 L191.27234,-42.62067 L191.40227,-42.99832 L191.53221,-40.7383 L191.66216,-38.44504 L191.7921,-38.427094 L191.92204,-38.44727 L192.05197,-39.72739 L192.18192,-42.622322 L192.31186,-43.965885 L192.4418,-45.882893 L192.57173,-45.56409 L192.70168,-47.02632 L192.83162,-47.813957 L192.96156,-49.585243 L193.0915,-49.01023 L193.22144,-48.977646 L193.35138,-47.856514 L193.48132,-49.359447 L193.61127,-50.715267 L193.7412,-52.258743 L193.87114,-53.83506 L194.00108,-54.110683 L194.13103,-51.82694 L194.26097,-51.43481 L194.3909,-52.951904 L194.52084,-52.932392 L194.65079,-52.87821 L194.78073,-51.69325 L194.91066,-51.53046 L195.0406,-50.673977 L195.17055,-50.432915 L195.30049,-49.21502 L195.43044,-48.210194 L195.56036,-45.755283 L195.6903,-45.0802 L195.82025,-46.798 L195.9502,-47.953518 L196.08012,-47.57986 L196.21007,-46.427696 L196.34001,-46.9051 L196.46996,-48.773808 L196.5999,-50.14548 L196.72983,-49.57698 L196.85977,-50.095993 L196.98972,-51.22857 L197.11966,-50.197002 L197.24959,-50.232788 L197.37953,-50.972466 L197.50948,-50.97799 L197.63942,-50.42351 L197.76935,-50.56446 L197.89929,-52.02787 L198.02924,-52.18475 L198.15918,-52.0503 L198.28912,-51.793095 L198.41905,-51.97308 L198.549,-51.471527 L198.67894,-53.418423 L198.80888,-53.800488 L198.93881,-53.409798 L199.06876,-54.879936 L199.1987,-55.328957 L199.32864,-57.167633 L199.45859,-56.99337 L199.58852,-58.401413 L199.71846,-58.679558 L199.8484,-59.138283 L199.97835,-60.97968 L200.10828,-62.36469 L200.23822,-62.396877 L200.36816,-62.594696 L200.49811,-63.21549 L200.62805,-63.58244 L200.75798,-64.77394 L200.88792,-64.96046 L201.01787,-64.980606 L201.14781,-65.24397 L201.27774,-65.698006 L201.40768,-67.52713 L201.53763,-66.954575 L201.66757,-67.00694 L201.79752,-67.8502 L201.92744,-68.520546 L202.05739,-68.28641 L202.18733,-68.68237 L202.31728,-68.50223 L202.4472,-69.51725 L202.57715,-69.93411 L202.70709,-71.5727 L202.83704,-71.93355 L202.96698,-72.09713 L203.09691,-73.8967 L203.22685,-74.90083 L203.3568,-76.22816 L203.48674,-77.01829 L203.61667,-73.74477 L203.74661,-70.54542 L203.87656,-66.29395 L204.0065,-60.463882 L204.13644,-71.83103 L204.26637,-73.415146 L204.39632,-64.356995 L204.52626,-67.09173 L204.6562,-64.071785 L204.78613,-60.69944 L204.91608,-59.841503 L205.04602,-60.119446 L205.17596,-59.285896 L205.30591,-56.352295 L205.43584,-54.750256 L205.56578,-52.48353 L205.69572,-52.307606 L205.82567,-53.468563 L205.9556,-53.494617 L206.08554,-54.00309 L206.21548,-53.324253 L206.34543,-51.20197 L206.47537,-49.76589 L206.6053,-48.865555 L206.73524,-48.689873 L206.86519,-46.902462 L206.99513,-45.56079 L207.12506,-43.59436 L207.255,-43.181396 L207.38495,-43.08369 L207.5149,-42.008408 L207.64484,-40.119637 L207.77477,-37.21577 L207.90471,-38.513603 L208.03465,-40.83478 L208.1646,-42.137005 L208.29453,-42.09672 L208.42447,-42.22595 L208.55441,-42.52279 L208.68436,-41.729458 L208.8143,-41.771423 L208.94423,-42.70329 L209.07417,-44.289085 L209.20412,-44.783024 L209.33406,-45.70158 L209.46399,-45.2685 L209.59393,-43.752415 L209.72388,-41.521843 L209.85382,-41.14239 L209.98376,-42.390327 L210.1137,-44.434277 L210.24364,-44.536453 L210.37358,-47.188217 L210.50352,-48.409954 L210.63345,-48.00257 L210.7634,-46.40647 L210.89334,-46.90166 L211.02328,-47.275646 L211.15323,-48.182438 L211.28316,-49.116657 L211.4131,-49.063725 L211.54305,-49.075092 L211.67299,-49.046417 L211.80292,-49.310688 L211.93286,-49.32764 L212.0628,-48.67222 L212.19275,-47.87156 L212.3227,-48.057056 L212.45262,-48.68624 L212.58257,-49.99412 L212.71251,-50.413334 L212.84245,-50.56303 L212.97238,-50.822784 L213.10233,-49.11479 L213.23227,-48.666874 L213.36221,-47.27023 L213.49216,-46.20738 L213.62209,-46.52217 L213.75203,-45.94376 L213.88197,-45.544495 L214.01192,-45.82202 L214.14185,-46.23884 L214.27179,-47.854 L214.40173,-49.888138 L214.53168,-49.77558 L214.6616,-46.126938 L214.79155,-46.975452 L214.9215,-47.864094 L215.05144,-48.07158 L215.18138,-45.57307 L215.31131,-45.863586 L215.44125,-45.461063 L215.5712,-45.838512 L215.70114,-45.62944 L215.83107,-45.681988 L215.96101,-45.006683 L216.09096,-45.290043 L216.2209,-42.261143 L216.35085,-43.99987 L216.48077,-44.271862 L216.61072,-43.00385 L216.74066,-51.17044 L216.8706,-53.8921 L217.00053,-43.85752 L217.13048,-44.620766 L217.26042,-41.694565 L217.39037,-42.04337 L217.52031,-44.151165 L217.65024,-50.43491 L217.78018,-49.42975 L217.91013,-45.70549 L218.04007,-41.85516 L218.17,-53.99629 L218.29994,-49.52795 L218.42989,-50.265694 L218.55983,-48.5107 L218.68977,-54.29974 L218.8197,-55.2899 L218.94965,-56.054287 L219.07959,-51.94559 L219.20953,-51.007416 L219.33946,-53.87185 L219.4694,-55.17059 L219.59935,-52.765713 L219.7293,-43.27018 L219.85924,-50.935314 L219.98917,-49.330414 L220.11911,-48.252125 L220.24905,-46.43026 L220.379,-48.86711 L220.50893,-43.5553 L220.63887,-46.266506 L220.76881,-54.58423 L220.89876,-56.257393 L221.0287,-55.27552 L221.15863,-42.438732 L221.28857,-42.055756 L221.41852,-48.360928 L221.54846,-50.089947 L221.67839,-51.626945 L221.80833,-50.04535 L221.93828,-51.62503 L222.06822,-49.45982 L222.19817,-51.51766 L222.3281,-47.896038 L222.45804,-54.371147 L222.58798,-53.98934 L222.71793,-56.495068 L222.84785,-41.315483 L222.9778,-42.159203 L223.10774,-55.388195 L223.23769,-52.31321 L223.36763,-49.95005 L223.49756,-42.532043 L223.6275,-53.638943 L223.75745,-57.06843 L223.88739,-53.800552 L224.01732,-43.680656 L224.14726,-56.474255 L224.2772,-50.3703 L224.40715,-47.873066 L224.5371,-48.55184 L224.66702,-51.385742 L224.79697,-48.753647 L224.92691,-50.848988 L225.05685,-51.816296 L225.18678,-48.46536 L225.31673,-44.315098 L225.44667,-50.11393 L225.57661,-54.628845 L225.70656,-53.763466 L225.83649,-51.783573 L225.96643,-55.352684 L226.09637,-42.865837 L226.22632,-41.367428 L226.35625,-41.827232 L226.48619,-50.311607 L226.61613,-57.03373 L226.74608,-41.457237 L226.87602,-56.767918 L227.00595,-44.311367 L227.1359,-49.07914 L227.26584,-47.191 L227.39578,-50.50246 L227.52571,-52.60946 L227.65565,-55.47239 L227.7856,-49.052567 L227.91554,-44.796734 L228.04549,-47.755096 L228.17542,-51.157024 L228.30536,-42.503254 L228.4353,-48.53453 L228.56525,-47.99588 L228.69518,-51.04477 L228.82512,-49.503216 L228.95506,-48.034725 L229.085,-45.035908 L229.21495,-41.545586 L229.34488,-41.168667 L229.47482,-41.16181 L229.60477,-54.404644 L229.73471,-51.362934 L229.86464,-53.19771 L229.99458,-52.877354 L230.12453,-53.353233 L230.25447,-55.26579 L230.38441,-42.567944 L230.51434,-41.595043 L230.64429,-41.13099 L230.77423,-47.354656 L230.90417,-53.274967 L231.0341,-54.857193 L231.16405,-56.757626 L231.29399,-42.95228 L231.42393,-42.250793 L231.55386,-42.193184 L231.6838,-52.868443 L231.81375,-55.78766 L231.9437,-55.283348 L232.07364,-56.08674 L232.20357,-54.41162 L232.33351,-55.206528 L232.46346,-48.098545 L232.5934,-41.65025 L232.72333,-56.157055 L232.85327,-54.694447 L232.98322,-50.804516 L233.11316,-51.865776 L233.2431,-49.98737 L233.37303,-49.397736 L233.50298,-41.705082 L233.63292,-46.861855 L233.76286,-58.401886 L233.89279,-58.28666 L234.02274,-46.850742 L234.15268,-46.194412 L234.28262,-49.05678 L234.41257,-49.304974 L234.5425,-50.00094 L234.67244,-48.410175 L234.80238,-47.031128 L234.93233,-46.553516 L235.06226,-50.40643 L235.1922,-52.654934 L235.32214,-54.069202 L235.45209,-53.78569 L235.58203,-51.317944 L235.71196,-43.224003 L235.8419,-43.78006 L235.97185,-37.439316 L236.10179,-31.39097 L236.23172,-27.355782 L236.36166,-27.16038 L236.49161,-24.5764 L236.62155,-24.376993 L236.7515,-33.5479 L236.88142,-36.397503 L237.01137,-42.458317 L237.14131,-42.77559 L237.27126,-40.77979 L237.40118,-42.654976 L237.53113,-44.422585 L237.66107,-43.91475 L237.79102,-40.679768 L237.92096,-36.98766 L238.05089,-32.428528 L238.18083,-27.653545 L238.31078,-24.465559 L238.44072,-23.062218 L238.57065,-23.165726 L238.70059,-37.344063 L238.83054,-42.029053 L238.96048,-40.382008 L239.09042,-37.082886 L239.22035,-36.8479 L239.3503,-35.113083 L239.48024,-32.2578 L239.61018,-31.52648 L239.74011,-30.524826 L239.87006,-30.473307 L240,-32.298805 L240.12994,-35.745514 L240.25989,-40.69986 L240.38982,-46.60477 L240.51976,-49.55459 L240.6497,-54.01761 L240.77965,-54.12817 L240.90958,-53.685986 L241.03952,-47.05977 L241.16946,-45.11275 L241.29941,-50.03801 L241.42935,-50.364998 L241.55928,-53.1718 L241.68922,-55.01458 L241.81917,-51.537216 L241.94911,-52.850246 L242.07904,-54.816193 L242.20898,-62.039673 L242.33893,-63.70002 L242.46887,-56.369934 L242.59882,-56.72927 L242.72874,-66.259964 L242.85869,-66.19605 L242.98863,-63.09825 L243.11858,-52.351307 L243.2485,-55.891327 L243.37845,-56.331017 L243.50839,-55.35334 L243.63834,-50.254986 L243.76828,-44.69936 L243.89821,-32.56739 L244.02815,-30.227964 L244.1581,-25.771864 L244.28804,-25.765678 L244.41797,-29.624952 L244.54791,-35.499557 L244.67786,-41.18969 L244.8078,-34.410076 L244.93774,-29.249115 L245.06767,-36.1288 L245.19762,-37.916084 L245.32756,-39.396824 L245.4575,-39.048336 L245.58743,-31.58228 L245.71738,-31.548595 L245.84732,-20.920528 L245.97726,-24.00227 L246.10721,-24.314281 L246.23714,-31.811476 L246.36708,-28.284077 L246.49702,-32.359695 L246.62697,-37.76463 L246.7569,-35.77689 L246.88684,-25.548538 L247.01678,-25.512451 L247.14673,-24.627516 L247.27667,-33.433575 L247.4066,-38.138126 L247.53654,-41.095253 L247.66649,-43.311405 L247.79643,-44.000748 L247.92636,-45.5745 L248.0563,-46.55713 L248.18625,-41.784317 L248.3162,-41.044163 L248.44614,-35.394245 L248.57607,-35.38166 L248.70601,-34.984894 L248.83595,-36.771866 L248.9659,-34.487595 L249.09583,-30.868788 L249.22577,-21.66116 L249.35571,-22.499752 L249.48566,-41.148735 L249.61559,-52.9166 L249.74553,-37.14933 L249.87547,-27.840181 L250.00542,-26.934193 L250.13536,-29.303623 L250.26529,-38.110775 L250.39523,-46.52516 L250.52518,-51.198788 L250.65512,-50.050762 L250.78505,-43.578247 L250.915,-34.098152 L251.04494,-29.140835 L251.17488,-32.06922 L251.30482,-35.080513 L251.43475,-35.075905 L251.5647,-39.31776 L251.69464,-40.278015 L251.82458,-40.427353 L251.95451,-43.124405 L252.08446,-49.589745 L252.2144,-53.59338 L252.34435,-44.97056 L252.47429,-38.753143 L252.60422,-42.143 L252.73416,-44.972652 L252.8641,-44.987717 L252.99405,-44.322777 L253.12398,-38.372818 L253.25392,-32.30167 L253.38387,-26.122864 L253.51381,-27.242195 L253.64375,-32.192966 L253.77368,-35.43778 L253.90363,-37.985577 L254.03357,-35.363922 L254.16351,-29.301435 L254.29344,-29.304613 L254.42339,-25.276407 L254.55333,-17.221516 L254.68327,-13.250003 L254.81322,-6.9435663 L254.94315,-0.28646186 L255.07309,0 L255.20303,-9.066298 L255.33298,-22.858377 L255.4629,-19.791368 L255.59285,-15.462928 L255.7228,-16.749926 L255.85274,-15.915344 L255.98268,-33.016193 L256.1126,-41.114357 L256.24255,-51.145027 L256.3725,-52.233112 L256.50244,-52.545277 L256.6324,-49.319576 L256.76233,-43.998783 L256.89227,-42.123127 L257.0222,-37.029987 L257.15213,-40.20121 L257.28207,-46.40634 L257.41202,-46.399364 L257.54196,-41.870438 L257.6719,-35.688366 L257.80185,-35.433594 L257.9318,-27.70651 L258.0617,-27.107235 L258.19165,-34.10118 L258.3216,-38.69203 L258.45154,-42.13622 L258.58148,-53.20316 L258.71143,-53.186382 L258.84137,-63.580784 L258.9713,-70.55015 L259.10126,-59.83523 L259.23117,-30.074558 L259.3611,-16.797194 L259.49106,-29.616941 L259.621,-42.162537 L259.75095,-47.86403 L259.8809,-46.76129 L260.01083,-45.075787 L260.14078,-45.07384 L260.27072,-41.92759 L260.40063,-40.614185 L260.53058,-35.717434 L260.66052,-29.538103 L260.79047,-24.867508 L260.9204,-24.40384 L261.05035,-27.254618 L261.1803,-24.935204 L261.31024,-26.590065 L261.4402,-25.560568 L261.5701,-24.358965 L261.70004,-32.279728 L261.83,-44.250538 L261.95993,-56.70394 L262.08987,-40.20356 L262.21982,-31.361166 L262.34976,-34.712708 L262.4797,-44.235043 L262.60965,-50.348 L262.73956,-43.151176 L262.8695,-43.136246 L262.99945,-26.352125 L263.1294,-24.96093 L263.25934,-33.053352 L263.38928,-40.318996 L263.51923,-38.120888 L263.64917,-33.961155 L263.7791,-29.779806 L263.90903,-30.420506 L264.03897,-30.507341 L264.1689,-29.065361 L264.29886,-28.750738 L264.4288,-28.51782 L264.55875,-29.650202 L264.6887,-25.84642 L264.81863,-23.768908 L264.94858,-21.081318 L265.0785,-19.458158 L265.20844,-20.433184 L265.33838,-20.005938 L265.46832,-22.847805 L265.59827,-35.897285 L265.7282,-35.594803 L265.85815,-35.62955 L265.9881,-29.349789 L266.11804,-29.326471 L266.24796,-34.929626 L266.3779,-39.269688 L266.50784,-46.78707 L266.6378,-49.06369 L266.76773,-48.25198 L266.89767,-47.044693 L267.02762,-46.77468 L267.15756,-47.21451 L267.2875,-47.06196 L267.41742,-49.740063 L267.54736,-52.668556 L267.6773,-54.637184 L267.80725,-56.002087 L267.9372,-54.881367 L268.06714,-54.210518 L268.19708,-55.686142 L268.32703,-59.25108 L268.45697,-60.055706 L268.58688,-60.16946 L268.71683,-58.875378 L268.84677,-56.518375 L268.9767,-52.87161 L269.10666,-54.393158 L269.2366,-58.60158 L269.36655,-59.436905 L269.4965,-53.922787 L269.62643,-47.883907 L269.75635,-41.005558 L269.8863,-37.367374 L270.01624,-37.02068 L270.14618,-39.65279 L270.27612,-38.326775 L270.40607,-42.16738 L270.536,-51.887615 L270.66595,-53.451633 L270.7959,-49.287468 L270.9258,-48.776295 L271.05576,-49.238583 L271.1857,-47.569798 L271.31564,-42.335754 L271.4456,-42.043915 L271.57553,-34.107365 L271.70547,-30.77168 L271.83542,-26.875093 L271.96536,-25.467056 L272.09528,-16.37115 L272.22522,-10.446206 L272.35516,-14.124867 L272.4851,-22.897491 L272.61505,-35.543617 L272.745,-35.423347 L272.87494,-41.955917 L273.00488,-33.599846 L273.13483,-29.4359 L273.26474,-28.857058 L273.39468,-36.315315 L273.52463,-42.92394 L273.65457,-43.06302 L273.78452,-45.39939 L273.91446,-47.9532 L274.0444,-51.38239 L274.17435,-57.347755 L274.3043,-57.274292 L274.4342,-57.748528 L274.56415,-60.594337 L274.6941,-58.60288 L274.82404,-53.480133 L274.95398,-51.786842 L275.08392,-57.907173 L275.21387,-58.18733 L275.3438,-55.711666 L275.47375,-54.70817 L275.60367,-53.4753 L275.7336,-54.075176 L275.86356,-54.45044 L275.9935,-53.725628 L276.12344,-52.10471 L276.2534,-49.01974 L276.38333,-51.0973 L276.51328,-55.646763 L276.64322,-62.26305 L276.77313,-62.313297 L276.90308,-60.52242 L277.03302,-52.908566 L277.16296,-52.876637 L277.2929,-45.06427 L277.42285,-38.185375 L277.5528,-37.37511 L277.68274,-33.95703 L277.81268,-32.52444 L277.9426,-32.703423 L278.07254,-43.872314 L278.20248,-53.20526 L278.33243,-55.946484 L278.46237,-55.38256 L278.59232,-54.792915 L278.72226,-46.16411 L278.8522,-51.93394 L278.98215,-45.996487 L279.11206,-38.03552 L279.242,-43.50191 L279.37195,-46.593723 L279.5019,-45.80167 L279.63184,-46.317146 L279.76178,-53.369278 L279.89172,-52.54266 L280.02167,-45.700233 L280.1516,-45.687935 L280.28152,-40.73289 L280.41147,-26.205318 L280.5414,-30.27648 L280.67136,-42.231903 L280.8013,-39.79328 L280.93124,-32.322758 L281.0612,-27.203857 L281.19113,-21.620232 L281.32108,-18.478962 L281.451,-17.76874 L281.58093,-28.184217 L281.71088,-39.41062 L281.84082,-45.46408 L281.97076,-50.948154 L282.1007,-52.837364 L282.23065,-50.517067 L282.3606,-44.34696 L282.49054,-40.948753 L282.62045,-38.302143 L282.7504,-37.476723 L282.88034,-37.469894 L283.01028,-36.018944 L283.14023,-35.366188 L283.27017,-32.88794 L283.40012,-30.108479 L283.53006,-30.369965 L283.66,-33.28732 L283.78992,-36.051727 L283.91986,-40.636086 L284.0498,-42.08615 L284.17975,-38.197823 L284.3097,-37.297615 L284.43964,-26.703629 L284.56958,-27.773222 L284.69952,-36.89776 L284.82947,-43.884743 L284.95938,-48.320477 L285.08932,-49.221767 L285.21927,-47.500095 L285.3492,-43.76365 L285.47916,-37.13357 L285.6091,-33.92016 L285.73904,-33.918137 L285.869,-29.362597 L285.99893,-28.476631 L286.12885,-30.795858 L286.2588,-34.93811 L286.38873,-42.1933 L286.51868,-45.664692 L286.64862,-43.93023 L286.77856,-42.636925 L286.9085,-43.645477 L287.03845,-46.999104 L287.1684,-47.003002 L287.2983,-52.72885 L287.42825,-59.280193 L287.5582,-72.185616 L287.68814,-72.32592 L287.81808,-64.571846 L287.94803,-52.03038 L288.07797,-37.17301 L288.20792,-36.123024 L288.33786,-48.79281 L288.46777,-52.935978 L288.59772,-51.083515 L288.72766,-51.079124 L288.8576,-50.58641 L288.98755,-50.73856 L289.1175,-45.941162 L289.24744,-44.12184 L289.37738,-42.709496 L289.50732,-41.770454 L289.63724,-38.42706 L289.76718,-32.303516 L289.89713,-32.901005 L290.02707,-31.374388 L290.157,-26.419395 L290.28696,-25.449026 L290.4169,-22.678654 L290.54684,-23.68909 L290.6768,-22.624224 L290.8067,-11.995194 L290.93665,-11.613467 L291.0666,-12.805024 L291.19653,-20.113873 L291.32648,-19.579422 L291.45642,-19.580816 L291.58636,-23.58041 L291.7163,-32.513042 L291.84622,-42.074142 L291.97617,-46.49453 L292.1061,-47.726868 L292.23605,-50.5759 L292.366,-44.899097 L292.49594,-45.23823 L292.6259,-40.741264 L292.75583,-39.84433 L292.88577,-39.38403 L293.0157,-33.96559 L293.14563,-36.76234 L293.27557,-35.513496 L293.40552,-38.462757 L293.53546,-41.9911 L293.6654,-44.177433 L293.79535,-42.134865 L293.9253,-34.92169 L294.05524,-35.203182 L294.18515,-35.70265 L294.3151,-35.70168 L294.44504,-35.672764 L294.57498,-34.017178 L294.70493,-37.625584 L294.83487,-44.948833 L294.9648,-46.09615 L295.09476,-36.617287 L295.2247,-43.41588 L295.3546,-46.063107 L295.48456,-50.210484 L295.6145,-51.588036 L295.74445,-51.610477 L295.8744,-53.342472 L296.00433,-37.26859 L296.13428,-29.165876 L296.26422,-29.30831 L296.39417,-33.154552 L296.52408,-42.62204 L296.65402,-46.88893 L296.78397,-50.82408 L296.9139,-49.07906 L297.04385,-42.100452 L297.1738,-42.16693 L297.30374,-40.749786 L297.4337,-40.84109 L297.56363,-41.37576 L297.69354,-42.623524 L297.8235,-45.635715 L297.95343,-53.712704 L298.08337,-58.35437 L298.21332,-64.36736 L298.34326,-62.817142 L298.4732,-59.180386 L298.60315,-59.784096 L298.7331,-51.991116 L298.863,-41.021225 L298.99295,-38.866447 L299.1229,-47.864204 L299.25284,-60.3368 L299.38278,-56.892567 L299.51273,-50.43656 L299.64267,-48.893795 L299.7726,-49.441456 L299.90256,-49.144337 L300.03247,-49.127182 L300.1624,-43.696434 L300.29236,-38.534885 L300.4223,-30.835201 L300.55225,-21.479536 L300.6822,-28.030151 L300.81213,-40.63218 L300.94208,-41.90301 L301.07202,-45.07198 L301.20193,-48.085384 L301.33188,-50.04904 L301.46182,-50.080574 L301.59177,-51.286125 L301.7217,-53.34227 L301.85165,-51.34755 L301.9816,-43.367542 L302.11154,-38.024418 L302.2415,-34.930004 L302.3714,-36.27392 L302.50134,-40.764313 L302.6313,-43.58312 L302.76123,-44.286648 L302.89117,-44.315525 L303.02112,-41.880123 L303.15106,-43.340595 L303.281,-43.952885 L303.41095,-45.33275 L303.54086,-46.91238 L303.6708,-49.522427 L303.80075,-50.34164 L303.9307,-50.09326 L304.06064,-49.110367 L304.19058,-49.416924 L304.32053,-48.598797 L304.45047,-49.669662 L304.5804,-51.729214 L304.71033,-52.18628 L304.84027,-51.79942 L304.9702,-51.62022 L305.10016,-51.881897 L305.2301,-52.172947 L305.36005,-52.269188 L305.49,-52.59373 L305.61993,-53.814037 L305.74988,-53.807316 L305.8798,-54.484753 L306.00974,-55.689346 L306.13968,-56.636772 L306.26962,-56.779835 L306.39957,-54.956562 L306.5295,-51.626705 L306.65945,-50.888836 L306.7894,-51.79393 L306.91934,-53.465523 L307.04926,-53.867847 L307.1792,-53.931297 L307.30914,-53.543716 L307.4391,-53.564236 L307.56903,-53.514637 L307.69897,-53.89252 L307.82892,-53.711296 L307.95886,-52.441357 L308.0888,-51.38512 L308.21872,-50.556324 L308.34866,-50.563534 L308.4786,-53.076073 L308.60855,-53.8837 L308.7385,-53.69037 L308.86844,-52.84296 L308.99838,-50.396164 L309.12833,-49.55586 L309.25827,-51.039722 L309.38818,-52.41981 L309.51813,-53.623375 L309.64807,-53.557796 L309.778,-52.982174 L309.90796,-52.754833 L310.0379,-52.757244 L310.16785,-52.962246 L310.2978,-53.20498 L310.42773,-53.18152 L310.55765,-51.938892 L310.6876,-51.353107 L310.81754,-51.45354 L310.94748,-52.100285 L311.07742,-52.099094 L311.20737,-52.10793 L311.3373,-52.381477 L311.46725,-52.780167 L311.5972,-53.6488 L311.7271,-53.701515 L311.85706,-53.183716 L311.987,-53.52435 L312.11694,-54.569523 L312.2469,-54.809155 L312.37683,-54.710754 L312.50677,-54.7398 L312.63672,-55.555122 L312.76666,-56.994812 L312.89658,-56.58118 L313.02652,-55.61058 L313.15646,-56.589252 L313.2864,-56.67532 L313.41635,-55.625267 L313.5463,-53.46774 L313.67624,-53.12178 L313.80618,-54.59101 L313.93613,-54.56396 L314.06604,-55.75936 L314.19598,-56.538525 L314.32593,-55.990402 L314.45587,-53.531406 L314.58582,-51.65606 L314.71576,-49.740646 L314.8457,-49.05315 L314.97565,-49.68501 L315.1056,-50.413895 L315.2355,-50.702545 L315.36545,-50.27029 L315.4954,-50.26703 L315.62534,-50.096165 L315.75528,-49.48898 L315.88522,-49.05474 L316.01517,-48.854225 L316.1451,-49.43075 L316.27505,-50.535244 L316.40497,-51.45453 L316.5349,-51.907646 L316.66486,-51.291264 L316.7948,-50.220726 L316.92474,-50.23087 L317.0547,-50.121017 L317.18463,-50.093258 L317.31458,-49.756 L317.44452,-49.068 L317.57443,-48.318115 L317.70438,-49.068714 L317.83432,-49.68848 L317.96426,-50.163456 L318.0942,-50.78935 L318.22415,-51.354996 L318.3541,-51.195652 L318.48404,-51.14422 L318.61398,-51.555946 L318.7439,-51.729595 L318.87384,-52.183823 L319.00378,-52.183372 L319.13373,-52.197227 L319.26367,-51.845974 L319.39362,-51.353592 L319.52356,-50.691494 L319.6535,-50.811497 L319.78345,-50.8217 L319.91336,-50.883286 L320.0433,-51.67677 L320.17325,-52.339527 L320.3032,-52.38602 L320.43314,-52.211 L320.56308,-52.614037 L320.69302,-51.76033 L320.82297,-52.13068 L320.9529,-51.51094 L321.08282,-50.520283 L321.21277,-50.67119 L321.3427,-51.196045 L321.47266,-50.445156 L321.6026,-49.9558 L321.73254,-51.791504 L321.8625,-51.296146 L321.99243,-49.945946 L322.12238,-50.018974 L322.2523,-47.00765 L322.38223,-46.435654 L322.51218,-50.15012 L322.64212,-51.16573 L322.77206,-42.9323 L322.902,-44.439346 L323.03195,-54.556087 L323.1619,-57.281635 L323.29184,-55.974846 L323.42175,-51.67978 L323.5517,-53.257454 L323.68164,-53.351414 L323.81158,-41.960457 L323.94153,-39.94038 L324.07147,-46.46208 L324.20142,-50.553505 L324.33136,-54.002266 L324.4613,-56.968662 L324.59122,-57.197792 L324.72116,-56.99112 L324.8511,-55.36325 L324.98105,-41.8009 L325.111,-43.291897 L325.24094,-43.407772 L325.37088,-43.72416 L325.50082,-57.755 L325.63077,-57.958057 L325.76068,-48.707104 L325.89063,-43.479744 L326.02057,-43.99442 L326.1505,-43.963818 L326.28046,-51.14501 L326.4104,-46.01703 L326.54034,-49.5742 L326.6703,-50.5551 L326.8002,-51.494854 L326.93015,-52.015827 L327.0601,-51.53311 L327.19003,-54.56299 L327.31998,-47.401337 L327.44992,-45.301914 L327.57986,-43.641174 L327.7098,-42.54838 L327.83975,-42.83116 L327.96967,-41.687725 L328.0996,-41.69524 L328.22955,-42.410248 L328.3595,-57.00003 L328.48944,-54.912766 L328.6194,-55.113018 L328.74933,-46.86979 L328.87927,-54.104275 L329.00922,-54.538086 L329.13913,-44.622 L329.26907,-49.73935 L329.39902,-47.383358 L329.52896,-50.00624 L329.6589,-51.30859 L329.78885,-41.25654 L329.9188,-44.740784 L330.04874,-49.422062 L330.17868,-48.10862 L330.3086,-49.23157 L330.43854,-41.931713 L330.56848,-44.082718 L330.69843,-41.96646 L330.82837,-42.150448 L330.9583,-48.298714 L331.08826,-48.299767 L331.2182,-46.122036 L331.34814,-51.043945 L331.47806,-48.78846 L331.608,-47.454483 L331.73795,-45.170063 L331.8679,-55.35013 L331.99783,-54.712063 L332.12778,-49.442303 L332.25772,-52.792618 L332.38766,-51.16368 L332.5176,-41.93753 L332.64752,-40.31275 L332.77747,-52.086197 L332.9074,-53.61975 L333.03735,-53.758224 L333.1673,-54.23815 L333.29724,-55.3958 L333.4272,-55.673588 L333.55713,-55.633793 L333.68707,-56.17304 L333.817,-56.14321 L333.94693,-56.438454 L334.07687,-56.476696 L334.20682,-57.012028 L334.33676,-56.71825 L334.4667,-55.176758 L334.59665,-56.4771 L334.7266,-51.773144 L334.85654,-45.125687 L334.98645,-52.937 L335.1164,-52.40504 L335.24634,-50.243023 L335.37628,-51.183605 L335.50623,-54.67491 L335.63617,-54.795746 L335.7661,-54.54229 L335.89606,-47.60819 L336.026,-44.43277 L336.1559,-54.524933 L336.28586,-55.71974 L336.4158,-43.57762 L336.54575,-55.666504 L336.6757,-43.888386 L336.80563,-50.20477 L336.93558,-44.131493 L337.06552,-42.680454 L337.19547,-46.399414 L337.32538,-56.728558 L337.45532,-53.73562 L337.58527,-53.884346 L337.7152,-46.13272 L337.84515,-50.89884 L337.9751,-44.631756 L338.10504,-44.929745 L338.235,-45.052532 L338.36493,-55.495403 L338.49484,-41.315186 L338.6248,-41.5212 L338.75473,-51.658302 L338.88467,-55.153515 L339.01462,-55.93117 L339.14456,-44.148975 L339.2745,-56.71985 L339.40445,-49.24136 L339.5344,-49.823997 L339.6643,-45.464325 L339.79425,-47.238453 L339.9242,-47.565666 L340.05414,-42.1501 L340.18408,-45.174866 L340.31403,-57.232727 L340.44397,-53.380505 L340.5739,-45.97983 L340.70386,-44.653503 L340.83377,-47.40763 L340.9637,-48.69693 L341.09366,-50.75421 L341.2236,-51.260323 L341.35355,-50.472313 L341.4835,-50.84355 L341.61343,-52.503773 L341.74338,-50.42882 L341.87332,-50.8995 L342.00323,-54.522152 L342.13318,-54.66286 L342.26312,-48.42081 L342.39307,-48.597755 L342.523,-46.446133 L342.65295,-48.06727 L342.7829,-55.89251 L342.91284,-57.307644 L343.0428,-48.5403 L343.1727,-55.608513 L343.30264,-44.039295 L343.4326,-42.342445 L343.56253,-46.296707 L343.69247,-56.163418 L343.82242,-55.37866 L343.95236,-45.617474 L344.0823,-41.894016 L344.21225,-42.747154 L344.34216,-46.675163 L344.4721,-44.240555 L344.60205,-55.99282 L344.732,-42.560787 L344.86194,-56.324955 L344.99188,-43.34512 L345.12183,-42.37492 L345.25177,-57.617275 L345.3817,-47.24605 L345.51163,-47.82518 L345.64157,-53.810024 L345.7715,-49.92594 L345.90146,-46.33634 L346.0314,-44.880547 L346.16135,-44.81791 L346.2913,-44.534424 L346.42123,-53.4968 L346.55118,-54.466045 L346.6811,-54.296844 L346.81104,-42.213757 L346.94098,-56.198235 L347.07092,-56.500362 L347.20087,-53.253746 L347.3308,-48.24899 L347.46075,-46.983105 L347.5907,-45.074665 L347.72064,-46.737865 L347.85056,-56.317852 L347.9805,-46.707207 L348.11044,-50.453327 L348.2404,-41.697956 L348.37033,-46.39342 L348.50027,-56.718407 L348.63022,-52.70758 L348.76016,-57.188164 L348.8901,-41.450195 L349.02002,-56.615643 L349.14996,-54.32517 L349.2799,-45.309498 L349.40985,-41.539104 L349.5398,-44.44703 L349.66974,-46.303093 L349.79968,-54.573 L349.92963,-45.148594 L350.05957,-45.83563 L350.18948,-54.93491 L350.31943,-49.240345 L350.44937,-47.712803 L350.5793,-41.630928 L350.70926,-46.01567 L350.8392,-49.414085 L350.96915,-50.65216 L351.0991,-53.95772 L351.22903,-48.81296 L351.35895,-48.056595 L351.4889,-52.50192 L351.61884,-47.681114 L351.74878,-47.9018 L351.87872,-50.643803 L352.00867,-51.62345 L352.1386,-46.707832 L352.26855,-55.709965 L352.3985,-54.930435 L352.5284,-46.74491 L352.65836,-43.63902 L352.7883,-49.022778 L352.91824,-53.80516 L353.0482,-45.627956 L353.17813,-55.488163 L353.30807,-56.127106 L353.43802,-46.21632 L353.56796,-51.084835 L353.69788,-41.373417 L353.82782,-56.36306 L353.95776,-55.94737 L354.0877,-53.41021 L354.21765,-42.91442 L354.3476,-56.328545 L354.47754,-55.222675 L354.60748,-45.062416 L354.73743,-42.377014 L354.86734,-44.361668 L354.99728,-48.037403 L355.12723,-52.312958 L355.25717,-50.402386 L355.38712,-48.372086 L355.51706,-50.274754 L355.647,-43.298542 L355.77695,-50.331177 L355.9069,-54.04468 L356.0368,-51.08643 L356.16675,-50.561993 L356.2967,-56.549065 L356.42664,-53.40927 L356.55658,-41.116257 L356.68652,-41.26484 L356.81647,-52.664963 L356.9464,-56.44721 L357.07635,-53.27181 L357.20627,-43.973392 L357.3362,-50.309303 L357.46616,-50.816612 L357.5961,-53.94028 L357.72604,-50.048035 L357.856,-41.735878 L357.98593,-51.409855 L358.11588,-51.185333 L358.24582,-48.653603 L358.37573,-48.68762 L358.50568,-53.13179 L358.63562,-44.682663 L358.76556,-55.310783 L358.8955,-50.12317 L359.02545,-53.255573 L359.1554,-41.100544 L359.28534,-42.042618 L359.41528,-46.94555 L359.5452,-48.1457 L359.67514,-52.41764 L359.80508,-53.01353 L359.93503,-48.682182 L360.06497,-47.436317 L360.19492,-43.039154 L360.32486,-50.95401 L360.4548,-56.348167 L360.58472,-56.36321 L360.71466,-55.996944 L360.8446,-55.94484 L360.97455,-54.542465 L361.1045,-42.70136 L361.23444,-42.417538 L361.36438,-42.88221 L361.49432,-56.288864 L361.62427,-57.730473 L361.75418,-55.153484 L361.88412,-41.909836 L362.01407,-43.304565 L362.144,-53.486095 L362.27396,-51.87768 L362.4039,-47.561924 L362.53384,-44.32167 L362.6638,-50.196648 L362.79373,-47.679714 L362.92365,-42.887806 L363.0536,-42.089108 L363.18353,-43.245632 L363.31348,-48.249336 L363.44342,-49.90902 L363.57336,-54.07068 L363.7033,-47.653694 L363.83325,-49.61424 L363.9632,-53.44169 L364.0931,-51.826195 L364.22305,-53.292046 L364.353,-56.570232 L364.48294,-54.14363 L364.61288,-51.171257 L364.74283,-42.019024 L364.87277,-53.835155 L365.00272,-58.830807 L365.13266,-43.103264 L365.26257,-43.366135 L365.39252,-42.628796 L365.52246,-42.585083 L365.6524,-43.37629 L365.78235,-37.21129 L365.9123,-53.043247 L366.04224,-52.96575 L366.17218,-50.89219 L366.30212,-52.5887 L366.43204,-52.05612 L366.56198,-53.032433 L366.69193,-49.918205 L366.82187,-52.750137 L366.9518,-52.291206 L367.08176,-51.35161 L367.2117,-51.106373 L367.34164,-49.006725 L367.4716,-49.83682 L367.6015,-51.05355 L367.73145,-53.178562 L367.8614,-54.845406 L367.99133,-56.048977 L368.12128,-55.599503 L368.25122,-55.420143 L368.38116,-49.22703 L368.5111,-46.722977 L368.64105,-47.899334 L368.77097,-49.217808 L368.9009,-55.52865 L369.03085,-56.878998 L369.1608,-54.3939 L369.29074,-54.671238 L369.4207,-41.270855 L369.55063,-43.784756 L369.68057,-45.087387 L369.81052,-46.84182 L369.94043,-50.72512 L370.07037,-57.23319 L370.20032,-50.74902 L370.33026,-49.07434 L370.4602,-42.980762 L370.59015,-45.84694 L370.7201,-44.096024 L370.85004,-47.11375 L370.97998,-47.746826 L371.1099,-47.25672 L371.23984,-52.57199 L371.36978,-57.363575 L371.49973,-56.46825 L371.62967,-55.529366 L371.7596,-48.021423 L371.88956,-49.678257 L372.0195,-45.22989 L372.14944,-34.793728 L372.27936,-35.64941 L372.4093,-34.343098 L372.53925,-34.349415 L372.6692,-34.447826 L372.79913,-37.64321 L372.92908,-41.79191 L373.05902,-48.25462 L373.18896,-49.67353 L373.3189,-49.672226 L373.44882,-50.42778 L373.57877,-54.549496 L373.7087,-58.179493 L373.83865,-60.71851 L373.9686,-64.0642 L374.09854,-64.03376 L374.2285,-68.832054 L374.35843,-72.02649 L374.48837,-75.059074 L374.6183,-76.343956 L374.74823,-80.75518 L374.87817,-81.29634 L375.00812,-82.87669 L375.13806,-83.935455 L375.268,-83.80073 L375.39795,-82.217186 L375.5279,-78.724434 L375.65784,-75.344666 L375.78775,-74.47866 L375.9177,-74.05666 L376.04764,-72.12213 L376.17758,-67.134445 L376.30753,-57.53758 L376.43747,-50.767563 L376.5674,-43.48555 L376.69736,-41.71537 L376.8273,-41.459835 L376.9572,-47.165333 L377.08716,-52.633446 L377.2171,-49.060257 L377.34705,-41.473644 L377.477,-31.755493 L377.60693,-34.1567 L377.73688,-48.450943 L377.86682,-55.893196 L377.99677,-62.02963 L378.12668,-64.707115 L378.25662,-65.59419 L378.38657,-70.012276 L378.5165,-62.15765 L378.64645,-56.93144 L378.7764,-49.69656 L378.90634,-50.52287 L379.0363,-50.194626 L379.16623,-48.95036 L379.29614,-45.53612 L379.4261,-38.516098 L379.55603,-38.565998 L379.68597,-34.50569 L379.81592,-33.779972 L379.94586,-36.317066 L380.0758,-40.054333 L380.20575,-37.794594 L380.3357,-31.330267 L380.4656,-26.15254 L380.59555,-30.26906 L380.7255,-37.81963 L380.85544,-50.48958 L380.98538,-50.356438 L381.11533,-51.346355 L381.24527,-43.406475 L381.3752,-46.58456 L381.50516,-62.05634 L381.63507,-68.57239 L381.765,-62.37053 L381.89496,-52.505363 L382.0249,-48.647964 L382.15485,-46.862556 L382.2848,-51.79368 L382.41473,-51.76773 L382.54468,-55.569443 L382.67462,-51.660805 L382.80453,-45.69305 L382.93448,-40.211052 L383.06442,-41.914715 L383.19437,-50.596737 L383.3243,-56.28137 L383.45425,-62.80315 L383.5842,-65.56088 L383.71414,-66.14171 L383.8441,-68.10145 L383.974,-68.14682 L384.10394,-71.51575 L384.2339,-75.28072 L384.36383,-74.864555 L384.49377,-72.17259 L384.62372,-72.63354 L384.75366,-78.141045 L384.8836,-79.94491 L385.01355,-76.917175 L385.14346,-71.518425 L385.2734,-60.316822 L385.40335,-52.951286 L385.5333,-52.93899 L385.66324,-40.366356 L385.79318,-29.033175 L385.92313,-13.635608 L386.05307,-10.954784 L386.183,-14.263653 L386.31293,-16.189264 L386.44287,-12.187182 L386.5728,-6.132604 L386.70276,-2.8850162 L386.8327,-2.9314127 L386.96265,-8.311956 L387.0926,-23.217693 L387.22253,-33.478767 L387.35248,-49.30343 L387.4824,-58.525616 L387.61234,-65.04594 L387.74228,-68.78928 L387.87222,-69.06303 L388.00217,-66.60966 L388.1321,-62.25315 L388.26205,-62.06829 L388.392,-53.55565 L388.52194,-48.997227 L388.65186,-42.726654 L388.7818,-34.16529 L388.91174,-31.015886 L389.0417,-26.657728 L389.17163,-22.82438 L389.30157,-16.988384 L389.43152,-18.448557 L389.56146,-19.040941 L389.6914,-36.500454 L389.82132,-41.19479 L389.95126,-42.838726 L390.0812,-41.228596 L390.21115,-43.70736 L390.3411,-54.500774 L390.47104,-62.32096 L390.60098,-64.677826 L390.73093,-59.557083 L390.86087,-55.538837 L390.99078,-48.982193 L391.12073,-48.864174 L391.25067,-48.094704 L391.3806,-52.985493 L391.51056,-57.987827 L391.6405,-62.279797 L391.77045,-64.31969 L391.9004,-64.39277 L392.03033,-63.50794 L392.16025,-63.18376 L392.2902,-62.870823 L392.42014,-61.319973 L392.55008,-61.148144 L392.68002,-61.74821 L392.80997,-62.38326 L392.9399,-63.395996 L393.06985,-65.45648 L393.1998,-67.81118 L393.3297,-71.51247 L393.45966,-73.556465 L393.5896,-74.08328 L393.71954,-73.42308 L393.8495,-73.37303 L393.97943,-73.08229 L394.10938,-74.28398 L394.23932,-77.09036 L394.36923,-79.1334 L394.49918,-77.19134 L394.62912,-71.59762 L394.75906,-61.76687 L394.889,-53.48104 L395.01895,-43.230137 L395.1489,-40.54209 L395.27884,-40.00026 L395.40878,-40.133175 L395.5387,-37.19269 L395.66864,-34.35526 L395.79858,-28.161644 L395.92853,-26.673443 L396.05847,-25.547968 L396.18842,-27.432934 L396.31836,-36.20027 L396.4483,-42.632645 L396.57825,-51.913254 L396.70816,-51.939945 L396.8381,-66.09447 L396.96805,-68.015396 L397.098,-68.100525 L397.22794,-67.283905 L397.35788,-66.02316 L397.48782,-64.95055 L397.61777,-62.148144 L397.7477,-59.76131 L397.87762,-57.735374 L398.00757,-54.233437 L398.1375,-54.675602 L398.26746,-49.949795 L398.3974,-48.90525 L398.52734,-41.55169 L398.6573,-37.479805 L398.78723,-28.72044 L398.91718,-21.813698 L399.0471,-13.630568 L399.17703,-11.473725 L399.30698,-22.753592 L399.43692,-37.73615 L399.56686,-37.88585 L399.6968,-50.41026 L399.82675,-54.131897 L399.9567,-51.145775 L400.08664,-46.82576 L400.21655,-47.70479 L400.3465,-52.218872 L400.47644,-55.305164 L400.60638,-53.135475 L400.73633,-48.64337 L400.86627,-44.133984 L400.99622,-44.242325 L401.12616,-43.120914 L401.2561,-44.735325 L401.38602,-46.09173 L401.51596,-45.51143 L401.6459,-44.495167 L401.77585,-43.513702 L401.9058,-42.972885 L402.03574,-42.439953 L402.16568,-41.979645 L402.29562,-40.485462 L402.42557,-39.502525 L402.55548,-39.801872 L402.68542,-39.837345 L402.81537,-40.365265 L402.9453,-38.381588 L403.07526,-37.26752 L403.2052,-37.710293 L403.33514,-39.060467 L403.4651,-38.138958 L403.59503,-39.09921 L403.72495,-41.335644 L403.8549,-40.95822 L403.98483,-40.28866 L404.11478,-38.748215 L404.24472,-39.801147 L404.37466,-44.25159 L404.5046,-49.16192 L404.63455,-46.94468 L404.7645,-46.859547 L404.8944,-47.34949 L405.02435,-44.26785 L405.1543,-44.44916 L405.28424,-44.784832 L405.41418,-44.90763 L405.54413,-45.578644 L405.67407,-46.168175 L405.80402,-46.77593 L405.93396,-47.465588 L406.06387,-46.35975 L406.19382,-47.465652 L406.32376,-46.05159 L406.4537,-47.506317 L406.58365,-48.628628 L406.7136,-48.816814 L406.84354,-51.51204 L406.97348,-50.67763 L407.10342,-48.931385 L407.23334,-46.669834 L407.36328,-47.991287 L407.49323,-49.24175 L407.62317,-48.742477 L407.7531,-51.61828 L407.88306,-50.40059 L408.013,-51.60526 L408.14294,-50.29106 L408.2729,-50.0203 L408.4028,-43.90396 L408.53275,-48.41011 L408.6627,-49.567482 L408.79263,-45.882973 L408.92258,-44.08401 L409.05252,-41.11475 L409.18246,-41.25318 L409.3124,-55.128998 L409.44235,-54.27546 L409.57227,-54.57328 L409.7022,-54.63633 L409.83215,-55.514313 L409.9621,-52.637287 L410.09204,-41.144924 L410.222,-40.028736 L410.35193,-42.458008 L410.48187,-52.24428 L410.61182,-53.92904 L410.74173,-52.736336 L410.87167,-51.700245 L411.00162,-52.186996 L411.13156,-45.87729 L411.2615,-50.623287 L411.39145,-53.923508 L411.5214,-55.060047 L411.65134,-55.05014 L411.78128,-48.335 L411.9112,-54.39973 L412.04114,-53.785477 L412.17108,-41.410915 L412.30103,-48.82455 L412.43097,-49.228058 L412.5609,-49.101875 L412.69086,-48.71561 L412.8208,-51.585835 L412.95074,-52.337833 L413.08066,-55.294846 L413.2106,-55.101707 L413.34055,-49.618053 L413.4705,-44.199505 L413.60043,-42.517418 L413.73038,-42.391323 L413.86032,-43.524708 L413.99026,-51.366478 L414.1202,-42.443073 L414.25012,-57.5192 L414.38007,-58.333965 L414.51,-49.478214 L414.63995,-43.843727 L414.7699,-45.71067 L414.89984,-47.028515 L415.0298,-46.00668 L415.15973,-51.807884 L415.28967,-55.556007 L415.4196,-54.435947 L415.54953,-44.703175 L415.67947,-44.23258 L415.80942,-48.93095 L415.93936,-42.271545 L416.0693,-42.458984 L416.19925,-43.802673 L416.3292,-53.242676 L416.45914,-44.354385 L416.58905,-45.125813 L416.719,-45.0118 L416.84894,-57.777065 L416.97888,-58.006073 L417.10883,-56.791363 L417.23877,-41.33445 L417.3687,-47.431324 L417.49866,-49.925285 L417.6286,-48.579353 L417.7585,-45.13845 L417.88846,-44.52142 L418.0184,-55.03641 L418.14835,-50.10066 L418.2783,-50.253098 L418.40823,-49.211872 L418.53818,-50.345917 L418.66812,-49.072197 L418.79807,-49.03384 L418.92798,-49.84199 L419.05792,-47.950573 L419.18787,-45.33544 L419.3178,-46.152985 L419.44775,-50.260178 L419.5777,-54.817265 L419.70764,-54.722908 L419.8376,-44.011524 L419.96753,-46.50261 L420.09744,-42.250706 L420.2274,-42.29755 L420.35733,-41.48272 L420.48727,-53.069057 L420.61722,-56.049618 L420.74716,-57.10606 L420.8771,-55.00546 L421.00705,-46.691963 L421.137,-49.994617 L421.2669,-53.759804 L421.39685,-52.33093 L421.5268,-50.730274 L421.65674,-53.129604 L421.78668,-50.48612 L421.91663,-42.340324 L422.04657,-42.778667 L422.1765,-50.11675 L422.30646,-52.667194 L422.43637,-54.380085 L422.5663,-50.97082 L422.69626,-47.06379 L422.8262,-51.1686 L422.95615,-50.106403 L423.0861,-55.71422 L423.21603,-52.066383 L423.34598,-39.85673 L423.47592,-52.880688 L423.60583,-52.522884 L423.73578,-54.20955 L423.86572,-49.59761 L423.99567,-49.773884 L424.1256,-47.151318 L424.25555,-50.23824 L424.3855,-47.821365 L424.51544,-47.83253 L424.6454,-49.369934 L424.7753,-51.955044 L424.90524,-55.765785 L425.0352,-49.626884 L425.16513,-40.661095 L425.29507,-43.389828 L425.42502,-48.511852 L425.55496,-55.64777 L425.6849,-48.677094 L425.81485,-52.438007 L425.94476,-56.264885 L426.0747,-42.59887 L426.20465,-53.6708 L426.3346,-49.964527 L426.46454,-51.20653 L426.59448,-49.458218 L426.72443,-50.96608 L426.85437,-50.06596 L426.9843,-46.089554 L427.11423,-47.854797 L427.24417,-44.577526 L427.3741,-44.191025 L427.50406,-52.99879 L427.634,-54.610287 L427.76395,-54.73726 L427.8939,-53.22445 L428.02383,-50.16255 L428.15378,-50.06651 L428.2837,-48.254723 L428.41364,-45.660316 L428.54358,-45.176823 L428.67352,-49.841602 L428.80347,-60.14619 L428.9334,-63.014984 L429.06335,-49.974117 L429.1933,-43.70159 L429.3232,-40.46752 L429.45316,-40.76812 L429.5831,-41.944153 L429.71304,-44.732273 L429.843,-47.57618 L429.97293,-50.281166 L430.10287,-51.778667 L430.23282,-52.18979 L430.36276,-48.274353 L430.49268,-47.946022 L430.62262,-49.416958 L430.75256,-50.26 L430.8825,-50.216373 L431.01245,-50.746994 L431.1424,-50.281433 L431.27234,-50.151073 L431.40228,-50.26314 L431.53223,-48.570747 L431.66214,-48.44157 L431.79208,-49.168182 L431.92203,-48.59392 L432.05197,-45.721436 L432.18192,-45.193287 L432.31186,-48.56281 L432.4418,-49.990055 L432.57175,-49.225433 L432.7017,-48.688293 L432.8316,-49.536793 L432.96155,-50.57739 L433.0915,-50.210945 L433.22144,-48.979965 L433.35138,-49.910538 L433.48132,-51.71191 L433.61127,-52.084747 L433.7412,-52.00572 L433.87115,-47.89732 L434.00107,-50.135582 L434.131,-51.820354 L434.26096,-51.72451 L434.3909,-50.59912 L434.52084,-54.90731 L434.6508,-59.019794 L434.78073,-57.54815 L434.91068,-50.75114 L435.04062,-51.831154 L435.17053,-45.050034 L435.30048,-41.622242 L435.43042,-35.33745 L435.56036,-32.456512 L435.6903,-33.562546 L435.82025,-36.25979 L435.9502,-37.92446 L436.08014,-38.350117 L436.21008,-40.3371 L436.34,-43.661003 L436.46994,-43.749043 L436.59988,-45.779583 L436.72983,-44.792336 L436.85977,-41.713436 L436.98972,-42.86684 L437.11966,-45.930622 L437.2496,-46.657265 L437.37955,-45.389008 L437.50946,-42.624146 L437.6394,-41.669334 L437.76935,-44.36806 L437.8993,-44.274357 L438.02924,-45.430187 L438.15918,-43.391033 L438.28912,-40.767193 L438.41907,-38.09589 L438.549,-37.28668 L438.67892,-34.62923 L438.80887,-34.32739 L438.9388,-39.593834 L439.06876,-45.841434 L439.1987,-48.01024 L439.32864,-48.055298 L439.4586,-45.45505 L439.58853,-43.89197 L439.71848,-44.273148 L439.8484,-43.443703 L439.97833,-44.32814 L440.10828,-49.085648 L440.23822,-54.51921 L440.36816,-63.500652 L440.4981,-58.329678 L440.62805,-55.565025 L440.758,-55.443462 L440.88794,-48.898323 L441.01785,-56.20714 L441.1478,-62.411167 L441.27774,-51.544033 L441.40768,-35.926712 L441.53763,-17.175283 L441.66757,-14.442397 L441.79752,-21.724346 L441.92746,-22.392857 L442.0574,-21.412178 L442.18732,-33.418697 L442.31726,-33.331406 L442.4472,-39.96263 L442.57715,-37.319817 L442.7071,-27.234653 L442.83704,-35.661243 L442.96698,-58.299717 L443.09692,-124.22719 L443.22687,-169.95917 L443.35678,-236.43324 L443.48672,-234.82089 L443.61667,-234.99449 L443.7466,-95.425 L443.87656,-96.1253 L444.0065,-111.73173 L444.13644,-183.92616 L444.2664,-183.54501 L444.39633,-178.72 L444.52625,-251.43018 L444.6562,-245.7979 L444.78613,-247.9019 L444.91608,-268.76712 L445.04602,-268.94766 L445.17596,-283.71405 L445.3059,-282.11844 L445.43585,-277.25922 L445.5658,-275.3303 L445.6957,-275.82993 L445.82565,-263.0768 L445.9556,-281.9597 L446.08554,-310.02945 L446.21548,-287.1531 L446.34543,-261.80304 L446.47537,-261.74576 L446.60532,-141.34512 L446.73526,-188.5992 L446.86517,-217.57483 L446.99512,-162.2762 L447.12506,-199.81352 L447.255,-268.29684 L447.38495,-76.292915 L447.5149,-68.13152 L447.64484,-253.4801 L447.77478,-340 L447.90472,-339.69656 L448.03464,-129.3038 L448.16458,-254.30267 L448.29453,-198.2983 L448.42447,-136.90082 L448.5544,-229.50533 L448.68436,-178.12396 L448.8143,-149.36993 L448.94424,-186.96902 L449.0742,-155.96011 L449.2041,-155.7617 L449.33405,-176.27866 L449.464,-198.14833 L449.59393,-233.86606 L449.72388,-215.52129 L449.85382,-112.224106 L449.98376,-93.01627 L450.1137,-134.52794 L450.24365,-116.74484 L450.37357,-146.66577 L450.5035,-131.47708 L450.63345,-100.00123 L450.7634,-99.990204 L450.89334,-89.290794 L451.0233,-84.40776 L451.15323,-85.900826 L451.28317,-94.561966 L451.41312,-117.38904 L451.54303,-100.904884 L451.67297,-75.82424 L451.80292,-91.76852 L451.93286,-122.308945 L452.0628,-121.21443 L452.19275,-121.62494 L452.3227,-123.895134 L452.45264,-126.67018 L452.58258,-127.818275 L452.7125,-134.5703 L452.84244,-135.29726 L452.97238,-129.06683 L453.10233,-112.1062 L453.23227,-96.80973 L453.3622,-82.17773 L453.49216,-79.830894 L453.6221,-79.772026 L453.75204,-82.546005 L453.88196,-81.10786 L454.0119,-71.34368 L454.14185,-64.013275 L454.2718,-56.40701 L454.40173,-55.719875 L454.53168,-52.725838 L454.66162,-50.393078 L454.79156,-49.339153 L454.9215,-49.745747 L455.05142,-49.703617 L455.18137,-50.57606 L455.3113,-51.39736 L455.44125,-50.990253 L455.5712,-51.25684 L455.70114,-51.62479 L455.8311,-53.604618 L455.96103,-55.697914 L456.09097,-55.304752 L456.2209,-51.752857 L456.35083,-45.55539 L456.48077,-43.989395 L456.61072,-44.011646 L456.74066,-48.171745 L456.8706,-50.74827 L457.00055,-50.84809 L457.1305,-49.218998 L457.26044,-48.2446 L457.39035,-49.791626 L457.5203,-51.9566 L457.65024,-53.43828 L457.78018,-52.96388 L457.91013,-52.950726 L458.04007,-50.34563 L458.17,-48.288414 L458.29996,-45.64574 L458.4299,-44.326496 L458.5598,-44.848457 L458.68976,-45.64497 L458.8197,-46.689926 L458.94965,-47.134384 L459.0796,-48.24236 L459.20953,-50.04277 L459.33948,-50.901398 L459.46942,-50.89726 L459.59937,-52.563076 L459.72928,-53.82465 L459.85922,-55.09705 L459.98917,-55.832153 L460.1191,-53.562763 L460.24905,-50.866024 L460.379,-49.172012 L460.50894,-48.28175 L460.6389,-46.765568 L460.76883,-45.611927 L460.89874,-45.669098 L461.0287,-44.517498 L461.15863,-44.15568 L461.28857,-44.241783 L461.41852,-44.477093 L461.54846,-43.745266 L461.6784,-43.11706 L461.80835,-43.97361 L461.9383,-44.85782 L462.0682,-46.323704 L462.19815,-46.335007 L462.3281,-46.8297 L462.45804,-47.967594 L462.58798,-48.265343 L462.71793,-47.30197 L462.84787,-47.656307 L462.9778,-49.03219 L463.10773,-49.037754 L463.23767,-47.760334 L463.3676,-48.38484 L463.49756,-48.764427 L463.6275,-48.757168 L463.75745,-47.849697 L463.8874,-47.506912 L464.01733,-47.839756 L464.14728,-48.25654 L464.2772,-47.509624 L464.40714,-47.22231 L464.53708,-46.967632 L464.66702,-46.41086 L464.79697,-45.518486 L464.9269,-45.092014 L465.05685,-45.25346 L465.1868,-45.272972 L465.31674,-44.981827 L465.44666,-43.543068 L465.5766,-43.47782 L465.70654,-43.808434 L465.8365,-44.24501 L465.96643,-45.571384 L466.09637,-45.950054 L466.22632,-46.43425 L466.35626,-47.36092 L466.4862,-47.37365 L466.61612,-49.00162 L466.74606,-48.97793 L466.876,-48.624153 L467.00595,-48.9573 L467.1359,-49.156162 L467.26584,-50.27719 L467.39578,-52.38418 L467.52573,-53.101425 L467.65567,-53.61446 L467.78558,-53.177086 L467.91553,-53.163166 L468.04547,-52.299244 L468.1754,-52.048866 L468.30536,-52.216606 L468.4353,-52.241276 L468.56525,-51.37189 L468.6952,-50.39344 L468.82513,-49.34639 L468.95505,-49.262924 L469.085,-48.45292 L469.21494,-48.02392 L469.34488,-48.027702 L469.47482,-47.919643 L469.60477,-48.84588 L469.7347,-49.68551 L469.86465,-49.763283 L469.9946,-49.20916 L470.1245,-48.842663 L470.25446,-48.820026 L470.3844,-48.977684 L470.51434,-48.616413 L470.6443,-48.753067 L470.77423,-48.75952 L470.90417,-48.09679 L471.03412,-48.570953 L471.16406,-49.282497 L471.29398,-49.15535 L471.42392,-48.255577 L471.55386,-47.73332 L471.6838,-49.809124 L471.81375,-50.27414 L471.9437,-49.94109 L472.07364,-49.941322 L472.20358,-49.59217 L472.33353,-49.2995 L472.46344,-49.684948 L472.59338,-50.53187 L472.72333,-51.094326 L472.85327,-51.107433 L472.98322,-51.357548 L473.11316,-50.504707 L473.2431,-49.882515 L473.37305,-49.198135 L473.503,-49.33577 L473.6329,-49.340454 L473.76285,-49.845882 L473.8928,-49.828564 L474.02274,-49.700726 L474.15268,-49.722107 L474.28262,-49.65293 L474.41257,-49.36558 L474.5425,-48.89881 L474.67245,-49.28452 L474.80237,-50.077557 L474.9323,-50.203808 L475.06226,-50.209095 L475.1922,-49.890717 L475.32214,-49.70795 L475.4521,-49.671886 L475.58203,-49.073174 L475.71198,-48.855316 L475.84192,-49.323105 L475.97183,-49.614006 L476.10178,-49.531277 L476.23172,-49.850395 L476.36166,-49.940372 L476.4916,-49.94191 L476.62155,-49.85156 L476.7515,-49.802555 L476.88144,-49.805878 L477.01138,-49.910496 L477.1413,-50.43762 L477.27124,-50.82697 L477.40118,-50.707382 L477.53113,-50.544205 L477.66107,-50.728924 L477.79102,-50.984245 L477.92096,-50.97913 L478.0509,-51.147583 L478.18085,-51.076332 L478.31076,-51.013588 L478.4407,-50.85956 L478.57065,-51.077374 L478.7006,-50.784096 L478.83054,-50.935795 L478.96048,-51.33492 L479.09042,-51.229824 L479.22037,-50.393925 L479.3503,-50.388664 L479.48022,-49.5474 L479.61017,-49.18872 L479.7401,-49.012447 L479.87006,-49.686157 L480,-50.015556" fill="none" stroke="#ff0000" stroke-linejoin="round" stroke-width="2"/>
</g>
</g>
<g transform="translate(380, -340)">
<text font-size="12" text-anchor="start" x="0" y="0">
speed
</text>
<line stroke="#ff0000" stroke-width="2" x1="-10" x2="-3" y1="-4" y2="-4"/>
</g>
<g>
<g>
<line stroke="black" stroke-width="1" x1="0.000020790471034121558" x2="0.000020790471034121558" y1="0" y2="10"/>
<line stroke="black" stroke-width="1" x1="145.53331802922688" x2="145.53331802922688" y1="0" y2="10"/>
<line stroke="black" stroke-width="1" x1="291.06661526798274" x2="291.06661526798274" y1="0" y2="10"/>
<line stroke="black" stroke-width="1" x1="436.5999125067386" x2="436.5999125067386" y1="0" y2="10"/>
</g>
<line stroke="black" stroke-width="1" x1="0" x2="480" y1="0" y2="0"/>
<g>
<text font-size="12" text-anchor="middle" x="0.000020790471034121558" y="20">
0.01786
</text>
<text font-size="12" text-anchor="middle" x="145.53331802922688" y="20">
20.01786
</text>
<text font-size="12" text-anchor="middle" x="291.06661526798274" y="20">
40.01786
</text>
<text font-size="12" text-anchor="middle" x="436.5999125067386" y="20">
60.01786
</text>
</g>
<text font-size="12" text-anchor="middle" x="240" y="30">
Time (s)
</text>
</g>
<g>
<g>
<line stroke="black" stroke-width="1" x1="0" x2="-10" y1="-49.590641144193484" y2="-49.590641144193484"/>
<line stroke="black" stroke-width="1" x1="0" x2="-10" y1="-129.4356289737756" y2="-129.4356289737756"/>
<line stroke="black" stroke-width="1" x1="0" x2="-10" y1="-209.28061680335767" y2="-209.28061680335767"/>
<line stroke="black" stroke-width="1" x1="0" x2="-10" y1="-289.12560463293977" y2="-289.12560463293977"/>
</g>
<line stroke="black" stroke-width="1" x1="0" x2="0" y1="0" y2="-340"/>
<g>
<text dominant-baseline="middle" font-size="12" text-anchor="end" x="-15" y="-49.590641144193484">
0
</text>
<text dominant-baseline="middle" font-size="12" text-anchor="end" x="-15" y="-129.4356289737756">
1
</text>
<text dominant-baseline="middle" font-size="12" text-anchor="end" x="-15" y="-209.28061680335767">
2
</text>
<text dominant-baseline="middle" font-size="12" text-anchor="end" x="-15" y="-289.12560463293977">
3
</text>
</g>
<text font-size="12" text-anchor="middle" transform="rotate(-90 -12 -170)" x="-12" y="-182">
Speed (dgr/s)
</text>
</g>
</g>
</svg>