<svg viewBox="0 0 600 400" xmlns="http://www.w3.org/2000/svg">
<g transform="translate(72, 364)">
<g>
<g>
<path d="M0,-163.273 L0,-163.273 L0.12994045,-163.2223 L0.2598809,-163.37439 L0.38982132,-163.273 L0.5197618,-163.273 L0.6497022,-163.32368 L0.77964264,-163.37439 L0.9095831,-163.01953 L1.0395236,-163.273 L1.169464,-163.37439 L1.2994044,-163.56702 L1.4293449,-163.273 L1.5592853,-163.66841 L1.6892258,-163.37439 L1.8191662,-163.7191 L1.9491067,-163.7191 L2.0790472,-163.32368 L2.2089875,-163.07022 L2.338928,-163.51633 L2.4688685,-163.17162 L2.5988088,-163.46564 L2.7287493,-163.56702 L2.8586898,-163.46564 L2.9886303,-163.273 L3.1185706,-163.56702 L3.248511,-163.17162 L3.3784516,-163.17162 L3.508392,-163.41493 L3.6383324,-163.66841 L3.7682729,-163.46564 L3.8982134,-163.41493 L4.028154,-163.37439 L4.1580944,-163.2223 L4.2880344,-163.37439 L4.417975,-163.6177 L4.5479155,-163.273 L4.677856,-163.37439 L4.8077965,-163.37439 L4.937737,-163.46564 L5.0676775,-163.32368 L5.1976175,-163.17162 L5.327558,-163.81035 L5.4574986,-163.273 L5.587439,-163.66841 L5.7173796,-163.46564 L5.84732,-162.96884 L5.9772606,-163.2223 L6.107201,-163.32368 L6.237141,-163.32368 L6.3670816,-163.2223 L6.497022,-163.6177 L6.6269627,-163.56702 L6.756903,-163.41493 L6.8868437,-163.273 L7.016784,-163.273 L7.146724,-163.273 L7.2766647,-163.46564 L7.4066052,-163.41493 L7.5365458,-163.46564 L7.6664863,-163.46564 L7.796427,-163.46564 L7.9263673,-163.51633 L8.056308,-163.37439 L8.186248,-163.51633 L8.316189,-163.273 L8.446129,-163.56702 L8.576069,-163.51633 L8.70601,-163.2223 L8.83595,-163.76979 L8.965891,-163.76979 L9.095831,-163.273 L9.225772,-163.32368 L9.355712,-163.37439 L9.485652,-163.273 L9.615593,-163.41493 L9.745533,-163.41493 L9.875474,-163.51633 L10.005414,-163.56702 L10.135355,-163.41493 L10.265295,-163.46564 L10.395235,-163.46564 L10.525176,-163.46564 L10.655116,-163.32368 L10.785057,-163.2223 L10.914997,-163.66841 L11.044938,-163.37439 L11.174878,-163.56702 L11.304818,-163.17162 L11.434759,-163.273 L11.564699,-163.17162 L11.69464,-163.32368 L11.82458,-163.32368 L11.954521,-163.51633 L12.084461,-163.32368 L12.214402,-163.37439 L12.344342,-163.46564 L12.474282,-163.37439 L12.604223,-163.6177 L12.734163,-163.12093 L12.864104,-163.66841 L12.994044,-163.17162 L13.123985,-163.37439 L13.253925,-163.37439 L13.383865,-163.32368 L13.513806,-163.32368 L13.643746,-163.41493 L13.773687,-163.37439 L13.903627,-163.41493 L14.033568,-163.07022 L14.163508,-163.41493 L14.293448,-163.273 L14.423389,-163.41493 L14.553329,-163.41493 L14.68327,-163.6177 L14.8132105,-163.41493 L14.943151,-163.66841 L15.0730915,-163.76979 L15.203032,-163.41493 L15.332973,-163.51633 L15.462913,-163.56702 L15.592854,-163.273 L15.722794,-163.32368 L15.852735,-162.96884 L15.982675,-163.2223 L16.112616,-163.2223 L16.242556,-163.56702 L16.372496,-164.01312 L16.502436,-163.56702 L16.632378,-163.91173 L16.762318,-163.51633 L16.892258,-163.46564 L17.022198,-163.6177 L17.152138,-163.56702 L17.28208,-164.1652 L17.41202,-164.2159 L17.54196,-164.2159 L17.6719,-163.86104 L17.801842,-163.07022 L17.931782,-162.7762 L18.061722,-163.17162 L18.191662,-163.01953 L18.321602,-163.66841 L18.451544,-163.96243 L18.581484,-163.91173 L18.711424,-164.6113 L18.841364,-164.6113 L18.971304,-164.01312 L19.101246,-163.86104 L19.231186,-163.32368 L19.361126,-162.96884 L19.491066,-163.17162 L19.621008,-163.66841 L19.750948,-163.81035 L19.880888,-164.56061 L20.010828,-164.70255 L20.140768,-165.19934 L20.27071,-165.19934 L20.40065,-165.40211 L20.53059,-163.17162 L20.66053,-164.70255 L20.79047,-167.22708 L20.920412,-166.78098 L21.050352,-165.49336 L21.180292,-165.4528 L21.310232,-165.84822 L21.440174,-164.70255 L21.570114,-163.273 L21.700054,-162.2794 L21.829994,-162.2794 L21.959934,-159.41017 L22.089876,-159.80557 L22.219816,-160.79916 L22.349756,-161.884 L22.479696,-161.69136 L22.609636,-161.9347 L22.739578,-162.33011 L22.869518,-160.9918 L22.999458,-160.9918 L23.129398,-161.33652 L23.25934,-162.3808 L23.38928,-161.78261 L23.51922,-161.24527 L23.64916,-161.33652 L23.7791,-161.83331 L23.909042,-162.17802 L24.038982,-163.07022 L24.168922,-163.51633 L24.298862,-163.51633 L24.428804,-163.81035 L24.558744,-165.14865 L24.688684,-167.48055 L24.818624,-168.32205 L24.948565,-170.147 L25.078506,-167.18652 L25.208447,-159.7042 L25.338387,-160.0996 L25.468327,-162.7762 L25.598267,-165.84822 L25.728209,-166.24362 L25.858149,-166.24362 L25.988089,-164.40852 L26.118029,-164.85463 L26.24797,-165.93947 L26.37791,-162.7762 L26.50785,-161.58998 L26.63779,-158.86269 L26.76773,-158.51796 L26.897673,-163.96243 L27.027613,-168.9101 L27.157553,-166.93306 L27.287493,-166.93306 L27.417433,-165.30074 L27.547375,-164.90532 L27.677315,-164.95601 L27.807255,-163.96243 L27.937195,-162.96884 L28.067137,-161.53929 L28.197077,-161.83331 L28.327017,-161.9347 L28.456957,-161.78261 L28.586897,-161.4379 L28.716839,-161.4379 L28.846779,-161.4379 L28.976719,-160.25168 L29.106659,-161.33652 L29.236599,-160.40376 L29.36654,-160.0489 L29.49648,-160.5457 L29.626421,-164.75325 L29.756361,-171.03922 L29.886303,-172.37752 L30.016243,-168.81885 L30.146183,-168.81885 L30.276123,-166.78098 L30.406063,-163.51633 L30.536005,-164.70255 L30.665945,-161.48859 L30.795885,-164.70255 L30.925825,-166.33487 L31.055767,-167.77457 L31.185707,-166.74042 L31.315647,-163.56702 L31.445587,-160.83972 L31.575527,-160.9411 L31.70547,-160.9411 L31.83541,-160.0489 L31.96535,-160.83972 L32.09529,-161.33652 L32.22523,-162.92828 L32.35517,-163.07022 L32.48511,-162.53288 L32.61505,-161.64067 L32.74499,-161.58998 L32.87493,-161.3872 L33.00487,-161.3872 L33.13481,-161.53929 L33.264755,-161.58998 L33.394695,-161.58998 L33.524635,-162.17802 L33.654575,-163.01953 L33.784515,-164.1145 L33.914455,-163.96243 L34.044395,-162.8269 L34.174335,-162.03609 L34.304276,-160.69778 L34.43422,-160.69778 L34.56416,-162.96884 L34.6941,-163.37439 L34.82404,-164.6113 L34.95398,-166.48695 L35.08392,-166.83167 L35.21386,-167.03444 L35.3438,-165.4528 L35.47374,-163.17162 L35.603683,-158.81198 L35.733624,-159.35948 L35.863564,-159.35948 L35.993504,-162.03609 L36.123444,-164.30714 L36.253384,-164.85463 L36.383324,-164.6113 L36.513264,-164.80394 L36.643204,-164.85463 L36.773144,-165.89891 L36.903088,-168.27136 L37.033028,-169.16356 L37.162968,-167.32846 L37.292908,-167.32846 L37.422848,-162.33011 L37.552788,-161.884 L37.682728,-162.8269 L37.812668,-163.76979 L37.942608,-163.17162 L38.07255,-163.51633 L38.20249,-163.96243 L38.33243,-163.6177 L38.46237,-163.66841 L38.59231,-163.66841 L38.72225,-163.37439 L38.852192,-164.50992 L38.982132,-164.25645 L39.112072,-163.86104 L39.242016,-164.2159 L39.371956,-164.75325 L39.501896,-164.1652 L39.631836,-164.1652 L39.761776,-164.50992 L39.891716,-164.40852 L40.021656,-163.76979 L40.151596,-163.76979 L40.281536,-162.72551 L40.41148,-162.8269 L40.54142,-162.7762 L40.67136,-163.17162 L40.8013,-163.81035 L40.93124,-163.32368 L41.06118,-162.96884 L41.19112,-162.17802 L41.32106,-163.07022 L41.451,-163.07022 L41.58094,-164.06381 L41.710884,-163.01953 L41.840824,-163.76979 L41.970764,-164.50992 L42.100704,-164.35783 L42.230644,-163.37439 L42.360584,-163.81035 L42.490524,-166.83167 L42.620464,-165.93947 L42.750404,-164.85463 L42.88035,-164.85463 L43.01029,-166.19293 L43.14023,-168.46399 L43.27017,-167.03444 L43.40011,-164.35783 L43.53005,-163.76979 L43.65999,-163.01953 L43.78993,-163.2223 L43.91987,-160.35306 L44.049812,-160.40376 L44.179752,-158.07187 L44.309692,-158.07187 L44.439632,-160.49501 L44.569572,-162.8776 L44.699512,-159.6535 L44.829453,-160.83972 L44.959393,-159.85626 L45.089333,-160.20099 L45.219273,-160.30237 L45.349216,-160.69778 L45.479156,-165.35143 L45.609097,-164.2159 L45.739037,-164.2159 L45.868977,-161.28583 L45.998917,-160.25168 L46.128857,-161.98538 L46.258797,-163.91173 L46.388737,-166.04085 L46.51868,-169.21425 L46.64862,-169.50827 L46.77856,-170.6438 L46.9085,-169.21425 L47.03844,-169.21425 L47.16838,-166.14224 L47.29832,-163.17162 L47.42826,-165.35143 L47.5582,-166.29433 L47.688145,-166.33487 L47.818085,-166.53764 L47.948025,-164.40852 L48.077965,-161.9347 L48.207905,-158.56866 L48.337845,-158.41658 L48.467785,-160.79916 L48.597725,-160.79916 L48.727665,-162.53288 L48.85761,-162.57343 L48.98755,-163.76979 L49.11749,-161.64067 L49.24743,-159.90697 L49.37737,-160.5457 L49.50731,-164.35783 L49.63725,-164.25645 L49.76719,-162.3808 L49.89713,-160.9918 L50.02707,-160.9918 L50.157013,-159.41017 L50.286953,-160.64708 L50.416893,-163.07022 L50.546833,-161.4379 L50.676773,-161.28583 L50.806713,-161.48859 L50.936653,-163.07022 L51.066593,-162.53288 L51.196533,-161.24527 L51.326477,-161.33652 L51.456417,-161.33652 L51.586357,-163.46564 L51.716297,-164.2159 L51.846237,-166.78098 L51.976177,-169.80229 L52.106117,-168.81885 L52.236057,-167.18652 L52.365997,-164.70255 L52.49594,-162.8776 L52.62588,-161.48859 L52.75582,-162.57343 L52.88576,-164.85463 L53.0157,-165.40211 L53.14564,-165.0574 L53.27558,-165.0574 L53.40552,-163.17162 L53.53546,-166.14224 L53.6654,-164.80394 L53.795345,-164.01312 L53.925285,-163.76979 L54.055225,-166.78098 L54.185165,-165.00671 L54.315105,-161.78261 L54.445045,-161.78261 L54.574986,-158.72073 L54.704926,-158.12256 L54.834866,-157.12897 L54.96481,-160.40376 L55.09475,-162.92828 L55.22469,-159.95766 L55.35463,-160.49501 L55.48457,-162.08678 L55.61451,-162.03609 L55.74445,-162.03609 L55.87439,-163.32368 L56.00433,-170.6945 L56.134274,-169.853 L56.264214,-167.87595 L56.394154,-163.81035 L56.524094,-159.80557 L56.654034,-157.67645 L56.783974,-159.6028 L56.913914,-162.92828 L57.043854,-167.42986 L57.173794,-167.42986 L57.303738,-169.60966 L57.433678,-168.56538 L57.563618,-165.14865 L57.693558,-164.65186 L57.823498,-163.32368 L57.953438,-162.62413 L58.083378,-163.76979 L58.213318,-164.40852 L58.343258,-163.76979 L58.473198,-164.1652 L58.60314,-163.91173 L58.73308,-163.91173 L58.86302,-163.12093 L58.99296,-163.6177 L59.122902,-163.07022 L59.252842,-163.51633 L59.382782,-163.51633 L59.512722,-164.2159 L59.642662,-163.32368 L59.772606,-163.01953 L59.902546,-164.06381 L60.032486,-164.6113 L60.162426,-164.6113 L60.292366,-165.19934 L60.422306,-164.56061 L60.552246,-164.30714 L60.682186,-163.7191 L60.812126,-163.51633 L60.94207,-162.8269 L61.07201,-163.01953 L61.20195,-163.37439 L61.33189,-164.25645 L61.46183,-163.76979 L61.59177,-163.76979 L61.72171,-163.81035 L61.85165,-164.30714 L61.98159,-164.50992 L62.111534,-164.85463 L62.241474,-164.75325 L62.371414,-166.09155 L62.501354,-167.08513 L62.631294,-167.13583 L62.761234,-167.13583 L62.891174,-165.00671 L63.021114,-165.00671 L63.151054,-164.30714 L63.280994,-161.3872 L63.41094,-160.69778 L63.54088,-159.56226 L63.67082,-160.79916 L63.80076,-163.76979 L63.9307,-163.6177 L64.06064,-159.99821 L64.19058,-158.17325 L64.32052,-161.48859 L64.45046,-161.48859 L64.5804,-160.89041 L64.71034,-161.24527 L64.84028,-162.96884 L64.97022,-163.66841 L65.10016,-163.273 L65.2301,-165.40211 L65.36005,-164.25645 L65.48998,-164.01312 L65.61993,-163.12093 L65.74986,-163.12093 L65.87981,-164.01312 L66.00974,-164.56061 L66.13969,-164.06381 L66.26962,-165.89891 L66.39957,-168.02803 L66.52951,-167.48055 L66.65945,-165.35143 L66.78939,-164.01312 L66.91933,-163.91173 L67.04927,-162.8776 L67.17921,-163.41493 L67.30915,-163.41493 L67.43909,-165.0574 L67.56903,-165.59476 L67.698975,-164.70255 L67.82891,-165.19934 L67.958855,-164.1145 L68.08879,-162.8269 L68.218735,-162.92828 L68.34867,-162.92828 L68.478615,-162.92828 L68.60855,-162.92828 L68.738495,-162.7762 L68.86844,-160.5457 L68.998375,-161.14388 L69.12832,-161.98538 L69.258255,-163.51633 L69.3882,-162.3808 L69.518135,-161.0425 L69.64808,-161.19458 L69.778015,-162.96884 L69.90796,-162.67482 L70.0379,-162.67482 L70.16784,-163.12093 L70.29778,-162.03609 L70.42772,-161.48859 L70.55766,-162.7762 L70.6876,-161.78261 L70.81754,-163.01953 L70.94748,-163.7191 L71.07742,-163.51633 L71.20737,-163.01953 L71.3373,-163.32368 L71.46725,-163.32368 L71.59718,-162.7762 L71.72713,-162.72551 L71.85706,-161.3872 L71.98701,-161.98538 L72.11694,-164.35783 L72.24689,-165.25003 L72.37683,-166.88235 L72.50677,-168.71745 L72.63671,-167.27777 L72.76665,-168.06859 L72.89659,-168.06859 L73.02653,-163.41493 L73.15647,-161.69136 L73.28641,-161.73192 L73.41635,-161.09319 L73.54629,-163.81035 L73.67623,-163.66841 L73.806175,-165.00671 L73.93611,-165.89891 L74.066055,-163.81035 L74.19599,-165.00671 L74.325935,-165.00671 L74.45587,-164.95601 L74.585815,-163.76979 L74.71575,-162.8776 L74.845695,-162.53288 L74.97564,-160.9918 L75.105576,-161.09319 L75.23552,-162.48218 L75.365456,-164.6113 L75.4954,-163.41493 L75.625336,-162.8776 L75.75528,-162.53288 L75.885216,-162.53288 L76.01516,-163.01953 L76.1451,-162.33011 L76.27504,-163.07022 L76.40498,-161.9347 L76.53492,-159.90697 L76.66486,-159.80557 L76.7948,-161.24527 L76.92474,-163.2223 L77.05468,-168.22066 L77.18462,-167.87595 L77.31457,-167.87595 L77.4445,-163.51633 L77.57445,-160.69778 L77.704384,-158.96407 L77.83433,-159.85626 L77.964264,-161.78261 L78.09421,-164.40852 L78.224144,-165.64545 L78.35409,-166.38557 L78.48403,-166.38557 L78.61397,-168.56538 L78.74391,-168.86954 L78.87385,-169.21425 L79.00379,-164.50992 L79.13373,-161.98538 L79.26367,-161.64067 L79.39361,-161.9347 L79.52355,-161.83331 L79.653496,-163.2223 L79.78343,-164.25645 L79.913376,-164.25645 L80.04331,-164.50992 L80.173256,-164.1145 L80.30319,-164.25645 L80.433136,-163.46564 L80.56307,-163.76979 L80.693016,-164.40852 L80.82296,-164.56061 L80.952896,-164.1145 L81.08284,-164.30714 L81.212776,-163.81035 L81.34272,-163.81035 L81.47266,-163.76979 L81.6026,-163.86104 L81.73254,-164.80394 L81.86248,-163.7191 L81.99242,-163.2223 L82.12236,-162.72551 L82.252304,-162.7762 L82.38224,-162.22871 L82.512184,-163.41493 L82.64212,-164.2159 L82.772064,-164.2159 L82.902,-164.06381 L83.031944,-163.32368 L83.16188,-163.46564 L83.291824,-163.56702 L83.42177,-164.30714 L83.551704,-163.37439 L83.68165,-163.41493 L83.811584,-162.96884 L83.94153,-162.33011 L84.071465,-162.33011 L84.20141,-162.57343 L84.331345,-163.46564 L84.46129,-164.1652 L84.59123,-166.14224 L84.72117,-165.54405 L84.85111,-166.09155 L84.98105,-166.98375 L85.11099,-165.54405 L85.24093,-164.01312 L85.37087,-163.91173 L85.50081,-164.2159 L85.63075,-164.2159 L85.7607,-165.0574 L85.89063,-162.72551 L86.02058,-163.51633 L86.15051,-163.32368 L86.28046,-163.07022 L86.41039,-162.2794 L86.54034,-161.48859 L86.67027,-161.33652 L86.80022,-159.80557 L86.93016,-160.20099 L87.0601,-158.46727 L87.19004,-158.46727 L87.31998,-159.01476 L87.44992,-159.35948 L87.57986,-160.0996 L87.7098,-160.25168 L87.83974,-160.5457 L87.96968,-160.4443 L88.099625,-161.3872 L88.22956,-162.72551 L88.359505,-162.72551 L88.48944,-164.70255 L88.619385,-166.68973 L88.74932,-168.86954 L88.879265,-169.26495 L89.0092,-169.21425 L89.139145,-165.40211 L89.26909,-163.12093 L89.399025,-162.17802 L89.52897,-166.48695 L89.658905,-168.37274 L89.78885,-165.14865 L89.918785,-164.25645 L90.04873,-164.25645 L90.178665,-161.48859 L90.30861,-159.25809 L90.438545,-159.46086 L90.56849,-161.24527 L90.69843,-163.2223 L90.82837,-163.2223 L90.95831,-163.7191 L91.08825,-164.1145 L91.21819,-162.57343 L91.34813,-162.57343 L91.47807,-163.07022 L91.60801,-166.33487 L91.73795,-165.59476 L91.8679,-164.56061 L91.99783,-162.8269 L92.12778,-162.96884 L92.25771,-161.884 L92.38766,-163.41493 L92.51759,-162.7762 L92.64754,-162.7762 L92.77747,-161.78261 L92.90742,-161.14388 L93.03736,-159.46086 L93.1673,-160.20099 L93.29724,-161.64067 L93.42718,-161.48859 L93.55712,-161.73192 L93.68706,-162.08678 L93.817,-160.69778 L93.94694,-160.49501 L94.07688,-160.49501 L94.206825,-161.53929 L94.33676,-163.56702 L94.466705,-165.59476 L94.59664,-168.46399 L94.726585,-169.71104 L94.85652,-168.37274 L94.986465,-164.50992 L95.1164,-163.86104 L95.246346,-162.72551 L95.37629,-162.96884 L95.506226,-162.96884 L95.63617,-164.1145 L95.766106,-164.35783 L95.89605,-162.12733 L96.025986,-162.2794 L96.15593,-163.51633 L96.285866,-163.81035 L96.41581,-166.24362 L96.54575,-164.70255 L96.67569,-163.81035 L96.80563,-164.56061 L96.93557,-164.56061 L97.06551,-164.95601 L97.19545,-162.2794 L97.32539,-163.01953 L97.45533,-162.03609 L97.58527,-160.30237 L97.71522,-160.69778 L97.84515,-160.30237 L97.9751,-163.6177 L98.105034,-164.30714 L98.23498,-163.81035 L98.364914,-163.81035 L98.49486,-164.56061 L98.624794,-165.40211 L98.75474,-163.91173 L98.884674,-161.4379 L99.01462,-162.22871 L99.14456,-163.2223 L99.2745,-163.51633 L99.40444,-161.73192 L99.53438,-161.3872 L99.66432,-160.40376 L99.79426,-160.30237 L99.9242,-160.30237 L100.05414,-161.0425 L100.18408,-161.78261 L100.314026,-165.4528 L100.44396,-168.16997 L100.573906,-168.9101 L100.70384,-167.13583 L100.833786,-163.66841 L100.96372,-159.95766 L101.093666,-159.15671 L101.2236,-159.15671 L101.353546,-164.06381 L101.48349,-164.30714 L101.61343,-164.70255 L101.74337,-163.01953 L101.87331,-163.12093 L102.00325,-164.01312 L102.13319,-165.35143 L102.26313,-167.87595 L102.39307,-168.81885 L102.52301,-167.87595 L102.652954,-167.87595 L102.78289,-166.24362 L102.912834,-163.51633 L103.04277,-162.12733 L103.172714,-162.22871 L103.30265,-161.58998 L103.432594,-161.64067 L103.56253,-162.3808 L103.692474,-162.92828 L103.82242,-163.56702 L103.952354,-164.35783 L104.0823,-164.50992 L104.212234,-164.50992 L104.34218,-164.01312 L104.472115,-164.06381 L104.60206,-164.06381 L104.731995,-163.56702 L104.86194,-163.81035 L104.99188,-164.01312 L105.12182,-163.96243 L105.25176,-164.01312 L105.3817,-164.2159 L105.51164,-164.65186 L105.64158,-164.65186 L105.77152,-165.0574 L105.90146,-165.25003 L106.0314,-165.40211 L106.16135,-165.49336 L106.29128,-164.90532 L106.42123,-163.91173 L106.55116,-164.2159 L106.68111,-164.90532 L106.81104,-164.75325 L106.94099,-165.30074 L107.07092,-165.89891 L107.20087,-165.89891 L107.3308,-165.19934 L107.46075,-165.54405 L107.59069,-165.84822 L107.72063,-166.53764 L107.85057,-166.14224 L107.98051,-166.63904 L108.11045,-165.54405 L108.24039,-165.64545 L108.37033,-166.53764 L108.50027,-166.53764 L108.63021,-166.24362 L108.760155,-165.79753 L108.89009,-164.56061 L109.020035,-164.70255 L109.14997,-165.09796 L109.279915,-165.79753 L109.40985,-165.64545 L109.539795,-164.65186 L109.66973,-164.45923 L109.799675,-163.6177 L109.92962,-163.17162 L110.059555,-163.17162 L110.1895,-162.2794 L110.319435,-161.78261 L110.44938,-161.78261 L110.579315,-160.0996 L110.70926,-159.11615 L110.839195,-158.91338 L110.96914,-158.27464 L111.09908,-158.27464 L111.22902,-158.72073 L111.35896,-158.61935 L111.4889,-157.52438 L111.61884,-159.6535 L111.74878,-158.02118 L111.87872,-157.12897 L112.00866,-156.14552 L112.1386,-156.23677 L112.26855,-156.28746 L112.39848,-156.14552 L112.52843,-156.14552 L112.65836,-155.69942 L112.78831,-154.0671 L112.91824,-154.75652 L113.04819,-155.39526 L113.17812,-154.80722 L113.30807,-152.62741 L113.43801,-152.07991 L113.56795,-152.42464 L113.69789,-152.5767 L113.82783,-152.62741 L113.95777,-152.62741 L114.08771,-149.31206 L114.21765,-150.3462 L114.34759,-150.3969 L114.47753,-148.71388 L114.607475,-147.97375 L114.73741,-146.73685 L114.867355,-145.34784 L114.99729,-146.88892 L115.127235,-149.15999 L115.25717,-149.15999 L115.387115,-143.16803 L115.51705,-145.10452 L115.646996,-144.16162 L115.77693,-144.3644 L115.906876,-141.82973 L116.03682,-141.34308 L116.166756,-139.3052 L116.2967,-140.2988 L116.426636,-140.2481 L116.55658,-140.00478 L116.686516,-140.00478 L116.81646,-137.67288 L116.946396,-135.49307 L117.07634,-136.63873 L117.20628,-137.32817 L117.33622,-137.22678 L117.46616,-136.19263 L117.5961,-132.03578 L117.72604,-132.72522 L117.85598,-134.65157 L117.98592,-133.81004 L118.11586,-133.81004 L118.245804,-132.4312 L118.37575,-132.17772 L118.505684,-131.64038 L118.63563,-132.27911 L118.765564,-132.67451 L118.89551,-133.01923 L119.025444,-132.62383 L119.15539,-132.22842 L119.285324,-132.57314 L119.41527,-133.06993 L119.54521,-133.06993 L119.67515,-133.61742 L119.80509,-133.2727 L119.93503,-132.72522 L120.06497,-133.7695 L120.19491,-133.7695 L120.32485,-134.50961 L120.45479,-134.40823 L120.58473,-135.79723 L120.714676,-135.98987 L120.84461,-136.43596 L120.974556,-136.43596 L121.10449,-136.43596 L121.234436,-136.63873 L121.36437,-137.18622 L121.494316,-138.90979 L121.62425,-138.81854 L121.754196,-138.61577 L121.88414,-139.3559 L122.01408,-140.34949 L122.14402,-140.50157 L122.27396,-141.08961 L122.4039,-142.63069 L122.53384,-142.63069 L122.66378,-143.26942 L122.79372,-143.07678 L122.92366,-144.3137 L123.053604,-144.16162 L123.18354,-145.89534 L123.313484,-145.89534 L123.44342,-147.28433 L123.573364,-147.13225 L123.7033,-148.36917 L123.833244,-148.36917 L123.96318,-148.81526 L124.093124,-150.3969 L124.22307,-150.44759 L124.353004,-150.29552 L124.48295,-151.68451 L124.612885,-153.46892 L124.74283,-154.10765 L124.872765,-153.12419 L125.00271,-153.96571 L125.132645,-155.05054 L125.26259,-155.05054 L125.392525,-156.04413 L125.52247,-155.99344 L125.65241,-155.64873 L125.78235,-157.23036 L125.91229,-157.72716 L126.04223,-158.46727 L126.17217,-158.86269 L126.30211,-158.07187 L126.43205,-158.81198 L126.56199,-159.11615 L126.69193,-159.11615 L126.82188,-160.59639 L126.95181,-160.9411 L127.08176,-160.49501 L127.21169,-159.90697 L127.34164,-160.69778 L127.47157,-161.48859 L127.60152,-162.7762 L127.73145,-163.07022 L127.8614,-163.7191 L127.99134,-163.32368 L128.12128,-164.01312 L128.25122,-163.91173 L128.38116,-164.95601 L128.5111,-164.95601 L128.64104,-164.70255 L128.77098,-164.56061 L128.90092,-163.07022 L129.03085,-161.4379 L129.1608,-162.03609 L129.29074,-161.64067 L129.42068,-161.9347 L129.55063,-161.9347 L129.68056,-164.85463 L129.8105,-165.89891 L129.94044,-165.79753 L130.07039,-166.88235 L130.20032,-165.74683 L130.33026,-165.79753 L130.4602,-165.64545 L130.59015,-164.85463 L130.7201,-163.273 L130.85002,-164.95601 L130.97997,-164.95601 L131.10991,-165.30074 L131.23985,-165.19934 L131.36978,-165.30074 L131.49973,-165.35143 L131.62967,-164.45923 L131.75961,-167.53123 L131.88956,-167.72388 L132.01949,-166.43626 L132.14943,-167.13583 L132.27937,-167.13583 L132.40932,-165.64545 L132.53925,-162.96884 L132.66919,-162.7762 L132.79913,-163.91173 L132.92908,-163.7191 L133.05902,-164.40852 L133.18895,-164.1145 L133.3189,-163.2223 L133.44884,-163.2223 L133.57878,-164.56061 L133.70871,-164.30714 L133.83865,-163.56702 L133.9686,-163.66841 L134.09854,-163.66841 L134.22849,-163.7191 L134.35841,-163.6177 L134.48836,-164.80394 L134.6183,-163.6177 L134.74825,-162.22871 L134.87817,-162.22871 L135.00812,-162.72551 L135.13806,-162.72551 L135.268,-163.76979 L135.39795,-163.46564 L135.52788,-163.56702 L135.65782,-163.6177 L135.78777,-163.32368 L135.91771,-164.1145 L136.04764,-163.56702 L136.17758,-163.12093 L136.30753,-163.12093 L136.43747,-162.8776 L136.56741,-161.98538 L136.69734,-161.73192 L136.82729,-161.24527 L136.95723,-161.33652 L137.08717,-161.48859 L137.2171,-161.78261 L137.34705,-162.57343 L137.47699,-163.46564 L137.60693,-163.81035 L137.73688,-163.81035 L137.8668,-163.12093 L137.99675,-162.2794 L138.1267,-160.5457 L138.25664,-159.80557 L138.38657,-160.9918 L138.51651,-161.73192 L138.64645,-160.79916 L138.7764,-159.25809 L138.90634,-160.49501 L139.03627,-160.49501 L139.16621,-160.0996 L139.29616,-160.15028 L139.4261,-160.79916 L139.55603,-160.64708 L139.68597,-160.79916 L139.81592,-163.66841 L139.94586,-163.32368 L140.0758,-162.33011 L140.20573,-161.58998 L140.33568,-160.9918 L140.46562,-159.51155 L140.59557,-159.51155 L140.7255,-158.02118 L140.85544,-159.90697 L140.98538,-158.91338 L141.11533,-157.43314 L141.24527,-158.41658 L141.3752,-158.36589 L141.50514,-157.03772 L141.63509,-157.12897 L141.76503,-157.67645 L141.89496,-154.36111 L142.0249,-154.36111 L142.15485,-154.36111 L142.28479,-155.05054 L142.41473,-154.85791 L142.54466,-156.23677 L142.6746,-154.50305 L142.80455,-154.99985 L142.9345,-150.74161 L143.06442,-153.66154 L143.19437,-152.42464 L143.32431,-155.39526 L143.45425,-155.39526 L143.5842,-156.09483 L143.71413,-157.07828 L143.84407,-156.28746 L143.97401,-155.20262 L144.10396,-154.0671 L144.23389,-154.55376 L144.36383,-155.84135 L144.49377,-154.94916 L144.62372,-154.0671 L144.75366,-153.5703 L144.88359,-153.5196 L145.01353,-153.5196 L145.14348,-152.42464 L145.27342,-151.58311 L145.40335,-151.93797 L145.5333,-150.15356 L145.66324,-150.65036 L145.79318,-151.3398 L145.92311,-154.0671 L146.05305,-153.41821 L146.183,-153.41821 L146.31294,-152.1813 L146.44289,-153.86432 L146.57281,-153.62099 L146.70276,-152.87073 L146.8327,-151.8366 L146.96265,-151.04578 L147.09258,-151.97853 L147.22252,-152.02922 L147.35246,-152.28268 L147.4824,-150.94438 L147.61235,-150.65036 L147.74228,-150.65036 L147.87222,-151.2384 L148.00217,-153.1749 L148.13211,-151.13702 L148.26204,-150.25496 L148.39198,-150.44759 L148.52193,-151.49187 L148.65187,-151.3398 L148.78181,-150.15356 L148.91174,-150.54898 L149.04169,-151.8366 L149.17163,-152.42464 L149.30157,-152.42464 L149.4315,-153.1749 L149.56145,-151.7352 L149.69139,-153.91501 L149.82133,-154.9086 L149.95128,-155.30402 L150.0812,-153.5703 L150.21115,-154.85791 L150.3411,-155.44595 L150.47104,-154.9086 L150.60097,-154.9086 L150.73091,-155.05054 L150.86086,-154.99985 L150.9908,-155.89206 L151.12074,-156.68286 L151.25067,-156.59161 L151.38062,-156.63217 L151.51056,-155.30402 L151.6405,-154.50305 L151.77043,-156.68286 L151.90038,-156.68286 L152.03032,-155.44595 L152.16026,-155.94275 L152.2902,-156.14552 L152.42014,-154.70583 L152.55008,-155.44595 L152.68002,-156.93634 L152.80997,-156.38885 L152.9399,-156.68286 L153.06984,-157.52438 L153.19978,-158.56866 L153.32973,-158.56866 L153.45967,-159.30878 L153.5896,-158.81198 L153.71954,-157.12897 L153.84949,-158.91338 L153.97943,-159.46086 L154.10936,-158.67004 L154.2393,-158.27464 L154.36925,-159.90697 L154.49919,-159.6028 L154.62914,-160.49501 L154.75906,-160.49501 L154.889,-154.50305 L155.01895,-154.31042 L155.1489,-160.0996 L155.27882,-160.49501 L155.40877,-156.78426 L155.53871,-156.73357 L155.66866,-158.17325 L155.7986,-162.53288 L155.92853,-164.70255 L156.05847,-166.88235 L156.18842,-166.88235 L156.31836,-168.76816 L156.44829,-167.03444 L156.57823,-164.1652 L156.70818,-162.92828 L156.83812,-161.09319 L156.96806,-159.99821 L157.09799,-160.49501 L157.22794,-160.64708 L157.35788,-162.8269 L157.48782,-164.40852 L157.61775,-164.45923 L157.7477,-164.45923 L157.87764,-165.54405 L158.00758,-165.89891 L158.13753,-165.00671 L158.26746,-163.76979 L158.3974,-163.37439 L158.52734,-161.98538 L158.65729,-161.09319 L158.78722,-162.57343 L158.91716,-163.46564 L159.0471,-164.30714 L159.17705,-164.30714 L159.30699,-164.56061 L159.43692,-164.70255 L159.56686,-164.80394 L159.69681,-164.35783 L159.82675,-163.86104 L159.95668,-163.6177 L160.08662,-163.81035 L160.21657,-163.96243 L160.34651,-163.96243 L160.47646,-164.2159 L160.60638,-163.81035 L160.73633,-164.01312 L160.86627,-165.14865 L160.99622,-164.65186 L161.12614,-164.80394 L161.25609,-165.00671 L161.38603,-164.01312 L161.51598,-163.32368 L161.64592,-163.7191 L161.77585,-163.7191 L161.90579,-164.50992 L162.03574,-165.93947 L162.16568,-165.30074 L162.29561,-164.80394 L162.42555,-165.09796 L162.5555,-165.14865 L162.68544,-164.25645 L162.81538,-163.91173 L162.94531,-163.81035 L163.07526,-164.06381 L163.2052,-163.07022 L163.33514,-163.07022 L163.46507,-164.1145 L163.59502,-164.40852 L163.72496,-164.70255 L163.8549,-164.85463 L163.98483,-164.65186 L164.11478,-164.95601 L164.24472,-163.96243 L164.37466,-162.53288 L164.50461,-162.72551 L164.63454,-162.72551 L164.76448,-164.06381 L164.89442,-164.30714 L165.02437,-164.30714 L165.1543,-164.6113 L165.28424,-164.1652 L165.41418,-164.70255 L165.54413,-166.33487 L165.67407,-165.69614 L165.804,-165.25003 L165.93394,-164.75325 L166.06389,-163.86104 L166.19383,-164.1652 L166.32376,-164.1652 L166.4537,-163.66841 L166.58365,-163.2223 L166.7136,-163.81035 L166.84354,-164.35783 L166.97346,-163.86104 L167.10341,-163.66841 L167.23335,-163.66841 L167.3633,-163.51633 L167.49323,-162.62413 L167.62317,-162.33011 L167.75311,-162.33011 L167.88306,-163.46564 L168.013,-164.2159 L168.14293,-163.96243 L168.27287,-164.25645 L168.40282,-164.25645 L168.53276,-164.2159 L168.66269,-164.70255 L168.79263,-164.95601 L168.92258,-164.95601 L169.05252,-163.51633 L169.18246,-163.32368 L169.3124,-163.66841 L169.44234,-164.06381 L169.57228,-164.1652 L169.70222,-164.01312 L169.83215,-163.273 L169.9621,-164.2159 L170.09204,-163.46564 L170.22198,-163.46564 L170.35193,-163.51633 L170.48186,-164.01312 L170.6118,-163.81035 L170.74174,-163.32368 L170.87169,-163.51633 L171.00162,-163.91173 L171.13156,-164.56061 L171.2615,-164.56061 L171.39145,-164.40852 L171.5214,-163.51633 L171.65132,-163.51633 L171.78127,-163.17162 L171.91121,-162.92828 L172.04115,-164.01312 L172.17108,-163.76979 L172.30103,-164.45923 L172.43097,-164.01312 L172.56091,-164.35783 L172.69086,-163.76979 L172.82079,-163.56702 L172.95073,-163.51633 L173.08067,-164.01312 L173.21062,-164.01312 L173.34055,-164.80394 L173.47049,-165.14865 L173.60043,-163.96243 L173.73038,-163.81035 L173.86032,-163.7191 L173.99025,-163.6177 L174.1202,-164.30714 L174.25014,-164.1145 L174.38008,-164.30714 L174.51001,-164.30714 L174.63995,-164.2159 L174.7699,-164.25645 L174.89984,-164.2159 L175.02979,-164.2159 L175.15971,-163.7191 L175.28966,-163.7191 L175.4196,-164.1145 L175.54955,-164.40852 L175.67947,-164.45923 L175.80942,-164.80394 L175.93936,-164.80394 L176.0693,-164.06381 L176.19925,-164.30714 L176.32918,-163.6177 L176.45912,-163.76979 L176.58907,-163.81035 L176.71901,-164.2159 L176.84894,-164.35783 L176.97888,-164.2159 L177.10883,-164.06381 L177.23877,-163.7191 L177.36871,-163.7191 L177.49864,-164.30714 L177.62859,-163.96243 L177.75853,-164.25645 L177.88847,-164.2159 L178.0184,-164.25645 L178.14835,-163.7191 L178.27829,-163.96243 L178.40823,-164.06381 L178.53818,-164.2159 L178.6681,-163.56702 L178.79805,-163.56702 L178.928,-163.81035 L179.05794,-163.6177 L179.18787,-163.91173 L179.31781,-164.30714 L179.44775,-162.8269 L179.5777,-163.07022 L179.70764,-163.76979 L179.83757,-164.1145 L179.96751,-164.40852 L180.09746,-164.40852 L180.2274,-164.80394 L180.35733,-165.19934 L180.48727,-165.09796 L180.61722,-165.19934 L180.74716,-164.90532 L180.87709,-165.93947 L181.00703,-165.49336 L181.13698,-164.70255 L181.26692,-165.14865 L181.39687,-164.80394 L181.5268,-164.80394 L181.65674,-163.91173 L181.78668,-164.45923 L181.91663,-164.70255 L182.04655,-164.01312 L182.1765,-163.91173 L182.30644,-163.86104 L182.43639,-164.1145 L182.56633,-164.35783 L182.69626,-164.40852 L182.8262,-165.19934 L182.95615,-164.56061 L183.08609,-164.56061 L183.21602,-164.65186 L183.34596,-164.25645 L183.4759,-163.96243 L183.60585,-163.91173 L183.7358,-164.6113 L183.86572,-163.6177 L183.99567,-163.41493 L184.12561,-164.01312 L184.25555,-164.01312 L184.38548,-164.90532 L184.51543,-164.90532 L184.64537,-164.40852 L184.77531,-165.30074 L184.90526,-165.0574 L185.03519,-164.06381 L185.16513,-164.45923 L185.29507,-164.45923 L185.42502,-163.7191 L185.55495,-163.86104 L185.68489,-163.81035 L185.81483,-163.66841 L185.94478,-163.66841 L186.07472,-164.35783 L186.20465,-165.09796 L186.3346,-164.56061 L186.46454,-164.30714 L186.59448,-163.91173 L186.72441,-163.96243 L186.85435,-163.37439 L186.9843,-164.25645 L187.11424,-164.6113 L187.24419,-164.40852 L187.37411,-164.50992 L187.50406,-164.50992 L187.634,-164.06381 L187.76395,-163.86104 L187.89388,-164.01312 L188.02382,-164.1145 L188.15376,-163.66841 L188.2837,-164.65186 L188.41365,-164.30714 L188.54358,-164.95601 L188.67352,-163.41493 L188.80347,-164.30714 L188.93341,-164.30714 L189.06334,-164.2159 L189.19328,-163.91173 L189.32323,-163.12093 L189.45317,-163.81035 L189.58311,-164.75325 L189.71304,-164.75325 L189.84299,-164.25645 L189.97293,-163.81035 L190.10287,-163.66841 L190.2328,-163.7191 L190.36275,-163.7191 L190.49269,-163.81035 L190.62263,-164.50992 L190.75258,-163.86104 L190.8825,-164.01312 L191.01245,-164.01312 L191.1424,-163.86104 L191.27234,-163.51633 L191.40227,-163.7191 L191.53221,-163.56702 L191.66216,-163.76979 L191.7921,-163.76979 L191.92204,-163.2223 L192.05197,-163.51633 L192.18192,-163.32368 L192.31186,-163.46564 L192.4418,-163.7191 L192.57173,-163.66841 L192.70168,-163.76979 L192.83162,-163.46564 L192.96156,-163.273 L193.0915,-163.2223 L193.22144,-163.2223 L193.35138,-163.17162 L193.48132,-162.72551 L193.61127,-162.03609 L193.7412,-162.43149 L193.87114,-163.46564 L194.00108,-163.6177 L194.13103,-163.273 L194.26097,-163.32368 L194.3909,-163.66841 L194.52084,-163.66841 L194.65079,-163.81035 L194.78073,-163.32368 L194.91066,-163.12093 L195.0406,-162.8776 L195.17055,-162.8269 L195.30049,-162.72551 L195.43044,-163.32368 L195.56036,-163.32368 L195.6903,-163.07022 L195.82025,-162.3808 L195.9502,-163.12093 L196.08012,-163.12093 L196.21007,-163.07022 L196.34001,-163.07022 L196.46996,-162.43149 L196.5999,-163.32368 L196.72983,-163.32368 L196.85977,-163.56702 L196.98972,-163.41493 L197.11966,-163.12093 L197.24959,-162.7762 L197.37953,-163.37439 L197.50948,-163.37439 L197.63942,-163.12093 L197.76935,-163.01953 L197.89929,-163.46564 L198.02924,-162.92828 L198.15918,-162.8776 L198.28912,-162.7762 L198.41905,-163.56702 L198.549,-163.56702 L198.67894,-163.76979 L198.80888,-163.76979 L198.93881,-163.17162 L199.06876,-163.273 L199.1987,-162.8776 L199.32864,-163.12093 L199.45859,-162.67482 L199.58852,-163.86104 L199.71846,-163.6177 L199.8484,-163.07022 L199.97835,-162.62413 L200.10828,-162.67482 L200.23822,-162.67482 L200.36816,-162.92828 L200.49811,-162.67482 L200.62805,-162.2794 L200.75798,-162.96884 L200.88792,-163.01953 L201.01787,-163.273 L201.14781,-163.32368 L201.27774,-162.96884 L201.40768,-163.2223 L201.53763,-163.7191 L201.66757,-163.7191 L201.79752,-164.80394 L201.92744,-163.7191 L202.05739,-163.66841 L202.18733,-163.12093 L202.31728,-163.2223 L202.4472,-163.12093 L202.57715,-163.2223 L202.70709,-162.57343 L202.83704,-163.273 L202.96698,-163.273 L203.09691,-164.1652 L203.22685,-164.90532 L203.3568,-163.81035 L203.48674,-164.40852 L203.61667,-164.50992 L203.74661,-162.62413 L203.87656,-163.7191 L204.0065,-163.41493 L204.13644,-163.2223 L204.26637,-163.76979 L204.39632,-164.50992 L204.52626,-164.50992 L204.6562,-163.76979 L204.78613,-163.86104 L204.91608,-164.1145 L205.04602,-164.01312 L205.17596,-164.06381 L205.30591,-163.96243 L205.43584,-164.06381 L205.56578,-164.35783 L205.69572,-164.2159 L205.82567,-163.81035 L205.9556,-163.81035 L206.08554,-164.75325 L206.21548,-164.56061 L206.34543,-163.86104 L206.47537,-164.30714 L206.6053,-165.4528 L206.73524,-164.95601 L206.86519,-164.40852 L206.99513,-164.6113 L207.12506,-163.46564 L207.255,-162.72551 L207.38495,-162.72551 L207.5149,-163.273 L207.64484,-164.85463 L207.77477,-162.92828 L207.90471,-163.96243 L208.03465,-163.56702 L208.1646,-164.25645 L208.29453,-163.91173 L208.42447,-163.7191 L208.55441,-164.06381 L208.68436,-163.86104 L208.8143,-163.86104 L208.94423,-163.7191 L209.07417,-164.75325 L209.20412,-164.56061 L209.33406,-165.00671 L209.46399,-165.84822 L209.59393,-164.95601 L209.72388,-165.0574 L209.85382,-163.86104 L209.98376,-163.46564 L210.1137,-163.2223 L210.24364,-163.2223 L210.37358,-164.2159 L210.50352,-163.86104 L210.63345,-164.56061 L210.7634,-163.56702 L210.89334,-163.91173 L211.02328,-163.51633 L211.15323,-163.56702 L211.28316,-163.46564 L211.4131,-163.17162 L211.54305,-162.96884 L211.67299,-162.96884 L211.80292,-164.06381 L211.93286,-164.01312 L212.0628,-164.40852 L212.19275,-164.2159 L212.3227,-164.2159 L212.45262,-164.40852 L212.58257,-164.25645 L212.71251,-164.70255 L212.84245,-164.65186 L212.97238,-164.80394 L213.10233,-164.50992 L213.23227,-164.50992 L213.36221,-164.2159 L213.49216,-164.06381 L213.62209,-164.1652 L213.75203,-164.06381 L213.88197,-164.25645 L214.01192,-164.06381 L214.14185,-163.76979 L214.27179,-163.86104 L214.40173,-164.01312 L214.53168,-164.01312 L214.6616,-163.6177 L214.79155,-164.06381 L214.9215,-163.86104 L215.05144,-164.1145 L215.18138,-163.76979 L215.31131,-164.06381 L215.44125,-164.50992 L215.5712,-164.65186 L215.70114,-164.45923 L215.83107,-164.45923 L215.96101,-164.45923 L216.09096,-164.65186 L216.2209,-163.66841 L216.35085,-164.30714 L216.48077,-164.30714 L216.61072,-163.86104 L216.74066,-164.2159 L216.8706,-163.76979 L217.00053,-163.96243 L217.13048,-163.96243 L217.26042,-163.76979 L217.39037,-163.86104 L217.52031,-164.2159 L217.65024,-164.40852 L217.78018,-164.56061 L217.91013,-164.6113 L218.04007,-164.25645 L218.17,-164.25645 L218.29994,-163.7191 L218.42989,-163.76979 L218.55983,-163.76979 L218.68977,-163.91173 L218.8197,-164.1145 L218.94965,-163.96243 L219.07959,-164.06381 L219.20953,-164.50992 L219.33946,-164.25645 L219.4694,-164.2159 L219.59935,-164.1652 L219.7293,-164.30714 L219.85924,-164.35783 L219.98917,-164.35783 L220.11911,-164.45923 L220.24905,-163.96243 L220.379,-163.91173 L220.50893,-163.81035 L220.63887,-163.91173 L220.76881,-164.2159 L220.89876,-164.1652 L221.0287,-164.2159 L221.15863,-164.2159 L221.28857,-163.96243 L221.41852,-163.96243 L221.54846,-164.1145 L221.67839,-164.2159 L221.80833,-164.01312 L221.93828,-164.1145 L222.06822,-164.1652 L222.19817,-164.01312 L222.3281,-163.46564 L222.45804,-164.2159 L222.58798,-163.96243 L222.71793,-164.1145 L222.84785,-164.1145 L222.9778,-164.1145 L223.10774,-164.01312 L223.23769,-164.2159 L223.36763,-164.06381 L223.49756,-164.06381 L223.6275,-163.91173 L223.75745,-164.1145 L223.88739,-164.25645 L224.01732,-163.86104 L224.14726,-164.25645 L224.2772,-164.25645 L224.40715,-164.1652 L224.5371,-163.91173 L224.66702,-164.35783 L224.79697,-164.25645 L224.92691,-164.50992 L225.05685,-164.2159 L225.18678,-163.86104 L225.31673,-164.2159 L225.44667,-164.06381 L225.57661,-164.25645 L225.70656,-164.25645 L225.83649,-164.06381 L225.96643,-164.1145 L226.09637,-164.25645 L226.22632,-163.96243 L226.35625,-163.81035 L226.48619,-164.06381 L226.61613,-164.06381 L226.74608,-164.01312 L226.87602,-163.96243 L227.00595,-164.06381 L227.1359,-164.06381 L227.26584,-163.91173 L227.39578,-164.2159 L227.52571,-164.01312 L227.65565,-164.25645 L227.7856,-164.35783 L227.91554,-164.25645 L228.04549,-163.91173 L228.17542,-164.1652 L228.30536,-164.2159 L228.4353,-163.66841 L228.56525,-163.66841 L228.69518,-164.70255 L228.82512,-164.50992 L228.95506,-164.35783 L229.085,-164.06381 L229.21495,-163.7191 L229.34488,-163.41493 L229.47482,-163.51633 L229.60477,-163.86104 L229.73471,-164.45923 L229.86464,-164.40852 L229.99458,-164.40852 L230.12453,-164.25645 L230.25447,-164.1652 L230.38441,-163.86104 L230.51434,-163.91173 L230.64429,-163.81035 L230.77423,-164.06381 L230.90417,-164.35783 L231.0341,-164.01312 L231.16405,-164.06381 L231.29399,-163.76979 L231.42393,-163.76979 L231.55386,-163.76979 L231.6838,-163.86104 L231.81375,-163.81035 L231.9437,-164.1145 L232.07364,-164.06381 L232.20357,-163.76979 L232.33351,-164.65186 L232.46346,-163.91173 L232.5934,-163.7191 L232.72333,-164.06381 L232.85327,-164.1652 L232.98322,-164.1652 L233.11316,-164.1145 L233.2431,-164.1145 L233.37303,-163.91173 L233.50298,-163.7191 L233.63292,-164.25645 L233.76286,-164.1145 L233.89279,-164.06381 L234.02274,-164.6113 L234.15268,-164.25645 L234.28262,-163.6177 L234.41257,-163.6177 L234.5425,-163.7191 L234.67244,-164.30714 L234.80238,-164.65186 L234.93233,-165.49336 L235.06226,-167.87595 L235.1922,-167.62248 L235.32214,-166.33487 L235.45209,-165.0574 L235.58203,-164.95601 L235.71196,-162.92828 L235.8419,-162.92828 L235.97185,-160.9411 L236.10179,-159.15671 L236.23172,-161.24527 L236.36166,-166.14224 L236.49161,-167.37915 L236.62155,-161.83331 L236.7515,-164.90532 L236.88142,-166.29433 L237.01137,-166.48695 L237.14131,-166.48695 L237.27126,-164.50992 L237.40118,-158.72073 L237.53113,-158.02118 L237.66107,-161.83331 L237.79102,-162.2794 L237.92096,-166.24362 L238.05089,-166.48695 L238.18083,-166.43626 L238.31078,-168.37274 L238.44072,-171.1406 L238.57065,-171.1406 L238.70059,-167.37915 L238.83054,-166.68973 L238.96048,-164.45923 L239.09042,-162.7762 L239.22035,-160.5457 L239.3503,-164.06381 L239.48024,-162.67482 L239.61018,-162.3808 L239.74011,-161.53929 L239.87006,-161.53929 L240,-162.57343 L240.12994,-163.51633 L240.25989,-162.2794 L240.38982,-161.83331 L240.51976,-162.17802 L240.6497,-160.9918 L240.77965,-160.9918 L240.90958,-160.35306 L241.03952,-162.53288 L241.16946,-160.83972 L241.29941,-161.24527 L241.42935,-161.24527 L241.55928,-160.30237 L241.68922,-162.48218 L241.81917,-163.12093 L241.94911,-161.48859 L242.07904,-160.69778 L242.20898,-157.82854 L242.33893,-159.35948 L242.46887,-170.10646 L242.59882,-172.67154 L242.72874,-169.11287 L242.85869,-169.11287 L242.98863,-165.99016 L243.11858,-159.11615 L243.2485,-157.38243 L243.37845,-164.6113 L243.50839,-170.29909 L243.63834,-172.18488 L243.76828,-171.78947 L243.89821,-169.16356 L244.02815,-167.13583 L244.1581,-164.85463 L244.28804,-164.85463 L244.41797,-163.91173 L244.54791,-165.59476 L244.67786,-169.66035 L244.8078,-168.81885 L244.93774,-160.9918 L245.06767,-158.56866 L245.19762,-160.64708 L245.32756,-160.49501 L245.4575,-165.49336 L245.58743,-166.33487 L245.71738,-166.33487 L245.84732,-160.59639 L245.97726,-164.90532 L246.10721,-170.50186 L246.23714,-174.65872 L246.36708,-172.0835 L246.49702,-165.54405 L246.62697,-159.30878 L246.7569,-161.4379 L246.88684,-160.25168 L247.01678,-158.07187 L247.14673,-158.07187 L247.27667,-161.9347 L247.4066,-160.64708 L247.53654,-160.89041 L247.66649,-159.90697 L247.79643,-158.72073 L247.92636,-154.85791 L248.0563,-155.64873 L248.18625,-160.79916 L248.3162,-162.3808 L248.44614,-164.1652 L248.57607,-164.1652 L248.70601,-160.35306 L248.83595,-157.47368 L248.9659,-154.20903 L249.09583,-157.03772 L249.22577,-171.5867 L249.35571,-183.66185 L249.48566,-179.26167 L249.61559,-173.66513 L249.74553,-166.88235 L249.87547,-164.85463 L250.00542,-164.85463 L250.13536,-165.14865 L250.26529,-168.46399 L250.39523,-167.92665 L250.52518,-168.56538 L250.65512,-164.85463 L250.78505,-164.65186 L250.915,-165.79753 L251.04494,-164.75325 L251.17488,-161.73192 L251.30482,-161.53929 L251.43475,-161.53929 L251.5647,-161.9347 L251.69464,-161.78261 L251.82458,-160.74847 L251.95451,-161.78261 L252.08446,-160.64708 L252.2144,-168.56538 L252.34435,-177.03116 L252.47429,-170.50186 L252.60422,-165.0574 L252.73416,-166.04085 L252.8641,-165.14865 L252.99405,-165.14865 L253.12398,-159.25809 L253.25392,-155.54733 L253.38387,-159.85626 L253.51381,-160.40376 L253.64375,-160.49501 L253.77368,-161.28583 L253.90363,-158.96407 L254.03357,-155.54733 L254.16351,-157.62576 L254.29344,-157.62576 L254.42339,-159.56226 L254.55333,-160.5457 L254.68327,-161.53929 L254.81322,-159.01476 L254.94315,-157.77785 L255.07309,-164.56061 L255.20303,-178.36946 L255.33298,-182.2323 L255.4629,-173.16833 L255.59285,-165.30074 L255.7228,-164.56061 L255.85274,-164.56061 L255.98268,-162.62413 L256.1126,-164.80394 L256.24255,-166.68973 L256.3725,-168.37274 L256.50244,-165.00671 L256.6324,-168.11928 L256.76233,-169.50827 L256.89227,-167.72388 L257.0222,-166.88235 L257.15213,-165.49336 L257.28207,-160.89041 L257.41202,-160.89041 L257.54196,-160.5457 L257.6719,-162.62413 L257.80185,-159.15671 L257.9318,-159.41017 L258.0617,-161.0425 L258.19165,-161.73192 L258.3216,-162.2794 L258.45154,-162.92828 L258.58148,-164.56061 L258.71143,-164.56061 L258.84137,-165.99016 L258.9713,-170.59311 L259.10126,-172.82362 L259.23117,-165.99016 L259.3611,-167.72388 L259.49106,-168.32205 L259.621,-163.76979 L259.75095,-154.65514 L259.8809,-155.69942 L260.01083,-159.35948 L260.14078,-159.35948 L260.27072,-161.28583 L260.40063,-163.46564 L260.53058,-163.2223 L260.66052,-162.62413 L260.79047,-160.40376 L260.9204,-160.35306 L261.05035,-160.25168 L261.1803,-160.15028 L261.31024,-159.90697 L261.4402,-160.83972 L261.5701,-160.83972 L261.70004,-158.76129 L261.83,-163.6177 L261.95993,-181.54286 L262.08987,-184.70613 L262.21982,-173.61443 L262.34976,-163.6177 L262.4797,-161.0425 L262.60965,-162.03609 L262.73956,-163.41493 L262.8695,-163.41493 L262.99945,-167.42986 L263.1294,-170.6438 L263.25934,-171.1406 L263.38928,-168.42343 L263.51923,-163.56702 L263.64917,-161.3872 L263.7791,-159.51155 L263.90903,-162.17802 L264.03897,-162.33011 L264.1689,-161.0425 L264.29886,-161.09319 L264.4288,-161.09319 L264.55875,-159.95766 L264.6887,-162.57343 L264.81863,-164.56061 L264.94858,-163.7191 L265.0785,-164.85463 L265.20844,-165.93947 L265.33838,-167.87595 L265.46832,-171.48532 L265.59827,-171.68808 L265.7282,-166.58833 L265.85815,-166.58833 L265.9881,-164.6113 L266.11804,-164.01312 L266.24796,-158.61935 L266.3779,-156.33815 L266.50784,-157.47368 L266.6378,-159.56226 L266.76773,-161.98538 L266.89767,-162.8776 L267.02762,-164.2159 L267.15756,-164.6113 L267.2875,-164.6113 L267.41742,-159.01476 L267.54736,-160.0489 L267.6773,-164.95601 L267.80725,-164.6113 L267.9372,-163.12093 L268.06714,-161.9347 L268.19708,-163.66841 L268.32703,-164.90532 L268.45697,-164.30714 L268.58688,-164.30714 L268.71683,-168.22066 L268.84677,-170.05576 L268.9767,-167.37915 L269.10666,-165.59476 L269.2366,-164.70255 L269.36655,-162.2794 L269.4965,-164.90532 L269.62643,-170.55255 L269.75635,-171.48532 L269.8863,-170.19771 L270.01624,-170.45117 L270.14618,-170.45117 L270.27612,-166.19293 L270.40607,-162.72551 L270.536,-166.68973 L270.66595,-166.63904 L270.7959,-165.25003 L270.9258,-161.9347 L271.05576,-162.03609 L271.1857,-162.03609 L271.31564,-161.09319 L271.4456,-161.09319 L271.57553,-160.15028 L271.70547,-160.69778 L271.83542,-161.53929 L271.96536,-162.96884 L272.09528,-167.77457 L272.22522,-167.92665 L272.35516,-172.13419 L272.4851,-174.11122 L272.61505,-166.14224 L272.745,-166.14224 L272.87494,-163.81035 L273.00488,-160.40376 L273.13483,-158.31519 L273.26474,-157.23036 L273.39468,-159.11615 L273.52463,-164.80394 L273.65457,-166.78098 L273.78452,-165.54405 L273.91446,-164.2159 L274.0444,-161.53929 L274.17435,-158.67004 L274.3043,-158.67004 L274.4342,-160.0996 L274.56415,-160.89041 L274.6941,-163.12093 L274.82404,-165.09796 L274.95398,-164.40852 L275.08392,-163.273 L275.21387,-164.65186 L275.3438,-163.7191 L275.47375,-162.48218 L275.60367,-160.9411 L275.7336,-160.9411 L275.86356,-161.14388 L275.9935,-163.12093 L276.12344,-164.2159 L276.2534,-165.09796 L276.38333,-164.25645 L276.51328,-166.14224 L276.64322,-165.14865 L276.77313,-166.98375 L276.90308,-165.40211 L277.03302,-163.17162 L277.16296,-163.17162 L277.2929,-165.64545 L277.42285,-167.72388 L277.5528,-167.97734 L277.68274,-167.42986 L277.81268,-167.27777 L277.9426,-166.38557 L278.07254,-165.54405 L278.20248,-168.81885 L278.33243,-167.67317 L278.46237,-167.58192 L278.59232,-167.58192 L278.72226,-160.83972 L278.8522,-159.15671 L278.98215,-161.78261 L279.11206,-161.09319 L279.242,-160.5457 L279.37195,-163.12093 L279.5019,-161.33652 L279.63184,-161.0425 L279.76178,-165.64545 L279.89172,-169.01147 L280.02167,-172.63098 L280.1516,-172.63098 L280.28152,-175.55092 L280.41147,-171.78947 L280.5414,-165.25003 L280.67136,-162.57343 L280.8013,-162.08678 L280.93124,-159.90697 L281.0612,-159.01476 L281.19113,-162.22871 L281.32108,-164.30714 L281.451,-164.30714 L281.58093,-165.14865 L281.71088,-163.51633 L281.84082,-160.25168 L281.97076,-158.36589 L282.1007,-157.87923 L282.23065,-159.41017 L282.3606,-159.90697 L282.49054,-160.40376 L282.62045,-161.58998 L282.7504,-162.8269 L282.88034,-162.8269 L283.01028,-163.91173 L283.14023,-162.96884 L283.27017,-163.17162 L283.40012,-163.51633 L283.53006,-160.9411 L283.66,-161.83331 L283.78992,-169.21425 L283.91986,-170.6945 L284.0498,-165.64545 L284.17975,-165.30074 L284.3097,-165.30074 L284.43964,-165.0574 L284.56958,-168.32205 L284.69952,-170.147 L284.82947,-170.59311 L284.95938,-166.24362 L285.08932,-165.00671 L285.21927,-168.61607 L285.3492,-170.55255 L285.47916,-164.90532 L285.6091,-164.70255 L285.73904,-164.70255 L285.869,-165.09796 L285.99893,-162.96884 L286.12885,-160.69778 L286.2588,-161.64067 L286.38873,-159.30878 L286.51868,-159.01476 L286.64862,-160.64708 L286.77856,-161.9347 L286.9085,-163.76979 L287.03845,-163.46564 L287.1684,-163.46564 L287.2983,-164.95601 L287.42825,-166.53764 L287.5582,-164.25645 L287.68814,-166.58833 L287.81808,-173.11765 L287.94803,-173.4218 L288.07797,-166.43626 L288.20792,-165.09796 L288.33786,-164.35783 L288.46777,-161.09319 L288.59772,-160.40376 L288.72766,-160.40376 L288.8576,-162.92828 L288.98755,-161.4379 L289.1175,-162.72551 L289.24744,-162.96884 L289.37738,-163.12093 L289.50732,-162.12733 L289.63724,-160.5457 L289.76718,-159.6028 L289.89713,-157.87923 L290.02707,-157.87923 L290.157,-157.77785 L290.28696,-158.91338 L290.4169,-160.30237 L290.54684,-162.43149 L290.6768,-160.59639 L290.8067,-158.17325 L290.93665,-159.01476 L291.0666,-165.84822 L291.19653,-172.0835 L291.32648,-177.92337 L291.45642,-177.92337 L291.58636,-175.2062 L291.7163,-165.79753 L291.84622,-163.17162 L291.97617,-163.01953 L292.1061,-164.45923 L292.23605,-167.22708 L292.366,-170.2484 L292.49594,-169.853 L292.6259,-170.89728 L292.75583,-172.5296 L292.88577,-172.5296 L293.0157,-171.5867 L293.14563,-166.24362 L293.27557,-161.24527 L293.40552,-159.41017 L293.53546,-157.47368 L293.6654,-157.43314 L293.79535,-157.87923 L293.9253,-163.12093 L294.05524,-165.19934 L294.18515,-164.70255 L294.3151,-162.8269 L294.44504,-162.8269 L294.57498,-166.04085 L294.70493,-176.24034 L294.83487,-179.16028 L294.9648,-163.81035 L295.09476,-162.8269 L295.2247,-161.58998 L295.3546,-161.0425 L295.48456,-159.06546 L295.6145,-161.28583 L295.74445,-161.28583 L295.8744,-167.22708 L296.00433,-163.2223 L296.13428,-163.81035 L296.26422,-160.35306 L296.39417,-159.46086 L296.52408,-161.4379 L296.65402,-162.96884 L296.78397,-165.25003 L296.9139,-163.46564 L297.04385,-160.0996 L297.1738,-160.0996 L297.30374,-158.72073 L297.4337,-159.15671 L297.56363,-158.96407 L297.69354,-160.89041 L297.8235,-160.4443 L297.95343,-161.73192 L298.08337,-163.76979 L298.21332,-159.75488 L298.34326,-161.14388 L298.4732,-170.34978 L298.60315,-170.34978 L298.7331,-176.78783 L298.863,-177.42657 L298.99295,-172.18488 L299.1229,-169.55898 L299.25284,-165.19934 L299.38278,-164.35783 L299.51273,-167.42986 L299.64267,-170.10646 L299.7726,-163.01953 L299.90256,-162.33011 L300.03247,-162.33011 L300.1624,-156.88564 L300.29236,-157.47368 L300.4223,-157.47368 L300.55225,-169.7516 L300.6822,-176.88922 L300.81213,-169.66035 L300.94208,-164.56061 L301.07202,-162.53288 L301.20193,-162.22871 L301.33188,-158.56866 L301.46182,-158.56866 L301.59177,-158.02118 L301.7217,-160.69778 L301.85165,-162.7762 L301.9816,-163.56702 L302.11154,-164.35783 L302.2415,-160.5457 L302.3714,-160.4443 L302.50134,-164.56061 L302.6313,-165.79753 L302.76123,-167.08513 L302.89117,-167.08513 L303.02112,-166.74042 L303.15106,-166.63904 L303.281,-167.08513 L303.41095,-165.99016 L303.54086,-166.38557 L303.6708,-166.04085 L303.80075,-164.80394 L303.9307,-161.884 L304.06064,-162.62413 L304.19058,-162.62413 L304.32053,-163.07022 L304.45047,-163.56702 L304.5804,-164.40852 L304.71033,-164.40852 L304.84027,-164.40852 L304.9702,-165.64545 L305.10016,-164.30714 L305.2301,-163.91173 L305.36005,-164.2159 L305.49,-163.41493 L305.61993,-162.8269 L305.74988,-162.8269 L305.8798,-163.37439 L306.00974,-163.273 L306.13968,-163.7191 L306.26962,-164.2159 L306.39957,-165.09796 L306.5295,-164.85463 L306.65945,-164.2159 L306.7894,-164.1145 L306.91934,-164.70255 L307.04926,-165.00671 L307.1792,-165.00671 L307.30914,-164.01312 L307.4391,-164.45923 L307.56903,-164.35783 L307.69897,-163.6177 L307.82892,-163.12093 L307.95886,-162.8269 L308.0888,-162.53288 L308.21872,-163.32368 L308.34866,-163.32368 L308.4786,-166.24362 L308.60855,-166.48695 L308.7385,-165.74683 L308.86844,-164.95601 L308.99838,-163.86104 L309.12833,-163.66841 L309.25827,-163.51633 L309.38818,-164.40852 L309.51813,-164.90532 L309.64807,-164.90532 L309.778,-164.30714 L309.90796,-164.1652 L310.0379,-163.86104 L310.16785,-163.76979 L310.2978,-163.86104 L310.42773,-164.35783 L310.55765,-165.25003 L310.6876,-164.95601 L310.81754,-164.90532 L310.94748,-164.75325 L311.07742,-164.75325 L311.20737,-164.30714 L311.3373,-164.1652 L311.46725,-163.273 L311.5972,-163.01953 L311.7271,-163.37439 L311.85706,-163.81035 L311.987,-164.01312 L312.11694,-164.35783 L312.2469,-164.25645 L312.37683,-163.32368 L312.50677,-163.32368 L312.63672,-162.96884 L312.76666,-163.6177 L312.89658,-164.75325 L313.02652,-163.273 L313.15646,-161.4379 L313.2864,-163.66841 L313.41635,-165.09796 L313.5463,-165.74683 L313.67624,-164.75325 L313.80618,-164.06381 L313.93613,-164.06381 L314.06604,-163.46564 L314.19598,-163.81035 L314.32593,-163.91173 L314.45587,-163.86104 L314.58582,-164.35783 L314.71576,-164.25645 L314.8457,-164.45923 L314.97565,-164.70255 L315.1056,-164.90532 L315.2355,-164.90532 L315.36545,-164.70255 L315.4954,-164.70255 L315.62534,-164.6113 L315.75528,-164.2159 L315.88522,-164.40852 L316.01517,-163.96243 L316.1451,-163.51633 L316.27505,-163.66841 L316.40497,-163.7191 L316.5349,-163.91173 L316.66486,-164.1145 L316.7948,-164.6113 L316.92474,-164.6113 L317.0547,-164.45923 L317.18463,-164.40852 L317.31458,-164.6113 L317.44452,-164.45923 L317.57443,-163.91173 L317.70438,-163.81035 L317.83432,-164.45923 L317.96426,-164.80394 L318.0942,-164.35783 L318.22415,-164.35783 L318.3541,-163.96243 L318.48404,-163.86104 L318.61398,-164.25645 L318.7439,-164.2159 L318.87384,-164.06381 L319.00378,-164.75325 L319.13373,-164.2159 L319.26367,-164.35783 L319.39362,-164.01312 L319.52356,-163.81035 L319.6535,-164.1145 L319.78345,-164.1145 L319.91336,-164.30714 L320.0433,-164.45923 L320.17325,-164.25645 L320.3032,-163.81035 L320.43314,-164.01312 L320.56308,-164.50992 L320.69302,-164.1652 L320.82297,-164.40852 L320.9529,-164.45923 L321.08282,-163.91173 L321.21277,-163.91173 L321.3427,-163.76979 L321.47266,-164.1652 L321.6026,-164.35783 L321.73254,-164.40852 L321.8625,-164.40852 L321.99243,-164.06381 L322.12238,-164.2159 L322.2523,-164.01312 L322.38223,-164.01312 L322.51218,-163.81035 L322.64212,-164.06381 L322.77206,-164.1145 L322.902,-164.25645 L323.03195,-164.01312 L323.1619,-164.2159 L323.29184,-164.1145 L323.42175,-163.91173 L323.5517,-164.70255 L323.68164,-164.70255 L323.81158,-164.25645 L323.94153,-164.01312 L324.07147,-164.30714 L324.20142,-163.56702 L324.33136,-163.7191 L324.4613,-164.01312 L324.59122,-164.75325 L324.72116,-164.80394 L324.8511,-164.40852 L324.98105,-164.1145 L325.111,-163.56702 L325.24094,-163.56702 L325.37088,-163.76979 L325.50082,-164.01312 L325.63077,-164.1652 L325.76068,-164.40852 L325.89063,-164.1145 L326.02057,-163.86104 L326.1505,-164.06381 L326.28046,-164.75325 L326.4104,-164.35783 L326.54034,-163.6177 L326.6703,-163.6177 L326.8002,-163.76979 L326.93015,-163.41493 L327.0601,-163.12093 L327.19003,-163.6177 L327.31998,-164.1145 L327.44992,-164.45923 L327.57986,-164.30714 L327.7098,-163.6177 L327.83975,-164.35783 L327.96967,-163.76979 L328.0996,-163.76979 L328.22955,-163.6177 L328.3595,-163.86104 L328.48944,-164.25645 L328.6194,-164.2159 L328.74933,-164.40852 L328.87927,-164.1145 L329.00922,-164.1652 L329.13913,-164.1652 L329.26907,-164.6113 L329.39902,-164.35783 L329.52896,-164.35783 L329.6589,-164.80394 L329.78885,-164.2159 L329.9188,-163.96243 L330.04874,-164.56061 L330.17868,-164.50992 L330.3086,-164.1652 L330.43854,-163.76979 L330.56848,-164.50992 L330.69843,-164.06381 L330.82837,-163.76979 L330.9583,-164.2159 L331.08826,-164.2159 L331.2182,-164.1652 L331.34814,-163.86104 L331.47806,-164.25645 L331.608,-164.40852 L331.73795,-163.56702 L331.8679,-163.81035 L331.99783,-163.91173 L332.12778,-164.56061 L332.25772,-164.35783 L332.38766,-164.35783 L332.5176,-164.35783 L332.64752,-163.96243 L332.77747,-163.76979 L332.9074,-163.76979 L333.03735,-163.96243 L333.1673,-163.7191 L333.29724,-164.1145 L333.4272,-163.91173 L333.55713,-163.66841 L333.68707,-163.96243 L333.817,-163.96243 L333.94693,-164.25645 L334.07687,-164.30714 L334.20682,-163.86104 L334.33676,-163.7191 L334.4667,-164.25645 L334.59665,-164.50992 L334.7266,-165.09796 L334.85654,-164.6113 L334.98645,-164.80394 L335.1164,-164.1652 L335.24634,-164.1652 L335.37628,-163.76979 L335.50623,-164.06381 L335.63617,-163.86104 L335.7661,-163.86104 L335.89606,-164.25645 L336.026,-163.81035 L336.1559,-164.1652 L336.28586,-164.01312 L336.4158,-164.06381 L336.54575,-164.01312 L336.6757,-164.01312 L336.80563,-164.1145 L336.93558,-163.96243 L337.06552,-164.01312 L337.19547,-163.81035 L337.32538,-163.86104 L337.45532,-163.96243 L337.58527,-164.35783 L337.7152,-164.40852 L337.84515,-164.2159 L337.9751,-163.81035 L338.10504,-163.81035 L338.235,-163.86104 L338.36493,-164.1145 L338.49484,-163.91173 L338.6248,-163.91173 L338.75473,-164.40852 L338.88467,-164.45923 L339.01462,-164.06381 L339.14456,-163.86104 L339.2745,-163.76979 L339.40445,-163.86104 L339.5344,-163.86104 L339.6643,-164.01312 L339.79425,-164.2159 L339.9242,-164.30714 L340.05414,-164.01312 L340.18408,-164.06381 L340.31403,-164.01312 L340.44397,-163.86104 L340.5739,-163.56702 L340.70386,-163.91173 L340.83377,-164.40852 L340.9637,-164.40852 L341.09366,-164.45923 L341.2236,-164.06381 L341.35355,-163.76979 L341.4835,-164.2159 L341.61343,-164.56061 L341.74338,-164.35783 L341.87332,-164.1145 L342.00323,-164.2159 L342.13318,-164.40852 L342.26312,-163.56702 L342.39307,-163.56702 L342.523,-163.96243 L342.65295,-164.01312 L342.7829,-164.30714 L342.91284,-164.1652 L343.0428,-163.6177 L343.1727,-163.91173 L343.30264,-164.1145 L343.4326,-164.06381 L343.56253,-163.96243 L343.69247,-163.76979 L343.82242,-163.76979 L343.95236,-163.96243 L344.0823,-163.66841 L344.21225,-163.96243 L344.34216,-164.25645 L344.4721,-164.2159 L344.60205,-164.06381 L344.732,-164.06381 L344.86194,-164.01312 L344.99188,-163.96243 L345.12183,-163.91173 L345.25177,-163.91173 L345.3817,-164.25645 L345.51163,-164.01312 L345.64157,-164.1145 L345.7715,-163.96243 L345.90146,-164.45923 L346.0314,-164.25645 L346.16135,-164.40852 L346.2913,-164.45923 L346.42123,-164.06381 L346.55118,-164.06381 L346.6811,-164.40852 L346.81104,-164.25645 L346.94098,-164.2159 L347.07092,-164.1652 L347.20087,-163.86104 L347.3308,-163.81035 L347.46075,-164.2159 L347.5907,-164.1145 L347.72064,-164.35783 L347.85056,-164.01312 L347.9805,-163.81035 L348.11044,-163.81035 L348.2404,-163.76979 L348.37033,-163.96243 L348.50027,-163.96243 L348.63022,-164.01312 L348.76016,-164.06381 L348.8901,-163.76979 L349.02002,-163.86104 L349.14996,-164.25645 L349.2799,-164.1652 L349.40985,-164.06381 L349.5398,-164.06381 L349.66974,-163.86104 L349.79968,-164.1145 L349.92963,-164.35783 L350.05957,-163.56702 L350.18948,-164.1652 L350.31943,-164.30714 L350.44937,-164.50992 L350.5793,-164.01312 L350.70926,-163.76979 L350.8392,-163.66841 L350.96915,-163.66841 L351.0991,-163.66841 L351.22903,-164.30714 L351.35895,-164.30714 L351.4889,-164.1652 L351.61884,-163.96243 L351.74878,-164.06381 L351.87872,-163.81035 L352.00867,-164.01312 L352.1386,-164.1145 L352.26855,-164.2159 L352.3985,-164.2159 L352.5284,-164.01312 L352.65836,-164.01312 L352.7883,-163.91173 L352.91824,-163.91173 L353.0482,-164.01312 L353.17813,-164.2159 L353.30807,-164.01312 L353.43802,-163.91173 L353.56796,-164.1145 L353.69788,-163.96243 L353.82782,-164.1145 L353.95776,-164.1145 L354.0877,-164.45923 L354.21765,-164.01312 L354.3476,-164.25645 L354.47754,-164.01312 L354.60748,-163.76979 L354.73743,-163.81035 L354.86734,-163.91173 L354.99728,-164.35783 L355.12723,-164.30714 L355.25717,-164.30714 L355.38712,-163.7191 L355.51706,-164.06381 L355.647,-163.86104 L355.77695,-163.66841 L355.9069,-163.86104 L356.0368,-164.1652 L356.16675,-164.2159 L356.2967,-164.1652 L356.42664,-164.06381 L356.55658,-163.86104 L356.68652,-163.86104 L356.81647,-164.1652 L356.9464,-164.1652 L357.07635,-163.96243 L357.20627,-163.76979 L357.3362,-164.56061 L357.46616,-164.65186 L357.5961,-164.45923 L357.72604,-164.40852 L357.856,-164.25645 L357.98593,-164.56061 L358.11588,-164.56061 L358.24582,-163.46564 L358.37573,-163.76979 L358.50568,-164.45923 L358.63562,-163.81035 L358.76556,-163.76979 L358.8955,-163.56702 L359.02545,-163.96243 L359.1554,-163.37439 L359.28534,-163.273 L359.41528,-163.56702 L359.5452,-163.56702 L359.67514,-164.2159 L359.80508,-164.2159 L359.93503,-164.65186 L360.06497,-164.45923 L360.19492,-163.96243 L360.32486,-164.25645 L360.4548,-164.65186 L360.58472,-164.2159 L360.71466,-164.06381 L360.8446,-164.06381 L360.97455,-163.86104 L361.1045,-163.96243 L361.23444,-164.01312 L361.36438,-163.91173 L361.49432,-164.01312 L361.62427,-163.86104 L361.75418,-164.06381 L361.88412,-163.96243 L362.01407,-163.51633 L362.144,-163.96243 L362.27396,-163.86104 L362.4039,-163.86104 L362.53384,-163.86104 L362.6638,-164.25645 L362.79373,-164.25645 L362.92365,-164.2159 L363.0536,-164.06381 L363.18353,-163.76979 L363.31348,-163.56702 L363.44342,-163.41493 L363.57336,-163.6177 L363.7033,-163.81035 L363.83325,-163.81035 L363.9632,-163.7191 L364.0931,-164.40852 L364.22305,-164.01312 L364.353,-164.1652 L364.48294,-164.50992 L364.61288,-164.1145 L364.74283,-164.30714 L364.87277,-163.7191 L365.00272,-164.30714 L365.13266,-164.1145 L365.26257,-164.1145 L365.39252,-163.81035 L365.52246,-164.45923 L365.6524,-165.30074 L365.78235,-164.2159 L365.9123,-164.25645 L366.04224,-164.50992 L366.17218,-163.56702 L366.30212,-163.76979 L366.43204,-163.46564 L366.56198,-163.17162 L366.69193,-163.17162 L366.82187,-164.06381 L366.9518,-163.96243 L367.08176,-164.06381 L367.2117,-163.81035 L367.34164,-163.56702 L367.4716,-163.56702 L367.6015,-164.2159 L367.73145,-163.96243 L367.8614,-163.86104 L367.99133,-163.76979 L368.12128,-163.56702 L368.25122,-163.56702 L368.38116,-163.46564 L368.5111,-163.56702 L368.64105,-164.01312 L368.77097,-163.76979 L368.9009,-163.76979 L369.03085,-163.76979 L369.1608,-164.1652 L369.29074,-164.01312 L369.4207,-163.86104 L369.55063,-164.1652 L369.68057,-164.1652 L369.81052,-164.1652 L369.94043,-163.96243 L370.07037,-164.06381 L370.20032,-164.2159 L370.33026,-164.40852 L370.4602,-164.25645 L370.59015,-163.76979 L370.7201,-163.6177 L370.85004,-163.96243 L370.97998,-164.40852 L371.1099,-164.40852 L371.23984,-164.85463 L371.36978,-164.85463 L371.49973,-165.49336 L371.62967,-167.22708 L371.7596,-168.51468 L371.88956,-167.42986 L372.0195,-169.26495 L372.14944,-166.63904 L372.27936,-165.09796 L372.4093,-165.25003 L372.53925,-161.83331 L372.6692,-161.83331 L372.79913,-159.46086 L372.92908,-159.2074 L373.05902,-159.35948 L373.18896,-159.15671 L373.3189,-160.74847 L373.44882,-161.4379 L373.57877,-160.15028 L373.7087,-160.74847 L373.83865,-159.41017 L373.9686,-158.12256 L374.09854,-158.12256 L374.2285,-158.67004 L374.35843,-160.5457 L374.48837,-162.3808 L374.6183,-160.59639 L374.74823,-160.25168 L374.87817,-161.73192 L375.00812,-159.95766 L375.13806,-161.64067 L375.268,-161.64067 L375.39795,-162.67482 L375.5279,-164.80394 L375.65784,-165.00671 L375.78775,-167.67317 L375.9177,-168.51468 L376.04764,-168.56538 L376.17758,-168.71745 L376.30753,-173.47249 L376.43747,-174.85135 L376.5674,-170.05576 L376.69736,-163.76979 L376.8273,-163.76979 L376.9572,-159.6028 L377.08716,-164.06381 L377.2171,-175.39883 L377.34705,-178.91695 L377.477,-172.67154 L377.60693,-165.4528 L377.73688,-156.63217 L377.86682,-151.54257 L377.99677,-155.44595 L378.12668,-162.72551 L378.25662,-162.72551 L378.38657,-166.09155 L378.5165,-160.25168 L378.64645,-156.93634 L378.7764,-155.15193 L378.90634,-155.89206 L379.0363,-157.67645 L379.16623,-159.25809 L379.29614,-160.20099 L379.4261,-161.14388 L379.55603,-161.14388 L379.68597,-161.83331 L379.81592,-166.58833 L379.94586,-169.90369 L380.0758,-168.86954 L380.20575,-164.75325 L380.3357,-162.33011 L380.4656,-163.17162 L380.59555,-168.32205 L380.7255,-171.24199 L380.85544,-173.21902 L380.98538,-173.21902 L381.11533,-170.84657 L381.24527,-170.10646 L381.3752,-172.67154 L381.50516,-170.45117 L381.63507,-168.27136 L381.765,-169.11287 L381.89496,-176.73714 L382.0249,-168.76816 L382.15485,-163.273 L382.2848,-158.81198 L382.41473,-158.81198 L382.54468,-156.98703 L382.67462,-157.23036 L382.80453,-154.80722 L382.93448,-154.20903 L383.06442,-157.12897 L383.19437,-155.10124 L383.3243,-158.36589 L383.45425,-158.72073 L383.5842,-156.73357 L383.71414,-158.02118 L383.8441,-156.78426 L383.974,-156.78426 L384.10394,-157.91978 L384.2339,-159.06546 L384.36383,-159.46086 L384.49377,-160.5457 L384.62372,-161.98538 L384.75366,-164.95601 L384.8836,-165.14865 L385.01355,-166.19293 L385.14346,-168.46399 L385.2734,-173.3204 L385.40335,-173.07709 L385.5333,-173.07709 L385.66324,-172.27612 L385.79318,-175.24675 L385.92313,-167.82526 L386.05307,-163.07022 L386.183,-161.19458 L386.31293,-162.43149 L386.44287,-162.8776 L386.5728,-164.45923 L386.70276,-172.9757 L386.8327,-172.9757 L386.96265,-175.99702 L387.0926,-172.32683 L387.22253,-171.43462 L387.35248,-170.94797 L387.4824,-167.53123 L387.61234,-163.51633 L387.74228,-164.90532 L387.87222,-166.38557 L388.00217,-164.90532 L388.1321,-161.53929 L388.26205,-161.53929 L388.392,-162.3808 L388.52194,-157.97047 L388.65186,-155.39526 L388.7818,-151.8366 L388.91174,-156.09483 L389.0417,-160.0996 L389.17163,-162.33011 L389.30157,-167.62248 L389.43152,-177.52795 L389.56146,-177.52795 L389.6914,-179.0589 L389.82132,-170.05576 L389.95126,-165.84822 L390.0812,-165.09796 L390.21115,-160.0996 L390.3411,-158.96407 L390.47104,-160.9411 L390.60098,-162.7762 L390.73093,-163.91173 L390.86087,-164.45923 L390.99078,-163.41493 L391.12073,-163.41493 L391.25067,-159.80557 L391.3806,-158.27464 L391.51056,-159.6028 L391.6405,-163.46564 L391.77045,-164.50992 L391.9004,-163.37439 L392.03033,-163.2223 L392.16025,-163.37439 L392.2902,-161.24527 L392.42014,-161.24527 L392.55008,-161.09319 L392.68002,-160.79916 L392.80997,-160.9918 L392.9399,-161.98538 L393.06985,-162.43149 L393.1998,-163.86104 L393.3297,-163.01953 L393.45966,-162.57343 L393.5896,-162.08678 L393.71954,-161.24527 L393.8495,-161.24527 L393.97943,-160.69778 L394.10938,-160.4443 L394.23932,-160.25168 L394.36923,-161.48859 L394.49918,-164.1145 L394.62912,-165.4528 L394.75906,-170.2484 L394.889,-172.18488 L395.01895,-171.0899 L395.1489,-168.51468 L395.27884,-164.06381 L395.40878,-164.06381 L395.5387,-160.35306 L395.66864,-162.12733 L395.79858,-167.97734 L395.92853,-173.56374 L396.05847,-176.98047 L396.18842,-173.07709 L396.31836,-168.46399 L396.4483,-166.24362 L396.57825,-162.17802 L396.70816,-162.17802 L396.8381,-162.08678 L396.96805,-161.98538 L397.098,-162.8269 L397.22794,-162.33011 L397.35788,-164.35783 L397.48782,-162.72551 L397.61777,-159.30878 L397.7477,-158.67004 L397.87762,-162.53288 L398.00757,-165.09796 L398.1375,-165.09796 L398.26746,-161.0425 L398.3974,-160.59639 L398.52734,-159.30878 L398.6573,-159.15671 L398.78723,-159.51155 L398.91718,-160.20099 L399.0471,-156.38885 L399.17703,-162.57343 L399.30698,-171.43462 L399.43692,-177.57864 L399.56686,-177.57864 L399.6968,-173.52318 L399.82675,-168.22066 L399.9567,-165.84822 L400.08664,-162.8269 L400.21655,-160.4443 L400.3465,-161.14388 L400.47644,-163.37439 L400.60638,-163.6177 L400.73633,-162.72551 L400.86627,-161.58998 L400.99622,-161.58998 L401.12616,-162.12733 L401.2561,-163.07022 L401.38602,-163.86104 L401.51596,-165.69614 L401.6459,-166.24362 L401.77585,-166.38557 L401.9058,-165.30074 L402.03574,-165.35143 L402.16568,-166.19293 L402.29562,-166.33487 L402.42557,-165.4528 L402.55548,-165.93947 L402.68542,-165.93947 L402.81537,-164.75325 L402.9453,-163.41493 L403.07526,-162.96884 L403.2052,-163.51633 L403.33514,-164.40852 L403.4651,-164.80394 L403.59503,-164.50992 L403.72495,-165.49336 L403.8549,-165.49336 L403.98483,-165.09796 L404.11478,-164.80394 L404.24472,-163.2223 L404.37466,-163.6177 L404.5046,-163.81035 L404.63455,-162.67482 L404.7645,-163.7191 L404.8944,-163.91173 L405.02435,-163.56702 L405.1543,-163.81035 L405.28424,-164.35783 L405.41418,-164.35783 L405.54413,-164.40852 L405.67407,-164.45923 L405.80402,-164.40852 L405.93396,-163.76979 L406.06387,-163.66841 L406.19382,-164.2159 L406.32376,-163.76979 L406.4537,-163.96243 L406.58365,-164.45923 L406.7136,-164.45923 L406.84354,-164.06381 L406.97348,-164.56061 L407.10342,-164.01312 L407.23334,-163.7191 L407.36328,-163.86104 L407.49323,-164.1145 L407.62317,-164.01312 L407.7531,-163.96243 L407.88306,-164.2159 L408.013,-164.35783 L408.14294,-163.81035 L408.2729,-163.81035 L408.4028,-163.6177 L408.53275,-164.1145 L408.6627,-164.35783 L408.79263,-164.40852 L408.92258,-164.30714 L409.05252,-164.1652 L409.18246,-163.91173 L409.3124,-164.2159 L409.44235,-164.85463 L409.57227,-164.85463 L409.7022,-164.06381 L409.83215,-164.1145 L409.9621,-164.30714 L410.09204,-164.25645 L410.222,-164.01312 L410.35193,-164.25645 L410.48187,-164.45923 L410.61182,-164.45923 L410.74173,-163.6177 L410.87167,-163.56702 L411.00162,-163.56702 L411.13156,-163.96243 L411.2615,-164.25645 L411.39145,-164.45923 L411.5214,-164.45923 L411.65134,-164.2159 L411.78128,-163.81035 L411.9112,-163.76979 L412.04114,-163.91173 L412.17108,-163.81035 L412.30103,-163.81035 L412.43097,-163.96243 L412.5609,-163.96243 L412.69086,-164.1145 L412.8208,-164.01312 L412.95074,-164.06381 L413.08066,-164.1145 L413.2106,-164.1145 L413.34055,-164.06381 L413.4705,-163.81035 L413.60043,-164.1145 L413.73038,-163.91173 L413.86032,-163.91173 L413.99026,-164.06381 L414.1202,-164.06381 L414.25012,-164.45923 L414.38007,-164.25645 L414.51,-163.81035 L414.63995,-163.86104 L414.7699,-163.76979 L414.89984,-164.1652 L415.0298,-164.25645 L415.15973,-164.65186 L415.28967,-164.30714 L415.4196,-164.30714 L415.54953,-163.96243 L415.67947,-163.96243 L415.80942,-163.7191 L415.93936,-163.81035 L416.0693,-163.96243 L416.19925,-164.06381 L416.3292,-164.06381 L416.45914,-163.7191 L416.58905,-163.51633 L416.719,-163.51633 L416.84894,-163.76979 L416.97888,-163.86104 L417.10883,-163.91173 L417.23877,-163.91173 L417.3687,-163.86104 L417.49866,-163.7191 L417.6286,-163.96243 L417.7585,-164.1145 L417.88846,-164.2159 L418.0184,-164.30714 L418.14835,-164.30714 L418.2783,-164.1652 L418.40823,-163.86104 L418.53818,-164.01312 L418.66812,-163.91173 L418.79807,-163.91173 L418.92798,-163.86104 L419.05792,-163.86104 L419.18787,-163.96243 L419.3178,-163.86104 L419.44775,-164.01312 L419.5777,-163.91173 L419.70764,-163.91173 L419.8376,-163.7191 L419.96753,-163.91173 L420.09744,-164.01312 L420.2274,-163.41493 L420.35733,-163.56702 L420.48727,-163.96243 L420.61722,-163.96243 L420.74716,-163.81035 L420.8771,-163.7191 L421.00705,-163.7191 L421.137,-164.2159 L421.2669,-163.66841 L421.39685,-163.56702 L421.5268,-164.50992 L421.65674,-164.30714 L421.78668,-163.96243 L421.91663,-163.66841 L422.04657,-163.76979 L422.1765,-163.86104 L422.30646,-163.56702 L422.43637,-163.56702 L422.5663,-164.01312 L422.69626,-164.06381 L422.8262,-164.1145 L422.95615,-164.01312 L423.0861,-163.91173 L423.21603,-164.01312 L423.34598,-163.96243 L423.47592,-163.66841 L423.60583,-163.56702 L423.73578,-163.7191 L423.86572,-163.7191 L423.99567,-163.86104 L424.1256,-163.76979 L424.25555,-163.96243 L424.3855,-163.96243 L424.51544,-163.91173 L424.6454,-163.91173 L424.7753,-164.45923 L424.90524,-163.96243 L425.0352,-164.25645 L425.16513,-163.96243 L425.29507,-163.96243 L425.42502,-164.06381 L425.55496,-164.06381 L425.6849,-163.86104 L425.81485,-163.91173 L425.94476,-163.76979 L426.0747,-163.6177 L426.20465,-163.76979 L426.3346,-163.96243 L426.46454,-164.2159 L426.59448,-164.2159 L426.72443,-164.70255 L426.85437,-165.09796 L426.9843,-165.0574 L427.11423,-165.93947 L427.24417,-165.84822 L427.3741,-164.80394 L427.50406,-164.45923 L427.634,-164.6113 L427.76395,-166.04085 L427.8939,-166.53764 L428.02383,-165.25003 L428.15378,-165.25003 L428.2837,-164.65186 L428.41364,-162.62413 L428.54358,-161.58998 L428.67352,-160.74847 L428.80347,-160.9918 L428.9334,-161.58998 L429.06335,-161.64067 L429.1933,-161.73192 L429.3232,-164.30714 L429.45316,-164.30714 L429.5831,-165.0574 L429.71304,-166.09155 L429.843,-166.19293 L429.97293,-165.25003 L430.10287,-164.75325 L430.23282,-164.35783 L430.36276,-164.25645 L430.49268,-163.91173 L430.62262,-164.01312 L430.75256,-165.00671 L430.8825,-165.00671 L431.01245,-165.19934 L431.1424,-164.35783 L431.27234,-164.35783 L431.40228,-164.56061 L431.53223,-163.7191 L431.66214,-163.17162 L431.79208,-163.86104 L431.92203,-164.06381 L432.05197,-162.8776 L432.18192,-162.03609 L432.31186,-162.03609 L432.4418,-163.51633 L432.57175,-163.37439 L432.7017,-162.3808 L432.8316,-163.01953 L432.96155,-165.00671 L433.0915,-164.85463 L433.22144,-163.273 L433.35138,-162.17802 L433.48132,-162.57343 L433.61127,-163.01953 L433.7412,-163.01953 L433.87115,-159.01476 L434.00107,-159.6535 L434.131,-161.24527 L434.26096,-162.48218 L434.3909,-160.35306 L434.52084,-163.273 L434.6508,-165.35143 L434.78073,-164.85463 L434.91068,-161.19458 L435.04062,-161.19458 L435.17053,-159.15671 L435.30048,-159.6028 L435.43042,-160.20099 L435.56036,-159.11615 L435.6903,-159.95766 L435.82025,-162.03609 L435.9502,-164.01312 L436.08014,-163.96243 L436.21008,-162.57343 L436.34,-162.92828 L436.46994,-162.92828 L436.59988,-164.01312 L436.72983,-165.30074 L436.85977,-163.96243 L436.98972,-164.30714 L437.11966,-164.65186 L437.2496,-164.30714 L437.37955,-163.51633 L437.50946,-164.75325 L437.6394,-163.17162 L437.76935,-162.8776 L437.8993,-162.8776 L438.02924,-163.37439 L438.15918,-164.45923 L438.28912,-162.3808 L438.41907,-158.46727 L438.549,-157.91978 L438.67892,-157.97047 L438.80887,-158.51796 L438.9388,-156.93634 L439.06876,-159.11615 L439.1987,-158.86269 L439.32864,-158.86269 L439.4586,-157.57507 L439.58853,-157.77785 L439.71848,-157.17966 L439.8484,-153.96571 L439.97833,-156.38885 L440.10828,-159.75488 L440.23822,-158.86269 L440.36816,-147.42627 L440.4981,-149.0586 L440.62805,-169.01147 L440.758,-169.01147 L440.88794,-169.26495 L441.01785,-158.17325 L441.1478,-157.52438 L441.27774,-173.76651 L441.40768,-188.41689 L441.53763,-210.20486 L441.66757,-221.33711 L441.79752,-237.97466 L441.92746,-263.07797 L442.0574,-273.21664 L442.18732,-298.71536 L442.31726,-298.71536 L442.4472,-310.4458 L442.57715,-328.32025 L442.7071,-328.86774 L442.83704,-311.338 L442.96698,-287.82645 L443.09692,-226.29492 L443.22687,-174.80066 L443.35678,-100.74788 L443.48672,-96.73296 L443.61667,-96.73296 L443.7466,-53.167137 L443.87656,-0.84150887 L444.0065,0 L444.13644,-71.4877 L444.2664,-106.68913 L444.39633,-82.92411 L444.52625,-82.82272 L444.6562,-77.67228 L444.78613,-72.32921 L444.91608,-61.18682 L445.04602,-61.18682 L445.17596,-47.32727 L445.3059,-37.127777 L445.43585,-54.404057 L445.5658,-60.446697 L445.6957,-42.92709 L445.82565,-32.474133 L445.9556,-50.399284 L446.08554,-92.52542 L446.21548,-117.87207 L446.34543,-141.78917 L446.47537,-141.78917 L446.60532,-201.587 L446.73526,-275.70062 L446.86517,-340 L446.99512,-278.27582 L447.12506,-260.14792 L447.255,-320.69598 L447.38495,-280.0501 L447.5149,-329.4051 L447.64484,-284.70374 L447.77478,-288.01907 L447.90472,-288.01907 L448.03464,-270.6921 L448.16458,-214.06769 L448.29453,-172.13419 L448.42447,-179.21097 L448.5544,-156.04413 L448.68436,-145.05382 L448.8143,-164.45923 L448.94424,-158.07187 L449.0742,-147.18294 L449.2041,-147.18294 L449.33405,-141.29237 L449.464,-139.60936 L449.59393,-129.80528 L449.72388,-97.57448 L449.85382,-98.91278 L449.98376,-134.30684 L450.1137,-182.67839 L450.24365,-190.9921 L450.37357,-169.26495 L450.5035,-141.98181 L450.63345,-129.01447 L450.7634,-129.01447 L450.89334,-124.462204 L451.0233,-129.01447 L451.15323,-144.90175 L451.28317,-155.44595 L451.41312,-149.26137 L451.54303,-147.82169 L451.67297,-165.79753 L451.80292,-179.21097 L451.93286,-155.94275 L452.0628,-147.28433 L452.19275,-147.28433 L452.3227,-144.3644 L452.45264,-151.54257 L452.58258,-167.92665 L452.7125,-165.49336 L452.84244,-162.48218 L452.97238,-168.46399 L453.10233,-172.27612 L453.23227,-167.77457 L453.3622,-155.05054 L453.49216,-154.75652 L453.6221,-154.75652 L453.75204,-157.82854 L453.88196,-159.7042 L454.0119,-167.58192 L454.14185,-168.06859 L454.2718,-164.25645 L454.40173,-162.53288 L454.53168,-161.9347 L454.66162,-163.56702 L454.79156,-163.17162 L454.9215,-162.7762 L455.05142,-162.7762 L455.18137,-163.76979 L455.3113,-165.40211 L455.44125,-164.70255 L455.5712,-166.09155 L455.70114,-165.49336 L455.8311,-161.78261 L455.96103,-161.83331 L456.09097,-164.40852 L456.2209,-164.40852 L456.35083,-164.85463 L456.48077,-165.49336 L456.61072,-165.49336 L456.74066,-166.04085 L456.8706,-166.29433 L457.00055,-164.6113 L457.1305,-165.74683 L457.26044,-164.65186 L457.39035,-161.4379 L457.5203,-160.40376 L457.65024,-161.83331 L457.78018,-162.92828 L457.91013,-162.92828 L458.04007,-163.32368 L458.17,-164.50992 L458.29996,-165.74683 L458.4299,-165.89891 L458.5598,-165.93947 L458.68976,-166.43626 L458.8197,-166.09155 L458.94965,-165.25003 L459.0796,-164.6113 L459.20953,-163.37439 L459.33948,-162.12733 L459.46942,-162.12733 L459.59937,-163.07022 L459.72928,-164.1145 L459.85922,-164.45923 L459.98917,-164.45923 L460.1191,-163.7191 L460.24905,-163.01953 L460.379,-163.56702 L460.50894,-164.06381 L460.6389,-164.45923 L460.76883,-164.06381 L460.89874,-164.06381 L461.0287,-164.1652 L461.15863,-163.51633 L461.28857,-163.273 L461.41852,-164.01312 L461.54846,-164.01312 L461.6784,-163.6177 L461.80835,-164.2159 L461.9383,-165.25003 L462.0682,-164.1145 L462.19815,-164.1145 L462.3281,-164.25645 L462.45804,-163.86104 L462.58798,-163.01953 L462.71793,-162.8269 L462.84787,-163.7191 L462.9778,-164.65186 L463.10773,-163.86104 L463.23767,-162.67482 L463.3676,-164.45923 L463.49756,-164.80394 L463.6275,-164.80394 L463.75745,-164.75325 L463.8874,-163.81035 L464.01733,-162.08678 L464.14728,-162.7762 L464.2772,-163.7191 L464.40714,-164.1652 L464.53708,-163.76979 L464.66702,-163.66841 L464.79697,-164.30714 L464.9269,-163.86104 L465.05685,-164.50992 L465.1868,-164.50992 L465.31674,-164.06381 L465.44666,-163.32368 L465.5766,-163.32368 L465.70654,-163.66841 L465.8365,-163.37439 L465.96643,-165.25003 L466.09637,-165.93947 L466.22632,-164.95601 L466.35626,-163.6177 L466.4862,-163.6177 L466.61612,-162.7762 L466.74606,-162.92828 L466.876,-164.06381 L467.00595,-165.19934 L467.1359,-165.00671 L467.26584,-163.66841 L467.39578,-163.46564 L467.52573,-163.96243 L467.65567,-162.48218 L467.78558,-162.7762 L467.91553,-162.7762 L468.04547,-163.51633 L468.1754,-163.51633 L468.30536,-163.81035 L468.4353,-164.2159 L468.56525,-164.35783 L468.6952,-163.273 L468.82513,-163.51633 L468.95505,-163.37439 L469.085,-163.66841 L469.21494,-164.30714 L469.34488,-164.30714 L469.47482,-164.30714 L469.60477,-164.01312 L469.7347,-163.91173 L469.86465,-164.70255 L469.9946,-163.81035 L470.1245,-163.51633 L470.25446,-163.6177 L470.3844,-164.45923 L470.51434,-164.45923 L470.6443,-164.06381 L470.77423,-164.06381 L470.90417,-163.56702 L471.03412,-163.7191 L471.16406,-163.41493 L471.29398,-163.66841 L471.42392,-163.56702 L471.55386,-163.2223 L471.6838,-164.1145 L471.81375,-163.86104 L471.9437,-164.2159 L472.07364,-164.2159 L472.20358,-164.01312 L472.33353,-164.45923 L472.46344,-163.51633 L472.59338,-163.81035 L472.72333,-163.56702 L472.85327,-163.76979 L472.98322,-163.66841 L473.11316,-164.1145 L473.2431,-163.76979 L473.37305,-163.56702 L473.503,-163.56702 L473.6329,-163.56702 L473.76285,-164.2159 L473.8928,-164.2159 L474.02274,-164.01312 L474.15268,-164.01312 L474.28262,-163.41493 L474.41257,-163.41493 L474.5425,-163.6177 L474.67245,-163.91173 L474.80237,-164.01312 L474.9323,-164.1145 L475.06226,-164.1145 L475.1922,-163.76979 L475.32214,-163.66841 L475.4521,-164.06381 L475.58203,-163.86104 L475.71198,-163.6177 L475.84192,-163.96243 L475.97183,-164.1652 L476.10178,-163.96243 L476.23172,-164.01312 L476.36166,-164.25645 L476.4916,-164.25645 L476.62155,-163.46564 L476.7515,-163.46564 L476.88144,-163.273 L477.01138,-163.91173 L477.1413,-163.6177 L477.27124,-164.25645 L477.40118,-164.25645 L477.53113,-164.1652 L477.66107,-163.66841 L477.79102,-163.56702 L477.92096,-163.56702 L478.0509,-163.46564 L478.18085,-163.41493 L478.31076,-164.1145 L478.4407,-163.17162 L478.57065,-163.37439 L478.7006,-163.86104 L478.83054,-164.1145 L478.96048,-163.91173 L479.09042,-163.91173 L479.22037,-163.6177 L479.3503,-163.6177 L479.48022,-163.32368 L479.61017,-164.01312 L479.7401,-164.1652 L479.87006,-164.25645 L480,-164.25645" fill="none" stroke="#ff0000" stroke-linejoin="round" stroke-width="2"/>
</g>
</g>
<g transform="translate(380, -340)">
<text font-size="12" text-anchor="start" x="0" y="0">
accel
</text>
<line stroke="#ff0000" stroke-width="2" x1="-10" x2="-3" y1="-4" y2="-4"/>
</g>
<g>
<g>
<line stroke="black" stroke-width="1" x1="0.000020790471034121558" x2="0.000020790471034121558" y1="0" y2="10"/>
<line stroke="black" stroke-width="1" x1="145.53331802922688" x2="145.53331802922688" y1="0" y2="10"/>
<line stroke="black" stroke-width="1" x1="291.06661526798274" x2="291.06661526798274" y1="0" y2="10"/>
<line stroke="black" stroke-width="1" x1="436.5999125067386" x2="436.5999125067386" y1="0" y2="10"/>
</g>
<line stroke="black" stroke-width="1" x1="0" x2="480" y1="0" y2="0"/>
<g>
<text font-size="12" text-anchor="middle" x="0.000020790471034121558" y="20">
0.01786
</text>
<text font-size="12" text-anchor="middle" x="145.53331802922688" y="20">
20.01786
</text>
<text font-size="12" text-anchor="middle" x="291.06661526798274" y="20">
40.01786
</text>
<text font-size="12" text-anchor="middle" x="436.5999125067386" y="20">
60.01786
</text>
</g>
<text font-size="12" text-anchor="middle" x="240" y="30">
Time (s)
</text>
</g>
<g>
<g>
<line stroke="black" stroke-width="1" x1="0" x2="-10" y1="-62.62650961681824" y2="-62.62650961681824"/>
<line stroke="black" stroke-width="1" x1="0" x2="-10" y1="-164.0131206202475" y2="-164.0131206202475"/>
<line stroke="black" stroke-width="1" x1="0" x2="-10" y1="-265.39973162367676" y2="-265.39973162367676"/>
</g>
<line stroke="black" stroke-width="1" x1="0" x2="0" y1="0" y2="-340"/>
<g>
<text dominant-baseline="middle" font-size="12" text-anchor="end" x="-15" y="-62.62650961681824">
-1
</text>
<text dominant-baseline="middle" font-size="12" text-anchor="end" x="-15" y="-164.0131206202475">
0
</text>
<text dominant-baseline="middle" font-size="12" text-anchor="end" x="-15" y="-265.39973162367676">
1
</text>
</g>
<text font-size="12" text-anchor="middle" transform="rotate(-90 -24 -170)" x="-24" y="-182">
Accel (g)
</text>
</g>
</g>
</svg>