<svg viewBox="0 0 600 400" xmlns="http://www.w3.org/2000/svg">
<g transform="translate(72, 364)">
<g>
<g>
<path d="M0,-172.58649 L0,-172.58649 L1.4328358,-172.60025 L2.8656716,-172.66232 L4.2985077,-172.55772 L5.7313433,-172.48203 L7.1641793,-172.54657 L8.597015,-172.6021 L10.029851,-172.65414 L11.462687,-172.71147 L12.895522,-172.66582 L14.328359,-172.71935 L15.761194,-172.6782 L17.19403,-172.5624 L18.626865,-172.47209 L20.059702,-172.51395 L21.492537,-172.51184 L22.925373,-172.53067 L24.35821,-172.52599 L25.791044,-172.55666 L27.22388,-172.59451 L28.656717,-172.62958 L30.089552,-172.68387 L31.522388,-172.73814 L32.955223,-172.6877 L34.38806,-172.73651 L35.820896,-172.67757 L37.25373,-172.68318 L38.686565,-172.7325 L40.119404,-172.72208 L41.55224,-172.57246 L42.985073,-172.61572 L44.41791,-172.5886 L45.850746,-172.46799 L47.28358,-172.51912 L48.71642,-172.58131 L50.149254,-172.6626 L51.58209,-172.64804 L53.014927,-172.64737 L54.44776,-172.66107 L55.880596,-172.65788 L57.313435,-172.6654 L58.74627,-172.64406 L60.179104,-172.60902 L61.61194,-172.59447 L63.044777,-172.57661 L64.477615,-172.56834 L65.910446,-172.54317 L67.343285,-172.52936 L68.77612,-172.51752 L70.208954,-172.53387 L71.64179,-172.33775 L73.07462,-172.14436 L74.50746,-171.93288 L75.9403,-171.73651 L77.37313,-171.5665 L78.80597,-171.37447 L80.23881,-171.2287 L81.67164,-171.17046 L83.10448,-171.11546 L84.537315,-171.14987 L85.970146,-171.18724 L87.402985,-171.20215 L88.83582,-171.21437 L90.268654,-171.23119 L91.70149,-171.25143 L93.13433,-171.25552 L94.56716,-171.25084 L96,-171.24673 L97.43284,-171.23488 L98.86567,-171.22302 L100.29851,-171.20175 L101.731346,-171.18967 L103.16418,-171.19058 L104.597015,-171.18777 L106.029854,-171.17523 L107.462685,-171.18211 L108.89552,-171.18779 L110.32836,-171.1744 L111.76119,-171.13956 L113.19403,-171.12001 L114.62687,-171.0348 L116.0597,-170.97699 L117.49254,-170.89488 L118.92538,-170.81964 L120.35821,-170.76967 L121.791046,-170.73114 L123.22388,-170.6692 L124.656715,-170.57239 L126.089554,-170.45255 L127.522385,-170.33586 L128.95523,-170.19937 L130.38806,-170.06726 L131.82089,-169.82468 L133.25374,-169.62785 L134.68657,-169.44981 L136.1194,-169.30006 L137.55225,-169.16391 L138.98508,-169.0955 L140.41791,-169.00824 L141.85075,-168.9046 L143.28358,-168.82822 L144.71642,-168.71727 L146.14925,-168.52596 L147.58209,-168.33305 L149.01492,-168.15297 L150.44775,-167.97359 L151.8806,-167.83437 L153.31343,-167.70377 L154.74626,-167.5585 L156.17911,-167.4176 L157.61194,-167.31297 L159.04477,-167.23639 L160.47762,-167.16138 L161.91045,-167.07156 L163.34328,-166.97765 L164.77612,-166.87439 L166.20895,-166.80566 L167.64178,-166.72137 L169.07463,-166.63158 L170.50746,-166.54855 L171.94029,-166.46509 L173.37314,-166.38974 L174.80597,-166.36295 L176.2388,-166.30475 L177.67165,-166.24304 L179.10448,-166.20331 L180.53731,-166.1482 L181.97015,-166.06442 L183.40298,-165.97217 L184.83582,-165.87762 L186.26866,-165.8265 L187.70149,-165.83896 L189.13432,-165.90857 L190.56717,-165.94063 L192,-165.97412 L193.43283,-165.98302 L194.86568,-165.99937 L196.29851,-165.9727 L197.73134,-165.79369 L199.16418,-165.65787 L200.59702,-165.6119 L202.02985,-165.58835 L203.46269,-165.45074 L204.89552,-165.3778 L206.32835,-165.2366 L207.7612,-165.09541 L209.19403,-164.85327 L210.62686,-164.63843 L212.05971,-164.45363 L213.49254,-164.30759 L214.92537,-164.11894 L216.35822,-163.81345 L217.79105,-163.34966 L219.22388,-162.91188 L220.65672,-162.51215 L222.08955,-162.13979 L223.52238,-161.77856 L224.95523,-161.41637 L226.38806,-160.9082 L227.82089,-160.14108 L229.25374,-159.13449 L230.68657,-157.88658 L232.1194,-156.70937 L233.55225,-156.16823 L234.98508,-156.3284 L236.41791,-157.59494 L237.85075,-159.1968 L239.28358,-161.25742 L240.71642,-161.97884 L242.14925,-163.1299 L243.58209,-164.8417 L245.01492,-167.88255 L246.44775,-171.01268 L247.8806,-173.91605 L249.31343,-178.12007 L250.74626,-181.81137 L252.17911,-185.07635 L253.61194,-187.52644 L255.04477,-189.631 L256.4776,-191.64536 L257.91046,-194.42531 L259.3433,-197.08012 L260.77612,-198.75511 L262.20895,-199.66866 L263.64178,-200.37054 L265.07462,-200.57922 L266.50748,-199.96532 L267.9403,-198.9043 L269.37314,-197.34583 L270.80597,-195.62642 L272.2388,-195.60454 L273.67163,-194.98338 L275.1045,-193.2193 L276.53732,-191.85512 L277.97015,-191.39223 L279.40298,-189.81245 L280.83582,-190.13228 L282.26865,-190.40839 L283.7015,-188.32149 L285.13434,-184.8605 L286.56717,-181.23917 L288,-180.12065 L289.43283,-177.27174 L290.86566,-175.21056 L292.2985,-174.01463 L293.73135,-171.58905 L295.16418,-169.89153 L296.59702,-168.63335 L298.02985,-166.93417 L299.46268,-165.71672 L300.8955,-164.5742 L302.32837,-163.11008 L303.7612,-161.27739 L305.19403,-158.84636 L306.62686,-156.7097 L308.0597,-156.15195 L309.49252,-155.91348 L310.92538,-155.17233 L312.35822,-154.88101 L313.79105,-153.78188 L315.22388,-152.69948 L316.6567,-151.97678 L318.08954,-151.26341 L319.5224,-150.55452 L320.95523,-149.89066 L322.38806,-149.40309 L323.8209,-148.91925 L325.25372,-148.0094 L326.68655,-147.22658 L328.11942,-146.70685 L329.55225,-145.87003 L330.98508,-145.04282 L332.4179,-144.74263 L333.85074,-144.44511 L335.28357,-144.16481 L336.71643,-143.82683 L338.14926,-143.45238 L339.5821,-143.09409 L341.01492,-142.90727 L342.44775,-142.76767 L343.88058,-142.46652 L345.31345,-142.369 L346.74628,-142.41904 L348.1791,-142.56529 L349.61194,-142.7194 L351.04477,-142.8914 L352.4776,-143.05692 L353.91046,-143.3738 L355.3433,-143.6656 L356.77612,-143.93765 L358.20895,-144.20021 L359.64178,-144.46901 L361.07462,-144.72546 L362.50748,-144.94435 L363.9403,-145.13382 L365.37314,-145.32988 L366.80597,-145.52876 L368.2388,-145.70299 L369.67163,-145.91704 L371.1045,-146.12828 L372.53732,-146.30078 L373.97015,-146.49474 L375.40298,-146.735 L376.83582,-146.99019 L378.26865,-147.23367 L379.7015,-147.47006 L381.13434,-147.71661 L382.56717,-147.96326 L384,-148.09468 L385.43283,-148.17622 L386.86566,-148.29501 L388.2985,-148.46082 L389.73135,-148.5895 L391.16418,-148.66554 L392.59702,-148.75247 L394.02985,-148.85417 L395.46268,-148.93767 L396.8955,-149.02087 L398.32837,-149.13824 L399.7612,-149.26552 L401.19403,-149.3569 L402.62686,-149.4012 L404.0597,-149.45287 L405.49252,-149.51779 L406.92538,-149.54582 L408.35822,-149.56142 L409.79105,-149.61606 L411.22388,-149.65193 L412.6567,-149.67238 L414.08954,-149.69261 L415.5224,-149.76833 L416.95523,-149.82904 L418.38806,-149.88689 L419.8209,-149.95573 L421.25372,-150.02296 L422.68655,-150.07143 L424.11942,-150.1389 L425.55225,-150.22447 L426.98508,-150.31816 L428.4179,-150.4048 L429.85074,-150.49106 L431.28357,-150.58414 L432.71643,-150.6663 L434.14926,-150.72418 L435.5821,-150.84492 L437.01492,-150.87955 L438.44775,-150.95554 L439.88058,-151.04575 L441.31345,-151.12202 L442.74628,-151.21288 L444.1791,-151.30385 L445.61194,-151.3851 L447.04477,-151.43478 L448.4776,-151.49786 L449.91046,-151.5385 L451.3433,-151.58566 L452.77612,-151.65213 L454.20895,-151.71912 L455.64178,-151.7828 L457.07462,-151.83563 L458.50748,-151.85504 L459.9403,-151.87521 L461.37314,-151.91396 L462.80597,-151.94812 L464.2388,-151.97392 L465.67163,-152.05273 L467.1045,-152.13458 L468.53732,-152.19829 L469.97015,-152.28444 L471.40298,-152.37743 L472.83582,-152.45772 L474.26865,-152.4732 L475.7015,-152.51637 L477.13434,-152.55968 L478.56717,-152.59546 L480,-152.62149" fill="none" stroke="#ff0000" stroke-linejoin="round" stroke-width="2"/>
</g>
</g>
<g transform="translate(380, -340)">
<text font-size="12" text-anchor="start" x="0" y="0">
roll
</text>
<line stroke="#ff0000" stroke-width="2" x1="-10" x2="-3" y1="-4" y2="-4"/>
</g>
<g>
<g>
<path d="M0,-172.21112 L0,-172.21112 L1.4328358,-172.1226 L2.8656716,-172.11624 L4.2985077,-172.17682 L5.7313433,-172.25287 L7.1641793,-172.25673 L8.597015,-172.21335 L10.029851,-172.2223 L11.462687,-172.21678 L12.895522,-172.30334 L14.328359,-172.32326 L15.761194,-172.20949 L17.19403,-172.27515 L18.626865,-172.33093 L20.059702,-172.38025 L21.492537,-172.38078 L22.925373,-172.3792 L24.35821,-172.3495 L25.791044,-172.35138 L27.22388,-172.32146 L28.656717,-172.2923 L30.089552,-172.27861 L31.522388,-172.29741 L32.955223,-172.38506 L34.38806,-172.3757 L35.820896,-172.27545 L37.25373,-172.19649 L38.686565,-172.17303 L40.119404,-172.25116 L41.55224,-172.26978 L42.985073,-172.29683 L44.41791,-172.38606 L45.850746,-172.32246 L47.28358,-172.36345 L48.71642,-172.35571 L50.149254,-172.35977 L51.58209,-172.36102 L53.014927,-172.37843 L54.44776,-172.38162 L55.880596,-172.33829 L57.313435,-172.31493 L58.74627,-172.25635 L60.179104,-172.19579 L61.61194,-172.24174 L63.044777,-172.30872 L64.477615,-172.37527 L65.910446,-172.42645 L67.343285,-172.43665 L68.77612,-172.44522 L70.208954,-172.4248 L71.64179,-172.41852 L73.07462,-172.40585 L74.50746,-172.45634 L75.9403,-172.6336 L77.37313,-172.84106 L78.80597,-172.88853 L80.23881,-172.84625 L81.67164,-172.74397 L83.10448,-172.64468 L84.537315,-172.54123 L85.970146,-172.47226 L87.402985,-172.4438 L88.83582,-172.4499 L90.268654,-172.47388 L91.70149,-172.50227 L93.13433,-172.48483 L94.56716,-172.46515 L96,-172.46384 L97.43284,-172.47481 L98.86567,-172.48524 L100.29851,-172.50441 L101.731346,-172.51572 L103.16418,-172.52258 L104.597015,-172.53166 L106.029854,-172.52153 L107.462685,-172.50558 L108.89552,-172.49904 L110.32836,-172.48936 L111.76119,-172.4481 L113.19403,-172.39693 L114.62687,-172.4021 L116.0597,-172.41946 L117.49254,-172.43242 L118.92538,-172.43721 L120.35821,-172.44731 L121.791046,-172.4681 L123.22388,-172.48941 L124.656715,-172.50293 L126.089554,-172.53343 L127.522385,-172.58614 L128.95523,-172.64815 L130.38806,-172.70833 L131.82089,-172.7419 L133.25374,-172.79375 L134.68657,-172.8629 L136.1194,-172.92455 L137.55225,-172.96912 L138.98508,-173.05249 L140.41791,-173.19247 L141.85075,-173.31784 L143.28358,-173.35077 L144.71642,-173.40572 L146.14925,-173.39421 L147.58209,-173.33965 L149.01492,-173.20229 L150.44775,-173.02815 L151.8806,-172.85832 L153.31343,-172.72044 L154.74626,-172.60693 L156.17911,-172.49776 L157.61194,-172.40529 L159.04477,-172.34836 L160.47762,-172.29227 L161.91045,-172.2655 L163.34328,-172.2274 L164.77612,-172.15276 L166.20895,-172.08443 L167.64178,-172.0589 L169.07463,-172.0441 L170.50746,-172.01163 L171.94029,-171.94429 L173.37314,-171.86288 L174.80597,-171.8034 L176.2388,-171.75093 L177.67165,-171.71419 L179.10448,-171.64578 L180.53731,-171.54814 L181.97015,-171.42429 L183.40298,-171.29262 L184.83582,-171.12782 L186.26866,-170.94705 L187.70149,-170.81544 L189.13432,-170.74706 L190.56717,-170.7173 L192,-170.68755 L193.43283,-170.63164 L194.86568,-170.55313 L196.29851,-170.49294 L197.73134,-170.47243 L199.16418,-170.4506 L200.59702,-170.46045 L202.02985,-170.53394 L203.46269,-170.77072 L204.89552,-170.91586 L206.32835,-171.05417 L207.7612,-171.19348 L209.19403,-171.29263 L210.62686,-171.48277 L212.05971,-171.74791 L213.49254,-171.8483 L214.92537,-171.75687 L216.35822,-171.4682 L217.79105,-171.23155 L219.22388,-171.08925 L220.65672,-170.94112 L222.08955,-170.76912 L223.52238,-170.77818 L224.95523,-170.80072 L226.38806,-171.06406 L227.82089,-171.55225 L229.25374,-172.17496 L230.68657,-173.34541 L232.1194,-175.10126 L233.55225,-177.72316 L234.98508,-180.7764 L236.41791,-184.09584 L237.85075,-187.46248 L239.28358,-190.60033 L240.71642,-193.8055 L242.14925,-196.70251 L243.58209,-199.35928 L245.01492,-201.50462 L246.44775,-202.90443 L247.8806,-203.52911 L249.31343,-203.58531 L250.74626,-202.94289 L252.17911,-201.7391 L253.61194,-199.70952 L255.04477,-197.4316 L256.4776,-194.80544 L257.91046,-192.06873 L259.3433,-189.12227 L260.77612,-186.05257 L262.20895,-182.9499 L263.64178,-179.93378 L265.07462,-176.73978 L266.50748,-173.45497 L267.9403,-170.67891 L269.37314,-168.58038 L270.80597,-166.60791 L272.2388,-165.05838 L273.67163,-163.18918 L275.1045,-162.04703 L276.53732,-161.53043 L277.97015,-158.84003 L279.40298,-156.09683 L280.83582,-154.77065 L282.26865,-153.60927 L283.7015,-151.66528 L285.13434,-149.88382 L286.56717,-148.30823 L288,-148.38373 L289.43283,-148.67993 L290.86566,-149.0848 L292.2985,-149.3995 L293.73135,-149.7486 L295.16418,-150.34154 L296.59702,-151.11003 L298.02985,-152.00209 L299.46268,-152.95522 L300.8955,-153.97737 L302.32837,-154.75015 L303.7612,-155.33076 L305.19403,-155.74983 L306.62686,-156.2713 L308.0597,-156.87405 L309.49252,-157.47195 L310.92538,-158.2498 L312.35822,-159.16428 L313.79105,-159.79004 L315.22388,-160.19395 L316.6567,-160.40988 L318.08954,-160.64986 L319.5224,-160.74579 L320.95523,-160.8187 L322.38806,-161.04312 L323.8209,-161.40407 L325.25372,-161.85973 L326.68655,-162.17017 L328.11942,-162.28073 L329.55225,-162.4793 L330.98508,-163.1098 L332.4179,-163.9404 L333.85074,-164.77675 L335.28357,-165.64806 L336.71643,-166.53809 L338.14926,-167.43524 L339.5821,-168.42557 L341.01492,-169.46419 L342.44775,-170.43298 L343.88058,-171.16454 L345.31345,-171.73781 L346.74628,-172.14691 L348.1791,-172.53427 L349.61194,-172.9185 L351.04477,-173.33548 L352.4776,-173.73225 L353.91046,-174.013 L355.3433,-174.19952 L356.77612,-174.28955 L358.20895,-174.36935 L359.64178,-174.41138 L361.07462,-174.42393 L362.50748,-174.42278 L363.9403,-174.42618 L365.37314,-174.42903 L366.80597,-174.44263 L368.2388,-174.46619 L369.67163,-174.48508 L371.1045,-174.5073 L372.53732,-174.53374 L373.97015,-174.58476 L375.40298,-174.66212 L376.83582,-174.73514 L378.26865,-174.76474 L379.7015,-174.71837 L381.13434,-174.65314 L382.56717,-174.58841 L384,-174.57326 L385.43283,-174.58917 L386.86566,-174.60742 L388.2985,-174.6072 L389.73135,-174.59431 L391.16418,-174.59918 L392.59702,-174.63129 L394.02985,-174.68242 L395.46268,-174.72722 L396.8955,-174.77202 L398.32837,-174.78629 L399.7612,-174.77574 L401.19403,-174.73111 L402.62686,-174.6682 L404.0597,-174.61208 L405.49252,-174.56639 L406.92538,-174.53195 L408.35822,-174.50244 L409.79105,-174.48856 L411.22388,-174.496 L412.6567,-174.51326 L414.08954,-174.53049 L415.5224,-174.57146 L416.95523,-174.62724 L418.38806,-174.69868 L419.8209,-174.78006 L421.25372,-174.83353 L422.68655,-174.85258 L424.11942,-174.85211 L425.55225,-174.842 L426.98508,-174.81375 L428.4179,-174.77081 L429.85074,-174.72856 L431.28357,-174.6726 L432.71643,-174.6114 L434.14926,-174.54953 L435.5821,-174.49495 L437.01492,-174.42523 L438.44775,-174.35054 L439.88058,-174.28722 L441.31345,-174.23372 L442.74628,-174.19907 L444.1791,-174.16435 L445.61194,-174.13503 L447.04477,-174.11781 L448.4776,-174.1049 L449.91046,-174.07884 L451.3433,-174.05745 L452.77612,-174.05394 L454.20895,-174.05048 L455.64178,-174.03108 L457.07462,-174.01883 L458.50748,-174.00961 L459.9403,-174.00032 L461.37314,-173.98076 L462.80597,-173.95673 L464.2388,-173.93639 L465.67163,-173.92361 L467.1045,-173.90166 L468.53732,-173.87523 L469.97015,-173.84647 L471.40298,-173.8109 L472.83582,-173.76364 L474.26865,-173.70877 L475.7015,-173.6567 L477.13434,-173.60474 L478.56717,-173.5489 L480,-173.47505" fill="none" stroke="#0000ff" stroke-linejoin="round" stroke-width="2"/>
</g>
</g>
<g transform="translate(380, -322)">
<text font-size="12" text-anchor="start" x="0" y="0">
pitch
</text>
<line stroke="#0000ff" stroke-width="2" x1="-10" x2="-3" y1="-4" y2="-4"/>
</g>
<g>
<g>
<path d="M0,-184.10097 L0,-184.10097 L1.4328358,-184.08641 L2.8656716,-184.1024 L4.2985077,-184.11539 L5.7313433,-184.0951 L7.1641793,-184.09816 L8.597015,-184.10262 L10.029851,-184.11433 L11.462687,-184.12108 L12.895522,-184.13501 L14.328359,-184.12222 L15.761194,-184.1296 L17.19403,-184.14041 L18.626865,-184.10518 L20.059702,-184.09508 L21.492537,-184.0203 L22.925373,-183.95047 L24.35821,-183.8755 L25.791044,-183.81755 L27.22388,-183.76158 L28.656717,-183.70036 L30.089552,-183.65558 L31.522388,-183.65768 L32.955223,-183.67712 L34.38806,-183.67052 L35.820896,-183.67233 L37.25373,-183.66672 L38.686565,-183.67104 L40.119404,-183.68176 L41.55224,-183.67651 L42.985073,-183.6586 L44.41791,-183.6539 L45.850746,-183.63484 L47.28358,-183.61421 L48.71642,-183.6047 L50.149254,-183.59636 L51.58209,-183.67065 L53.014927,-183.74126 L54.44776,-183.81487 L55.880596,-183.89081 L57.313435,-183.96062 L58.74627,-184.05075 L60.179104,-184.17937 L61.61194,-184.28915 L63.044777,-184.37064 L64.477615,-184.42061 L65.910446,-184.45775 L67.343285,-184.5252 L68.77612,-184.58498 L70.208954,-184.6555 L71.64179,-184.74991 L73.07462,-184.83836 L74.50746,-184.91168 L75.9403,-184.93283 L77.37313,-184.87325 L78.80597,-184.69315 L80.23881,-184.53989 L81.67164,-184.39882 L83.10448,-184.26308 L84.537315,-184.18182 L85.970146,-184.14656 L87.402985,-184.16641 L88.83582,-184.20842 L90.268654,-184.25787 L91.70149,-184.30841 L93.13433,-184.35599 L94.56716,-184.396 L96,-184.42065 L97.43284,-184.4413 L98.86567,-184.46088 L100.29851,-184.48468 L101.731346,-184.50873 L103.16418,-184.51442 L104.597015,-184.50208 L106.029854,-184.47504 L107.462685,-184.432 L108.89552,-184.38535 L110.32836,-184.33945 L111.76119,-184.29776 L113.19403,-184.26 L114.62687,-184.30446 L116.0597,-184.33296 L117.49254,-184.3686 L118.92538,-184.42299 L120.35821,-184.4849 L121.791046,-184.53705 L123.22388,-184.59291 L124.656715,-184.67253 L126.089554,-184.7667 L127.522385,-184.85074 L128.95523,-184.90768 L130.38806,-184.96063 L131.82089,-185.07172 L133.25374,-185.1704 L134.68657,-185.24883 L136.1194,-185.33153 L137.55225,-185.45682 L138.98508,-185.55826 L140.41791,-185.61604 L141.85075,-185.65276 L143.28358,-185.67102 L144.71642,-185.73384 L146.14925,-185.73788 L147.58209,-185.69554 L149.01492,-185.62248 L150.44775,-185.54988 L151.8806,-185.47136 L153.31343,-185.4039 L154.74626,-185.3693 L156.17911,-185.3789 L157.61194,-185.45164 L159.04477,-185.53786 L160.47762,-185.62271 L161.91045,-185.72206 L163.34328,-185.83093 L164.77612,-185.95563 L166.20895,-186.07669 L167.64178,-186.17723 L169.07463,-186.25563 L170.50746,-186.33325 L171.94029,-186.42493 L173.37314,-186.54927 L174.80597,-186.67152 L176.2388,-186.8277 L177.67165,-186.96394 L179.10448,-187.09816 L180.53731,-187.25859 L181.97015,-187.44023 L183.40298,-187.62553 L184.83582,-187.83713 L186.26866,-188.0757 L187.70149,-188.30023 L189.13432,-188.48564 L190.56717,-188.68597 L192,-188.88524 L193.43283,-189.13658 L194.86568,-189.51619 L196.29851,-190.01851 L197.73134,-190.66408 L199.16418,-191.31732 L200.59702,-192.02057 L202.02985,-192.722 L203.46269,-193.43945 L204.89552,-194.08153 L206.32835,-194.80832 L207.7612,-195.52551 L209.19403,-196.36472 L210.62686,-197.22949 L212.05971,-198.04572 L213.49254,-198.78008 L214.92537,-199.53746 L216.35822,-200.31808 L217.79105,-201.21556 L219.22388,-202.2613 L220.65672,-203.621 L222.08955,-205.22424 L223.52238,-207.30577 L224.95523,-209.38464 L226.38806,-211.73715 L227.82089,-214.54285 L229.25374,-217.77563 L230.68657,-221.70163 L232.1194,-226.12325 L233.55225,-231.36707 L234.98508,-237.08154 L236.41791,-243.19904 L237.85075,-250.02937 L239.28358,-257.08383 L240.71642,-265.17227 L242.14925,-271.14374 L243.58209,-277.17374 L245.01492,-283.97858 L246.44775,-291.32776 L247.8806,-298.54575 L249.31343,-306.0652 L250.74626,-313.434 L252.17911,-320.42184 L253.61194,-327.28043 L255.04477,-333.90155 L256.4776,-340 L257.91046,0 L259.3433,-5.8407493 L260.77612,-11.233964 L262.20895,-16.077559 L263.64178,-20.071383 L265.07462,-23.780577 L266.50748,-27.792324 L267.9403,-31.922834 L269.37314,-36.099728 L270.80597,-40.36949 L272.2388,-43.960083 L273.67163,-47.533043 L275.1045,-50.76921 L276.53732,-53.154182 L277.97015,-55.795948 L279.40298,-58.89867 L280.83582,-62.086857 L282.26865,-65.03475 L283.7015,-67.91583 L285.13434,-71.3605 L286.56717,-74.968666 L288,-78.143845 L289.43283,-80.65059 L290.86566,-82.87009 L292.2985,-85.2612 L293.73135,-87.68119 L295.16418,-90.309784 L296.59702,-93.07135 L298.02985,-96.17998 L299.46268,-99.52411 L300.8955,-102.81735 L302.32837,-106.28289 L303.7612,-109.53267 L305.19403,-112.08691 L306.62686,-114.86299 L308.0597,-118.64835 L309.49252,-122.44404 L310.92538,-125.705795 L312.35822,-128.76828 L313.79105,-131.15022 L315.22388,-133.09369 L316.6567,-134.95305 L318.08954,-136.80861 L319.5224,-138.61978 L320.95523,-140.34647 L322.38806,-142.09314 L323.8209,-143.71361 L325.25372,-145.35388 L326.68655,-147.01727 L328.11942,-148.61241 L329.55225,-150.25183 L330.98508,-151.8165 L332.4179,-153.31119 L333.85074,-154.81483 L335.28357,-156.19325 L336.71643,-157.67169 L338.14926,-159.21298 L339.5821,-160.77138 L341.01492,-162.22722 L342.44775,-163.55211 L343.88058,-164.82538 L345.31345,-166.10056 L346.74628,-167.20491 L348.1791,-168.12296 L349.61194,-169.04076 L351.04477,-169.68983 L352.4776,-170.25719 L353.91046,-170.81265 L355.3433,-171.33717 L356.77612,-171.70892 L358.20895,-171.98041 L359.64178,-172.13101 L361.07462,-172.23552 L362.50748,-172.30972 L363.9403,-172.34375 L365.37314,-172.3538 L366.80597,-172.3508 L368.2388,-172.3364 L369.67163,-172.32281 L371.1045,-172.31126 L372.53732,-172.3091 L373.97015,-172.28221 L375.40298,-172.22972 L376.83582,-172.13478 L378.26865,-172.02899 L379.7015,-171.95712 L381.13434,-171.90451 L382.56717,-171.8522 L384,-171.73 L385.43283,-171.55872 L386.86566,-171.38669 L388.2985,-171.24796 L389.73135,-171.10847 L391.16418,-170.95851 L392.59702,-170.80046 L394.02985,-170.66167 L395.46268,-170.55795 L396.8955,-170.45499 L398.32837,-170.39839 L399.7612,-170.37541 L401.19403,-170.36156 L402.62686,-170.33818 L404.0597,-170.30278 L405.49252,-170.253 L406.92538,-170.16765 L408.35822,-170.0637 L409.79105,-169.95093 L411.22388,-169.8452 L412.6567,-169.74881 L414.08954,-169.65285 L415.5224,-169.57088 L416.95523,-169.46361 L418.38806,-169.31012 L419.8209,-169.1627 L421.25372,-169.04626 L422.68655,-168.94702 L424.11942,-168.90276 L425.55225,-168.881 L426.98508,-168.86627 L428.4179,-168.85414 L429.85074,-168.84328 L431.28357,-168.83963 L432.71643,-168.84195 L434.14926,-168.86089 L435.5821,-168.9096 L437.01492,-168.98929 L438.44775,-169.07668 L439.88058,-169.18895 L441.31345,-169.2993 L442.74628,-169.41539 L444.1791,-169.53123 L445.61194,-169.62549 L447.04477,-169.7171 L448.4776,-169.8148 L449.91046,-169.8908 L451.3433,-169.94485 L452.77612,-169.98984 L454.20895,-170.02713 L455.64178,-170.03949 L457.07462,-170.04851 L458.50748,-170.06422 L459.9403,-170.07817 L461.37314,-170.09705 L462.80597,-170.11922 L464.2388,-170.16675 L465.67163,-170.24005 L467.1045,-170.33417 L468.53732,-170.43808 L469.97015,-170.5592 L471.40298,-170.69778 L472.83582,-170.84824 L474.26865,-171.00108 L475.7015,-171.14941 L477.13434,-171.29716 L478.56717,-171.43199 L480,-171.5612" fill="none" stroke="#00ff00" stroke-linejoin="round" stroke-width="2"/>
</g>
</g>
<g transform="translate(380, -304)">
<text font-size="12" text-anchor="start" x="0" y="0">
yaw
</text>
<line stroke="#00ff00" stroke-width="2" x1="-10" x2="-3" y1="-4" y2="-4"/>
</g>
<g>
<g>
<line stroke="black" stroke-width="1" x1="-0.0000000003067304818098147" x2="-0.0000000003067304818098147" y1="0" y2="10"/>
<line stroke="black" stroke-width="1" x1="80.23880596982885" x2="80.23880596982885" y1="0" y2="10"/>
<line stroke="black" stroke-width="1" x1="160.47761193996442" x2="160.47761193996442" y1="0" y2="10"/>
<line stroke="black" stroke-width="1" x1="240.71641791009998" x2="240.71641791009998" y1="0" y2="10"/>
<line stroke="black" stroke-width="1" x1="320.95522388023556" x2="320.95522388023556" y1="0" y2="10"/>
<line stroke="black" stroke-width="1" x1="401.1940298503711" x2="401.1940298503711" y1="0" y2="10"/>
</g>
<line stroke="black" stroke-width="1" x1="0" x2="480" y1="0" y2="0"/>
<g>
<text font-size="12" text-anchor="middle" x="-0.0000000003067304818098147" y="20">
58
</text>
<text font-size="12" text-anchor="middle" x="80.23880596982885" y="20">
59
</text>
<text font-size="12" text-anchor="middle" x="160.47761193996442" y="20">
60
</text>
<text font-size="12" text-anchor="middle" x="240.71641791009998" y="20">
61
</text>
<text font-size="12" text-anchor="middle" x="320.95522388023556" y="20">
62
</text>
<text font-size="12" text-anchor="middle" x="401.1940298503711" y="20">
63
</text>
</g>
<text font-size="12" text-anchor="middle" x="240" y="30">
Time (s)
</text>
</g>
<g>
<g>
<line stroke="black" stroke-width="1" x1="0" x2="-10" y1="-76.71666937424928" y2="-76.71666937424928"/>
<line stroke="black" stroke-width="1" x1="0" x2="-10" y1="-172.75966058508698" y2="-172.75966058508698"/>
<line stroke="black" stroke-width="1" x1="0" x2="-10" y1="-268.8026517959247" y2="-268.8026517959247"/>
</g>
<line stroke="black" stroke-width="1" x1="0" x2="0" y1="0" y2="-340"/>
<g>
<text dominant-baseline="middle" font-size="12" text-anchor="end" x="-15" y="-76.71666937424928">
-100
</text>
<text dominant-baseline="middle" font-size="12" text-anchor="end" x="-15" y="-172.75966058508698">
0
</text>
<text dominant-baseline="middle" font-size="12" text-anchor="end" x="-15" y="-268.8026517959247">
100
</text>
</g>
<text font-size="12" text-anchor="middle" transform="rotate(-90 -48 -170)" x="-48" y="-182">
Angle (dgr)
</text>
</g>
</g>
</svg>